<svg id="Layer_1" data-name="Layer 1" xmlns="http://www.w3.org/2000/svg" xmlns:xlink="http://www.w3.org/1999/xlink" viewBox="0 0 755.59 497.71"><defs><style>.cls-1,.cls-8{fill:none;}.cls-2{opacity:0.12;}.cls-3{fill:#1f6870;}.cls-4{fill:#f8b271;}.cls-5{clip-path:url(#clip-path);}.cls-6{fill:#208c91;}.cls-7{fill:#fff;}.cls-8{stroke:#f8b271;stroke-miterlimit:10;stroke-width:3px;}</style><clipPath id="clip-path" transform="translate(62.95 24.57)"><rect class="cls-1" x="-10" y="-6.42" width="615.44" height="287.44"/></clipPath></defs><title>37683_Letterhead1_H</title><g class="cls-2"><path class="cls-3" d="M219.91,377.68c8.91,1.93,20,3.82,33.3,6.69,21.6,4.65,18.57,14.93,4.45,31.16C246,429,224.18,451,218.32,456.38c-9.61,8.83-7.6,16.26.47,16.26l21.88.16c6.81,0,10.63-2.27,12.84-6.8S262,448.93,262,448.93l22.28,16.56,42.88,0V464s-29.76-13.44-43.56-23.78c-11.09-8.32-6.87-16.7-2.81-24.88,4.59-9.26,8.85-21.68-6.93-33.18-10.92-8-22-8.55-42.21-11.66L222.16,369c-2.27-.38-5.43,1.26-6.08,3.23-.57,1.73.87,4.81,3.12,5.3Z" transform="translate(62.95 24.57)"/><path class="cls-4" d="M240.74,473.13H219.89c-4.15,0-7-1.48-7.91-4.17-1.24-3.5,1.06-8.18,6.5-13.18s27.34-27.12,39.2-40.77c8.45-9.72,11.85-16.76,10.38-21.53-1.22-4-6.06-6.89-14.38-8.68-7.34-1.58-14.4-2.95-20.07-4-4.76-.92-9.68-1.87-13.88-2.78a5.25,5.25,0,0,1-3.55-2.62,4.38,4.38,0,0,1-.35-3.47c.67-2,2.88-3.34,5.63-3.34a8.36,8.36,0,0,1,1.39.12l8,1.36c3,.45,5.73.85,8.34,1.23,15.25,2.2,25.32,3.65,34.89,10.62,15.85,11.55,12,24.1,6.94,33.75-4.21,8-7.72,17.13,3.93,25.12,13.65,9.36,40.77,22.23,41.66,22.56a1.47,1.47,0,0,1,1,.69,1.4,1.4,0,0,1,.1,1,.77.77,0,0,1-.21.46,1.86,1.86,0,0,1-1.39.43h-41.4a1.27,1.27,0,0,1-.76-.25l-21.81-16.24c-1.91,3.8-6.68,13.28-8.41,16.85C251.24,471.4,248,473.13,240.74,473.13ZM221.46,369.2c-2.47,0-4.43,1.14-5,2.89a3.74,3.74,0,0,0,.31,3,4.62,4.62,0,0,0,3.11,2.29c4.19.91,9.11,1.86,13.87,2.78,5.67,1.1,12.74,2.47,20.08,4,8.57,1.85,13.57,4.92,14.87,9.13,1.54,5-1.9,12.24-10.51,22.15-11.88,13.66-33.68,35.7-39.25,40.82-5.23,4.81-7.48,9.24-6.33,12.48.86,2.41,3.45,3.74,7.3,3.74h20.85c6.92,0,10.05-1.64,12.42-6.5,1.79-3.68,6.81-13.67,8.59-17.2l.17-.35,22.43,16.7a.62.62,0,0,0,.37.12h41.4c.75,0,.95-.21,1-.29v-.07l0,0a.77.77,0,0,0,0-.55.89.89,0,0,0-.61-.38c-.13,0-27.64-12.91-41.85-22.65-12.09-8.29-8.47-17.75-4.14-26,5-9.42,8.7-21.67-6.75-32.92-9.44-6.87-19.45-8.32-34.6-10.5-2.62-.38-5.39-.78-8.35-1.23l-8-1.36A7.73,7.73,0,0,0,221.46,369.2ZM220,471.87c-3.48,0-5.85-1.12-6.66-3.17-1.17-2.92,1-7.3,5.95-12,6.11-5.82,27.86-27.87,39.32-40.86,9.09-10.31,12.51-17.57,10.76-22.87-1.44-4.38-6.49-7.45-15.42-9.37-7.17-1.54-13.88-2.91-19.81-4.12-5-1-9.82-2-13.93-2.89a4.17,4.17,0,0,1-2.84-1.82,2.81,2.81,0,0,1-.2-2.33c.55-1.67,1.91-2.49,4.16-2.49h.17c.4,0,7.69,1.18,9.15,1.42l5,.76c17.58,2.66,28.19,4.26,37.59,10.9,11.54,8.15,13.64,18.57,6.42,31.86-4.45,8.19-8,18.69,4.51,27.25,14,9.62,40.94,22,41.22,22.15l1.35.62H284.61l-.09-.07L261.57,447.4c-1.11,2.18-7.17,14.08-9.16,18.16-2.34,4.8-5,6.19-11.66,6.19Zm1.33-101.29c-2,0-3.08.65-3.54,2a2.18,2.18,0,0,0,.14,1.81,3.55,3.55,0,0,0,2.42,1.51c4.11.89,8.88,1.86,13.92,2.89,5.93,1.21,12.64,2.58,19.81,4.12,9.18,2,14.38,5.18,15.9,9.8,1.82,5.54-1.64,13-10.89,23.51-11.48,13-33.24,35.08-39.36,40.91-4.75,4.52-6.86,8.64-5.79,11.3.71,1.78,2.86,2.76,6.06,2.76l20.71-.12c6.47,0,8.85-1.25,11.08-5.83s9.27-18.38,9.34-18.52l.18-.35,23.48,17.82h39c-5.63-2.64-27.7-13.16-40-21.58-13.05-9-8.94-20.32-4.72-28.1,7-12.94,5-23.09-6.22-31-9.27-6.55-19.82-8.14-37.31-10.78l-5-.76c-3.45-.56-8.7-1.4-9-1.41Z" transform="translate(62.95 24.57)"/><path class="cls-3" d="M290.65,426.73c-.75,5.86-3.07,5.77-6.73,1.78-3.42-3.73-4-13.53,12-22.77,25-14.44,70.42-12.29,78.43-21.43a27.76,27.76,0,0,0,4.68.48c1.26,0,3.5-.28,3.5-.28s-3.12,7.86-20,11.41c-16.48,3.47-35.34,5.11-48.31,10.81s-22.11,8.91-23.53,20" transform="translate(62.95 24.57)"/><path class="cls-4" d="M288.07,431.67c-1.15,0-2.57-1-4.39-2.94a8.88,8.88,0,0,1-1.93-7.42c.6-3.9,3.51-9.81,14-15.85,13.46-7.78,33.19-10.82,49-13.26,13.78-2.12,25.68-4,29.31-8.11l.12-.14.18,0a27.59,27.59,0,0,0,4.62.47c1.23,0,3.43-.28,3.46-.28l.55-.07-.2.51c-.13.33-3.38,8.06-20.23,11.61-5,1.06-10.39,2-15.57,2.84-11.66,2-23.72,4-32.68,7.95l-2.57,1.12c-11.72,5.1-19.47,8.46-20.77,18.64-.37,2.86-1.12,4.43-2.32,4.81A1.94,1.94,0,0,1,288.07,431.67Zm86.36-47c-3.93,4.23-15.82,6.06-29.58,8.18-15.8,2.43-35.46,5.46-48.81,13.18-10.23,5.91-13.06,11.63-13.64,15.39a8.34,8.34,0,0,0,1.76,6.88c1.9,2.08,3.36,3,4.3,2.67s1.54-1.73,1.87-4.27c1.35-10.54,9.66-14.15,21.16-19.15l2.57-1.12c9-4,21.14-6,32.84-8,5.16-.87,10.51-1.78,15.54-2.84,14-2.94,18.44-8.91,19.49-10.7-.76.09-2.06.21-2.93.21A27.52,27.52,0,0,1,374.43,384.65Z" transform="translate(62.95 24.57)"/><path class="cls-3" d="M374.31,384.3a27.73,27.73,0,0,0,4.68.48c1.26,0,3.5-.28,3.5-.28s-3.12,7.86-20,11.41c-16.48,3.47-35.74,4.67-48.71,10.36s-21.72,9.36-23.14,20.47c-.41,3.19-1.28,4.61-2.58,4.61-1.09,0-2.48-1-4.15-2.84-3.42-3.73-4-13.53,12-22.77,25-14.44,70.42-12.29,78.43-21.43m0-1a1,1,0,0,0-.72.33c-3.48,4-15.28,5.79-28.93,7.9-15.9,2.45-35.7,5.5-49.25,13.33-10.76,6.22-13.72,12.39-14.31,16.48a9.59,9.59,0,0,0,2.13,7.91c2,2.15,3.51,3.15,4.86,3.15,2.84,0,3.37-4.14,3.54-5.5,1.25-9.77,8.71-13.41,20.23-18.41l2.48-1.1c8.89-3.91,21.15-5.63,32.77-7.59,5.18-.88,10.54-1.78,15.6-2.85,17.18-3.62,20.56-11.68,20.7-12a1.07,1.07,0,0,0-.12-1,1,1,0,0,0-.78-.41h-.12s-2.19.28-3.38.28a27,27,0,0,1-4.51-.46l-.18,0" transform="translate(62.95 24.57)"/><path class="cls-4" d="M288.08,432.69c-1.44,0-3.06-1-5.1-3.25a9.91,9.91,0,0,1-2.21-8.18c.6-4.16,3.6-10.43,14.47-16.71,13.62-7.87,33.44-10.92,49.36-13.37,13.62-2.1,25.34-3.91,28.74-7.79a1.31,1.31,0,0,1,1.21-.41,26.86,26.86,0,0,0,4.44.45c1.13,0,3.2-.25,3.33-.27h.17a1.29,1.29,0,0,1,1,.54,1.4,1.4,0,0,1,.16,1.33c-.14.35-3.57,8.57-20.93,12.22-5,1.05-10.28,1.95-15.39,2.81l-.22,0c-18.32,3.1-29.82,5.93-35.16,8.66l-3.18,1.61c-9.49,4.76-15.76,7.91-16.87,16.56C291.76,428.34,291.2,432.69,288.08,432.69Zm86.23-49.1a.63.63,0,0,0-.47.22c-3.55,4.06-15.39,5.89-29.09,8-15.91,2.45-35.67,5.49-49.18,13.3-10.65,6.16-13.57,12.23-14.15,16.24a9.27,9.27,0,0,0,2,7.64c1.9,2.08,3.37,3,4.62,3,2.55,0,3.06-3.93,3.22-5.22,1.15-9,7.89-12.37,17.22-17.05l3.18-1.61c5.4-2.76,17-5.62,35.34-8.72l.22,0c5.1-.87,10.38-1.76,15.36-2.81,17-3.58,20.33-11.49,20.46-11.82a.75.75,0,0,0-.08-.71.63.63,0,0,0-.51-.27h-.1a33.7,33.7,0,0,1-3.4.28,27.18,27.18,0,0,1-4.58-.47Zm-86.23,48.07c-1.16,0-2.56-.94-4.39-2.94a8.88,8.88,0,0,1-1.93-7.42c.6-3.9,3.51-9.81,14-15.85,13.44-7.77,32.4-10.77,49.14-13.43,13.77-2.18,25.68-4.07,29.43-8.16v0h0l.06-.07.13.11a21.91,21.91,0,0,0,4.5.58c1.23,0,3.43-.28,3.46-.28l.55-.07-.2.51c-.13.33-3.38,8.07-20.23,11.61-2.64.55-5.55,1.09-9.16,1.69-2.52.42-5,.8-7.57,1.19l-2.61.4c-3.38.52-6.87,1.06-10.29,1.67l-3.22.6a104,104,0,0,0-10.36,2.76,78.52,78.52,0,0,0-10.23,3.75c-.93.44-1.87.9-2.79,1.37s-1.82,1-2.71,1.46-1.71,1-2.52,1.5c-2.78,1.75-6.22,4.25-8.11,8a21.22,21.22,0,0,0-2,6.14C290.48,430.16,289.58,431.67,288.08,431.67Zm86.44-47.13c-4.14,4.09-15.95,6-29.57,8.12-16.68,2.65-35.58,5.64-48.91,13.35-10.23,5.91-13.06,11.63-13.64,15.39a8.34,8.34,0,0,0,1.76,6.88c1.66,1.81,3,2.73,3.91,2.73.69,0,1.68-.45,2.26-4.34a21.88,21.88,0,0,1,2.08-6.34c2-3.9,5.49-6.47,8.35-8.27.82-.52,1.68-1,2.54-1.52s1.81-1,2.73-1.47,1.88-.94,2.81-1.38a79.37,79.37,0,0,1,10.32-3.79,105,105,0,0,1,10.42-2.77l3.23-.61c3.43-.61,6.93-1.15,10.31-1.67l2.61-.4c2.52-.39,5-.77,7.57-1.19,3.6-.59,6.5-1.13,9.14-1.68,14-2.94,18.44-8.91,19.49-10.7-.76.09-2.06.21-2.93.21A21.93,21.93,0,0,1,374.52,384.54Z" transform="translate(62.95 24.57)"/><path class="cls-3" d="M308.31,446.62c-3.66-.11-8.07-2.08-7.7-6.44s-.27-6.81-.65-10.35-.62-6.45,2.09-8.66c4.13-3.36,10.27-4.86,16.36-4.44s9.29,5.55,7.24,7.65-10.38.48-13.08,2.53c-3.7,2.79-2.23,7.29,1.29,6.48s7.32-2.81,8-1.74c1.82,3.07-1.47,4.48-4.38,4.88s-5.11,1-4.73,3.88,1.17,6.38-4.4,6.22" transform="translate(62.95 24.57)"/><path class="cls-4" d="M308.68,446.95h-.38c-2.13-.06-5-.8-6.68-2.69a5.26,5.26,0,0,1-1.33-4.1,32.28,32.28,0,0,0-.35-7.86c-.11-.77-.21-1.57-.31-2.43-.36-3.38-.71-6.58,2.21-8.94,4.07-3.31,10.12-5,16.59-4.51,4.22.29,7,2.78,7.88,5a3,3,0,0,1-.43,3.23c-1.12,1.16-3.78,1.27-6.6,1.39-2.59.11-5.26.22-6.52,1.17-2,1.53-2.34,3.51-1.78,4.71a2.3,2.3,0,0,0,2.8,1.19c1.23-.28,2.52-.72,3.67-1.11,2.38-.81,4.1-1.39,4.64-.48a2.92,2.92,0,0,1,.33,2.85c-.86,1.78-3.75,2.35-4.95,2.51-3.2.43-4.77,1.1-4.45,3.52l.06.44c.24,1.71.51,3.66-.61,4.91C311.74,446.54,310.49,446.95,308.68,446.95Zm-.36-.65c1.81.06,3-.28,3.68-1,.92-1,.68-2.73.45-4.38l-.06-.45c-.43-3.24,2.24-3.87,5-4.25,2.28-.31,3.95-1.11,4.45-2.15a2.32,2.32,0,0,0-.31-2.24c-.28-.47-2.27.22-3.87.76-1.16.39-2.47.84-3.73,1.13a3,3,0,0,1-3.53-1.55c-.67-1.43-.33-3.76,2-5.5,1.42-1.07,4.19-1.19,6.88-1.3s5.22-.22,6.16-1.19a2.34,2.34,0,0,0,.29-2.55c-.77-2-3.38-4.28-7.32-4.55-6.22-.41-12.25,1.2-16.14,4.36-2.64,2.14-2.33,5-2,8.37.09.85.2,1.64.3,2.41a32.87,32.87,0,0,1,.35,8,4.64,4.64,0,0,0,1.16,3.61c1.55,1.73,4.23,2.41,6.22,2.47Z" transform="translate(62.95 24.57)"/><path class="cls-3" d="M316.4,416.05c-5.93,0-11.46,1.73-15.18,4.75-3,2.44-2.65,5.65-2.28,9.06.09.86.2,1.66.31,2.44a32,32,0,0,1,.35,7.85,5.64,5.64,0,0,0,2.74,5.35,11.67,11.67,0,0,0,5.93,1.73h.42a6.94,6.94,0,0,0,3.78-.88c1.93-1.25,1.61-3.54,1.33-5.56l-.06-.45c-.33-2.47,1.34-2.89,3.94-3.24a8.45,8.45,0,0,0,5-2,2.81,2.81,0,0,0,.16-3.63,1.91,1.91,0,0,0-1.71-.71,14.09,14.09,0,0,0-4,1,37.18,37.18,0,0,1-3.56,1.08,2,2,0,0,1-.44.06,1.42,1.42,0,0,1-1.1-.58c-1-1.17-.68-3.42,1.42-5,1.06-.8,3.55-.9,6-1,2.89-.12,5.89-.25,7.19-1.59s.95-3.27-.6-5.11a10.57,10.57,0,0,0-7.41-3.46c-.7,0-1.42-.07-2.12-.07" transform="translate(62.95 24.57)"/><path class="cls-4" d="M308.68,447.56h-.42a12,12,0,0,1-6.11-1.78,6,6,0,0,1-2.89-5.65,31.61,31.61,0,0,0-.35-7.78c-.11-.78-.22-1.58-.31-2.45-.38-3.49-.74-6.79,2.4-9.34,3.78-3.07,9.38-4.83,15.38-4.83.73,0,1.46,0,2.15.07a10.87,10.87,0,0,1,7.64,3.57c1.66,2,1.89,4.2.58,5.54s-4.44,1.56-7.39,1.69c-2.27.1-4.83.2-5.81.94a4.28,4.28,0,0,0-1.79,2.81,2.29,2.29,0,0,0,.43,1.74,1.1,1.1,0,0,0,1.21.41c1.2-.28,2.55-.74,3.53-1.07a14.24,14.24,0,0,1,4.13-1,2.22,2.22,0,0,1,2,.87,3.14,3.14,0,0,1-.2,4,8.75,8.75,0,0,1-5.15,2.15c-2.7.37-3.94.77-3.66,2.88l.06.45c.28,2,.63,4.51-1.48,5.88A7.25,7.25,0,0,1,308.68,447.56Zm7.72-31.18c-5.85,0-11.31,1.71-15,4.68-2.86,2.33-2.52,5.45-2.17,8.77.09.86.2,1.66.31,2.43a32.21,32.21,0,0,1,.35,7.92,5.34,5.34,0,0,0,2.6,5.05,11.34,11.34,0,0,0,5.76,1.68h.41a6.62,6.62,0,0,0,3.6-.82c1.76-1.14,1.47-3.22,1.19-5.24l-.06-.45c-.4-3,2.05-3.31,4.21-3.61a8.15,8.15,0,0,0,4.76-1.94,2.49,2.49,0,0,0,.12-3.25,1.64,1.64,0,0,0-1.43-.55,14,14,0,0,0-3.92,1,37.33,37.33,0,0,1-3.59,1.09,1.74,1.74,0,0,1-1.86-.63,2.93,2.93,0,0,1-.57-2.23,4.92,4.92,0,0,1,2-3.25c1.14-.86,3.69-1,6.15-1.07,2.84-.12,5.76-.24,7-1.49,1.06-1.09.82-3-.61-4.67a10.23,10.23,0,0,0-7.18-3.34C317.83,416.4,317.12,416.38,316.4,416.38Zm-8,30.09H308c-1.36-.06-4.74-.85-6.54-2.89a4.44,4.44,0,0,1-1.15-3.42,31.92,31.92,0,0,0-.35-7.86c-.11-.78-.21-1.57-.31-2.43-.37-3.41-.42-6.21,2.51-8.58,3.62-2.94,8.6-4.48,14.42-4.46,4.83,0,8.5,2.48,9.52,4.85a2.33,2.33,0,0,1-.32,2.68c-1.13,1.16-3.67,1.15-6.36,1.14-2.48,0-5.06,0-6.32.93-2.14,1.62-2.85,4.36-2.28,6a1.65,1.65,0,0,0,1.62,1.21,25.74,25.74,0,0,0,4.24-1.07,23.16,23.16,0,0,1,4.33-1.07,1.22,1.22,0,0,1,1.15.54,2.54,2.54,0,0,1,0,2.34c-.61,1.08-2.17,1.79-4.65,2.13-3.43.46-4.76,1.63-4.46,3.89s0,3.77-1,4.8A4.74,4.74,0,0,1,308.4,446.47Zm8-29c-5.58,0-10.37,1.49-13.84,4.31-2.67,2.17-2.63,4.69-2.27,8,.09.86.2,1.65.3,2.42a32.93,32.93,0,0,1,.35,8,3.81,3.81,0,0,0,1,2.93c1.64,1.87,4.86,2.62,6.08,2.67a4.41,4.41,0,0,0,3.57-1.09c.8-.87,1.07-2.31.81-4.27-.46-3.47,2.64-4.3,5-4.62s3.67-.93,4.17-1.8a1.9,1.9,0,0,0,0-1.76.83.83,0,0,0-.55-.14,24.16,24.16,0,0,0-4.14,1,24.85,24.85,0,0,1-4.41,1.1,2.25,2.25,0,0,1-2.25-1.65c-.64-1.83.13-4.92,2.51-6.71,1.43-1.08,4.11-1.07,6.71-1.06,2.43,0,5,0,5.89-.94a1.73,1.73,0,0,0,.19-2c-.95-2.21-4.54-4.46-8.93-4.46h-.16Z" transform="translate(62.95 24.57)"/><path class="cls-3" d="M368.44,446.65c-6.09,0-13.15-1.21-13.19-7.63s-1.65-15.23-1-18.24,4.2-4.21,6.77-4.14,9.71,1.62,6.77,11.32c-1.29,4.25-4.18,9.41-2.78,10.72,2,1.84,7.91,1.14,10.15.31s4.93-.43,5.64,1.46,0,6.2-12.39,6.2" transform="translate(62.95 24.57)"/><path class="cls-4" d="M368.44,447c-8.94,0-13.48-2.68-13.52-8,0-2.79-.33-6-.63-9.06-.39-4-.73-7.51-.33-9.26.76-3.35,4.69-4.49,7.1-4.39.73,0,4.48.27,6.51,3.09,1.49,2.07,1.68,5,.57,8.66-.4,1.33-1,2.74-1.49,4.1-1.07,2.72-2.18,5.53-1.38,6.29,1.84,1.73,7.72,1,9.82.24,2.3-.85,5.27-.46,6.05,1.65a3.43,3.43,0,0,1-.44,3.19C379.6,445.1,376.58,447,368.44,447Zm-7.6-30c-2.23,0-5.59,1-6.24,3.89-.37,1.64,0,5.24.35,9,.3,3.1.61,6.3.63,9.12,0,4.85,4.36,7.31,12.87,7.31,7.87,0,10.72-1.72,11.72-3.17a2.79,2.79,0,0,0,.37-2.59c-.65-1.73-3.21-2-5.22-1.26-2.16.8-8.34,1.64-10.49-.38-1.12-1.06,0-3.81,1.22-7,.53-1.35,1.08-2.75,1.48-4.05,1.05-3.47.89-6.19-.47-8.09-1.85-2.57-5.32-2.8-6-2.82Z" transform="translate(62.95 24.57)"/><path class="cls-3" d="M361.87,421.53c.08,0-.81-1.18-.73-1.18,2.57.07,6.88-2.56,3.94,7.15-1.29,4.25-3.14,10.42-1.75,11.73.91.86,2.64,3.09,4.51,3.09a32.29,32.29,0,0,0,7.31-.93,6.51,6.51,0,0,1,2.11-.73c1.54,0,1.07-.58,1.54.69.7,1.88,2.29,4.55-10.15,4.55-6.09,0-10.56-.89-10.6-7.31-.06-8.53,0-11.08,1.22-16.32.66-2.92-.68-1.91,1.87-1.91m-.31-4.29c-3,0-6.65,1.45-7.37,4.63-.4,1.76-.06,5.25.33,9.29.3,3.08.61,6.27.63,9.05,0,3.75,2.48,8.21,14,8.21,5.89,0,9.92-.94,12-2.79a3.7,3.7,0,0,0,1.21-4.14c-.53-1.42-2.14-2.3-4.2-2.3a7.72,7.72,0,0,0-2.65.48,17.31,17.31,0,0,1-5.21.78c-1.86,0-3.24-.33-3.87-.93s.47-3.71,1.43-6.15c.54-1.36,1.09-2.77,1.5-4.11,1.33-4.4.81-7.71-1.56-9.82a9.9,9.9,0,0,0-6-2.2h-.27" transform="translate(62.95 24.57)"/><path class="cls-4" d="M368.44,447.56c-11.82,0-14.33-4.64-14.36-8.53,0-2.78-.33-6-.63-9-.4-4.11-.73-7.59-.32-9.39.76-3.36,4.52-4.88,7.69-4.88h.27A10.23,10.23,0,0,1,367.3,418c2.47,2.2,3,5.62,1.65,10.16-.4,1.32-.94,2.7-1.47,4l0,.09c-.73,1.84-2.08,5.26-1.51,5.79s1.7.75,3.66.84a14.49,14.49,0,0,0,4.08-.69c3.09-.8,6.59-1.7,8.45,1.75a4.28,4.28,0,0,1-1.49,4.67C378.51,446.59,374.4,447.56,368.44,447.56Zm-7.61-31.18c-2.92,0-6.37,1.37-7.06,4.38-.39,1.7-.05,5.13.33,9.1.31,3.16.62,6.35.64,9.16,0,5.16,4.77,7.89,13.71,7.89,5.8,0,9.76-.91,11.77-2.71a3.74,3.74,0,0,0,1.36-3.88c-1.62-3-4.58-2.24-7.72-1.43a15.23,15.23,0,0,1-4.28.71c-2.18-.1-3.43-.41-4.08-1-.82-.77,0-3.18,1.35-6.5l0-.09c.52-1.33,1.06-2.7,1.45-4,1.29-4.27.8-7.46-1.46-9.49a9.56,9.56,0,0,0-5.79-2.12Zm6.57,29.85c-5,0-8.19-.88-10.11-2.73a6.41,6.41,0,0,1-1.88-4.76c0-2.8-.34-6-.62-8.81-.38-3.77-.7-7-.31-8.76s3.16-3.89,6.12-3.95h0c3.2.09,5.37,1,6.61,2.7s1.46,4.58.39,8.11c-.38,1.25-.86,2.56-1.32,3.83-1,2.84-2.12,5.77-1.47,6.78s3,1.47,4.84,1.47a15,15,0,0,0,5.09-.87,5.32,5.32,0,0,1,2.06-.39c1.19,0,3.41,0,4,1.59a2.63,2.63,0,0,1-.29,2.47c-1.35,2-5.34,3.11-11.86,3.29Zm-6.79-28.36c-2.62.06-5.14,1.93-5.49,3.44s0,5,.32,8.55c.28,2.83.6,6,.62,8.87a5.78,5.78,0,0,0,1.68,4.3c1.91,1.85,5.47,2.68,10.9,2.52,7.84-.22,10.49-1.75,11.34-3a2,2,0,0,0,.22-1.88c-.4-1.08-2-1.17-3.39-1.17a4.7,4.7,0,0,0-1.84.35,15.69,15.69,0,0,1-5.31.91c-1.72,0-4.61-.56-5.39-1.77s.22-4.1,1.41-7.36c.46-1.26.94-2.56,1.31-3.79,1-3.33.91-5.87-.29-7.54S363.59,418,360.61,417.87Z" transform="translate(62.95 24.57)"/><path class="cls-3" d="M352.22,435c-.55-5.08-3.4-9.54-6.22-15s-9.59-3.81-12.37-1c-7.13,7.34-7.34,17.65-7.75,23.56s2.09,6.55,5.07,6.5c6.61-.12,4.31-3.45,4.42-5.94.07-1.7.73-1.87,1.8-1.93a43.35,43.35,0,0,0,5.16-.74c1.67-.35,1.5,1.95,1.46,3.84s.21,4,5,3.54,4.25-5.42,3.45-12.84m-10.63,2c-2.54.62-5.75,1.27-6.31.2s1.15-2.47.6-5.82c-.27-1.66-.55-3.11,1.17-3.52s3.27-1.12,4.13.79c1.24,2.73,2.94,7.72.4,8.35" transform="translate(62.95 24.57)"/><path class="cls-4" d="M330.64,449a5.09,5.09,0,0,1-3.85-1.24c-1-1.07-1.42-2.91-1.22-5.61,0-.56.07-1.16.11-1.78.34-5.95.87-14.94,7.4-21.66a10.38,10.38,0,0,1,8.33-2.85,6.38,6.38,0,0,1,4.89,3.56c.51,1,1,1.94,1.51,2.87,2.3,4.32,4.29,8.06,4.74,12.29h0c.58,5.36,1,9.6-.69,11.73a4.24,4.24,0,0,1-3.05,1.47c-2.13.21-3.58-.07-4.42-.84a3.78,3.78,0,0,1-.92-3v-.4c0-1.16.06-2.61-.44-3a.71.71,0,0,0-.64-.1,43.58,43.58,0,0,1-5.21.75c-1,.05-1.43.14-1.49,1.62a8.68,8.68,0,0,0,.15,1.6c.18,1.18.36,2.4-.42,3.32s-2.15,1.29-4.47,1.33Zm9.59-32.58a10,10,0,0,0-6.69,2.74c-6.37,6.55-6.88,15.4-7.22,21.25,0,.63-.07,1.23-.11,1.79-.18,2.51.16,4.19,1,5.12a4.72,4.72,0,0,0,3.69,1c2.09,0,3.39-.4,4-1.1s.44-1.72.27-2.8a9.12,9.12,0,0,1-.15-1.73c.08-2,1-2.18,2.11-2.24a43,43,0,0,0,5.11-.74,1.35,1.35,0,0,1,1.19.23c.74.62.71,2.1.67,3.54v.39a3.25,3.25,0,0,0,.71,2.54c.69.64,2,.86,3.92.67a3.63,3.63,0,0,0,2.61-1.23c1.55-1.91,1.11-6,.54-11.25h0c-.44-4.1-2.4-7.79-4.67-12-.5-.93-1-1.89-1.51-2.88a5.76,5.76,0,0,0-4.4-3.22A7.31,7.31,0,0,0,340.23,416.4ZM337,437.68c-1,0-1.68-.21-2-.75a2.4,2.4,0,0,1,.15-1.92,7.59,7.59,0,0,0,.42-4l0-.1c-.27-1.63-.55-3.31,1.43-3.79l.63-.16c1.48-.39,3-.79,3.87,1.13.76,1.67,2.42,5.78,1.45,7.77a1.84,1.84,0,0,1-1.27,1h0A22.07,22.07,0,0,1,337,437.68Zm2.48-10.38a7.06,7.06,0,0,0-1.65.3l-.65.16c-1.33.32-1.24,1.27-.94,3.05l0,.1a8.17,8.17,0,0,1-.45,4.3c-.24.71-.36,1.1-.19,1.42.33.64,2.33.52,5.94-.37h0a1.2,1.2,0,0,0,.84-.68c.69-1.42-.3-4.66-1.46-7.22A1.49,1.49,0,0,0,339.44,427.29Z" transform="translate(62.95 24.57)"/><path class="cls-3" d="M340.27,416.78c2.27,0,4.44.24,5.74,2.77,2.82,5.5,5.67,10,6.22,15,.8,7.42,1.33,12.37-3.45,12.84-.46,0-.88.07-1.26.07-3.56,0-3.75-1.9-3.72-3.61S344,440,342.65,440a1.44,1.44,0,0,0-.32,0,43.81,43.81,0,0,1-5.16.74c-1.07.06-1.73.23-1.8,1.93-.11,2.49,2.19,5.82-4.42,5.94h-.31c-2.84,0-5.17-.8-4.76-6.5a34.47,34.47,0,0,1,9.51-21.86c1.5-1.54,2.21-3.52,4.87-3.52m-2.39,21.54c1.29,0,2.94-1.12,4.5-1.5,2.54-.62.94-7.43-.72-9.72a4.66,4.66,0,0,0-2.73-1.77,18.4,18.4,0,0,0-2.88.73c-1.72.41-3.5,3.46-1.54,4.91,2.81,2.08-1.5,6.71-.93,7.8.22.42,2.56-.69,3.38-.69m3.28-22.6a11.22,11.22,0,0,0-7.61,3.09c-6.59,6.78-7.11,15.8-7.46,21.77,0,.63-.07,1.23-.11,1.79-.22,3.13.33,5.08,1.75,6.15a6.34,6.34,0,0,0,3.85,1H331c2.17,0,3.66-.41,4.56-1.14,1.25-1,1-2.43.82-3.79a8.72,8.72,0,0,1-.15-1.58c.05-1.3.32-1.31,1-1.35a44.89,44.89,0,0,0,5.33-.76h.06c.4.31.36,2,.34,2.88v.39a3.69,3.69,0,0,0,1.26,3.38,5.58,5.58,0,0,0,3.3.83,13.64,13.64,0,0,0,1.37-.07c5.56-.55,5-5.69,4.17-13.48-.46-4.25-2.45-8-4.75-12.33-.5-.93-1-1.89-1.51-2.88a7.07,7.07,0,0,0-6.56-3.87m-3.28,21.28c-.23,0-.78,0-.87-.18s0-.72.2-1.32a8.27,8.27,0,0,0,.45-4.35l0-.1c-.29-1.76-.32-2.55.63-2.78l.66-.17a6.5,6.5,0,0,1,1.43-.28c.19,0,.6,0,1,.85,1.82,4,2.21,7.28.93,7.6a22,22,0,0,1-4.38.74" transform="translate(62.95 24.57)"/><path class="cls-4" d="M330.65,449.58a6.63,6.63,0,0,1-4-1c-1.51-1.14-2.1-3.18-1.88-6.43,0-.56.07-1.15.11-1.78.35-6,.88-15.11,7.55-22a11.57,11.57,0,0,1,7.84-3.19,7.38,7.38,0,0,1,6.85,4c.47.91.93,1.79,1.39,2.64l.12.23c2.32,4.36,4.32,8.13,4.79,12.45.62,5.71,1.06,9.83-.79,12.11a5.1,5.1,0,0,1-3.67,1.73c-.48,0-1,.07-1.4.07a5.88,5.88,0,0,1-3.49-.9,4.07,4.07,0,0,1-1.4-3.65v-.39a7.83,7.83,0,0,0-.15-2.51,45.57,45.57,0,0,1-5.23.74c-.63,0-.68,0-.72,1a7.87,7.87,0,0,0,.13,1.42v.1c.21,1.38.46,3-.94,4.09-.95.78-2.5,1.18-4.75,1.22Zm9.58-33.78a10.88,10.88,0,0,0-7.38,3c-6.5,6.69-7,15.63-7.37,21.55,0,.64-.07,1.24-.11,1.8-.21,3,.3,4.87,1.62,5.87a6,6,0,0,0,3.66.92H331c2.1,0,3.52-.39,4.36-1.07,1.11-.91.91-2.16.71-3.49l0-.1a8.4,8.4,0,0,1-.13-1.54c.06-1.45.44-1.61,1.34-1.66a43.9,43.9,0,0,0,5.28-.76l.15,0,.18.08c.45.35.51,1.46.47,3.14v.39a3.37,3.37,0,0,0,1.13,3.11,5.28,5.28,0,0,0,3.11.77,13.28,13.28,0,0,0,1.34-.07,4.5,4.5,0,0,0,3.23-1.49c1.68-2.06,1.22-6.28.65-11.62-.45-4.2-2.43-7.92-4.72-12.22l-.12-.23c-.46-.86-.93-1.74-1.4-2.65A6.75,6.75,0,0,0,340.23,415.8Zm-9.51,32.48c-1.47,0-3,0-3.91-1s-1.17-2.56-1-5.14l.06-.9c.4-6,1-15,7.87-22.08a8.86,8.86,0,0,1,6.53-2.68c2.17,0,4.41.23,5.84,3,.53,1,1.07,2,1.58,3,2.27,4.24,4.22,7.9,4.68,12.09.78,7.24,1,12-3.52,12.74l-.46.09a3.82,3.82,0,0,1-.81.12,4.29,4.29,0,0,1-3.17-1,3.79,3.79,0,0,1-.77-2.91c0-1.78-.18-2.92-.63-3.37a.68.68,0,0,0-.49-.22l-.07,0a46.38,46.38,0,0,1-5.29.78c-.79,0-1.62.3-1.68,1.92a7.76,7.76,0,0,0,.14,1.54,3.26,3.26,0,0,1-.32,2.74c-.67.8-2.13,1.2-4.58,1.24Zm9.55-31.18a8.22,8.22,0,0,0-6.06,2.49c-6.69,6.89-7.29,15.79-7.68,21.67l-.06.9c-.17,2.36.1,3.89.81,4.66s1.8.82,3.38.82c2.26,0,3.61-.37,4.14-1s.33-1.32.18-2.22a8.35,8.35,0,0,1-.15-1.67c.07-1.63.82-2.47,2.3-2.54a45.14,45.14,0,0,0,5.18-.76.45.45,0,0,1,.19,0,1.33,1.33,0,0,1,1,.41c.59.6.85,1.82.81,3.84a3.24,3.24,0,0,0,.58,2.44,3.72,3.72,0,0,0,2.7.76,3.21,3.21,0,0,0,.67-.1l.49-.1c3.62-.57,3.84-4,3-12-.44-4.06-2.37-7.67-4.6-11.85-.52-1-1.06-2-1.59-3C344.27,417.31,342.32,417.1,340.27,417.1Zm-3.32,20.16c-.56,0-.89,0-1.15-.55a2.46,2.46,0,0,1,0-1.86A8.38,8.38,0,0,0,336,431c0-.31-.12-.61-.18-.89-.27-1.21-.58-2.59,1.13-3l.62-.16a7.41,7.41,0,0,1,1.81-.33c1,0,1.36.73,1.79,1.67,1.61,3.54,2.08,5.89,1.46,7.18a1.88,1.88,0,0,1-1.31,1l-.72.18a13.11,13.11,0,0,1-3.33.56h-.36Zm2.48-10a7,7,0,0,0-1.64.3l-.64.16c-1,.24-1,.77-.64,2.23.07.3.14.61.19.93a9,9,0,0,1-.24,4.11c-.18.68-.26,1.05-.09,1.39s.11.2.72.2h.22a12.71,12.71,0,0,0,3.17-.54l.73-.18a1.24,1.24,0,0,0,.88-.68c.53-1.08,0-3.31-1.46-6.62C340.16,427.57,339.9,427.3,339.42,427.3Zm-2,8.87a.72.72,0,0,1-.56-.32,1.19,1.19,0,0,1-.11-1.08,18.12,18.12,0,0,0,.15-4.06,7.86,7.86,0,0,0-.34-1.29c-.13-.39-.22-.66-.08-.93a1,1,0,0,1,.67-.39l.62-.17.27-.07a4.07,4.07,0,0,1,1.22-.17c.46-.07.71.14,1,.84,1,2.15,2,5,1.31,6.42a1.32,1.32,0,0,1-.89.73A11.93,11.93,0,0,1,337.47,436.17Zm2-7.87a.3.3,0,0,1-.14,0,3.41,3.41,0,0,0-1.06.15l-.26.07-.64.17a.74.74,0,0,0-.26.09s.08.22.14.39a8.47,8.47,0,0,1,.37,1.42,19.24,19.24,0,0,1-.18,4.34c-.11.34,0,.52.07.55a11.09,11.09,0,0,0,3.06-.47.69.69,0,0,0,.5-.4c.21-.43.5-1.86-1.32-5.86C339.54,428.38,339.45,428.31,339.44,428.3Z" transform="translate(62.95 24.57)"/><path class="cls-4" d="M375.77,420.55a3.91,3.91,0,1,1,3.91-3.91A3.92,3.92,0,0,1,375.77,420.55Zm0-6.81a2.89,2.89,0,1,0,2.89,2.89A2.9,2.9,0,0,0,375.77,413.74Z" transform="translate(62.95 24.57)"/><path class="cls-4" d="M375.77,420.35a3.71,3.71,0,1,1,3.71-3.71A3.71,3.71,0,0,1,375.77,420.35Zm0-6.81a3.1,3.1,0,1,0,3.1,3.1A3.1,3.1,0,0,0,375.77,413.54Z" transform="translate(62.95 24.57)"/><path class="cls-4" d="M375.77,420.55a3.91,3.91,0,1,1,3.91-3.91A3.92,3.92,0,0,1,375.77,420.55Zm0-6.81a2.89,2.89,0,1,0,2.89,2.89A2.9,2.9,0,0,0,375.77,413.74Z" transform="translate(62.95 24.57)"/><path class="cls-3" d="M375.77,420.35a3.71,3.71,0,1,1,3.71-3.71A3.71,3.71,0,0,1,375.77,420.35Zm0-6.81a3.1,3.1,0,1,0,3.1,3.1A3.1,3.1,0,0,0,375.77,413.54Z" transform="translate(62.95 24.57)"/><path class="cls-4" d="M376,418.65a2,2,0,0,1-.8-.16,1.95,1.95,0,0,1-1.06-1.06,2.09,2.09,0,0,1,0-1.57,2,2,0,0,1,.42-.64,1.93,1.93,0,0,1,.64-.43,2,2,0,0,1,.82-.16,2.1,2.1,0,0,1,.91.18,2,2,0,0,1,.63.48l.13.14-.88.94-.15-.16a1.45,1.45,0,0,0-.3-.24.68.68,0,0,0-.34-.08.56.56,0,0,0-.25.05.61.61,0,0,0-.2.15.72.72,0,0,0-.14.24.86.86,0,0,0,0,.3.94.94,0,0,0,0,.32.7.7,0,0,0,.14.24.71.71,0,0,0,.82.14,1.64,1.64,0,0,0,.33-.24l.15-.13.85.86-.13.14a2.44,2.44,0,0,1-.63.5A2,2,0,0,1,376,418.65Z" transform="translate(62.95 24.57)"/><path class="cls-3" d="M376.81,418.27a1.74,1.74,0,0,1-.84.18,1.82,1.82,0,0,1-.72-.14,1.75,1.75,0,0,1-.95-1,1.79,1.79,0,0,1-.14-.7h0a1.82,1.82,0,0,1,.14-.7,1.79,1.79,0,0,1,.38-.58,1.74,1.74,0,0,1,.57-.39,1.85,1.85,0,0,1,.74-.14,1.89,1.89,0,0,1,.82.16,1.83,1.83,0,0,1,.57.43l-.6.65a1.61,1.61,0,0,0-.35-.28.87.87,0,0,0-.44-.1.77.77,0,0,0-.34.07.84.84,0,0,0-.27.2.94.94,0,0,0-.18.3,1.08,1.08,0,0,0-.06.37h0a1.13,1.13,0,0,0,.06.38.89.89,0,0,0,.18.3.84.84,0,0,0,.28.2.86.86,0,0,0,.36.07.89.89,0,0,0,.43-.1,1.83,1.83,0,0,0,.37-.27l.58.58A2.22,2.22,0,0,1,376.81,418.27Z" transform="translate(62.95 24.57)"/></g><g class="cls-5"><g id="_Group_" data-name="&lt;Group&gt;"><path id="_Path_" data-name="&lt;Path&gt;" class="cls-6" d="M670.08,266.83C656.47,257,545.88,101.58,374.34,109.49S165.77,228-63,160.43l4.46-178.6L683,11.69Z" transform="translate(62.95 24.57)"/><path id="_Path_2" data-name="&lt;Path&gt;" class="cls-4" d="M686.08,243.51C672.23,234.25,557.81,83.33,386.55,98.15S181,225-49.25,166.66V-12H692.63Z" transform="translate(62.95 24.57)"/><path id="_Path_3" data-name="&lt;Path&gt;" class="cls-3" d="M686.08,231C672.23,221.7,557.81,70.79,386.55,85.6S181,212.44-49.25,154.11V-24.57H692.63Z" transform="translate(62.95 24.57)"/></g></g><path class="cls-7" d="M566.1,50.35A5.91,5.91,0,1,1,572,44.44,5.91,5.91,0,0,1,566.1,50.35Zm0-11.16a5.25,5.25,0,1,0,5.25,5.25A5.26,5.26,0,0,0,566.1,39.19Z" transform="translate(62.95 24.57)"/><path class="cls-7" d="M563.43,43.36v-.19a.47.47,0,0,0,0-.05,2.54,2.54,0,0,1,.35-1.17,2.63,2.63,0,0,1,2-1.33l.24,0h.26a2.34,2.34,0,0,1,.61.11,2.64,2.64,0,0,1,1.85,2c0,.1,0,.2,0,.3v.42l0,.13a2.43,2.43,0,0,1-.29.9c-.11.19-.22.39-.34.58l-2,3.14,0,.05h0l0,0-.65-1-1.59-2.56a2.63,2.63,0,0,1-.39-1.09C563.45,43.51,563.44,43.44,563.43,43.36Zm4.09-.09a1.41,1.41,0,1,0-1.42,1.41A1.42,1.42,0,0,0,567.52,43.27Z" transform="translate(62.95 24.57)"/><circle class="cls-7" cx="566.11" cy="43.26" r="0.94" transform="translate(584.48 633.84) rotate(-89.87)"/><path class="cls-7" d="M569.51,29.46c-.39-.31-.79-.61-1.19-.91a.72.72,0,0,0-.56-.09.81.81,0,0,0-.35.27.9.9,0,0,1-.78.37,1.19,1.19,0,0,1-.7-.38l-.67-.68a1.17,1.17,0,0,1-.38-.7.9.9,0,0,1,.37-.78.79.79,0,0,0,.27-.35.72.72,0,0,0-.09-.56c-.3-.39-.6-.8-.91-1.19a.62.62,0,0,0-.62-.17,1.17,1.17,0,0,0-.46.31,2.49,2.49,0,0,0-.9,2.21A4.51,4.51,0,0,0,564,29.05l.95.95a4.53,4.53,0,0,0,2.25,1.44,2.56,2.56,0,0,0,2.21-.9,1.17,1.17,0,0,0,.31-.46A.62.62,0,0,0,569.51,29.46Z" transform="translate(62.95 24.57)"/><path class="cls-7" d="M566.1,33.77A5.91,5.91,0,1,1,572,27.86,5.91,5.91,0,0,1,566.1,33.77Zm0-11.16a5.25,5.25,0,1,0,5.25,5.25A5.26,5.26,0,0,0,566.1,22.61Z" transform="translate(62.95 24.57)"/><path class="cls-7" d="M564.11,60.94a5.28,5.28,0,0,0,.37,1.93,5.57,5.57,0,0,1,1.46-.24V60.82h-1.82S564.11,60.9,564.11,60.94Z" transform="translate(62.95 24.57)"/><path class="cls-7" d="M564.13,60.49h1.8V59.24a5.66,5.66,0,0,1-1.46-.24A5.31,5.31,0,0,0,564.13,60.49Z" transform="translate(62.95 24.57)"/><path class="cls-7" d="M565.94,64.86V63a5.28,5.28,0,0,0-1.33.21A4.59,4.59,0,0,0,565.94,64.86Z" transform="translate(62.95 24.57)"/><path class="cls-7" d="M564.61,58.7a5.29,5.29,0,0,0,1.33.21V57A4.61,4.61,0,0,0,564.61,58.7Z" transform="translate(62.95 24.57)"/><path class="cls-7" d="M568.4,60.49h1.82a4.12,4.12,0,0,0-1-2.24,5.3,5.3,0,0,1-1.23.64A5.54,5.54,0,0,1,568.4,60.49Z" transform="translate(62.95 24.57)"/><path class="cls-7" d="M565.67,56.81a4.15,4.15,0,0,0-2.5,1.2,5,5,0,0,0,1.13.58A5,5,0,0,1,565.67,56.81Z" transform="translate(62.95 24.57)"/><path class="cls-7" d="M564.17,58.9a5.26,5.26,0,0,1-1.22-.64,4.14,4.14,0,0,0-1,2.24h1.82A5.62,5.62,0,0,1,564.17,58.9Z" transform="translate(62.95 24.57)"/><path class="cls-7" d="M564.3,63.29a5,5,0,0,0-1.13.58,4.14,4.14,0,0,0,2.5,1.2A5,5,0,0,1,564.3,63.29Z" transform="translate(62.95 24.57)"/><path class="cls-7" d="M563.79,60.94s0-.08,0-.12H562s0,.08,0,.12a4.13,4.13,0,0,0,1,2.68,5.37,5.37,0,0,1,1.23-.64A5.61,5.61,0,0,1,563.79,60.94Z" transform="translate(62.95 24.57)"/><path class="cls-7" d="M567.59,63.18a5.28,5.28,0,0,0-1.33-.21v1.89A4.59,4.59,0,0,0,567.59,63.18Z" transform="translate(62.95 24.57)"/><path class="cls-7" d="M566.54,65.06a4.15,4.15,0,0,0,2.5-1.2,5,5,0,0,0-1.13-.58A5,5,0,0,1,566.54,65.06Z" transform="translate(62.95 24.57)"/><path class="cls-7" d="M570.25,60.82h-1.83s0,.08,0,.12a5.64,5.64,0,0,1-.38,2,5.26,5.26,0,0,1,1.22.64,4.13,4.13,0,0,0,1-2.68S570.25,60.86,570.25,60.82Z" transform="translate(62.95 24.57)"/><path class="cls-7" d="M567.73,59a5.6,5.6,0,0,1-1.46.24v1.26h1.8A5.36,5.36,0,0,0,567.73,59Z" transform="translate(62.95 24.57)"/><path class="cls-7" d="M566.27,57v1.89a5.28,5.28,0,0,0,1.33-.21A4.61,4.61,0,0,0,566.27,57Z" transform="translate(62.95 24.57)"/><path class="cls-7" d="M568.09,60.94s0-.08,0-.12h-1.82v1.82a5.66,5.66,0,0,1,1.46.24A5.31,5.31,0,0,0,568.09,60.94Z" transform="translate(62.95 24.57)"/><path class="cls-7" d="M567.91,58.59A5,5,0,0,0,569,58a4.14,4.14,0,0,0-2.5-1.2A5,5,0,0,1,567.91,58.59Z" transform="translate(62.95 24.57)"/><path class="cls-7" d="M566.1,66.85A5.91,5.91,0,1,1,572,60.94,5.91,5.91,0,0,1,566.1,66.85Zm0-11.16a5.25,5.25,0,1,0,5.25,5.25A5.26,5.26,0,0,0,566.1,55.69Z" transform="translate(62.95 24.57)"/><path class="cls-7" d="M566.1,80.93h-2.2a1,1,0,0,1-1-1c0-.7,0-1.4,0-2.1,0-.18.11-.25.28-.16l2.73,1.43a.4.4,0,0,0,.4,0L569,77.69l.08,0a.15.15,0,0,1,.2.17v1.82a2.71,2.71,0,0,1,0,.47,1,1,0,0,1-1,.83H566.1Z" transform="translate(62.95 24.57)"/><path class="cls-7" d="M566.09,76.11h2.19a1,1,0,0,1,.94.58c.06.12,0,.2-.09.27l-2.9,1.51a.24.24,0,0,1-.24,0l-2.93-1.53a.15.15,0,0,1-.08-.23,1,1,0,0,1,.94-.6h2.18Z" transform="translate(62.95 24.57)"/><path class="cls-7" d="M566.1,84.43A5.91,5.91,0,1,1,572,78.52,5.91,5.91,0,0,1,566.1,84.43Zm0-11.16a5.25,5.25,0,1,0,5.25,5.25A5.26,5.26,0,0,0,566.1,73.27Z" transform="translate(62.95 24.57)"/><path class="cls-7" d="M39,33.33C46.62,35,56,36.58,67.41,39c18.41,4,15.83,12.73,3.8,26.57-10,11.46-28.55,30.23-33.54,34.82-8.19,7.53-6.48,13.87.4,13.87l18.66.14c5.8,0,9.06-1.94,10.94-5.8s7.27-14.56,7.27-14.56l19,14.12,36.56,0V106.9S105.12,95.44,93.35,86.63C83.9,79.54,87.5,72.39,91,65.41,94.87,57.52,98.5,46.93,85,37.12c-9.31-6.78-18.75-7.29-36-9.94l-8.12-1.3C39,25.56,36.31,27,35.76,28.64a4,4,0,0,0,2.66,4.52Z" transform="translate(62.95 24.57)"/><path d="M56.78,114.71H39c-3.54,0-5.93-1.26-6.74-3.56-1.06-3,.91-7,5.54-11.23S61.11,76.79,71.23,65.16c7.21-8.29,10.1-14.29,8.85-18.35-1-3.38-5.17-5.87-12.26-7.4-6.26-1.35-12.27-2.51-17.11-3.45-4.06-.78-8.25-1.6-11.84-2.37a4.48,4.48,0,0,1-3-2.23,3.73,3.73,0,0,1-.3-3c.57-1.73,2.45-2.85,4.8-2.85a7.13,7.13,0,0,1,1.19.1l6.82,1.16c2.52.39,4.88.73,7.11,1C68.46,29.72,77,31,85.21,36.9c13.51,9.84,10.26,20.55,5.92,28.78-3.59,6.79-6.58,14.61,3.35,21.42,11.63,8,34.76,19,35.51,19.24a1.25,1.25,0,0,1,.85.59,1.2,1.2,0,0,1,.09.87.65.65,0,0,1-.18.39,1.58,1.58,0,0,1-1.19.37H94.27a1.08,1.08,0,0,1-.64-.21L75,94.49c-1.63,3.24-5.69,11.32-7.17,14.37C65.73,113.23,62.94,114.71,56.78,114.71ZM40.34,26.09c-2.1,0-3.78,1-4.27,2.47a3.19,3.19,0,0,0,.26,2.53A3.93,3.93,0,0,0,39,33c3.58.78,7.77,1.59,11.82,2.37,4.84.94,10.86,2.11,17.12,3.45,7.31,1.57,11.57,4.19,12.67,7.78,1.31,4.26-1.62,10.44-9,18.88C61.51,77.17,42.93,96,38.18,100.32c-4.46,4.1-6.38,7.88-5.4,10.64.73,2.06,2.94,3.19,6.22,3.19H56.78c5.9,0,8.57-1.4,10.58-5.54,1.53-3.14,5.8-11.65,7.32-14.67l.15-.29L94,107.89a.53.53,0,0,0,.31.1h35.3c.64,0,.81-.18.81-.25v-.06l0,0a.66.66,0,0,0,0-.47.76.76,0,0,0-.52-.32c-.11,0-23.57-11-35.68-19.31-10.31-7.07-7.22-15.13-3.53-22.13,4.24-8,7.42-18.48-5.75-28.07-8.05-5.86-16.58-7.09-29.5-9-2.23-.32-4.6-.66-7.12-1.05l-6.83-1.16A6.59,6.59,0,0,0,40.34,26.09Zm-1.2,87.54c-3,0-5-1-5.68-2.7-1-2.49.85-6.22,5.07-10.24,5.21-5,23.75-23.76,33.53-34.84,7.75-8.79,10.66-15,9.18-19.5C80,42.61,75.7,40,68.09,38.36,62,37,56.25,35.88,51.2,34.85c-4.3-.88-8.37-1.7-11.88-2.47a3.55,3.55,0,0,1-2.42-1.55,2.4,2.4,0,0,1-.17-2c.47-1.43,1.63-2.12,3.55-2.12h.14c.35,0,6.56,1,7.8,1.21l4.26.65c15,2.26,24,3.63,32,9.29C94.36,44.81,96.15,53.7,90,65,86.19,72,83.2,81,93.84,88.26c12,8.2,34.91,18.78,35.14,18.88l1.15.53H94.18l-.07-.06L74.54,92.76c-.95,1.86-6.12,12-7.81,15.49-2,4.09-4.22,5.28-9.94,5.28Zm1.14-86.36c-1.67,0-2.63.55-3,1.74a1.86,1.86,0,0,0,.12,1.54,3,3,0,0,0,2.06,1.29c3.51.76,7.57,1.59,11.87,2.46,5.05,1,10.78,2.2,16.89,3.51C76,39.5,80.46,42.24,81.76,46.18c1.56,4.72-1.4,11.09-9.29,20-9.78,11.09-28.34,29.9-33.56,34.88-4,3.86-5.85,7.37-4.94,9.63.61,1.52,2.44,2.35,5.16,2.35l17.65-.1c5.52,0,7.55-1.07,9.44-5s7.9-15.67,8-15.79l.15-.3,20,15.2h33.24c-4.8-2.25-23.62-11.22-34.09-18.4-11.13-7.63-7.63-17.33-4-24,6-11,4.27-19.69-5.3-26.45-7.91-5.58-16.9-6.94-31.81-9.19l-4.26-.65c-2.94-.48-7.41-1.19-7.71-1.2Z" transform="translate(62.95 24.57)"/><path class="cls-7" d="M99.34,75.14c-.64,5-2.62,4.92-5.74,1.52-2.91-3.18-3.44-11.54,10.19-19.42,21.3-12.32,60-10.47,66.87-18.27a23.67,23.67,0,0,0,4,.41c1.08,0,3-.24,3-.24s-2.66,6.7-17,9.73c-14.05,3-30.13,4.36-41.19,9.21s-18.85,7.59-20.06,17.07" transform="translate(62.95 24.57)"/><path d="M97.13,79.35c-1,0-2.19-.81-3.74-2.51a7.57,7.57,0,0,1-1.64-6.33c.51-3.32,3-8.37,11.9-13.52,11.47-6.63,28.29-9.22,41.81-11.31,11.75-1.81,21.89-3.37,25-6.91l.11-.12.16,0a23.52,23.52,0,0,0,3.94.4c1,0,2.93-.24,2.95-.24l.47-.06-.17.43c-.11.28-2.88,6.87-17.24,9.9-4.3.9-8.86,1.68-13.27,2.42-9.94,1.68-20.22,3.42-27.87,6.77l-2.19,1c-10,4.34-16.6,7.22-17.71,15.89-.31,2.44-1,3.78-2,4.1A1.66,1.66,0,0,1,97.13,79.35Zm73.63-40.09c-3.35,3.61-13.49,5.17-25.22,7-13.47,2.08-30.24,4.66-41.62,11.24-8.72,5-11.14,9.92-11.63,13.12a7.11,7.11,0,0,0,1.5,5.87c1.62,1.77,2.86,2.54,3.67,2.28s1.32-1.47,1.59-3.64c1.15-9,8.24-12.07,18-16.33l2.19-1c7.71-3.38,18-5.13,28-6.81,4.4-.74,9-1.51,13.25-2.42,11.92-2.51,15.72-7.6,16.61-9.12-.65.07-1.75.18-2.5.18A23.46,23.46,0,0,1,170.76,39.27Z" transform="translate(62.95 24.57)"/><path class="cls-7" d="M170.66,39a23.64,23.64,0,0,0,4,.41c1.08,0,3-.24,3-.24s-2.66,6.7-17,9.73c-14.05,3-30.47,4-41.53,8.83s-18.52,8-19.73,17.45c-.35,2.72-1.09,3.93-2.2,3.93-.93,0-2.12-.86-3.54-2.42-2.91-3.18-3.44-11.54,10.19-19.42,21.3-12.32,60-10.47,66.87-18.27m0-.88a.81.81,0,0,0-.61.28c-3,3.39-13,4.94-24.67,6.73-13.56,2.09-30.43,4.69-42,11.37C94.21,61.78,91.69,67,91.19,70.52A8.17,8.17,0,0,0,93,77.27C94.68,79.1,96,80,97.14,80c2.42,0,2.87-3.53,3-4.69,1.07-8.33,7.43-11.43,17.24-15.7l2.12-.94c7.58-3.33,18-4.8,27.94-6.47,4.42-.75,9-1.52,13.3-2.43,14.65-3.08,17.53-10,17.65-10.25a.91.91,0,0,0-.1-.87.81.81,0,0,0-.66-.35h-.1s-1.87.23-2.88.23a23,23,0,0,1-3.84-.39l-.15,0" transform="translate(62.95 24.57)"/><path d="M97.14,80.23c-1.23,0-2.61-.88-4.34-2.77a8.45,8.45,0,0,1-1.88-7c.51-3.54,3.07-8.89,12.34-14.25,11.61-6.71,28.51-9.31,42.09-11.4,11.61-1.79,21.61-3.33,24.5-6.64a1.12,1.12,0,0,1,1-.35,22.9,22.9,0,0,0,3.78.39c1,0,2.73-.22,2.84-.23h.15a1.1,1.1,0,0,1,.89.46,1.19,1.19,0,0,1,.14,1.13c-.12.3-3,7.3-17.85,10.42-4.26.9-8.77,1.66-13.12,2.4l-.19,0c-15.62,2.64-25.42,5.06-30,7.39l-2.72,1.37c-8.09,4.06-13.44,6.74-14.38,14.11C100.28,76.51,99.8,80.23,97.14,80.23Zm73.52-41.86a.54.54,0,0,0-.4.19c-3,3.46-13.12,5-24.8,6.82-13.57,2.09-30.41,4.68-41.93,11.34C94.45,62,92,67.14,91.46,70.56a7.9,7.9,0,0,0,1.74,6.52c1.62,1.77,2.87,2.6,3.94,2.6,2.18,0,2.6-3.35,2.75-4.45,1-7.66,6.73-10.55,14.68-14.54l2.71-1.37c4.6-2.35,14.46-4.79,30.13-7.44l.19,0c4.35-.74,8.85-1.5,13.1-2.39,14.52-3.05,17.33-9.8,17.45-10.08a.64.64,0,0,0-.07-.6.54.54,0,0,0-.44-.23h-.08a28.74,28.74,0,0,1-2.9.24,23.18,23.18,0,0,1-3.9-.4Zm-73.52,41c-1,0-2.18-.8-3.75-2.51a7.57,7.57,0,0,1-1.64-6.33c.51-3.32,3-8.37,11.9-13.52,11.45-6.62,27.63-9.19,41.89-11.45,11.74-1.86,21.89-3.47,25.09-7v0h0l.05-.06.11.1a18.68,18.68,0,0,0,3.83.5c1,0,2.93-.24,2.95-.24l.47-.06-.17.44c-.11.28-2.88,6.88-17.24,9.9-2.25.47-4.74.93-7.81,1.44-2.15.35-4.3.68-6.46,1l-2.23.34c-2.88.44-5.86.9-8.77,1.42l-2.74.51a88.65,88.65,0,0,0-8.83,2.35,66.94,66.94,0,0,0-8.73,3.2c-.79.37-1.59.76-2.38,1.17s-1.55.82-2.31,1.25-1.45.85-2.15,1.28c-2.37,1.49-5.3,3.62-6.92,6.83a18.09,18.09,0,0,0-1.72,5.24C99.18,78.07,98.42,79.35,97.14,79.35Zm73.7-40.18c-3.53,3.49-13.6,5.08-25.21,6.92-14.22,2.26-30.34,4.81-41.7,11.38-8.72,5-11.14,9.92-11.63,13.12a7.11,7.11,0,0,0,1.5,5.87c1.41,1.55,2.54,2.33,3.34,2.33.59,0,1.43-.38,1.92-3.7a18.65,18.65,0,0,1,1.77-5.41c1.68-3.33,4.68-5.51,7.12-7,.7-.44,1.43-.88,2.17-1.3s1.54-.85,2.33-1.26,1.6-.8,2.4-1.18a67.67,67.67,0,0,1,8.8-3.23,89.48,89.48,0,0,1,8.89-2.36l2.75-.52c2.92-.52,5.9-1,8.79-1.42L146.3,51c2.15-.33,4.3-.66,6.45-1,3.07-.51,5.54-1,7.79-1.43,11.92-2.51,15.72-7.6,16.61-9.12-.65.07-1.75.18-2.5.18A18.7,18.7,0,0,1,170.84,39.17Z" transform="translate(62.95 24.57)"/><path class="cls-3" d="M114.39,92.1c-3.12-.09-6.88-1.77-6.56-5.49s-.23-5.8-.56-8.83-.53-5.5,1.78-7.38c3.52-2.86,8.76-4.14,14-3.78s7.92,4.73,6.17,6.52-8.85.41-11.15,2.15c-3.15,2.38-1.9,6.21,1.1,5.52s6.24-2.39,6.78-1.49c1.55,2.61-1.25,3.82-3.73,4.16s-4.36.86-4,3.31,1,5.44-3.75,5.3" transform="translate(62.95 24.57)"/><path d="M114.7,92.38h-.32a8.23,8.23,0,0,1-5.7-2.29,4.49,4.49,0,0,1-1.13-3.5,27.52,27.52,0,0,0-.3-6.7c-.09-.66-.18-1.34-.26-2.07-.31-2.88-.6-5.61,1.88-7.63,3.47-2.82,8.62-4.23,14.14-3.84,3.6.25,6,2.37,6.72,4.23a2.52,2.52,0,0,1-.37,2.76c-1,1-3.23,1.08-5.63,1.18-2.21.09-4.48.19-5.56,1-1.72,1.3-2,3-1.52,4a2,2,0,0,0,2.39,1c1.05-.24,2.15-.62,3.13-.95,2-.69,3.5-1.19,4-.41a2.49,2.49,0,0,1,.28,2.43c-.73,1.52-3.19,2-4.22,2.14-2.73.37-4.07.94-3.79,3l.05.38c.2,1.46.43,3.12-.52,4.18A4.16,4.16,0,0,1,114.7,92.38Zm-.31-.56c1.54,0,2.57-.24,3.14-.87.78-.87.58-2.33.39-3.74l-.05-.38c-.37-2.76,1.91-3.3,4.27-3.62,1.95-.26,3.37-.95,3.79-1.83a2,2,0,0,0-.26-1.91c-.23-.4-1.94.18-3.3.65-1,.34-2.1.72-3.18,1a2.52,2.52,0,0,1-3-1.32c-.57-1.22-.28-3.21,1.68-4.69,1.21-.91,3.58-1,5.87-1.11s4.45-.19,5.25-1a2,2,0,0,0,.25-2.17c-.65-1.71-2.88-3.65-6.24-3.88-5.3-.35-10.44,1-13.76,3.72-2.25,1.83-2,4.29-1.68,7.14.08.73.17,1.4.26,2.06a28,28,0,0,1,.3,6.82,4,4,0,0,0,1,3.08,7.67,7.67,0,0,0,5.3,2.11Z" transform="translate(62.95 24.57)"/><path class="cls-7" d="M121.29,66c-5.06,0-9.77,1.48-12.94,4.05-2.56,2.08-2.26,4.82-1.95,7.72.08.74.17,1.42.26,2.08a27.25,27.25,0,0,1,.29,6.69,4.81,4.81,0,0,0,2.34,4.56,10,10,0,0,0,5.05,1.48h.36a5.92,5.92,0,0,0,3.22-.75c1.64-1.07,1.37-3,1.13-4.74l-.05-.38c-.28-2.11,1.15-2.46,3.36-2.76a7.2,7.2,0,0,0,4.23-1.74,2.39,2.39,0,0,0,.14-3.1,1.63,1.63,0,0,0-1.46-.61,12,12,0,0,0-3.43.86,31.7,31.7,0,0,1-3,.92,1.7,1.7,0,0,1-.38,0,1.21,1.21,0,0,1-.93-.49c-.81-1-.58-2.92,1.21-4.27.9-.68,3-.77,5.09-.86,2.47-.1,5-.21,6.13-1.36s.81-2.79-.51-4.35a9,9,0,0,0-6.32-2.95c-.6,0-1.21-.06-1.81-.06" transform="translate(62.95 24.57)"/><path d="M114.71,92.9h-.35a10.25,10.25,0,0,1-5.21-1.52,5.08,5.08,0,0,1-2.46-4.82,27,27,0,0,0-.29-6.63c-.09-.66-.18-1.35-.26-2.09-.32-3-.63-5.79,2-8,3.22-2.61,8-4.11,13.12-4.11.63,0,1.24,0,1.83.06a9.27,9.27,0,0,1,6.51,3c1.41,1.68,1.61,3.58.5,4.72s-3.79,1.33-6.3,1.44c-1.94.08-4.12.17-5,.8a3.65,3.65,0,0,0-1.53,2.39,2,2,0,0,0,.37,1.48.94.94,0,0,0,1,.35c1-.23,2.17-.63,3-.91a12.14,12.14,0,0,1,3.52-.87A1.89,1.89,0,0,1,127,79a2.67,2.67,0,0,1-.17,3.43,7.46,7.46,0,0,1-4.39,1.83c-2.3.31-3.36.66-3.12,2.45l.05.38c.24,1.71.53,3.85-1.26,5A6.18,6.18,0,0,1,114.71,92.9Zm6.58-26.58c-5,0-9.64,1.45-12.77,4-2.44,2-2.15,4.65-1.85,7.47.08.73.17,1.41.26,2.07a27.46,27.46,0,0,1,.3,6.75,4.55,4.55,0,0,0,2.21,4.31,9.67,9.67,0,0,0,4.91,1.43h.35a5.64,5.64,0,0,0,3.07-.7c1.5-1,1.25-2.75,1-4.47l-.05-.38c-.34-2.54,1.75-2.82,3.59-3.08a6.94,6.94,0,0,0,4.06-1.66,2.12,2.12,0,0,0,.1-2.77,1.4,1.4,0,0,0-1.22-.47,11.91,11.91,0,0,0-3.34.84,31.82,31.82,0,0,1-3.06.93,1.48,1.48,0,0,1-1.59-.54,2.5,2.5,0,0,1-.49-1.9,4.19,4.19,0,0,1,1.74-2.77c1-.73,3.14-.82,5.25-.91,2.42-.1,4.91-.21,5.94-1.27s.7-2.53-.52-4a8.73,8.73,0,0,0-6.12-2.85C122.5,66.34,121.9,66.32,121.29,66.32ZM114.47,92h-.36a9,9,0,0,1-5.58-2.46,3.79,3.79,0,0,1-1-2.91,27.21,27.21,0,0,0-.3-6.7c-.09-.66-.18-1.34-.26-2.07-.31-2.91-.36-5.29,2.14-7.32,3.09-2.51,7.33-3.82,12.29-3.8,4.12,0,7.25,2.12,8.12,4.14a2,2,0,0,1-.27,2.29c-1,1-3.13,1-5.42,1-2.11,0-4.31,0-5.39.79A5,5,0,0,0,116.5,80a1.4,1.4,0,0,0,1.38,1,21.94,21.94,0,0,0,3.62-.91,19.75,19.75,0,0,1,3.69-.91,1,1,0,0,1,1,.46,2.16,2.16,0,0,1,0,2c-.52.92-1.85,1.53-4,1.82-2.92.4-4.06,1.39-3.8,3.32s0,3.22-.83,4.09A4,4,0,0,1,114.47,92Zm6.81-24.72c-4.76,0-8.84,1.27-11.8,3.68-2.28,1.85-2.24,4-1.93,6.83.08.73.17,1.4.26,2.06a28.08,28.08,0,0,1,.3,6.82,3.25,3.25,0,0,0,.84,2.5,8.51,8.51,0,0,0,5.18,2.28,3.76,3.76,0,0,0,3-.93c.68-.75.92-2,.69-3.64-.39-3,2.25-3.67,4.28-3.94s3.13-.79,3.55-1.54a1.62,1.62,0,0,0,0-1.5.71.71,0,0,0-.47-.12,20.6,20.6,0,0,0-3.53.89,21.18,21.18,0,0,1-3.76.94,1.92,1.92,0,0,1-1.92-1.4,5.54,5.54,0,0,1,2.14-5.72c1.22-.92,3.5-.91,5.72-.9s4.23,0,5-.8A1.48,1.48,0,0,0,129,71c-.81-1.88-3.87-3.8-7.61-3.8h-.14Z" transform="translate(62.95 24.57)"/><path class="cls-7" d="M165.65,92.13c-5.19,0-11.21-1-11.25-6.51s-1.4-13-.82-15.55,3.58-3.59,5.78-3.53,8.28,1.38,5.77,9.65c-1.1,3.62-3.56,8-2.37,9.14,1.67,1.57,6.75,1,8.66.27s4.21-.36,4.81,1.24,0,5.29-10.57,5.29" transform="translate(62.95 24.57)"/><path d="M165.65,92.4c-7.62,0-11.5-2.28-11.52-6.78,0-2.38-.28-5.1-.53-7.73-.33-3.44-.62-6.4-.28-7.89.65-2.86,4-3.83,6.05-3.74.62,0,3.82.23,5.55,2.63,1.27,1.76,1.43,4.25.48,7.38-.34,1.14-.82,2.34-1.27,3.5-.91,2.32-1.86,4.72-1.17,5.36,1.57,1.47,6.58.87,8.37.21,2-.73,4.49-.39,5.16,1.4a2.93,2.93,0,0,1-.38,2.72C175.17,90.81,172.6,92.4,165.65,92.4Zm-6.48-25.59c-1.9,0-4.76.86-5.32,3.31-.32,1.4,0,4.47.29,7.71.26,2.64.52,5.38.54,7.78,0,4.14,3.72,6.23,11,6.23,6.71,0,9.14-1.47,10-2.7a2.38,2.38,0,0,0,.31-2.21c-.55-1.48-2.74-1.71-4.45-1.08s-7.11,1.4-8.94-.32c-1-.9,0-3.25,1-6,.45-1.15.92-2.34,1.26-3.45.9-3,.76-5.28-.4-6.9-1.57-2.19-4.54-2.39-5.11-2.4Z" transform="translate(62.95 24.57)"/><path class="cls-7" d="M160,70.71c.07,0-.69-1-.62-1,2.19.06,5.87-2.18,3.36,6.1-1.1,3.63-2.68,8.89-1.49,10,.78.73,2.25,2.63,3.84,2.63a27.53,27.53,0,0,0,6.23-.8,5.55,5.55,0,0,1,1.8-.62c1.31,0,.91-.49,1.32.59.6,1.6,2,3.88-8.65,3.88-5.19,0-9-.76-9-6.23,0-7.27,0-9.45,1-13.92.56-2.49-.58-1.63,1.59-1.63M159.16,66c-2.6,0-5.67,1.24-6.29,4-.34,1.5-.05,4.48.28,7.92.25,2.63.52,5.35.53,7.72,0,3.19,2.11,7,12,7,5,0,8.46-.8,10.22-2.38a3.15,3.15,0,0,0,1-3.53c-.45-1.21-1.82-2-3.58-2a6.59,6.59,0,0,0-2.26.41,14.75,14.75,0,0,1-4.44.67,5.13,5.13,0,0,1-3.3-.79c-.62-.58.4-3.16,1.22-5.24.46-1.16.93-2.36,1.28-3.5,1.14-3.76.69-6.57-1.33-8.37A8.44,8.44,0,0,0,159.39,66h-.23" transform="translate(62.95 24.57)"/><path d="M165.65,92.9c-10.08,0-12.22-4-12.24-7.28,0-2.37-.28-5.08-.53-7.69-.34-3.5-.62-6.47-.28-8,.65-2.86,3.85-4.16,6.56-4.16h.23a8.72,8.72,0,0,1,5.29,1.95c2.11,1.88,2.58,4.79,1.41,8.66-.34,1.13-.8,2.31-1.25,3.45l0,.08c-.62,1.57-1.77,4.48-1.29,4.93s1.45.64,3.12.72a12.36,12.36,0,0,0,3.48-.58c2.63-.68,5.62-1.45,7.2,1.49a3.65,3.65,0,0,1-1.27,4C174.24,92.08,170.74,92.9,165.65,92.9Zm-6.49-26.58c-2.49,0-5.43,1.17-6,3.73-.33,1.45,0,4.37.28,7.76.26,2.69.53,5.41.54,7.81,0,4.4,4.07,6.73,11.69,6.73,4.95,0,8.32-.78,10-2.31a3.19,3.19,0,0,0,1.16-3.31c-1.38-2.56-3.91-1.91-6.58-1.22a13,13,0,0,1-3.65.6c-1.86-.08-2.93-.35-3.48-.87-.7-.66,0-2.71,1.15-5.54l0-.08c.44-1.13.9-2.3,1.24-3.4,1.1-3.64.68-6.36-1.25-8.09a8.15,8.15,0,0,0-4.94-1.81Zm5.6,25.45c-4.23,0-7-.75-8.62-2.32a5.46,5.46,0,0,1-1.6-4.06c0-2.39-.29-5.11-.53-7.51-.32-3.21-.6-6-.26-7.47s2.7-3.31,5.22-3.37h0c2.73.08,4.58.83,5.64,2.3s1.25,3.9.33,6.91c-.32,1.06-.73,2.18-1.13,3.26-.89,2.42-1.81,4.92-1.26,5.78s2.56,1.26,4.13,1.26a12.82,12.82,0,0,0,4.34-.74,4.54,4.54,0,0,1,1.76-.33c1,0,2.91,0,3.41,1.36a2.24,2.24,0,0,1-.25,2.11c-1.15,1.71-4.55,2.65-10.11,2.8ZM159,67.59c-2.23.05-4.39,1.65-4.68,2.93s0,4.26.27,7.29c.24,2.41.51,5.15.53,7.56A4.93,4.93,0,0,0,156.53,89c1.63,1.57,4.67,2.28,9.29,2.15,6.69-.18,8.95-1.49,9.67-2.56a1.71,1.71,0,0,0,.19-1.6c-.34-.92-1.67-1-2.89-1a4,4,0,0,0-1.57.29,13.38,13.38,0,0,1-4.53.78c-1.46,0-3.93-.48-4.6-1.51s.18-3.49,1.2-6.27c.39-1.07.8-2.18,1.12-3.23.86-2.84.78-5-.25-6.43S161.52,67.66,159,67.59Z" transform="translate(62.95 24.57)"/><path class="cls-7" d="M151.83,82.19c-.47-4.33-2.9-8.14-5.3-12.83s-8.18-3.25-10.54-.81c-6.07,6.25-6.25,15-6.61,20.09s1.78,5.59,4.32,5.54c5.64-.1,3.68-2.94,3.77-5.06.06-1.45.62-1.6,1.54-1.64a37,37,0,0,0,4.4-.63c1.42-.3,1.28,1.66,1.25,3.28s.18,3.42,4.25,3,3.62-4.62,2.94-10.95m-9.06,1.69c-2.17.53-4.9,1.09-5.38.17s1-2.11.51-5c-.23-1.41-.47-2.65,1-3s2.78-1,3.52.67c1.05,2.33,2.51,6.58.34,7.12" transform="translate(62.95 24.57)"/><path d="M133.43,94.12a4.34,4.34,0,0,1-3.28-1.05c-.87-.91-1.21-2.48-1-4.79,0-.48.06-1,.09-1.52.29-5.07.74-12.74,6.31-18.47a8.85,8.85,0,0,1,7.11-2.43,5.44,5.44,0,0,1,4.17,3c.43.84.87,1.66,1.29,2.45,2,3.69,3.65,6.87,4,10.47h0c.49,4.57.88,8.19-.59,10a3.61,3.61,0,0,1-2.6,1.25c-1.82.18-3-.06-3.77-.72a3.22,3.22,0,0,1-.78-2.58v-.34c0-1,0-2.23-.38-2.58a.61.61,0,0,0-.54-.08,37.16,37.16,0,0,1-4.44.64c-.82,0-1.22.12-1.27,1.38a7.4,7.4,0,0,0,.12,1.37,3.39,3.39,0,0,1-.35,2.83c-.62.74-1.83,1.1-3.81,1.13Zm8.18-27.78a8.56,8.56,0,0,0-5.7,2.33c-5.43,5.59-5.86,13.13-6.15,18.12,0,.54-.06,1-.1,1.53-.15,2.14.14,3.57.89,4.36a4,4,0,0,0,3.14.88c1.78,0,2.89-.34,3.4-.93a3,3,0,0,0,.23-2.39,7.78,7.78,0,0,1-.13-1.47c.07-1.68.85-1.86,1.8-1.91a36.67,36.67,0,0,0,4.36-.63,1.15,1.15,0,0,1,1,.2c.63.52.6,1.79.58,3v.34a2.77,2.77,0,0,0,.6,2.17c.59.54,1.71.74,3.34.57a3.09,3.09,0,0,0,2.23-1.05c1.33-1.63.95-5.14.46-9.59h0c-.38-3.5-2-6.64-4-10.27-.42-.8-.86-1.61-1.29-2.46a4.91,4.91,0,0,0-3.75-2.74A6.24,6.24,0,0,0,141.6,66.34Zm-2.79,18.14c-.82,0-1.43-.18-1.67-.64a2,2,0,0,1,.13-1.64,6.47,6.47,0,0,0,.36-3.4v-.08c-.23-1.39-.47-2.82,1.22-3.23l.54-.14c1.26-.33,2.56-.68,3.3,1,.65,1.43,2.06,4.93,1.24,6.62a1.57,1.57,0,0,1-1.08.87h0A18.81,18.81,0,0,1,138.82,84.48Zm2.11-8.85a6,6,0,0,0-1.41.26L139,76c-1.13.27-1.06,1.08-.8,2.6v.08a7,7,0,0,1-.38,3.67c-.2.61-.3.94-.16,1.21.29.55,2,.44,5.06-.31h0a1,1,0,0,0,.72-.58c.59-1.21-.26-4-1.25-6.15A1.27,1.27,0,0,0,140.93,75.62Z" transform="translate(62.95 24.57)"/><path class="cls-7" d="M141.63,66.66c1.94,0,3.78.21,4.89,2.36,2.41,4.69,4.83,8.5,5.3,12.83.68,6.33,1.13,10.54-2.94,10.95-.39,0-.75.06-1.07.06-3,0-3.2-1.62-3.17-3.08s.16-3.31-1-3.31a1.23,1.23,0,0,0-.27,0,37.35,37.35,0,0,1-4.4.63c-.91,0-1.48.19-1.54,1.64-.09,2.12,1.87,5-3.77,5.06h-.26c-2.42,0-4.4-.68-4.06-5.55a29.39,29.39,0,0,1,8.11-18.64c1.28-1.31,1.88-3,4.15-3M139.6,85c1.1,0,2.51-1,3.83-1.28,2.17-.53.8-6.33-.62-8.29a4,4,0,0,0-2.33-1.51,15.69,15.69,0,0,0-2.46.62c-1.47.35-3,2.95-1.32,4.19,2.39,1.77-1.28,5.72-.8,6.65.19.35,2.18-.59,2.88-.59m2.8-19.27a9.56,9.56,0,0,0-6.49,2.64c-5.62,5.78-6.06,13.47-6.36,18.56,0,.54-.06,1-.1,1.52-.19,2.67.28,4.33,1.49,5.24a5.41,5.41,0,0,0,3.28.84h.28a6.36,6.36,0,0,0,3.88-1c1.06-.87.88-2.07.7-3.23a7.44,7.44,0,0,1-.12-1.35c0-1.11.27-1.12.88-1.15a38.28,38.28,0,0,0,4.54-.65h.05c.34.26.31,1.74.29,2.45v.33A3.15,3.15,0,0,0,145,92.65a4.75,4.75,0,0,0,2.81.71A11.63,11.63,0,0,0,149,93.3c4.74-.47,4.27-4.85,3.55-11.49-.39-3.62-2.09-6.81-4.05-10.51-.42-.8-.86-1.61-1.29-2.45a6,6,0,0,0-5.59-3.3m-2.8,18.14c-.2,0-.67,0-.74-.16s0-.61.17-1.13a7,7,0,0,0,.38-3.71l0-.09c-.25-1.5-.27-2.18.53-2.37l.56-.14a5.54,5.54,0,0,1,1.22-.24c.17,0,.51,0,.84.72,1.55,3.42,1.89,6.21.79,6.48a18.76,18.76,0,0,1-3.74.63" transform="translate(62.95 24.57)"/><path d="M133.43,94.63a5.66,5.66,0,0,1-3.45-.89c-1.29-1-1.79-2.71-1.6-5.48,0-.47.06-1,.09-1.52.3-5.14.75-12.89,6.44-18.74a9.86,9.86,0,0,1,6.69-2.72,6.29,6.29,0,0,1,5.84,3.45c.4.77.8,1.52,1.19,2.25l.1.2c2,3.72,3.69,6.93,4.08,10.61.52,4.87.9,8.38-.67,10.32A4.35,4.35,0,0,1,149,93.58c-.41,0-.81.06-1.2.06a5,5,0,0,1-3-.76,3.47,3.47,0,0,1-1.19-3.11v-.34a6.67,6.67,0,0,0-.13-2.14,38.85,38.85,0,0,1-4.46.63c-.54,0-.58,0-.62.88a6.71,6.71,0,0,0,.11,1.21v.09c.18,1.18.39,2.52-.8,3.49a6.6,6.6,0,0,1-4.05,1Zm8.17-28.8a9.27,9.27,0,0,0-6.29,2.55c-5.54,5.7-6,13.33-6.28,18.37,0,.55-.06,1.06-.1,1.54-.18,2.57.26,4.15,1.38,5a5.16,5.16,0,0,0,3.12.78h.27a6.13,6.13,0,0,0,3.71-.91c.94-.77.78-1.84.6-3v-.09a7.16,7.16,0,0,1-.11-1.32c.05-1.24.37-1.37,1.14-1.41a37.43,37.43,0,0,0,4.5-.65l.12,0,.15.07c.38.29.43,1.24.4,2.68v.33a2.88,2.88,0,0,0,1,2.65,4.5,4.5,0,0,0,2.65.66A11.32,11.32,0,0,0,149,93a3.83,3.83,0,0,0,2.76-1.27c1.43-1.76,1-5.35.55-9.9-.39-3.58-2.07-6.75-4-10.42l-.1-.2c-.39-.73-.79-1.49-1.19-2.26A5.76,5.76,0,0,0,141.6,65.83Zm-8.11,27.69c-1.25,0-2.52,0-3.34-.87s-1-2.18-.84-4.39l.05-.77c.34-5.1.86-12.8,6.71-18.83a7.55,7.55,0,0,1,5.56-2.29c1.85,0,3.76.2,5,2.56.45.88.91,1.74,1.35,2.56,1.93,3.62,3.6,6.74,4,10.3.67,6.17.82,10.26-3,10.86l-.39.08a3.26,3.26,0,0,1-.69.1,3.66,3.66,0,0,1-2.7-.82,3.23,3.23,0,0,1-.66-2.48c0-1.52-.15-2.49-.54-2.88a.58.58,0,0,0-.42-.18l-.06,0a39.54,39.54,0,0,1-4.51.66c-.68,0-1.38.26-1.43,1.64a6.61,6.61,0,0,0,.12,1.32,2.78,2.78,0,0,1-.28,2.34c-.57.68-1.81,1-3.91,1.06Zm8.14-26.58a7,7,0,0,0-5.17,2.12c-5.71,5.87-6.21,13.46-6.55,18.48l-.05.77c-.14,2,.08,3.31.69,4s1.53.7,2.88.7c1.93,0,3.08-.32,3.53-.86s.28-1.12.15-1.89a7.12,7.12,0,0,1-.13-1.43c.06-1.39.7-2.1,2-2.17a38.49,38.49,0,0,0,4.41-.65.38.38,0,0,1,.16,0,1.13,1.13,0,0,1,.84.35c.5.51.72,1.55.69,3.28a2.77,2.77,0,0,0,.5,2.08,3.17,3.17,0,0,0,2.31.65,2.74,2.74,0,0,0,.58-.09l.42-.08c3.09-.48,3.28-3.42,2.54-10.25-.37-3.46-2-6.54-3.92-10.1-.44-.83-.9-1.69-1.36-2.57C145,67.11,143.39,66.93,141.63,66.93ZM138.8,84.13c-.48,0-.76,0-1-.47a2.1,2.1,0,0,1,0-1.58A7.14,7.14,0,0,0,138,78.8c0-.26-.1-.52-.15-.76-.23-1-.5-2.21,1-2.56l.53-.14a6.32,6.32,0,0,1,1.54-.28c.81,0,1.16.62,1.53,1.43,1.37,3,1.77,5,1.24,6.12a1.61,1.61,0,0,1-1.12.88l-.62.15a11.18,11.18,0,0,1-2.84.48h-.31Zm2.11-8.5a6,6,0,0,0-1.4.26L139,76c-.85.2-.83.66-.55,1.9.06.26.12.52.16.79a7.63,7.63,0,0,1-.2,3.5c-.15.58-.22.9-.07,1.19s.09.17.62.17h.18a10.84,10.84,0,0,0,2.71-.46l.62-.16a1.05,1.05,0,0,0,.75-.58c.45-.92,0-2.83-1.25-5.65C141.54,75.86,141.32,75.63,140.92,75.63Zm-1.67,7.57a.61.61,0,0,1-.48-.27,1,1,0,0,1-.09-.92,15.45,15.45,0,0,0,.12-3.46,6.7,6.7,0,0,0-.29-1.1c-.11-.33-.19-.57-.07-.79a.81.81,0,0,1,.57-.34l.52-.14.23-.06a3.47,3.47,0,0,1,1-.15c.39-.06.6.12.87.72.83,1.83,1.7,4.27,1.12,5.47a1.13,1.13,0,0,1-.76.62A10.17,10.17,0,0,1,139.25,83.19Zm1.68-6.71a.26.26,0,0,1-.12,0,2.9,2.9,0,0,0-.9.13l-.22.06-.55.15a.63.63,0,0,0-.22.08s.07.18.12.33a7.22,7.22,0,0,1,.32,1.21,16.41,16.41,0,0,1-.15,3.7c-.1.29,0,.44.06.47a9.45,9.45,0,0,0,2.61-.4.59.59,0,0,0,.43-.34c.18-.37.42-1.58-1.12-5C141,76.55,140.94,76.49,140.93,76.48Z" transform="translate(62.95 24.57)"/><path d="M171.9,69.87a3.34,3.34,0,1,1,3.34-3.34A3.34,3.34,0,0,1,171.9,69.87Zm0-5.8a2.47,2.47,0,1,0,2.47,2.47A2.47,2.47,0,0,0,171.9,64.07Z" transform="translate(62.95 24.57)"/><path d="M171.9,69.7a3.16,3.16,0,1,1,3.16-3.16A3.17,3.17,0,0,1,171.9,69.7Zm0-5.8a2.64,2.64,0,1,0,2.64,2.64A2.64,2.64,0,0,0,171.9,63.9Z" transform="translate(62.95 24.57)"/><path d="M171.9,69.87a3.34,3.34,0,1,1,3.34-3.34A3.34,3.34,0,0,1,171.9,69.87Zm0-5.8a2.47,2.47,0,1,0,2.47,2.47A2.47,2.47,0,0,0,171.9,64.07Z" transform="translate(62.95 24.57)"/><path class="cls-7" d="M171.9,69.7a3.16,3.16,0,1,1,3.16-3.16A3.17,3.17,0,0,1,171.9,69.7Zm0-5.8a2.64,2.64,0,1,0,2.64,2.64A2.64,2.64,0,0,0,171.9,63.9Z" transform="translate(62.95 24.57)"/><path d="M172.07,68.25a1.73,1.73,0,0,1-.68-.14,1.66,1.66,0,0,1-.9-.91,1.78,1.78,0,0,1,0-1.34,1.68,1.68,0,0,1,.36-.55,1.64,1.64,0,0,1,.54-.37,1.74,1.74,0,0,1,.7-.14,1.79,1.79,0,0,1,.77.15,1.74,1.74,0,0,1,.54.41l.11.12-.75.8-.13-.13a1.23,1.23,0,0,0-.26-.21.58.58,0,0,0-.29-.06.48.48,0,0,0-.21,0,.52.52,0,0,0-.17.13.61.61,0,0,0-.12.2.73.73,0,0,0,0,.25.8.8,0,0,0,0,.27.59.59,0,0,0,.12.2.6.6,0,0,0,.7.12,1.4,1.4,0,0,0,.28-.2l.12-.11.73.73-.11.12a2.08,2.08,0,0,1-.54.42A1.66,1.66,0,0,1,172.07,68.25Z" transform="translate(62.95 24.57)"/><path class="cls-7" d="M172.79,67.93a1.49,1.49,0,0,1-.72.15,1.55,1.55,0,0,1-.62-.12,1.49,1.49,0,0,1-.81-.82,1.53,1.53,0,0,1-.12-.59h0a1.55,1.55,0,0,1,.12-.6,1.53,1.53,0,0,1,.32-.49,1.49,1.49,0,0,1,.49-.33,1.58,1.58,0,0,1,.63-.12,1.61,1.61,0,0,1,.7.13,1.56,1.56,0,0,1,.49.36l-.51.55a1.37,1.37,0,0,0-.3-.24.74.74,0,0,0-.38-.09.65.65,0,0,0-.29.06.72.72,0,0,0-.23.17.8.8,0,0,0-.15.26.92.92,0,0,0-.05.31h0a1,1,0,0,0,.05.32.76.76,0,0,0,.15.26.72.72,0,0,0,.24.17.73.73,0,0,0,.31.06.76.76,0,0,0,.37-.09,1.56,1.56,0,0,0,.31-.23l.49.5A1.9,1.9,0,0,1,172.79,67.93Z" transform="translate(62.95 24.57)"/><circle class="cls-8" cx="595.53" cy="77.77" r="53.19"/></svg>