<svg id="Layer_1" data-name="Layer 1" xmlns="http://www.w3.org/2000/svg" viewBox="0 0 360.07 454.07"><title>37683_Letterhead_H</title><g style="opacity:0.12"><path d="M219.91,377.68c8.91,1.93,20,3.82,33.3,6.69,21.6,4.66,18.57,14.94,4.45,31.17C246,429,224.18,451,218.32,456.38c-9.61,8.83-7.6,16.26.47,16.26l21.88.17c6.81,0,10.63-2.27,12.84-6.8S262,448.93,262,448.93l22.28,16.56,42.88.05V464s-29.76-13.44-43.56-23.78c-11.1-8.32-6.87-16.7-2.82-24.88,4.59-9.26,8.86-21.69-6.92-33.18-10.92-7.95-22-8.56-42.22-11.66L222.16,369c-2.27-.39-5.43,1.26-6.08,3.23-.57,1.73.87,4.81,3.12,5.3Z" transform="translate(-211.65 -19.07)" style="fill:#1f6870"/><path d="M240.74,473.13H219.89c-4.15,0-7-1.48-7.91-4.17-1.25-3.5,1.06-8.18,6.5-13.17s27.34-27.13,39.2-40.77c8.46-9.72,11.85-16.76,10.38-21.53-1.22-4-6.05-6.89-14.38-8.68-7.34-1.58-14.39-2.95-20.07-4.05-4.76-.92-9.68-1.87-13.88-2.78a5.3,5.3,0,0,1-3.55-2.62,4.37,4.37,0,0,1-.35-3.47c.67-2,2.88-3.34,5.63-3.34a9.3,9.3,0,0,1,1.39.11l8,1.36c3,.46,5.73.86,8.34,1.23,15.25,2.2,25.33,3.66,34.9,10.63,15.85,11.54,12,24.1,6.94,33.75-4.21,8-7.72,17.13,3.93,25.12,13.64,9.36,40.77,22.23,41.65,22.56a1.52,1.52,0,0,1,1,.69,1.43,1.43,0,0,1,.1,1,.76.76,0,0,1-.21.46,1.82,1.82,0,0,1-1.39.43h-41.4a1.3,1.3,0,0,1-.76-.25l-21.81-16.24c-1.91,3.8-6.67,13.28-8.41,16.85C251.24,471.4,248,473.13,240.74,473.13ZM221.46,369.2c-2.47,0-4.44,1.13-5,2.89a3.72,3.72,0,0,0,.3,3,4.62,4.62,0,0,0,3.12,2.29c4.19.91,9.11,1.86,13.87,2.78,5.67,1.1,12.73,2.47,20.08,4.05,8.57,1.85,13.57,4.92,14.87,9.13,1.53,5-1.9,12.24-10.52,22.15-11.88,13.65-33.68,35.69-39.25,40.81-5.23,4.81-7.48,9.24-6.33,12.49.85,2.41,3.45,3.73,7.3,3.73h20.85c6.92,0,10-1.63,12.42-6.49,1.79-3.69,6.81-13.67,8.59-17.2l.17-.35,22.43,16.7a.59.59,0,0,0,.37.12h41.4c.75,0,.94-.21.95-.29v-.07l0,0a.73.73,0,0,0,0-.55.9.9,0,0,0-.6-.38c-.14,0-27.65-12.91-41.85-22.65-12.09-8.29-8.47-17.74-4.14-26,5-9.41,8.7-21.67-6.75-32.92-9.44-6.87-19.45-8.32-34.6-10.5-2.61-.38-5.39-.78-8.35-1.24l-8-1.36A7.8,7.8,0,0,0,221.46,369.2Zm-1.41,102.67c-3.48,0-5.85-1.12-6.66-3.16-1.17-2.92,1-7.3,6-12,6.11-5.83,27.85-27.87,39.32-40.87,9.09-10.3,12.51-17.57,10.76-22.87-1.44-4.38-6.48-7.45-15.42-9.37-7.17-1.55-13.88-2.92-19.8-4.12-5-1-9.82-2-13.94-2.9a4.17,4.17,0,0,1-2.84-1.81,2.84,2.84,0,0,1-.2-2.34c.55-1.67,1.91-2.49,4.16-2.49h.17c.4,0,7.69,1.18,9.15,1.42l5,.76c17.57,2.65,28.18,4.26,37.58,10.89,11.55,8.16,13.65,18.58,6.42,31.86-4.45,8.19-8,18.7,4.52,27.25,14,9.63,40.94,22,41.21,22.15l1.35.62H284.61l-.09-.06L261.57,447.4c-1.11,2.18-7.17,14.08-9.16,18.16-2.33,4.8-4.95,6.19-11.66,6.19Zm1.33-101.29c-2,0-3.08.65-3.54,2a2.22,2.22,0,0,0,.14,1.81,3.56,3.56,0,0,0,2.42,1.51c4.11.89,8.88,1.86,13.92,2.89,5.93,1.21,12.65,2.58,19.82,4.12,9.18,2,14.38,5.19,15.9,9.81,1.82,5.54-1.64,13-10.89,23.5-11.48,13-33.25,35.08-39.37,40.91-4.74,4.52-6.85,8.64-5.79,11.3.71,1.77,2.86,2.75,6.06,2.75l20.7-.12c6.47,0,8.85-1.25,11.08-5.82s9.27-18.38,9.34-18.52l.18-.35,23.48,17.82h39c-5.63-2.63-27.7-13.16-40-21.58-13.06-8.95-8.95-20.32-4.72-28.1,7-12.94,5-23.09-6.22-31-9.27-6.55-19.83-8.14-37.31-10.78l-5-.76c-3.44-.56-8.69-1.4-9-1.41Z" transform="translate(-211.65 -19.07)" style="fill:#f8b271"/><path d="M290.65,426.73c-.75,5.86-3.07,5.77-6.73,1.78-3.41-3.74-4-13.53,12-22.78,25-14.44,70.42-12.28,78.43-21.43a27.62,27.62,0,0,0,4.68.48c1.27,0,3.5-.29,3.5-.29s-3.12,7.86-20,11.42c-16.48,3.46-35.34,5.11-48.31,10.8s-22.11,8.91-23.54,20" transform="translate(-211.65 -19.07)" style="fill:#1f6870"/><path d="M288.07,431.67c-1.15,0-2.57-1-4.39-2.94a8.86,8.86,0,0,1-1.92-7.42c.6-3.9,3.5-9.82,14-15.86,13.45-7.78,33.18-10.82,49-13.26,13.77-2.12,25.67-3.95,29.31-8.11l.12-.14.18,0a28.47,28.47,0,0,0,4.62.47c1.23,0,3.44-.28,3.46-.28l.55-.07-.21.51c-.12.33-3.37,8.07-20.22,11.61-5.05,1.06-10.39,2-15.57,2.84-11.66,2-23.71,4-32.68,7.95l-2.57,1.12c-11.72,5.1-19.47,8.46-20.77,18.64-.37,2.86-1.13,4.43-2.32,4.81A2,2,0,0,1,288.07,431.67Zm86.36-47c-3.93,4.23-15.82,6.07-29.58,8.18-15.8,2.44-35.46,5.47-48.81,13.18-10.23,5.92-13.06,11.64-13.64,15.39a8.37,8.37,0,0,0,1.76,6.89c1.9,2.07,3.36,3,4.3,2.67s1.55-1.73,1.87-4.27c1.35-10.55,9.66-14.16,21.16-19.16l2.57-1.11c9-4,21.14-6,32.84-8,5.16-.87,10.5-1.77,15.53-2.83,14-2.94,18.44-8.92,19.49-10.7-.76.08-2.06.21-2.93.21A27.72,27.72,0,0,1,374.43,384.65Z" transform="translate(-211.65 -19.07)" style="fill:#f8b271"/><path d="M374.31,384.3a27.66,27.66,0,0,0,4.69.48c1.26,0,3.49-.29,3.49-.29s-3.11,7.87-20,11.41c-16.48,3.47-35.73,4.67-48.7,10.36s-21.72,9.36-23.14,20.47c-.41,3.18-1.29,4.61-2.58,4.61-1.09,0-2.49-1-4.16-2.83-3.41-3.74-4-13.54,12-22.78,25-14.44,70.42-12.28,78.43-21.43m0-1a1,1,0,0,0-.72.33c-3.48,4-15.27,5.79-28.93,7.9-15.9,2.45-35.7,5.5-49.25,13.33-10.76,6.22-13.72,12.4-14.31,16.48a9.56,9.56,0,0,0,2.12,7.91c2,2.15,3.51,3.15,4.86,3.15,2.84,0,3.37-4.14,3.54-5.5,1.25-9.78,8.71-13.41,20.23-18.42.84-.36,1.6-.71,2.48-1.1,8.89-3.9,21.14-5.62,32.76-7.59,5.19-.88,10.54-1.78,15.6-2.85,17.19-3.61,20.57-11.68,20.7-12a1.06,1.06,0,0,0-.12-1,.94.94,0,0,0-.78-.4h-.11s-2.2.28-3.38.28a27.52,27.52,0,0,1-4.51-.46.55.55,0,0,0-.18,0" transform="translate(-211.65 -19.07)" style="fill:#1f6870"/><path d="M288.08,432.69c-1.45,0-3.07-1-5.1-3.25a9.93,9.93,0,0,1-2.21-8.18c.6-4.15,3.6-10.42,14.48-16.71,13.61-7.87,33.44-10.92,49.36-13.37,13.62-2.1,25.34-3.91,28.74-7.8a1.32,1.32,0,0,1,1.21-.41,27.37,27.37,0,0,0,4.44.45c1.12,0,3.2-.25,3.32-.27h.17a1.31,1.31,0,0,1,1.05.54,1.4,1.4,0,0,1,.15,1.33c-.13.35-3.57,8.57-20.93,12.22-5,1-10.28,1.95-15.39,2.81l-.22,0c-18.32,3.1-29.82,5.93-35.16,8.66-1.09.56-2.15,1.1-3.18,1.61-9.49,4.77-15.76,7.91-16.87,16.56C291.76,428.34,291.2,432.69,288.08,432.69Zm86.23-49.1a.62.62,0,0,0-.47.22c-3.56,4.06-15.39,5.89-29.09,8-15.91,2.45-35.67,5.49-49.18,13.3-10.65,6.16-13.57,12.23-14.15,16.25a9.27,9.27,0,0,0,2,7.64c1.9,2.08,3.37,3,4.62,3,2.55,0,3.05-3.92,3.22-5.22,1.15-9,7.89-12.37,17.22-17.05l3.18-1.61c5.4-2.76,17-5.61,35.34-8.72l.22,0c5.11-.86,10.38-1.76,15.37-2.81,17-3.58,20.33-11.48,20.46-11.82a.78.78,0,0,0-.08-.71.64.64,0,0,0-.52-.27h-.09a33.76,33.76,0,0,1-3.4.28,26.51,26.51,0,0,1-4.58-.47Zm-86.23,48.08c-1.16,0-2.56-.94-4.4-2.95a8.85,8.85,0,0,1-1.92-7.42c.6-3.89,3.51-9.81,14-15.85,13.43-7.77,32.4-10.77,49.13-13.43,13.77-2.18,25.68-4.07,29.43-8.16v0h0l.06-.06.13.11a21.81,21.81,0,0,0,4.5.58c1.22,0,3.43-.28,3.45-.28l.55-.07-.2.51c-.13.33-3.38,8.07-20.23,11.61-2.64.56-5.55,1.09-9.16,1.69-2.53.42-5.05.8-7.58,1.19l-2.61.4c-3.38.52-6.87,1.06-10.29,1.67-1.07.19-2.15.39-3.22.6a106.66,106.66,0,0,0-10.36,2.76,78.92,78.92,0,0,0-10.23,3.75c-.93.44-1.87.9-2.79,1.38s-1.83.95-2.71,1.46-1.7,1-2.52,1.5c-2.78,1.76-6.22,4.25-8.11,8a21.17,21.17,0,0,0-2,6.15C290.48,430.16,289.58,431.67,288.08,431.67Zm86.44-47.13c-4.13,4.09-15.95,6-29.57,8.12-16.67,2.65-35.58,5.65-48.91,13.35-10.23,5.91-13.06,11.64-13.64,15.39a8.37,8.37,0,0,0,1.76,6.89c1.66,1.81,3,2.73,3.92,2.73.69,0,1.68-.45,2.25-4.34a22.1,22.1,0,0,1,2.08-6.34c2-3.91,5.49-6.47,8.35-8.27.82-.52,1.67-1,2.54-1.52s1.81-1,2.73-1.47,1.88-.95,2.81-1.38a79.42,79.42,0,0,1,10.32-3.79,106.58,106.58,0,0,1,10.43-2.77c1.07-.21,2.15-.42,3.22-.61,3.43-.61,6.93-1.15,10.31-1.67l2.61-.4c2.53-.39,5-.77,7.57-1.19,3.6-.6,6.5-1.13,9.14-1.68,14-2.94,18.43-8.92,19.48-10.7-.76.08-2.05.21-2.92.21A22,22,0,0,1,374.52,384.54Z" transform="translate(-211.65 -19.07)" style="fill:#f8b271"/><path d="M308.31,446.62c-3.66-.11-8.07-2.08-7.7-6.44s-.27-6.81-.65-10.36-.62-6.45,2.09-8.65c4.13-3.36,10.27-4.86,16.36-4.44s9.29,5.55,7.24,7.65-10.37.48-13.08,2.53c-3.7,2.79-2.23,7.28,1.29,6.47s7.32-2.81,8-1.74c1.82,3.07-1.47,4.48-4.38,4.88s-5.11,1-4.73,3.88,1.17,6.38-4.4,6.22" transform="translate(-211.65 -19.07)" style="fill:#1f6870"/><path d="M308.68,447h-.38c-2.13-.06-5-.8-6.68-2.69a5.27,5.27,0,0,1-1.33-4.1,32.14,32.14,0,0,0-.35-7.86c-.1-.77-.21-1.57-.3-2.43-.37-3.38-.71-6.58,2.2-8.94,4.08-3.32,10.12-5,16.59-4.51,4.23.29,7.05,2.78,7.89,5a3,3,0,0,1-.44,3.23c-1.12,1.15-3.78,1.26-6.6,1.38-2.58.11-5.26.22-6.51,1.17-2,1.53-2.34,3.52-1.78,4.72a2.31,2.31,0,0,0,2.8,1.19c1.23-.29,2.52-.73,3.67-1.12,2.37-.8,4.09-1.39,4.64-.48a3,3,0,0,1,.33,2.86c-.86,1.78-3.75,2.35-4.95,2.51-3.2.43-4.77,1.1-4.45,3.52l.06.44c.24,1.72.51,3.66-.61,4.91C311.74,446.54,310.49,447,308.68,447Zm-.36-.66c1.81.06,3-.28,3.68-1,.92-1,.68-2.74.45-4.39l-.06-.44c-.43-3.24,2.24-3.88,5-4.26,2.28-.3,3.94-1.11,4.44-2.15a2.28,2.28,0,0,0-.3-2.23c-.28-.47-2.27.21-3.88.76a38.81,38.81,0,0,1-3.73,1.13,3,3,0,0,1-3.53-1.55c-.67-1.43-.33-3.76,2-5.5,1.41-1.07,4.19-1.19,6.88-1.31s5.22-.22,6.16-1.19a2.33,2.33,0,0,0,.29-2.54c-.77-2-3.38-4.28-7.32-4.55-6.22-.42-12.25,1.2-16.14,4.36-2.64,2.15-2.33,5-2,8.37.09.85.2,1.64.31,2.41a33.31,33.31,0,0,1,.35,8,4.64,4.64,0,0,0,1.16,3.61,9,9,0,0,0,6.22,2.47Z" transform="translate(-211.65 -19.07)" style="fill:#f8b271"/><path d="M316.4,416.05c-5.93,0-11.46,1.74-15.18,4.76-3,2.43-2.65,5.65-2.28,9.05.09.86.2,1.66.31,2.44a31.88,31.88,0,0,1,.34,7.85,5.65,5.65,0,0,0,2.74,5.35,11.77,11.77,0,0,0,5.93,1.73h.42a7,7,0,0,0,3.78-.87c1.93-1.25,1.61-3.54,1.33-5.56l-.06-.45c-.33-2.47,1.34-2.88,3.94-3.24a8.38,8.38,0,0,0,4.95-2,2.79,2.79,0,0,0,.16-3.63,1.89,1.89,0,0,0-1.71-.72,14.34,14.34,0,0,0-4,1,36.76,36.76,0,0,1-3.56,1.08,1.78,1.78,0,0,1-.44.06,1.39,1.39,0,0,1-1.09-.58c-1-1.17-.69-3.42,1.41-5,1.06-.79,3.56-.9,6-1,2.9-.12,5.89-.25,7.2-1.59s.94-3.27-.6-5.11a10.59,10.59,0,0,0-7.41-3.45c-.71-.05-1.42-.08-2.13-.08" transform="translate(-211.65 -19.07)" style="fill:#1f6870"/><path d="M308.68,447.56h-.41a11.93,11.93,0,0,1-6.12-1.78,6,6,0,0,1-2.88-5.65,31.79,31.79,0,0,0-.35-7.78c-.1-.77-.21-1.58-.3-2.44-.38-3.5-.74-6.8,2.4-9.35,3.78-3.06,9.38-4.82,15.38-4.82.74,0,1.46,0,2.15.07a10.92,10.92,0,0,1,7.64,3.57c1.65,2,1.89,4.2.58,5.54s-4.44,1.57-7.39,1.69c-2.28.1-4.83.2-5.81.94a4.26,4.26,0,0,0-1.79,2.81,2.26,2.26,0,0,0,.43,1.74,1.1,1.1,0,0,0,1.21.41c1.2-.28,2.55-.74,3.53-1.08a14.29,14.29,0,0,1,4.12-1,2.22,2.22,0,0,1,2,.87,3.13,3.13,0,0,1-.2,4,8.81,8.81,0,0,1-5.15,2.15c-2.7.36-3.94.77-3.66,2.87l.06.45c.28,2,.63,4.51-1.47,5.87A7.23,7.23,0,0,1,308.68,447.56Zm7.72-31.18c-5.85,0-11.31,1.7-15,4.68-2.87,2.32-2.53,5.45-2.17,8.77.09.86.2,1.65.31,2.42a33,33,0,0,1,.35,7.93,5.33,5.33,0,0,0,2.59,5.05,11.33,11.33,0,0,0,5.76,1.67h.41a6.68,6.68,0,0,0,3.6-.82c1.76-1.14,1.47-3.23,1.19-5.25l-.06-.44c-.4-3,2-3.31,4.21-3.61a8.18,8.18,0,0,0,4.77-1.94,2.49,2.49,0,0,0,.11-3.25,1.64,1.64,0,0,0-1.43-.55,14,14,0,0,0-3.91,1c-1,.34-2.36.81-3.59,1.09a1.75,1.75,0,0,1-1.87-.63,3,3,0,0,1-.57-2.23,4.94,4.94,0,0,1,2.05-3.25c1.14-.86,3.69-1,6.15-1.07,2.84-.12,5.76-.24,7-1.49,1.07-1.09.82-3-.61-4.67a10.22,10.22,0,0,0-7.19-3.34C317.83,416.4,317.12,416.38,316.4,416.38Zm-8,30.09H308c-1.35-.06-4.74-.85-6.53-2.89a4.44,4.44,0,0,1-1.15-3.42,31.43,31.43,0,0,0-.35-7.86c-.1-.78-.21-1.57-.3-2.43-.37-3.41-.42-6.21,2.5-8.58,3.63-2.95,8.6-4.49,14.42-4.46,4.83,0,8.5,2.48,9.52,4.85a2.33,2.33,0,0,1-.32,2.68c-1.13,1.16-3.67,1.16-6.37,1.14-2.48,0-5.06,0-6.31.93a5.81,5.81,0,0,0-2.29,6,1.64,1.64,0,0,0,1.62,1.21,25.42,25.42,0,0,0,4.24-1.07,23.23,23.23,0,0,1,4.33-1.07,1.21,1.21,0,0,1,1.15.54,2.57,2.57,0,0,1,0,2.34c-.61,1.07-2.17,1.79-4.65,2.13-3.43.46-4.76,1.63-4.46,3.89s0,3.77-1,4.8A4.75,4.75,0,0,1,308.4,446.47Zm8-29c-5.58,0-10.37,1.49-13.84,4.31-2.67,2.17-2.63,4.69-2.27,8,.09.85.2,1.64.31,2.41a33.31,33.31,0,0,1,.35,8,3.81,3.81,0,0,0,1,2.93c1.65,1.87,4.87,2.61,6.08,2.67a4.47,4.47,0,0,0,3.58-1.09c.8-.88,1.07-2.31.81-4.27-.46-3.47,2.64-4.31,5-4.63,2.22-.3,3.67-.92,4.16-1.8a1.91,1.91,0,0,0,0-1.77.89.89,0,0,0-.56-.14,24.46,24.46,0,0,0-4.14,1,24.25,24.25,0,0,1-4.41,1.1,2.24,2.24,0,0,1-2.25-1.64c-.64-1.84.13-4.92,2.5-6.71,1.44-1.08,4.11-1.07,6.72-1.06,2.43,0,5,0,5.89-.94a1.72,1.72,0,0,0,.19-2c-1-2.21-4.53-4.46-8.93-4.46h-.16Z" transform="translate(-211.65 -19.07)" style="fill:#f8b271"/><path d="M368.44,446.65c-6.09,0-13.16-1.21-13.2-7.63s-1.64-15.23-1-18.24,4.2-4.22,6.77-4.14,9.71,1.62,6.77,11.32c-1.28,4.25-4.18,9.41-2.78,10.72,2,1.85,7.91,1.15,10.15.32s4.94-.43,5.64,1.45.05,6.2-12.39,6.2" transform="translate(-211.65 -19.07)" style="fill:#1f6870"/><path d="M368.44,447c-8.94,0-13.49-2.68-13.52-8,0-2.78-.33-6-.63-9.06-.39-4-.72-7.51-.33-9.26.76-3.35,4.69-4.48,7.1-4.39.73,0,4.48.28,6.51,3.09,1.49,2.07,1.68,5,.56,8.66-.4,1.33-.95,2.74-1.49,4.1-1.07,2.72-2.18,5.53-1.38,6.29,1.85,1.73,7.73,1,9.82.24,2.3-.85,5.27-.46,6.05,1.65a3.41,3.41,0,0,1-.44,3.19C379.6,445.1,376.58,447,368.44,447Zm-7.61-30c-2.22,0-5.58,1-6.24,3.89-.37,1.64,0,5.24.35,9,.3,3.1.61,6.3.63,9.12,0,4.85,4.36,7.31,12.87,7.31,7.86,0,10.71-1.73,11.72-3.17a2.8,2.8,0,0,0,.36-2.6c-.64-1.73-3.21-2-5.21-1.26-2.17.8-8.34,1.64-10.49-.38-1.12-1.06,0-3.81,1.22-7,.53-1.35,1.08-2.74,1.47-4.05,1.05-3.47.89-6.19-.47-8.09-1.85-2.57-5.32-2.8-6-2.82Z" transform="translate(-211.65 -19.07)" style="fill:#f8b271"/><path d="M361.87,421.53c.07,0-.81-1.19-.73-1.18,2.57.07,6.88-2.56,3.93,7.15-1.28,4.25-3.14,10.42-1.74,11.73.91.86,2.64,3.08,4.51,3.08a32.36,32.36,0,0,0,7.3-.93,6.47,6.47,0,0,1,2.11-.73c1.54,0,1.07-.58,1.55.69.7,1.88,2.29,4.55-10.15,4.55-6.09,0-10.56-.89-10.6-7.31-.06-8.53,0-11.09,1.22-16.32.66-2.92-.68-1.91,1.87-1.91m-.32-4.3c-3,0-6.65,1.45-7.37,4.64-.4,1.76-.06,5.24.33,9.28.3,3.08.61,6.27.62,9,0,3.75,2.48,8.21,14,8.21,5.88,0,9.92-.94,12-2.79a3.7,3.7,0,0,0,1.21-4.14c-.53-1.41-2.14-2.3-4.2-2.3a7.75,7.75,0,0,0-2.64.48,17.24,17.24,0,0,1-5.21.78c-1.86,0-3.24-.33-3.87-.92s.47-3.71,1.43-6.15c.53-1.36,1.09-2.77,1.5-4.11,1.33-4.4.8-7.71-1.56-9.82a9.83,9.83,0,0,0-6-2.2h-.27" transform="translate(-211.65 -19.07)" style="fill:#1f6870"/><path d="M368.44,447.56c-11.83,0-14.34-4.64-14.36-8.53,0-2.79-.33-6-.63-9-.39-4.11-.73-7.58-.32-9.39.76-3.35,4.52-4.88,7.69-4.88h.28a10.24,10.24,0,0,1,6.2,2.29c2.47,2.2,3,5.62,1.66,10.15-.4,1.33-.95,2.71-1.47,4.05l0,.09c-.72,1.84-2.08,5.26-1.51,5.79s1.7.75,3.66.84a14.6,14.6,0,0,0,4.09-.68c3.08-.8,6.58-1.7,8.45,1.75a4.29,4.29,0,0,1-1.5,4.67C378.51,446.59,374.4,447.56,368.44,447.56Zm-7.62-31.18c-2.92,0-6.37,1.37-7.05,4.38-.39,1.7-.06,5.13.32,9.1.31,3.16.62,6.35.64,9.16,0,5.16,4.77,7.89,13.71,7.89,5.8,0,9.76-.91,11.77-2.71a3.76,3.76,0,0,0,1.36-3.88c-1.63-3-4.59-2.24-7.72-1.44a15.26,15.26,0,0,1-4.28.71c-2.18-.1-3.43-.41-4.08-1-.82-.77.05-3.18,1.36-6.5l0-.09c.52-1.33,1.06-2.7,1.46-4,1.29-4.28.8-7.47-1.47-9.49a9.51,9.51,0,0,0-5.79-2.12Zm6.57,29.85c-5,0-8.19-.87-10.1-2.72a6.43,6.43,0,0,1-1.88-4.76c0-2.81-.34-6-.62-8.82-.37-3.76-.7-7-.31-8.76s3.17-3.88,6.12-3.95h0c3.2.09,5.36,1,6.61,2.71s1.46,4.57.39,8.11c-.38,1.25-.86,2.56-1.33,3.83-1,2.83-2.12,5.77-1.47,6.78s3,1.47,4.84,1.47a15,15,0,0,0,5.09-.87,5.38,5.38,0,0,1,2.06-.39c1.19,0,3.4,0,4,1.6a2.63,2.63,0,0,1-.3,2.47c-1.35,2-5.34,3.1-11.85,3.28Zm-6.78-28.36c-2.62.06-5.15,1.93-5.49,3.45s0,5,.32,8.55c.28,2.83.6,6,.62,8.87a5.79,5.79,0,0,0,1.68,4.3c1.91,1.84,5.47,2.67,10.9,2.52,7.84-.21,10.49-1.75,11.33-3a2,2,0,0,0,.23-1.88c-.4-1.08-2-1.17-3.39-1.17a4.84,4.84,0,0,0-1.84.35,15.76,15.76,0,0,1-5.31.91c-1.71,0-4.61-.56-5.39-1.77s.22-4.1,1.41-7.36c.47-1.26.94-2.56,1.32-3.79,1-3.33.91-5.87-.3-7.54S363.59,418,360.61,417.87Z" transform="translate(-211.65 -19.07)" style="fill:#f8b271"/><path d="M352.22,435c-.54-5.08-3.39-9.55-6.21-15.05s-9.59-3.81-12.37-.95c-7.12,7.33-7.34,17.64-7.75,23.56s2.09,6.55,5.07,6.5c6.61-.12,4.31-3.45,4.41-5.94.07-1.7.73-1.87,1.8-1.93a42.45,42.45,0,0,0,5.16-.74c1.67-.35,1.5,1.94,1.46,3.84s.21,4,5,3.55,4.25-5.42,3.44-12.84m-10.62,2c-2.55.63-5.75,1.27-6.31.2s1.15-2.47.61-5.81c-.28-1.66-.55-3.11,1.17-3.52s3.27-1.12,4.13.79c1.24,2.73,2.94,7.72.4,8.34" transform="translate(-211.65 -19.07)" style="fill:#1f6870"/><path d="M330.64,449a5.1,5.1,0,0,1-3.85-1.23c-1-1.07-1.42-2.91-1.22-5.61,0-.56.07-1.16.11-1.79.34-6,.86-14.93,7.39-21.66a10.39,10.39,0,0,1,8.34-2.85,6.37,6.37,0,0,1,4.88,3.56c.51,1,1,1.94,1.51,2.88,2.3,4.32,4.29,8.05,4.75,12.28h0c.58,5.37,1,9.6-.69,11.73a4.26,4.26,0,0,1-3.05,1.47c-2.13.21-3.58-.07-4.42-.84a3.8,3.8,0,0,1-.92-3v-.39c0-1.17.06-2.61-.44-3a.74.74,0,0,0-.64-.09,44.34,44.34,0,0,1-5.21.75c-1,.05-1.43.14-1.49,1.61a9.15,9.15,0,0,0,.14,1.61c.18,1.17.37,2.39-.41,3.32s-2.15,1.28-4.47,1.32Zm9.59-32.58a10,10,0,0,0-6.69,2.74c-6.36,6.55-6.88,15.4-7.22,21.25,0,.63-.07,1.23-.11,1.79-.18,2.51.17,4.19,1.05,5.12a4.7,4.7,0,0,0,3.69,1c2.09,0,3.39-.39,4-1.09s.44-1.72.27-2.81a8.43,8.43,0,0,1-.15-1.73c.08-2,1-2.17,2.11-2.23a43.74,43.74,0,0,0,5.11-.74,1.35,1.35,0,0,1,1.18.23c.74.62.71,2.1.68,3.54v.4a3.21,3.21,0,0,0,.71,2.54c.69.63,2,.86,3.91.67a3.67,3.67,0,0,0,2.62-1.23c1.55-1.92,1.1-6,.54-11.25h0c-.44-4.1-2.4-7.78-4.67-12.05-.5-.93-1-1.89-1.51-2.88a5.78,5.78,0,0,0-4.41-3.22A7.73,7.73,0,0,0,340.23,416.4ZM337,437.68c-1,0-1.67-.21-2-.75a2.36,2.36,0,0,1,.16-1.92,7.58,7.58,0,0,0,.41-4v-.1c-.27-1.63-.55-3.31,1.43-3.79l.64-.16c1.47-.39,3-.79,3.86,1.13.76,1.68,2.42,5.78,1.46,7.77a1.86,1.86,0,0,1-1.27,1h0A22,22,0,0,1,337,437.68Zm2.48-10.39a6.83,6.83,0,0,0-1.65.31l-.65.16c-1.33.32-1.23,1.27-.94,3.06l0,.09a8.19,8.19,0,0,1-.45,4.3c-.24.72-.35,1.1-.19,1.42.34.64,2.33.52,5.94-.36h0a1.21,1.21,0,0,0,.84-.68c.69-1.42-.3-4.66-1.46-7.22A1.49,1.49,0,0,0,339.44,427.29Z" transform="translate(-211.65 -19.07)" style="fill:#f8b271"/><path d="M340.27,416.78c2.27,0,4.44.24,5.74,2.77,2.82,5.5,5.67,10,6.21,15.05.81,7.42,1.33,12.36-3.44,12.84q-.69.06-1.26.06c-3.56,0-3.76-1.89-3.73-3.61S344,440,342.65,440a1.27,1.27,0,0,0-.32,0,42.45,42.45,0,0,1-5.16.74c-1.07.06-1.73.23-1.8,1.93-.1,2.49,2.2,5.82-4.41,5.94h-.31c-2.84,0-5.17-.79-4.76-6.5a34.38,34.38,0,0,1,9.51-21.86c1.49-1.54,2.2-3.52,4.87-3.52m-2.39,21.54c1.3,0,2.94-1.12,4.5-1.5,2.54-.62.94-7.43-.73-9.72a4.64,4.64,0,0,0-2.72-1.77,18.72,18.72,0,0,0-2.88.73c-1.73.41-3.51,3.46-1.55,4.91,2.81,2.08-1.5,6.71-.93,7.8.22.42,2.56-.69,3.38-.69m3.28-22.6a11.23,11.23,0,0,0-7.61,3.09c-6.59,6.78-7.11,15.8-7.46,21.77,0,.63-.07,1.23-.11,1.79-.22,3.13.33,5.08,1.75,6.14a6.3,6.3,0,0,0,3.85,1H331c2.17,0,3.66-.42,4.55-1.15,1.25-1,1-2.43.82-3.79a9,9,0,0,1-.14-1.58c.05-1.3.32-1.32,1-1.35a44.08,44.08,0,0,0,5.33-.77h.06c.4.31.36,2,.34,2.88v.39a3.72,3.72,0,0,0,1.26,3.39,5.6,5.6,0,0,0,3.3.83,13.52,13.52,0,0,0,1.37-.07c5.56-.56,5-5.7,4.17-13.48-.46-4.25-2.45-8-4.75-12.33-.5-.93-1-1.88-1.52-2.87a7.05,7.05,0,0,0-6.56-3.87M337,436.76c-.24,0-.79,0-.87-.19s0-.72.2-1.32a8.27,8.27,0,0,0,.45-4.35l0-.11c-.29-1.75-.32-2.55.62-2.77l.66-.17a6.24,6.24,0,0,1,1.43-.28c.2,0,.6,0,1,.85,1.82,4,2.22,7.28.93,7.59a21.85,21.85,0,0,1-4.38.75" transform="translate(-211.65 -19.07)" style="fill:#1f6870"/><path d="M330.65,449.58a6.66,6.66,0,0,1-4-1.05c-1.51-1.13-2.1-3.18-1.87-6.43,0-.55.07-1.15.11-1.78.35-6,.88-15.11,7.55-22a11.56,11.56,0,0,1,7.84-3.2,7.38,7.38,0,0,1,6.85,4.05c.47.91.93,1.78,1.39,2.64l.12.23c2.32,4.37,4.33,8.13,4.79,12.45.62,5.71,1.06,9.83-.79,12.11a5.09,5.09,0,0,1-3.67,1.72,13.53,13.53,0,0,1-1.4.07,5.92,5.92,0,0,1-3.49-.89,4.09,4.09,0,0,1-1.4-3.65v-.4a8.15,8.15,0,0,0-.15-2.51,43.86,43.86,0,0,1-5.24.74c-.62,0-.68,0-.72,1a7.35,7.35,0,0,0,.13,1.42v.1c.22,1.38.46,3-.93,4.09-.95.78-2.51,1.18-4.76,1.22Zm9.58-33.78a10.9,10.9,0,0,0-7.38,3c-6.49,6.69-7,15.63-7.36,21.55q-.06,1-.12,1.8c-.21,3,.31,4.87,1.62,5.87a6.1,6.1,0,0,0,3.66.91H331c2.1,0,3.52-.39,4.36-1.07,1.1-.9.91-2.16.7-3.49v-.1a8.58,8.58,0,0,1-.14-1.55c.06-1.45.44-1.61,1.34-1.66a44.15,44.15,0,0,0,5.28-.75l.15,0,.17.08c.45.34.51,1.46.47,3.14v.39a3.36,3.36,0,0,0,1.13,3.11,5.3,5.3,0,0,0,3.11.77,12.41,12.41,0,0,0,1.34-.07,4.47,4.47,0,0,0,3.23-1.48c1.68-2.07,1.22-6.28.65-11.62-.46-4.2-2.43-7.92-4.72-12.22l-.12-.23c-.46-.86-.93-1.75-1.4-2.66A6.74,6.74,0,0,0,340.23,415.8Zm-9.51,32.49c-1.47,0-3,0-3.92-1s-1.17-2.56-1-5.14l.06-.9c.4-6,1-15,7.86-22.08a8.84,8.84,0,0,1,6.53-2.69c2.17,0,4.41.24,5.84,3,.53,1,1.06,2,1.58,3,2.27,4.24,4.22,7.9,4.68,12.08.78,7.24,1,12-3.53,12.74l-.45.09a3.87,3.87,0,0,1-.81.12,4.31,4.31,0,0,1-3.17-1,3.79,3.79,0,0,1-.77-2.91c0-1.78-.18-2.91-.63-3.37a.72.72,0,0,0-.49-.22l-.07,0a47.8,47.8,0,0,1-5.29.78c-.8,0-1.62.3-1.68,1.92a8,8,0,0,0,.14,1.54,3.25,3.25,0,0,1-.32,2.74c-.67.8-2.13,1.2-4.58,1.25Zm9.55-31.19a8.2,8.2,0,0,0-6.06,2.49c-6.69,6.89-7.29,15.79-7.69,21.67l-.06.9c-.17,2.37.1,3.89.82,4.66s1.79.81,3.38.82c2.26-.05,3.6-.38,4.14-1s.32-1.32.18-2.22a7.73,7.73,0,0,1-.15-1.68c.06-1.63.82-2.46,2.29-2.54a45.7,45.7,0,0,0,5.18-.76.4.4,0,0,1,.19,0,1.33,1.33,0,0,1,1,.41c.59.6.85,1.83.82,3.85a3.25,3.25,0,0,0,.58,2.44,3.75,3.75,0,0,0,2.71.76,3.63,3.63,0,0,0,.67-.1l.49-.1c3.62-.57,3.85-4,3-12-.44-4.05-2.37-7.66-4.6-11.85-.52-1-1.06-2-1.59-3C344.27,417.31,342.32,417.1,340.27,417.1Zm-3.33,20.17c-.56,0-.88,0-1.15-.55a2.5,2.5,0,0,1,0-1.86,8.19,8.19,0,0,0,.23-3.83c-.05-.31-.12-.61-.18-.9-.28-1.21-.58-2.59,1.12-3l.62-.16a7.85,7.85,0,0,1,1.81-.32c1,0,1.36.72,1.79,1.67,1.61,3.55,2.08,5.89,1.46,7.18a1.89,1.89,0,0,1-1.31,1l-.72.18a13.33,13.33,0,0,1-3.34.56h-.36Zm2.48-10a7.35,7.35,0,0,0-1.64.3l-.64.16c-1,.24-1,.77-.64,2.23.07.3.14.61.19.93a8.92,8.92,0,0,1-.24,4.11c-.18.68-.26,1.05-.08,1.39s.1.2.72.2h.21a12.76,12.76,0,0,0,3.18-.54l.73-.18a1.26,1.26,0,0,0,.87-.69c.53-1.08,0-3.31-1.46-6.62C340.16,427.57,339.9,427.3,339.42,427.3Zm-1.95,8.87a.74.74,0,0,1-.57-.32,1.22,1.22,0,0,1-.11-1.08,18.16,18.16,0,0,0,.15-4.06,9.15,9.15,0,0,0-.34-1.29c-.13-.38-.23-.66-.08-.93a1,1,0,0,1,.67-.39l.61-.17.27-.07a4,4,0,0,1,1.23-.17c.46-.07.7.13,1,.84,1,2.15,2,5,1.31,6.41a1.3,1.3,0,0,1-.89.73A11.66,11.66,0,0,1,337.47,436.17Zm2-7.87a.24.24,0,0,1-.14,0,3.43,3.43,0,0,0-1.06.16l-.26.07-.64.17a.78.78,0,0,0-.26.09s.08.22.13.39a7.15,7.15,0,0,1,.37,1.43,19.5,19.5,0,0,1-.17,4.34c-.11.33,0,.51.07.54a11,11,0,0,0,3.06-.47.66.66,0,0,0,.5-.39c.21-.43.5-1.86-1.31-5.87A1.5,1.5,0,0,0,339.44,428.3Z" transform="translate(-211.65 -19.07)" style="fill:#f8b271"/><path d="M375.77,420.55a3.92,3.92,0,1,1,3.91-3.91A3.92,3.92,0,0,1,375.77,420.55Zm0-6.81a2.9,2.9,0,1,0,2.89,2.9A2.9,2.9,0,0,0,375.77,413.74Z" transform="translate(-211.65 -19.07)" style="fill:#f8b271"/><path d="M375.77,420.35a3.71,3.71,0,1,1,3.71-3.71A3.72,3.72,0,0,1,375.77,420.35Zm0-6.81a3.1,3.1,0,1,0,3.1,3.1A3.1,3.1,0,0,0,375.77,413.54Z" transform="translate(-211.65 -19.07)" style="fill:#f8b271"/><path d="M375.77,420.55a3.92,3.92,0,1,1,3.91-3.91A3.92,3.92,0,0,1,375.77,420.55Zm0-6.81a2.9,2.9,0,1,0,2.89,2.9A2.9,2.9,0,0,0,375.77,413.74Z" transform="translate(-211.65 -19.07)" style="fill:#f8b271"/><path d="M375.77,420.35a3.71,3.71,0,1,1,3.71-3.71A3.72,3.72,0,0,1,375.77,420.35Zm0-6.81a3.1,3.1,0,1,0,3.1,3.1A3.1,3.1,0,0,0,375.77,413.54Z" transform="translate(-211.65 -19.07)" style="fill:#1f6870"/><path d="M376,418.65a2.17,2.17,0,0,1-.81-.16,1.88,1.88,0,0,1-1.05-1.07,1.83,1.83,0,0,1-.16-.77,1.86,1.86,0,0,1,.16-.79,2,2,0,0,1,.41-.64,2,2,0,0,1,.64-.44,2.18,2.18,0,0,1,.82-.16,2,2,0,0,1,.9.18,2,2,0,0,1,.64.47l.12.14-.87.95-.15-.16a1.62,1.62,0,0,0-.31-.24.71.71,0,0,0-.59,0,.62.62,0,0,0-.2.16,1,1,0,0,0-.14.24.93.93,0,0,0-.05.29,1,1,0,0,0,.05.32,1,1,0,0,0,.14.24.65.65,0,0,0,.21.16.82.82,0,0,0,.28.05.67.67,0,0,0,.33-.07,1.72,1.72,0,0,0,.33-.24l.15-.14.85.86-.13.15a2.44,2.44,0,0,1-.63.49A1.92,1.92,0,0,1,376,418.65Z" transform="translate(-211.65 -19.07)" style="fill:#f8b271"/><path d="M376.81,418.27a1.87,1.87,0,0,1-.84.17,1.79,1.79,0,0,1-.73-.14,1.73,1.73,0,0,1-.57-.38,2,2,0,0,1-.38-.57,1.82,1.82,0,0,1-.13-.7h0a1.82,1.82,0,0,1,.13-.7,1.77,1.77,0,0,1,.38-.58,1.75,1.75,0,0,1,.57-.39,2,2,0,0,1,.74-.14,1.89,1.89,0,0,1,.81.15,2,2,0,0,1,.58.43l-.61.65a1.68,1.68,0,0,0-.34-.28.88.88,0,0,0-.45-.1.77.77,0,0,0-.34.07,1,1,0,0,0-.44.51,1,1,0,0,0-.06.36v0a1.1,1.1,0,0,0,.06.37.87.87,0,0,0,.18.31,1,1,0,0,0,.28.2.86.86,0,0,0,.36.07.83.83,0,0,0,.43-.1,1.67,1.67,0,0,0,.37-.26l.57.58A2.3,2.3,0,0,1,376.81,418.27Z" transform="translate(-211.65 -19.07)" style="fill:#1f6870"/></g><path d="M565.82,47.45a5.91,5.91,0,1,1,5.9-5.9A5.91,5.91,0,0,1,565.82,47.45Zm0-11.15a5.25,5.25,0,1,0,5.25,5.25A5.26,5.26,0,0,0,565.82,36.3Z" transform="translate(-211.65 -19.07)" style="fill:#fff"/><path d="M563.15,40.47v-.19a.07.07,0,0,1,0-.05,2.56,2.56,0,0,1,.34-1.18,2.64,2.64,0,0,1,2-1.32l.24,0H566a2.18,2.18,0,0,1,.62.11,2.62,2.62,0,0,1,1.85,2c0,.1,0,.2,0,.3v.43s0,.08,0,.13a2.64,2.64,0,0,1-.29.9l-.35.58c-.65,1-1.31,2.09-2,3.14l0,0h0l0,0c-.21-.34-.43-.67-.65-1l-1.58-2.56a2.6,2.6,0,0,1-.39-1.08A1.79,1.79,0,0,1,563.15,40.47Zm4.08-.09a1.41,1.41,0,1,0-1.41,1.41A1.42,1.42,0,0,0,567.23,40.38Z" transform="translate(-211.65 -19.07)" style="fill:#fff"/><path d="M565.82,41.31a.94.94,0,1,1,.94-.94A1,1,0,0,1,565.82,41.31Z" transform="translate(-211.65 -19.07)" style="fill:#fff"/><path d="M569.22,26.57c-.39-.31-.79-.61-1.19-.91a.69.69,0,0,0-.56-.09.74.74,0,0,0-.35.26.91.91,0,0,1-.78.38,1.25,1.25,0,0,1-.7-.38l-.67-.68a1.14,1.14,0,0,1-.38-.7.87.87,0,0,1,.37-.78.85.85,0,0,0,.27-.34.72.72,0,0,0-.1-.57c-.3-.39-.6-.8-.91-1.19a.62.62,0,0,0-.62-.17,1.36,1.36,0,0,0-.46.3,2.53,2.53,0,0,0-.9,2.21,4.54,4.54,0,0,0,1.44,2.25l1,.95a4.54,4.54,0,0,0,2.25,1.44,2.58,2.58,0,0,0,2.21-.91,1.23,1.23,0,0,0,.3-.45A.63.63,0,0,0,569.22,26.57Z" transform="translate(-211.65 -19.07)" style="fill:#fff"/><path d="M565.82,30.88a5.91,5.91,0,1,1,5.9-5.91A5.92,5.92,0,0,1,565.82,30.88Zm0-11.16A5.26,5.26,0,1,0,571.07,25,5.26,5.26,0,0,0,565.82,19.72Z" transform="translate(-211.65 -19.07)" style="fill:#fff"/><path d="M563.83,58.05a5.38,5.38,0,0,0,.36,1.93,5.5,5.5,0,0,1,1.46-.23V57.93h-1.82Z" transform="translate(-211.65 -19.07)" style="fill:#fff"/><path d="M563.85,57.6h1.8V56.35a5.94,5.94,0,0,1-1.46-.24A5.3,5.3,0,0,0,563.85,57.6Z" transform="translate(-211.65 -19.07)" style="fill:#fff"/><path d="M565.65,62V60.08a5.77,5.77,0,0,0-1.32.21A4.48,4.48,0,0,0,565.65,62Z" transform="translate(-211.65 -19.07)" style="fill:#fff"/><path d="M564.33,55.81a5.77,5.77,0,0,0,1.32.21V54.13A4.48,4.48,0,0,0,564.33,55.81Z" transform="translate(-211.65 -19.07)" style="fill:#fff"/><path d="M568.11,57.6h1.83a4,4,0,0,0-1-2.23,5.22,5.22,0,0,1-1.22.63A5.81,5.81,0,0,1,568.11,57.6Z" transform="translate(-211.65 -19.07)" style="fill:#fff"/><path d="M565.38,53.92a4.24,4.24,0,0,0-2.5,1.2,4.83,4.83,0,0,0,1.13.58A5.12,5.12,0,0,1,565.38,53.92Z" transform="translate(-211.65 -19.07)" style="fill:#fff"/><path d="M563.88,56a5.25,5.25,0,0,1-1.22-.64,4.15,4.15,0,0,0-1,2.23h1.83A5.66,5.66,0,0,1,563.88,56Z" transform="translate(-211.65 -19.07)" style="fill:#fff"/><path d="M564,60.4a4.83,4.83,0,0,0-1.13.58,4.17,4.17,0,0,0,2.5,1.19A5,5,0,0,1,564,60.4Z" transform="translate(-211.65 -19.07)" style="fill:#fff"/><path d="M563.5,58.05v-.12h-1.83v.12a4.14,4.14,0,0,0,1,2.68,5.53,5.53,0,0,1,1.23-.64A5.56,5.56,0,0,1,563.5,58.05Z" transform="translate(-211.65 -19.07)" style="fill:#fff"/><path d="M567.31,60.29a5.86,5.86,0,0,0-1.33-.21V62A4.6,4.6,0,0,0,567.31,60.29Z" transform="translate(-211.65 -19.07)" style="fill:#fff"/><path d="M566.25,62.17a4.15,4.15,0,0,0,2.5-1.19,4.47,4.47,0,0,0-1.13-.58A4.89,4.89,0,0,1,566.25,62.17Z" transform="translate(-211.65 -19.07)" style="fill:#fff"/><path d="M570,57.93h-1.83v.12a5.56,5.56,0,0,1-.38,2,5.25,5.25,0,0,1,1.22.64,4.1,4.1,0,0,0,1-2.68Z" transform="translate(-211.65 -19.07)" style="fill:#fff"/><path d="M567.44,56.11a5.94,5.94,0,0,1-1.46.24V57.6h1.8A5.3,5.3,0,0,0,567.44,56.11Z" transform="translate(-211.65 -19.07)" style="fill:#fff"/><path d="M566,54.13V56a5.86,5.86,0,0,0,1.33-.21A4.6,4.6,0,0,0,566,54.13Z" transform="translate(-211.65 -19.07)" style="fill:#fff"/><path d="M567.81,58.05s0-.08,0-.12H566v1.82a5.94,5.94,0,0,1,1.46.24A5.23,5.23,0,0,0,567.81,58.05Z" transform="translate(-211.65 -19.07)" style="fill:#fff"/><path d="M567.62,55.7a4.47,4.47,0,0,0,1.13-.58,4.15,4.15,0,0,0-2.5-1.19A4.89,4.89,0,0,1,567.62,55.7Z" transform="translate(-211.65 -19.07)" style="fill:#fff"/><path d="M565.82,64a5.91,5.91,0,1,1,5.9-5.91A5.92,5.92,0,0,1,565.82,64Zm0-11.16a5.25,5.25,0,1,0,5.25,5.25A5.26,5.26,0,0,0,565.82,52.8Z" transform="translate(-211.65 -19.07)" style="fill:#fff"/><path d="M565.81,78h-2.19a1,1,0,0,1-1-.73,1.17,1.17,0,0,1,0-.26V75c0-.18.11-.25.28-.16l2.73,1.42a.38.38,0,0,0,.41,0l2.72-1.42.09,0a.16.16,0,0,1,.2.17v1.82a3.77,3.77,0,0,1,0,.47,1,1,0,0,1-1,.82h-2.22Z" transform="translate(-211.65 -19.07)" style="fill:#fff"/><path d="M565.8,73.22H568a1,1,0,0,1,.94.58c.07.12,0,.2-.09.27l-2.91,1.51a.25.25,0,0,1-.24,0l-2.92-1.53c-.11,0-.13-.12-.08-.23a1,1,0,0,1,.93-.6c.73,0,1.46,0,2.19,0h0Z" transform="translate(-211.65 -19.07)" style="fill:#fff"/><path d="M565.82,81.54a5.91,5.91,0,1,1,5.9-5.91A5.92,5.92,0,0,1,565.82,81.54Zm0-11.16a5.25,5.25,0,1,0,5.25,5.25A5.26,5.26,0,0,0,565.82,70.38Z" transform="translate(-211.65 -19.07)" style="fill:#fff"/></svg>