<?xml version="1.0" encoding="UTF-8" standalone="no"?>
<svg
   xmlns:dc="http://purl.org/dc/elements/1.1/"
   xmlns:cc="http://creativecommons.org/ns#"
   xmlns:rdf="http://www.w3.org/1999/02/22-rdf-syntax-ns#"
   xmlns:svg="http://www.w3.org/2000/svg"
   xmlns="http://www.w3.org/2000/svg"
   xmlns:sodipodi="http://sodipodi.sourceforge.net/DTD/sodipodi-0.dtd"
   xmlns:inkscape="http://www.inkscape.org/namespaces/inkscape"
   version="1.1"
   id="svg2"
   xml:space="preserve"
   width="793.91998"
   height="1122.24"
   viewBox="0 0 793.91998 1122.24"
   sodipodi:docname="Check mark may12.ai"><metadata
     id="metadata8"><rdf:RDF><cc:Work
         rdf:about=""><dc:format>image/svg+xml</dc:format><dc:type
           rdf:resource="http://purl.org/dc/dcmitype/StillImage" /></cc:Work></rdf:RDF></metadata><defs
     id="defs6"><clipPath
       clipPathUnits="userSpaceOnUse"
       id="clipPath18"><path
         d="M 0,841.68 H 595.44 V 0 H 0 Z"
         id="path16" /></clipPath></defs><sodipodi:namedview
     pagecolor="#ffffff"
     bordercolor="#666666"
     borderopacity="1"
     objecttolerance="10"
     gridtolerance="10"
     guidetolerance="10"
     inkscape:pageopacity="0"
     inkscape:pageshadow="2"
     inkscape:window-width="640"
     inkscape:window-height="480"
     id="namedview4" /><g
     id="g10"
     inkscape:groupmode="layer"
     inkscape:label="Check mark may12"
     transform="matrix(1.3333333,0,0,-1.3333333,0,1122.24)"><g
       id="g12"><g
         id="g14"
         clip-path="url(#clipPath18)"><g
           id="g20"
           transform="translate(314.2187,400.4964)"><path
             d="m 0,0 c -19.387,-19.501 -40.404,-65.709 -90.041,-16.641 -29.404,29.068 -40.982,41.716 -66.629,84.748 l -12.223,20.207 c -2.969,4.791 -1.588,13.586 2.828,16.999 3.878,2.986 12.939,2.721 16.156,-1.933 l 1.109,-1.421 c 12.72,-18.4 27.233,-41.755 46.221,-69.303 30.773,-44.643 54.111,-27.693 82.763,20.308 23.724,39.765 60.261,110.904 68.734,129.518 13.892,30.522 34.47,33.195 41.563,14.825 l 19.667,-49.68 c 5.986,-15.499 3.606,-26.426 -5.913,-35.877 C 94.717,102.301 68.526,75.638 68.526,75.638 Z"
             style="fill:#1f6870;fill-opacity:1;fill-rule:nonzero;stroke:none"
             id="path22" /></g><g
           id="g24"
           transform="translate(314.2187,400.4964)"><path
             d="m 0,0 c -19.387,-19.501 -40.404,-65.709 -90.041,-16.641 -29.404,29.068 -40.982,41.716 -66.629,84.748 l -12.223,20.207 c -2.969,4.791 -1.588,13.586 2.828,16.999 3.878,2.986 12.939,2.721 16.156,-1.933 l 1.109,-1.421 c 12.72,-18.4 27.233,-41.755 46.221,-69.303 30.773,-44.643 54.111,-27.693 82.763,20.308 23.724,39.765 60.261,110.904 68.734,129.518 13.892,30.522 34.47,33.195 41.563,14.825 l 19.667,-49.68 c 5.986,-15.499 3.606,-26.426 -5.913,-35.877 C 94.717,102.301 68.526,75.638 68.526,75.638 Z"
             style="fill:none;stroke:#f8b271;stroke-width:4;stroke-linecap:butt;stroke-linejoin:miter;stroke-miterlimit:10;stroke-dasharray:none;stroke-opacity:1"
             id="path26" /></g><g
           id="g28"
           transform="translate(316.0234,468.4261)"><path
             d="M 0,0 C 4.788,5.826 10.6,13.158 17.759,21.879 29.362,36.011 30.68,31.994 28.293,19.175 26.313,8.556 21.808,-10.67 20.45,-15.742 c -2.224,-8.318 0.744,-8.3 4.61,-2.7 L 35.59,-3.276 C 38.851,1.45 40.07,4.527 39.907,6.901 39.743,9.276 39.39,16 39.39,16 L 54.53,28.392 75.089,58.161 74.67,58.45 c 0,0 -17.884,-18.168 -27.283,-25.825 -7.558,-6.157 -7.794,-1.667 -8.056,2.674 -0.296,4.909 -1.602,10.181 -12.263,1.36 C 19.694,30.558 14.228,22.982 3.699,9.515 L -1.274,3.184 c -1.191,-1.504 -2.261,-4.002 -2.041,-4.822 0.193,-0.716 1.712,-0.291 2.924,1.183 z"
             style="fill:#1f6870;fill-opacity:1;fill-rule:nonzero;stroke:none"
             id="path30" /></g><g
           id="g32"
           transform="translate(314.8145,470.7684)"><path
             d="m 0,0 c -0.939,-1.36 -1.304,-2.263 -1.148,-2.841 0.073,-0.267 0.265,-0.349 0.557,-0.236 0.394,0.154 0.949,0.65 1.565,1.398 2.21,2.69 4.755,5.82 7.451,9.132 3.164,3.89 6.751,8.299 10.604,12.993 4.932,6.006 8.288,9.021 10.262,9.218 2.368,0.236 2.722,-3.558 1.116,-11.937 -1.991,-10.389 -6.474,-29.609 -7.834,-34.941 -1.055,-4.137 -0.956,-6.369 0.27,-6.125 0.82,0.163 2.114,1.474 3.645,3.693 l 9.888,14.4 c 3.101,4.493 3.903,6.378 3.737,8.776 -0.162,2.349 -0.512,9.856 -0.515,9.931 l -0.009,0.187 16.054,12.989 18.683,27.076 C 70.919,50.296 57.505,36.925 49.352,29.965 40.684,22.565 39.587,27.534 39.518,31.915 39.4,39.21 35.69,39.684 28.175,33.364 21.967,28.144 16.481,21.112 7.393,9.463 6.556,8.392 5.691,7.283 4.794,6.135 2.991,3.845 0.251,0.356 0.079,0.114 Z m 26.664,-19.765 c -1.667,-2.417 -3.103,-3.85 -4.045,-4.038 -1.346,-0.267 -1.487,2.052 -0.388,6.365 1.359,5.327 5.837,24.528 7.828,34.906 1.576,8.228 1.255,11.955 -1.009,11.73 C 27.179,29.012 23.936,26.079 19.135,20.233 15.283,15.541 11.697,11.133 8.534,7.245 5.838,3.931 3.291,0.8 1.079,-1.892 0.365,-2.76 -0.293,-3.341 -0.774,-3.528 c -0.381,-0.148 -0.631,-0.046 -0.724,0.297 -0.188,0.695 0.245,1.791 1.322,3.352 l 0.081,0.116 c 0.194,0.281 4.002,5.12 4.764,6.088 0.895,1.146 1.761,2.254 2.597,3.325 9.137,11.712 14.653,18.781 20.946,24.073 7.727,6.499 11.543,6.019 11.662,-1.469 0.074,-4.617 1.222,-9.009 9.51,-1.934 9.318,7.955 25.555,24.335 25.718,24.5 L 75.915,55.641 55.714,26.364 55.653,26.316 39.963,13.621 c 0.056,-1.18 0.359,-7.6 0.507,-9.738 0.175,-2.517 -0.705,-4.592 -3.918,-9.249 z M -0.337,0.312 c -1.182,-1.713 -1.818,-3.291 -1.622,-4.02 0.107,-0.396 0.443,-0.517 0.945,-0.338 0.615,0.219 1.382,0.852 2.111,1.737 2.254,2.743 4.867,5.982 7.394,9.114 3.016,3.736 6.769,8.385 10.714,13.192 4.604,5.607 7.829,8.51 9.584,8.626 2.085,0.137 2.39,-3.598 0.933,-11.419 -2.011,-10.791 -6.516,-30.027 -7.807,-34.851 -1.211,-4.528 -1.095,-6.915 0.331,-6.718 1.06,0.145 2.66,1.698 4.506,4.373 l 9.992,14.482 c 3.315,4.803 4.374,7.284 4.197,9.829 -0.133,1.931 -0.421,7.27 -0.52,9.164 l -0.01,0.185 15.247,12.469 c 0.071,0.059 0.146,0.141 0.209,0.233 l 19.837,28.748 c 0.36,0.522 0.396,0.696 0.38,0.716 l -0.021,0.009 v 0.024 c 0,0 -0.035,0.123 -0.17,0.071 C 75.797,55.902 75.664,55.783 75.5,55.586 75.427,55.5 58.774,38.791 49.344,30.741 41.316,23.889 40.5,28.158 40.364,32.697 40.208,37.902 38.69,42.769 28.256,34.135 21.879,28.857 16.694,22.176 8.846,12.062 7.49,10.314 6.051,8.46 4.511,6.489 L 0.306,1.182 C 0.085,0.902 -0.132,0.609 -0.337,0.312 m 37.256,-5.943 -9.992,-14.481 c -1.989,-2.882 -3.734,-4.556 -4.915,-4.718 -1.54,-0.213 -1.696,2.261 -0.436,6.967 1.288,4.817 5.788,24.028 7.796,34.806 1.43,7.676 1.159,11.345 -0.83,11.212 C 26.889,28.047 23.782,25.23 19.311,19.784 15.369,14.981 11.618,10.334 8.604,6.6 6.074,3.466 3.459,0.225 1.201,-2.521 0.374,-3.529 -0.502,-4.25 -1.204,-4.499 c -0.586,-0.209 -0.979,-0.067 -1.105,0.401 -0.227,0.841 0.478,2.619 1.797,4.53 0.223,0.324 0.457,0.641 0.698,0.944 l 4.202,5.305 c 1.536,1.965 2.974,3.818 4.328,5.563 7.898,10.179 13.117,16.903 19.582,22.255 10.707,8.858 12.264,3.873 12.424,-1.46 0.131,-4.402 0.919,-8.546 8.654,-1.943 9.062,7.735 25.528,24.177 26.04,24.73 0.252,0.302 0.482,0.498 0.667,0.567 0.228,0.084 0.304,-0.06 0.325,-0.118 0.025,-0.025 0.054,-0.086 0.024,-0.23 -0.05,-0.235 -0.236,-0.588 -0.553,-1.048 L 56.043,26.249 C 55.913,26.062 55.76,25.891 55.612,25.771 L 40.787,13.648 c 0.108,-2.036 0.381,-7.107 0.511,-8.976 0.185,-2.689 -0.919,-5.289 -4.379,-10.303"
             style="fill:#f8b271;fill-opacity:1;fill-rule:nonzero;stroke:none"
             id="path34" /></g><g
           id="g36"
           transform="translate(363.1406,508.4285)"><path
             d="m 0,0 c 1.221,-1.612 0.084,-3.208 -2.747,-5.005 -2.644,-1.679 -5.58,-0.286 -0.409,12.537 8.078,20.038 30.431,51.187 31.802,58.45 0,0 1.28,1.579 2.374,3.164 0.605,0.877 1.599,2.482 1.599,2.482 0,0 0.625,-3.628 -6.502,-16.004 C 19.155,43.536 10.562,30.132 5.881,20.065 1.2,9.999 -2.313,3.053 0,0"
             style="fill:#1f6870;fill-opacity:1;fill-rule:nonzero;stroke:none"
             id="path38" /></g><g
           id="g40"
           transform="translate(391.9395,574.4285)"><path
             d="m 0,0 c -0.74,-3.513 -5.947,-12.116 -11.966,-22.059 -6.914,-11.425 -15.519,-25.643 -19.836,-36.348 -3.306,-8.202 -3.124,-11.236 -2.388,-12.337 0.519,-0.778 1.529,-0.798 2.701,-0.054 1.469,0.933 2.411,1.778 2.78,2.488 0.36,0.689 0.274,1.394 -0.256,2.094 -2.194,2.898 0.814,9.34 4.977,18.255 0.302,0.649 0.613,1.314 0.927,1.991 3.263,7.016 8.508,15.797 13.581,24.289 2.238,3.748 4.554,7.625 6.68,11.317 C 3.104,-0.111 3.632,4.098 3.653,5.158 3.313,4.615 2.726,3.689 2.309,3.086 1.372,1.729 0.321,0.401 0,0 m -28.705,-68.714 c -0.552,-0.799 -1.486,-1.604 -2.896,-2.499 -1.293,-0.82 -2.358,-0.805 -2.923,0.042 -0.764,1.142 -0.964,4.262 2.415,12.643 4.35,10.79 12.985,25.056 19.923,36.52 6.03,9.961 11.237,18.565 11.859,21.861 l 0.021,0.112 0.098,0.121 c 0.014,0.016 1.276,1.577 2.342,3.121 0.588,0.852 1.57,2.437 1.581,2.453 l 0.243,0.391 0.04,-0.236 c 0.026,-0.15 0.556,-3.844 -6.561,-16.204 -2.133,-3.702 -4.451,-7.583 -6.694,-11.337 -5.055,-8.463 -10.282,-17.214 -13.518,-24.173 -0.315,-0.679 -0.626,-1.344 -0.929,-1.993 -4.244,-9.089 -7.048,-15.094 -4.929,-17.892 0.595,-0.786 0.655,-1.605 0.186,-2.504 -0.075,-0.143 -0.16,-0.284 -0.258,-0.426"
             style="fill:#f8b271;fill-opacity:1;fill-rule:nonzero;stroke:none"
             id="path42" /></g><g
           id="g44"
           transform="translate(391.5098,574.6028)"><path
             d="m 0,0 c -0.129,-0.187 -0.223,-0.39 -0.255,-0.559 -0.595,-3.156 -5.758,-11.686 -11.734,-21.561 -6.96,-11.498 -15.621,-25.81 -20.005,-36.68 -3.48,-8.632 -3.234,-11.835 -2.415,-13.004 0.614,-0.877 1.763,-0.876 3.15,0.005 1.522,0.966 2.531,1.852 3.176,2.786 1.359,1.971 0.497,3.109 0.214,3.483 -2.034,2.688 0.559,8.545 4.728,17.47 0.303,0.651 0.576,1.248 0.892,1.929 3.209,6.903 8.615,15.73 13.654,24.164 2.246,3.762 4.569,7.649 6.706,11.362 C 5.37,2 4.815,5.848 4.789,6.005 4.763,6.162 4.636,6.201 4.456,6.109 4.298,6.029 4.12,5.856 3.975,5.646 3.955,5.618 3.938,5.591 3.92,5.563 3.911,5.548 2.943,3.989 2.374,3.165 1.338,1.663 0.104,0.136 0.091,0.121 0.059,0.082 0.028,0.042 0,0 m 0.277,-0.191 c 0,0 1.279,1.576 2.374,3.164 0.606,0.877 1.6,2.482 1.6,2.482 0,0 0.625,-3.628 -6.502,-16.004 -6.962,-12.089 -15.866,-25.684 -20.547,-35.75 -4.68,-10.064 -7.884,-16.821 -5.57,-19.874 0.661,-0.878 0.63,-1.748 0.009,-2.649 -0.524,-0.758 -1.463,-1.537 -2.756,-2.357 -2.644,-1.678 -5.581,-0.286 -0.41,12.537 8.079,20.038 30.43,51.186 31.802,58.451"
             style="fill:#1f6870;fill-opacity:1;fill-rule:nonzero;stroke:none"
             id="path46" /></g><g
           id="g48"
           transform="translate(391.9551,574.5125)"><path
             d="m 0,0 c -0.88,-3.632 -6.035,-12.183 -11.979,-22.042 -7.278,-12.073 -15.528,-25.758 -19.837,-36.448 -3.308,-8.202 -3.125,-11.236 -2.39,-12.337 0.519,-0.778 1.529,-0.798 2.701,-0.054 1.283,0.814 2.162,1.558 2.612,2.21 0.332,0.482 0.685,1.252 -0.087,2.374 -0.398,0.575 -0.658,1.531 -0.715,2.621 -0.111,2.091 0.888,5.017 1.771,7.334 0.254,0.666 0.526,1.355 0.809,2.048 0.289,0.712 0.595,1.442 0.91,2.169 0.316,0.735 0.645,1.479 0.976,2.211 1.181,2.617 2.584,5.33 3.924,7.871 1.309,2.482 2.715,5.125 4.247,7.753 0.458,0.786 0.919,1.571 1.383,2.354 1.478,2.496 3.008,5.023 4.488,7.468 l 1.144,1.889 c 1.105,1.824 2.21,3.648 3.304,5.475 1.565,2.611 2.812,4.726 3.925,6.657 C 3.09,-0.194 3.617,4.015 3.639,5.075 3.297,4.532 2.71,3.606 2.294,3.003 1.437,1.762 0.433,0.523 0,0 m -28.718,-68.792 c -0.556,-0.807 -1.476,-1.602 -2.898,-2.504 -1.292,-0.82 -2.359,-0.805 -2.924,0.042 -0.764,1.142 -0.964,4.262 2.416,12.643 4.344,10.774 12.621,24.504 19.924,36.618 6.009,9.968 11.206,18.589 11.899,21.952 l -0.006,0.015 c 0,0 0.005,0.005 0.011,0.013 0.004,0.018 0.008,0.036 0.011,0.054 l 0.092,0.067 c 0.348,0.419 1.429,1.736 2.311,3.016 0.589,0.853 1.571,2.437 1.581,2.453 l 0.243,0.392 0.04,-0.236 c 0.027,-0.151 0.557,-3.845 -6.561,-16.205 -1.116,-1.938 -2.367,-4.06 -3.936,-6.677 -1.096,-1.83 -2.203,-3.656 -3.307,-5.481 l -1.144,-1.889 c -1.478,-2.441 -3.008,-4.967 -4.481,-7.456 -0.462,-0.78 -0.923,-1.563 -1.379,-2.346 -1.519,-2.606 -2.918,-5.236 -4.22,-7.705 -1.331,-2.524 -2.725,-5.218 -3.892,-7.805 -0.329,-0.728 -0.655,-1.465 -0.969,-2.195 -0.312,-0.722 -0.615,-1.445 -0.903,-2.15 -0.28,-0.687 -0.549,-1.369 -0.799,-2.028 -0.862,-2.259 -1.836,-5.11 -1.729,-7.123 0.056,-1.058 0.308,-1.985 0.691,-2.542 0.672,-0.977 0.65,-1.879 -0.071,-2.923 M -0.357,0.03 c -0.087,-0.126 -0.146,-0.257 -0.168,-0.37 -0.608,-3.222 -5.786,-11.778 -11.781,-21.685 -6.965,-11.506 -15.61,-25.788 -19.979,-36.624 -3.444,-8.54 -3.208,-11.702 -2.403,-12.851 0.595,-0.849 1.704,-0.85 3.04,-0.001 1.47,0.933 2.434,1.772 3.032,2.639 1.223,1.773 0.405,2.852 0.136,3.207 -1.871,2.471 0.447,7.78 3.654,15.129 0.353,0.808 0.718,1.644 1.091,2.507 1.841,4.262 6.611,12.82 14.583,26.165 l 0.095,0.161 c 2.212,3.705 4.499,7.535 6.605,11.191 C 4.74,1.987 4.193,5.753 4.167,5.907 4.148,6.017 4.06,6.045 3.937,5.981 3.829,5.927 3.713,5.816 3.616,5.676 L 3.57,5.607 C 3.561,5.581 2.553,3.971 2.017,3.194 0.959,1.662 -0.291,0.118 -0.303,0.104 -0.318,0.084 -0.338,0.059 -0.357,0.03 m -28.084,-69.013 c -0.692,-1.003 -1.746,-1.934 -3.319,-2.933 -1.438,-0.913 -2.627,-0.917 -3.261,-0.012 -0.833,1.189 -1.087,4.437 2.428,13.157 4.404,10.921 13.078,25.252 20.049,36.767 5.958,9.846 11.088,18.324 11.669,21.405 0.054,0.278 0.25,0.652 0.468,0.916 0.011,0.015 1.232,1.525 2.248,2.998 0.54,0.783 1.468,2.273 1.52,2.36 0.036,0.057 0.059,0.09 0.08,0.121 0.196,0.284 0.438,0.517 0.646,0.622 0.233,0.12 0.399,0.067 0.434,-0.136 0.028,-0.159 0.597,-4.073 -6.737,-16.809 -2.11,-3.665 -4.401,-7.501 -6.616,-11.21 l -0.096,-0.16 c -7.942,-13.297 -12.688,-21.809 -14.509,-26.024 -0.375,-0.864 -0.739,-1.701 -1.092,-2.51 -3.264,-7.477 -5.419,-12.415 -3.62,-14.792 0.298,-0.393 1.206,-1.59 -0.292,-3.76"
             style="fill:#f8b271;fill-opacity:1;fill-rule:nonzero;stroke:none"
             id="path50" /></g><g
           id="g52"
           transform="translate(376.9619,516.9891)"><path
             d="m 0,0 c -1.783,-2.52 -4.425,-5.214 -5.424,-4.147 -0.999,1.068 -1.965,1.079 -3.105,1.471 -1.14,0.395 -2.037,0.77 -1.332,3.061 1.075,3.493 3.611,8.034 6.644,12.187 3.032,4.151 5.946,5.418 5.531,3.607 -0.412,-1.812 -4.841,-7.295 -5.585,-9.554 -1.02,-3.086 0.896,-2.901 2.363,-0.31 1.467,2.592 2.751,5.608 3.343,5.85 C 4.134,12.859 2.939,10.312 1.651,8.217 0.364,6.125 -0.527,4.481 0.432,4.211 1.392,3.943 2.713,3.838 0,0"
             style="fill:#1f6870;fill-opacity:1;fill-rule:nonzero;stroke:none"
             id="path54" /></g><g
           id="g56"
           transform="translate(376.8789,517.056)"><path
             d="m 0,0 c 0.882,1.245 1.371,2.148 1.488,2.743 0.164,0.829 -0.41,0.982 -0.966,1.13 l -0.15,0.04 C -0.705,4.217 0.4,6.187 1.626,8.181 2.638,9.824 3.218,11.129 3.178,11.669 3.154,11.998 2.901,12.067 2.429,11.874 2.171,11.769 1.399,10.257 0.778,9.042 0.33,8.166 -0.178,7.173 -0.705,6.24 -1.358,5.089 -2.167,4.256 -2.815,4.076 -3.521,3.878 -3.989,4.544 -3.353,6.471 c 0.391,1.184 1.69,3.134 2.947,5.02 1.2,1.802 2.441,3.665 2.632,4.501 0.116,0.511 -0.083,0.757 -0.548,0.675 C 0.771,16.508 -1.096,15.114 -3.057,12.429 -6.146,8.19 -8.6,3.703 -9.611,0.413 c -0.688,-2.232 0.238,-2.554 1.311,-2.925 0.274,-0.095 0.538,-0.167 0.796,-0.237 0.802,-0.22 1.56,-0.427 2.325,-1.246 0.321,-0.341 0.836,-0.296 1.533,0.137 C -2.438,-3.106 -0.972,-1.373 0,0 M 0.349,0.128 C 0.289,0.042 0.229,-0.045 0.165,-0.135 -0.871,-1.6 -2.446,-3.457 -3.763,-4.274 c -0.793,-0.494 -1.378,-0.547 -1.741,-0.16 -0.749,0.801 -1.495,1.005 -2.285,1.221 -0.259,0.071 -0.525,0.144 -0.802,0.239 -1.086,0.377 -2.111,0.732 -1.352,3.198 1.058,3.444 3.51,7.946 6.733,12.357 2.102,2.878 4.126,4.377 5.116,4.55 0.576,0.102 0.819,-0.226 0.664,-0.9 C 2.344,15.236 1.1,13.368 -0.218,11.39 -1.429,9.573 -2.679,7.696 -3.025,6.646 -3.582,4.96 -3.199,4.37 -2.607,4.536 c 0.511,0.142 1.134,0.788 1.662,1.721 0.513,0.909 1.014,1.889 1.457,2.754 0.922,1.802 1.589,3.105 2.094,3.312 0.583,0.239 0.896,0.137 0.928,-0.3 C 3.602,11.095 2.373,8.985 1.842,8.121 0.424,5.815 -0.148,4.604 0.658,4.376 L 0.807,4.336 C 1.384,4.183 2.037,4.008 1.838,2.999 1.704,2.327 1.217,1.386 0.349,0.128"
             style="fill:#f8b271;fill-opacity:1;fill-rule:nonzero;stroke:none"
             id="path58" /></g><g
           id="g60"
           transform="translate(372.6006,528.2943)"><path
             d="m 0,0 c -2.841,-4.118 -5.024,-8.282 -5.992,-11.425 -0.781,-2.537 0.252,-2.894 1.346,-3.27 0.276,-0.098 0.544,-0.171 0.804,-0.241 0.822,-0.227 1.533,-0.421 2.281,-1.22 0.636,-0.678 1.849,0.12 2.756,0.908 1.03,0.896 2.236,2.28 3.307,3.794 0.069,0.099 0.137,0.196 0.203,0.292 0.773,1.12 1.304,2.059 1.575,2.788 0.587,1.571 -0.181,1.777 -0.86,1.957 l -0.15,0.041 c -0.826,0.23 -0.135,1.469 1.012,3.335 0.989,1.607 1.654,3.001 1.824,3.824 C 8.28,1.619 7.978,1.884 7.203,1.568 6.952,1.465 6.583,1.08 6.192,0.514 5.686,-0.221 5.179,-1.211 4.538,-2.465 4.105,-3.312 3.614,-4.271 3.123,-5.138 3.058,-5.255 2.992,-5.362 2.927,-5.456 2.678,-5.816 2.419,-6.011 2.246,-6.11 1.474,-6.552 0.997,-5.946 1.575,-4.193 1.867,-3.31 3.035,-1.556 4.164,0.139 5.519,2.172 6.919,4.273 7.182,5.429 7.422,6.478 6.754,6.694 5.52,5.964 4.187,5.177 2.552,3.534 1.037,1.46 0.687,0.981 0.338,0.489 0,0"
             style="fill:#1f6870;fill-opacity:1;fill-rule:nonzero;stroke:none"
             id="path62" /></g><g
           id="g64"
           transform="translate(372.9766,528.0237)"><path
             d="m 0,0 c -2.675,-3.876 -4.566,-7.478 -5.471,-10.415 -0.695,-2.26 0.006,-2.696 1.073,-3.064 0.275,-0.095 0.539,-0.168 0.796,-0.238 0.802,-0.22 1.559,-0.428 2.326,-1.245 0.251,-0.268 0.675,-0.221 1.263,0.14 1.29,0.792 3.034,2.889 3.632,3.724 0.803,1.125 1.284,2.03 1.419,2.684 C 5.186,-7.695 4.93,-7.238 4.275,-7.055 3.118,-6.73 4.382,-4.42 5.433,-2.711 6.42,-1.106 6.942,0.01 6.942,0.517 6.942,0.801 6.781,0.9 6.45,0.821 6.427,0.811 6.304,0.692 6.146,0.462 5.828,0.002 5.124,-1.324 4.442,-2.607 3.707,-3.993 3.012,-5.302 2.626,-5.874 2.105,-6.631 1.573,-7.069 1.104,-7.131 0.303,-7.235 -0.157,-6.123 0.496,-4.143 0.891,-2.949 2.175,-1.093 3.426,0.713 4.595,2.402 5.809,4.153 5.997,4.98 6.117,5.51 5.823,5.545 5.557,5.481 4.507,5.233 2.182,3.162 0.076,0.11 0.052,0.075 0.027,0.039 0.002,0.002 Z m 3.988,-10.942 c -0.067,-0.098 -0.136,-0.196 -0.207,-0.296 -0.668,-0.932 -2.501,-3.136 -3.913,-4.003 -0.681,-0.419 -1.176,-0.473 -1.47,-0.16 -0.75,0.8 -1.461,0.995 -2.285,1.22 -0.259,0.072 -0.525,0.145 -0.802,0.24 -1.096,0.379 -1.874,0.865 -1.113,3.336 0.943,3.065 2.912,6.807 5.706,10.841 C 2.219,3.591 4.647,5.677 5.773,5.944 6.273,6.062 6.476,5.805 6.342,5.221 6.113,4.221 4.895,2.458 3.6,0.591 2.407,-1.127 1.169,-2.918 0.822,-3.968 c -0.588,-1.784 -0.19,-2.79 0.517,-2.698 0.248,0.033 0.662,0.244 1.103,0.901 0.346,0.511 1.056,1.849 1.744,3.144 0.731,1.377 1.421,2.678 1.785,3.204 0.213,0.31 0.508,0.656 0.695,0.7 C 7.087,1.384 7.3,1.238 7.3,0.851 7.299,0.229 6.743,-0.989 5.648,-2.771 4.131,-5.237 3.807,-6.379 4.562,-6.591 5.281,-6.793 5.559,-7.322 5.386,-8.163 5.238,-8.877 4.769,-9.811 3.988,-10.942 M -0.288,0.21 c -2.806,-4.065 -4.961,-8.173 -5.914,-11.27 -0.745,-2.421 0.261,-2.768 1.325,-3.134 0.275,-0.098 0.543,-0.171 0.802,-0.24 0.829,-0.228 1.545,-0.425 2.302,-1.232 0.597,-0.639 1.747,0.117 2.605,0.863 0.997,0.867 2.167,2.211 3.211,3.687 l 0.198,0.285 c 0.744,1.078 1.25,1.97 1.504,2.654 0.536,1.432 -0.166,1.618 -0.844,1.799 l -0.15,0.04 C 3.758,-6.06 4.843,-4.295 5.798,-2.74 6.754,-1.187 7.396,0.15 7.557,0.928 7.712,1.677 7.444,1.902 6.738,1.614 6.546,1.535 6.233,1.202 5.904,0.724 5.422,0.025 4.924,-0.947 4.294,-2.18 3.909,-2.934 3.381,-3.969 2.867,-4.876 2.466,-5.588 2.064,-5.903 1.805,-6.053 1.422,-6.271 1.111,-6.265 0.932,-6.035 0.677,-5.708 0.714,-4.988 1.035,-4.011 1.35,-3.059 2.542,-1.27 3.694,0.46 5.023,2.457 6.39,4.507 6.633,5.579 6.849,6.521 6.225,6.7 5.08,6.022 3.792,5.262 2.21,3.671 0.737,1.656 0.401,1.195 0.057,0.709 -0.288,0.21 M 4.417,-10.952 4.216,-11.24 c -1.108,-1.566 -2.348,-2.989 -3.409,-3.912 -0.955,-0.83 -2.235,-1.669 -2.906,-0.953 -0.74,0.791 -1.445,0.983 -2.262,1.208 -0.26,0.07 -0.529,0.144 -0.806,0.241 -1.123,0.387 -2.185,0.753 -1.367,3.406 0.982,3.193 3.195,7.414 6.07,11.581 C -0.112,0.84 0.241,1.337 0.585,1.808 2.144,3.942 3.828,5.633 5.206,6.445 6.531,7.229 7.243,6.978 6.979,5.818 6.698,4.586 5.271,2.444 3.892,0.373 2.828,-1.224 1.633,-3.019 1.362,-3.835 1.08,-4.694 1.044,-5.321 1.262,-5.602 c 0.142,-0.183 0.383,-0.191 0.675,-0.024 0.173,0.1 0.417,0.285 0.69,0.767 0.5,0.883 1.021,1.903 1.401,2.648 0.653,1.276 1.167,2.282 1.701,3.056 C 6.176,1.493 6.608,1.937 6.916,2.063 7.754,2.405 8.095,2.098 7.903,1.178 7.724,0.31 7.035,-1.14 6.014,-2.799 4.819,-4.742 4.335,-5.678 5.036,-5.875 l 0.151,-0.039 c 0.674,-0.18 1.515,-0.404 0.875,-2.118 -0.287,-0.771 -0.841,-1.754 -1.645,-2.92"
             style="fill:#f8b271;fill-opacity:1;fill-rule:nonzero;stroke:none"
             id="path66" /></g><g
           id="g68"
           transform="translate(405.7803,558.7347)"><path
             d="m 0,0 c -2.918,-4.229 -6.629,-8.909 -8.378,-7.742 -1.749,1.167 -4.896,1.69 -5.381,2.722 -0.484,1.035 0.876,3.7 2.131,5.474 1.253,1.772 5.089,6.444 6.297,2.596 0.529,-1.684 0.533,-4.651 1.557,-3.927 1.436,1.02 4.098,5.282 4.948,6.992 0.849,1.71 2.249,3.506 3.093,3.643 C 5.108,9.894 5.96,8.637 0,0"
             style="fill:#1f6870;fill-opacity:1;fill-rule:nonzero;stroke:none"
             id="path70" /></g><g
           id="g72"
           transform="translate(394.1348,558.9783)"><path
             d="m 0,0 c -1.068,-1.548 -2.405,-4.068 -1.941,-5.056 0.263,-0.565 1.4,-0.992 2.604,-1.444 0.98,-0.367 1.992,-0.748 2.76,-1.259 1.321,-0.882 4.058,1.667 8.135,7.575 3.77,5.464 4.671,7.763 4.762,8.729 0.072,0.752 -0.341,0.766 -0.524,0.737 C 15.021,9.155 13.718,7.425 12.955,5.893 12.134,4.241 9.4,-0.203 7.829,-1.318 7.005,-1.901 6.782,-0.637 6.524,0.829 6.416,1.449 6.303,2.09 6.141,2.608 5.709,3.983 4.898,4.379 3.733,3.785 2.157,2.98 0.431,0.611 0.1,0.143 0.067,0.097 0.034,0.049 0,0 M 11.733,-0.305 C 7.451,-6.511 4.551,-9.17 3.112,-8.211 2.354,-7.704 1.345,-7.326 0.37,-6.96 c -1.273,0.478 -2.373,0.891 -2.655,1.49 -0.538,1.152 1.036,4.09 2.219,5.747 0.356,0.504 2.221,3.062 3.951,3.945 1.27,0.648 2.146,0.238 2.603,-1.218 0.166,-0.527 0.281,-1.174 0.39,-1.8 0.221,-1.25 0.447,-2.542 1.036,-2.125 1.349,0.958 3.975,5.172 4.769,6.771 0.874,1.757 2.4,3.744 3.344,3.897 0.225,0.036 0.736,0.02 0.649,-0.9 -0.1,-1.053 -1.039,-3.493 -4.943,-9.152"
             style="fill:#f8b271;fill-opacity:1;fill-rule:nonzero;stroke:none"
             id="path74" /></g><g
           id="g76"
           transform="translate(393.8838,559.1385)"><path
             d="M 0,0 C -1.459,-2.115 -2.796,-4.889 -2.284,-5.982 -2.001,-6.588 -0.898,-7 0.377,-7.48 c 0.974,-0.366 1.981,-0.745 2.739,-1.249 1.022,-0.681 3.401,0.192 8.938,8.216 2.821,4.089 4.5,7.064 4.992,8.847 0.456,1.649 -0.294,1.649 -0.533,1.612 C 15.878,9.843 14.868,8.889 13.881,7.458 13.456,6.843 13.063,6.177 12.742,5.532 12.344,4.731 11.431,3.18 10.457,1.769 9.565,0.477 8.817,-0.416 8.353,-0.745 7.823,-1.121 7.578,0.271 7.382,1.392 7.271,2.018 7.158,2.666 6.991,3.196 6.442,4.941 5.301,5.191 3.597,3.94 2.029,2.79 0.545,0.772 0.128,0.184 0.085,0.123 0.042,0.062 0,0 M 1.977,-0.293 C 2.014,-0.239 1.271,-0.632 1.308,-0.581 2.56,1.192 3.915,4.672 5.122,0.824 5.652,-0.86 6.425,-3.297 7.448,-2.57 c 0.667,0.471 2.099,1.261 2.991,2.555 1.028,1.489 2.794,4.333 3.25,5.248 0.278,0.558 0.459,1.086 0.815,1.602 0.736,1.067 0.357,0.851 0.926,0.943 0.841,0.136 2.322,0.744 -3.638,-7.894 C 8.873,-4.345 6.493,-7.282 4.744,-6.115 2.418,-4.566 1.772,-4.03 0.928,-2.233 0.458,-1.23 0.087,-2.349 1.308,-0.581"
             style="fill:#1f6870;fill-opacity:1;fill-rule:nonzero;stroke:none"
             id="path78" /></g><g
           id="g80"
           transform="translate(394.2715,558.6507)"><path
             d="m 0,0 c -1.239,-1.831 -1.944,-3.932 -1.701,-4.452 0.263,-0.561 1.33,-0.953 2.459,-1.368 0.897,-0.33 1.916,-0.704 2.688,-1.219 0.487,-0.324 1.147,-0.2 1.964,0.367 1.412,0.983 3.344,3.303 5.902,7.098 3.699,5.485 4.555,7.612 4.623,8.43 0.039,0.477 -0.196,0.538 -0.4,0.505 C 15.053,9.283 14.281,8.217 13.596,7.224 13.267,6.746 13.075,6.42 12.81,5.885 12.457,5.178 11.689,3.735 10.511,2.028 9.689,0.837 8.148,-1.071 7.45,-1.385 6.713,-1.715 6.449,-0.473 6.144,0.964 6.026,1.519 5.904,2.094 5.75,2.581 5.336,3.902 4.604,4.305 3.576,3.779 2.622,3.292 1.452,2.055 0,0 M 10.896,-0.562 C 8.518,-4.008 6.734,-6.087 5.319,-7.072 4.406,-7.707 3.672,-7.848 3.137,-7.491 c -0.765,0.509 -1.778,0.882 -2.672,1.21 -1.195,0.44 -2.23,0.819 -2.509,1.416 -0.285,0.61 0.468,2.919 1.866,4.982 l 0.007,0.01 C 1.389,2.335 2.664,3.673 3.726,4.216 4.861,4.795 5.659,4.379 6.099,2.978 6.255,2.484 6.377,1.905 6.497,1.347 6.762,0.094 7.037,-1.2 7.619,-0.939 c 0.5,0.224 1.834,1.808 2.717,3.088 1.13,1.638 1.864,3.017 2.201,3.694 0.293,0.588 0.516,0.968 0.883,1.501 0.571,0.827 1.633,2.366 2.347,2.482 0.266,0.043 0.575,-0.037 0.524,-0.664 C 16.183,7.852 14.569,4.876 11.495,0.317 11.292,0.016 11.092,-0.278 10.896,-0.562 M -0.3,0.427 c -1.399,-2.028 -2.685,-4.681 -2.201,-5.715 0.273,-0.584 1.357,-0.992 2.612,-1.465 0.999,-0.374 2.006,-0.752 2.773,-1.262 1.406,-0.938 4.413,1.846 8.694,8.051 2.78,4.028 4.433,6.949 4.911,8.68 0.421,1.524 -0.187,1.738 -0.396,1.662 C 14.504,9.81 13.291,7.613 12.008,5.287 11.411,4.206 10.805,3.099 10.149,2.186 9.079,0.692 8.393,-0.123 7.922,-0.456 7.319,-0.884 7.084,0.164 6.817,1.692 L 6.811,1.735 C 6.702,2.343 6.59,2.971 6.43,3.485 5.897,5.178 4.801,5.429 3.171,4.233 1.662,3.125 0.227,1.176 -0.177,0.604 Z m 12.053,-0.512 c -5.664,-8.21 -8.118,-9.089 -9.179,-8.382 -0.759,0.504 -1.762,0.88 -2.731,1.243 -1.298,0.49 -2.397,0.904 -2.687,1.523 -0.539,1.153 0.85,4.047 2.368,6.249 l 0.133,0.19 C 0.088,1.348 1.621,3.429 3.247,4.623 5.024,5.928 6.213,5.679 6.778,3.882 6.942,3.358 7.055,2.724 7.164,2.11 L 7.171,2.067 c 0.147,-0.845 0.423,-2.42 0.837,-2.126 0.371,0.263 1.019,1.043 1.98,2.387 0.604,0.837 1.169,1.868 1.773,2.963 1.264,2.292 2.699,4.889 4.521,5.542 0.318,0.114 1.037,-0.126 0.545,-1.906 C 16.319,7.09 14.612,4.058 11.753,-0.085"
             style="fill:#f8b271;fill-opacity:1;fill-rule:nonzero;stroke:none"
             id="path82" /></g><g
           id="g84"
           transform="translate(390.3145,541.8973)"><path
             d="m 0,0 c -1.051,-1.883 -2.411,-4.229 -2.968,-4.417 -0.555,-0.186 -0.114,1.259 -1.278,1.5 -0.578,0.12 -1.101,0.197 -0.386,1.471 0.716,1.274 1.262,2.476 2.191,2.72 C -1.112,1.625 1.051,1.882 0,0 M 4.556,7.747 C 2.924,8.311 0.356,7.164 -2.479,6.228 -5.313,5.291 -8.102,0.277 -8.661,-2.181 c -1.438,-6.312 1.241,-8.377 2.637,-9.766 1.392,-1.392 2.767,0.232 4.179,2.31 3.136,4.612 1.136,3.635 0.516,4.172 -0.425,0.365 -0.154,0.855 0.344,1.609 0.498,0.753 1.563,2.493 2.27,3.72 0.707,1.225 1.242,0.677 1.737,0.301 0.496,-0.376 1.183,-0.603 3.342,2.8 2.16,3.402 0.577,3.959 -1.808,4.782"
             style="fill:#1f6870;fill-opacity:1;fill-rule:nonzero;stroke:none"
             id="path86" /></g><g
           id="g88"
           transform="translate(386.6689,542.2)"><path
             d="m 0,0 c -0.214,-0.31 -0.437,-0.708 -0.708,-1.201 -0.086,-0.157 -0.175,-0.319 -0.266,-0.481 -0.551,-0.984 -0.252,-1.095 0.37,-1.223 l 0.035,-0.007 c 0.696,-0.145 0.84,-0.702 0.946,-1.109 0.077,-0.298 0.126,-0.451 0.291,-0.396 0.333,0.114 1.255,1.521 2.747,4.193 0.163,0.29 0.234,0.523 0.222,0.711 C 3.584,1.231 2.235,1.145 0.991,0.816 0.601,0.713 0.31,0.449 0,0 M 1.612,-3.651 C 1.149,-4.323 0.753,-4.777 0.473,-4.873 0.172,-4.974 0.107,-4.725 0.026,-4.41 c -0.098,0.38 -0.233,0.9 -0.875,1.033 l -0.033,0.007 c -0.568,0.117 -1.155,0.237 -0.335,1.701 0.09,0.159 0.177,0.316 0.261,0.47 0.602,1.098 1.224,2.23 2.158,2.475 C 2.017,1.492 3.92,1.881 3.993,0.84 4.013,0.56 3.9,0.197 3.66,-0.234 2.938,-1.525 2.219,-2.773 1.612,-3.651 m -4.169,6.226 c -1.258,-1.824 -2.189,-3.932 -2.467,-5.155 -1.284,-5.639 0.854,-7.64 2.269,-8.964 0.152,-0.143 0.297,-0.278 0.43,-0.411 0.591,-0.591 1.207,-0.664 1.883,-0.223 0.686,0.449 1.387,1.396 2.044,2.368 0.991,1.457 1.518,2.429 1.613,2.97 0.094,0.54 -0.255,0.622 -0.626,0.709 -0.196,0.046 -0.4,0.093 -0.539,0.214 -0.492,0.423 -0.108,1.102 0.406,1.88 0.461,0.698 1.522,2.422 2.25,3.686 0.202,0.35 0.415,0.615 0.631,0.781 0.52,0.399 0.906,0.1 1.277,-0.19 L 6.718,0.162 c 0.234,-0.179 0.526,-0.339 1.023,0.019 0.502,0.361 1.195,1.233 2.059,2.594 0.533,0.839 0.834,1.508 0.919,2.042 0.228,1.435 -1.095,1.892 -2.771,2.47 L 7.947,7.288 C 6.629,7.743 4.699,7.068 2.462,6.287 1.974,6.115 1.471,5.939 0.96,5.771 0.025,5.462 -1.004,4.611 -2.018,3.311 -2.203,3.073 -2.383,2.827 -2.557,2.575 m 4.187,-12.72 c -0.657,-0.953 -1.416,-1.946 -2.178,-2.444 -0.776,-0.507 -1.464,-0.443 -2.099,0.193 -0.133,0.132 -0.277,0.267 -0.428,0.409 -1.439,1.345 -3.612,3.379 -2.295,9.167 0.349,1.529 1.57,4.196 3.225,6.317 1.126,1.445 2.267,2.388 3.302,2.731 0.509,0.167 1.01,0.343 1.498,0.513 C 4.923,7.535 6.88,8.219 8.239,7.75 9.963,7.154 11.324,6.684 11.07,5.091 10.969,4.45 10.62,3.668 10.005,2.699 9.04,1.179 8.273,0.227 7.659,-0.214 7.018,-0.675 6.674,-0.494 6.403,-0.288 L 6.3,-0.208 C 5.999,0.026 5.624,0.318 5.272,0.048 5.166,-0.034 5.06,-0.171 4.94,-0.377 4.252,-1.573 3.18,-3.328 2.647,-4.134 2.198,-4.813 1.999,-5.155 2.368,-5.47 2.492,-5.578 2.685,-5.624 2.87,-5.667 3.273,-5.762 3.69,-5.86 3.565,-6.574 3.449,-7.241 2.883,-8.305 1.783,-9.922 1.732,-9.996 1.682,-10.07 1.63,-10.145"
             style="fill:#f8b271;fill-opacity:1;fill-rule:nonzero;stroke:none"
             id="path90" /></g><g
           id="g92"
           transform="translate(388.0234,538.7073)"><path
             d="m 0,0 c -0.11,-0.161 -0.38,-0.54 -0.466,-0.568 -0.147,-0.05 -0.195,0.132 -0.261,0.385 -0.106,0.412 -0.252,0.974 -0.957,1.121 L -1.72,0.945 c -0.614,0.125 -0.84,0.254 -0.449,0.951 0.094,0.165 0.184,0.33 0.272,0.49 0.221,0.404 0.429,0.784 0.609,1.044 0.094,0.135 0.287,0.415 0.698,0.522 C 1.362,4.467 2.433,4.136 1.901,3.182 1.365,2.223 0.585,0.848 0,0 m -4.161,6.238 c -1.523,-2.207 -2.51,-4.533 -2.812,-5.859 -1.329,-5.835 0.853,-7.875 2.294,-9.227 0.153,-0.142 0.296,-0.278 0.428,-0.409 0.737,-0.736 1.529,-0.715 2.494,0.069 0.792,0.644 1.544,1.669 2.111,2.49 0.052,0.076 0.104,0.152 0.156,0.228 1.03,1.516 1.644,2.621 1.875,3.376 0.322,1.056 -0.162,1.169 -0.63,1.276 -0.192,0.047 -0.374,0.088 -0.496,0.193 -0.323,0.279 -0.2,0.466 0.13,0.965 C 1.94,0.177 3.037,1.972 3.736,3.184 3.747,3.202 3.757,3.217 3.762,3.227 4.037,3.447 4.484,3.099 4.7,2.928 L 4.803,2.85 C 5.11,2.616 5.507,2.422 6.319,3.098 6.834,3.523 7.44,4.241 8.124,5.232 8.327,5.526 8.543,5.852 8.762,6.198 11.278,10.165 9.627,10.734 7.127,11.599 5.762,12.072 3.8,11.386 1.526,10.591 1.037,10.42 0.536,10.245 0.024,10.075 -1.709,9.503 -3.342,7.425 -4.161,6.238 M 0.872,0.36 C 1.491,1.258 1.979,2.609 2.621,3.761 3.672,5.644 1.071,5.798 -0.346,5.066 -0.878,4.792 -1.783,4.003 -2.129,3.502 -2.466,3.015 -2.961,1.992 -3.313,1.364 c -0.714,-1.273 -0.748,-3.076 0.584,-1.985 1.906,1.563 1.091,-2.287 1.654,-2.098 0.217,0.074 1.042,1.905 1.435,2.475 m -4.153,6.267 c 1.09,1.579 2.192,3.038 3.497,3.469 2.836,0.936 5.403,2.084 7.035,1.52 C 9.125,10.188 10.707,9.632 8.548,6.229 8.339,5.901 8.146,5.606 7.963,5.343 6.258,2.871 5.652,3.089 5.206,3.429 4.745,3.779 4.25,4.28 3.612,3.356 3.565,3.288 3.517,3.212 3.47,3.128 2.762,1.901 1.695,0.162 1.197,-0.592 0.7,-1.346 0.429,-1.835 0.854,-2.201 1.475,-2.738 3.475,-1.76 0.339,-6.373 0.29,-6.443 0.241,-6.516 0.192,-6.586 c -1.36,-1.973 -2.689,-3.439 -4.034,-2.096 -1.394,1.389 -2.773,4.355 -1.337,10.667 0.303,1.328 0.109,2.187 1.386,4.038"
             style="fill:#1f6870;fill-opacity:1;fill-rule:nonzero;stroke:none"
             id="path94" /></g><g
           id="g96"
           transform="translate(386.9404,542.0115)"><path
             d="m 0,0 c -0.016,-0.037 -0.036,-0.071 -0.061,-0.105 -0.162,-0.236 -0.249,-0.37 -0.464,-0.763 l -0.106,-0.194 c -0.09,-0.166 -0.196,-0.363 -0.261,-0.478 -0.087,-0.154 -0.098,-0.194 -0.1,-0.198 0.012,0.006 0.096,0.015 0.171,0.024 0.142,0.016 0.336,0.037 0.561,-0.008 0.051,-0.025 0.974,-0.498 1.086,-0.928 0.036,-0.143 0.147,-0.085 0.182,-0.052 0.554,0.804 0.817,1.275 1.339,2.21 0.106,0.19 0.142,0.314 0.135,0.425 C 2.466,0.157 2.22,0.623 0.271,0.11 0.069,0.057 0.007,0.006 0,0 M 1.176,-2.833 C 1.075,-2.978 0.942,-3.102 0.819,-3.165 0.644,-3.254 0.519,-3.208 0.475,-3.04 c -0.082,0.318 -0.768,0.726 -1.026,0.856 -0.195,0.039 -0.377,0.018 -0.509,0.003 -0.167,-0.018 -0.287,-0.032 -0.288,0.118 -0.002,0.134 0.102,0.337 0.214,0.537 0.063,0.111 0.164,0.299 0.25,0.458 l 0.109,0.201 c 0.23,0.418 0.341,0.595 0.54,0.883 C -0.032,0.349 0.142,0.481 0.482,0.57 1.529,0.846 2.788,1.021 2.839,0.286 2.853,0.085 2.773,-0.175 2.61,-0.467 2.063,-1.448 1.771,-1.969 1.176,-2.833 m -1.454,3.01 c -0.233,-0.337 -0.463,-0.756 -0.706,-1.199 -0.085,-0.155 -0.171,-0.312 -0.261,-0.471 -0.412,-0.736 -0.257,-0.817 0.292,-0.861 0.112,-0.009 0.23,-0.019 0.342,-0.041 0.682,-0.142 0.861,-0.597 0.993,-0.93 0.098,-0.25 0.158,-0.378 0.333,-0.32 0.105,0.037 0.105,0.039 0.399,0.465 l 0.104,0.151 c 0.5,0.725 0.886,1.422 1.375,2.304 l 0.3,0.539 C 3.066,0.124 3.144,0.366 3.13,0.552 3.091,1.12 2.254,1.193 0.645,0.768 0.149,0.637 -0.049,0.51 -0.278,0.177 M 1.221,-3.4 c -0.269,-0.39 -0.436,-0.609 -0.7,-0.701 -0.3,-0.1 -0.381,0.108 -0.485,0.371 -0.123,0.311 -0.291,0.738 -0.927,0.87 -0.106,0.022 -0.219,0.03 -0.328,0.04 -0.458,0.036 -0.976,0.078 -0.269,1.339 0.088,0.156 0.173,0.311 0.256,0.461 0.26,0.475 0.506,0.923 0.778,1.317 C 0.004,0.96 0.393,1.106 0.854,1.229 2.579,1.684 3.439,1.578 3.487,0.905 3.506,0.625 3.389,0.255 3.137,-0.196 L 2.839,-0.731 C 2.333,-1.646 1.933,-2.369 1.393,-3.15 L 1.291,-3.299 C 1.267,-3.333 1.243,-3.368 1.221,-3.4 m -3.843,6.059 c -1.442,-2.091 -2.011,-3.694 -2.233,-4.671 -1.349,-5.928 0.762,-7.997 2.16,-9.366 l 0.213,-0.211 c 0.556,-0.556 1.094,-0.654 1.645,-0.3 0.541,0.349 1.081,1.096 1.84,2.195 1.072,1.577 1.629,2.573 1.712,3.063 0.071,0.414 -0.198,0.472 -0.511,0.539 -0.187,0.041 -0.382,0.082 -0.524,0.205 -0.408,0.351 -0.273,1.027 0.415,2.068 0.489,0.739 1.571,2.518 2.275,3.737 0.026,0.059 0.063,0.111 0.083,0.14 C 4.636,0.323 4.83,0.526 5.033,0.662 5.478,0.96 5.931,0.912 6.459,0.513 6.717,0.316 6.966,0.176 7.396,0.465 7.776,0.72 8.268,1.287 8.897,2.201 8.996,2.344 9.088,2.504 9.193,2.688 9.26,2.803 9.328,2.923 9.403,3.048 10.985,5.668 10.164,6.463 7.587,7.352 6.283,7.802 4.387,7.134 2.189,6.36 1.676,6.18 1.149,5.994 0.613,5.817 -0.649,5.399 -1.638,4.085 -2.622,2.659 M 1.206,-9.774 c -0.704,-1.021 -1.418,-2.055 -2.152,-2.528 -0.658,-0.423 -1.249,-0.337 -1.859,0.272 l -0.213,0.21 c -1.419,1.39 -3.565,3.494 -2.183,9.569 0.24,1.054 0.852,2.782 2.404,5.03 1.041,1.51 2.178,3.022 3.608,3.495 C 1.346,6.451 1.87,6.635 2.381,6.815 4.609,7.6 6.534,8.278 7.878,7.813 10.204,7.011 11.583,6.242 9.625,3 9.556,2.884 9.492,2.773 9.431,2.667 9.314,2.463 9.205,2.272 9.073,2.08 8.354,1.039 7.773,0.378 7.298,0.059 6.733,-0.319 6.431,-0.154 6.145,0.064 5.678,0.417 5.271,0.481 4.933,0.254 4.828,0.184 4.734,0.089 4.639,-0.047 4.629,-0.066 4.619,-0.083 4.612,-0.096 3.896,-1.338 2.788,-3.157 2.286,-3.916 1.917,-4.475 1.594,-5.094 1.998,-5.44 2.125,-5.55 2.307,-5.59 2.483,-5.627 2.819,-5.699 3.167,-5.774 3.066,-6.362 2.961,-6.976 2.37,-8.06 1.206,-9.774 M -2.99,2.874 c -1.478,-2.141 -2.435,-4.395 -2.727,-5.679 -1.31,-5.756 0.85,-7.782 2.279,-9.123 0.156,-0.144 0.299,-0.282 0.431,-0.414 0.71,-0.706 1.458,-0.697 2.358,0.033 0.738,0.601 1.456,1.581 1.999,2.368 l 0.152,0.222 c 0.996,1.466 1.584,2.52 1.8,3.225 0.285,0.935 -0.147,1.035 -0.604,1.14 l -0.036,0.008 c -0.183,0.045 -0.357,0.089 -0.48,0.194 -0.361,0.312 -0.225,0.603 0.194,1.238 0.551,0.832 1.637,2.611 2.325,3.807 L 4.764,0 4.871,0.108 c 0.308,0.246 0.637,0.083 1.07,-0.26 L 6.043,-0.23 c 0.3,-0.228 0.653,-0.399 1.38,0.205 0.476,0.395 1.047,1.071 1.696,2.013 0.206,0.298 0.415,0.615 0.623,0.944 0.671,1.056 1.046,1.88 1.148,2.521 C 11.137,7.001 9.783,7.47 8.069,8.063 6.72,8.53 4.771,7.849 2.514,7.06 L 2.393,7.018 C 1.94,6.859 1.479,6.698 1.009,6.542 -0.645,5.997 -2.207,4.009 -2.99,2.874 m 4.514,-12.936 c -0.59,-0.856 -1.378,-1.928 -2.221,-2.614 -1.03,-0.836 -1.866,-0.87 -2.632,-0.106 -0.132,0.131 -0.275,0.266 -0.427,0.407 -1.456,1.366 -3.65,3.426 -2.306,9.33 0.312,1.369 1.328,3.767 2.896,6.04 0.855,1.238 2.56,3.406 4.372,4.005 0.469,0.154 0.93,0.315 1.379,0.473 L 2.706,7.515 C 4.994,8.315 6.97,9.005 8.355,8.526 10.19,7.891 11.515,7.433 11.242,5.727 11.123,4.98 10.699,4.041 9.947,2.856 9.73,2.513 9.511,2.18 9.295,1.867 8.578,0.829 7.934,0.07 7.383,-0.387 6.41,-1.195 5.967,-0.859 5.729,-0.679 L 5.626,-0.601 C 5.2,-0.263 4.983,-0.217 4.876,-0.239 4.152,-1.486 3.108,-3.193 2.567,-4.012 2.274,-4.454 2.251,-4.49 2.501,-4.707 2.607,-4.798 2.771,-4.839 2.945,-4.881 l 0.034,-0.01 C 3.454,-4.999 3.994,-5.123 3.634,-6.302 3.389,-7.106 2.751,-8.26 1.684,-9.83 Z"
             style="fill:#f8b271;fill-opacity:1;fill-rule:nonzero;stroke:none"
             id="path98" /></g><g
           id="g100"
           transform="translate(400.4238,569.9485)"><path
             d="m 0,0 c -0.764,-1.107 -1.036,-2.25 -0.606,-2.547 0.429,-0.297 1.402,0.363 2.166,1.471 0.764,1.108 1.036,2.25 0.606,2.547 C 1.736,1.768 0.765,1.108 0,0 M 1.835,-1.266 C 0.801,-2.765 -0.514,-3.657 -1.096,-3.256 -1.677,-2.854 -1.31,-1.309 -0.274,0.19 0.759,1.688 2.073,2.581 2.655,2.18 3.237,1.778 2.869,0.232 1.835,-1.266"
             style="fill:#f8b271;fill-opacity:1;fill-rule:nonzero;stroke:none"
             id="path102" /></g><g
           id="g104"
           transform="translate(400.3691,569.9866)"><path
             d="m 0,0 c -0.818,-1.186 -1.11,-2.409 -0.649,-2.727 0.46,-0.317 1.501,0.389 2.319,1.575 C 2.488,0.034 2.779,1.257 2.318,1.575 1.858,1.892 0.818,1.186 0,0 m 1.835,-1.266 c -0.981,-1.421 -2.227,-2.267 -2.778,-1.886 -0.551,0.38 -0.203,1.845 0.778,3.266 C 0.814,1.534 2.061,2.38 2.612,2 3.163,1.619 2.814,0.154 1.835,-1.266"
             style="fill:#f8b271;fill-opacity:1;fill-rule:nonzero;stroke:none"
             id="path106" /></g><g
           id="g108"
           transform="translate(400.4238,569.9485)"><path
             d="m 0,0 c -0.764,-1.107 -1.036,-2.25 -0.606,-2.547 0.429,-0.297 1.402,0.363 2.166,1.471 0.764,1.108 1.036,2.25 0.606,2.547 C 1.736,1.768 0.765,1.108 0,0 M 1.835,-1.266 C 0.801,-2.765 -0.514,-3.657 -1.096,-3.256 -1.677,-2.854 -1.31,-1.309 -0.274,0.19 0.759,1.688 2.073,2.581 2.655,2.18 3.237,1.778 2.869,0.232 1.835,-1.266"
             style="fill:#f8b271;fill-opacity:1;fill-rule:nonzero;stroke:none"
             id="path110" /></g><g
           id="g112"
           transform="translate(400.3691,569.9866)"><path
             d="m 0,0 c -0.818,-1.186 -1.11,-2.409 -0.649,-2.727 0.46,-0.317 1.501,0.389 2.319,1.575 C 2.488,0.034 2.779,1.257 2.318,1.575 1.858,1.892 0.818,1.186 0,0 m 1.835,-1.266 c -0.981,-1.421 -2.227,-2.267 -2.778,-1.886 -0.551,0.38 -0.203,1.845 0.778,3.266 C 0.814,1.534 2.061,2.38 2.612,2 3.163,1.619 2.814,0.154 1.835,-1.266"
             style="fill:#1f6870;fill-opacity:1;fill-rule:nonzero;stroke:none"
             id="path114" /></g><g
           id="g116"
           transform="translate(401.8398,569.1712)"><path
             d="M 0,0 C -0.137,-0.198 -0.281,-0.375 -0.428,-0.527 -0.573,-0.679 -0.715,-0.8 -0.85,-0.892 c -0.133,-0.089 -0.258,-0.147 -0.372,-0.172 -0.114,-0.025 -0.209,-0.012 -0.282,0.038 -0.076,0.053 -0.123,0.137 -0.14,0.254 -0.018,0.115 -0.008,0.252 0.028,0.409 0.035,0.157 0.099,0.334 0.189,0.525 0.089,0.189 0.206,0.39 0.348,0.596 0.171,0.248 0.333,0.449 0.481,0.596 0.146,0.145 0.29,0.262 0.431,0.35 L -0.069,1.766 -0.235,0.982 -0.349,0.907 C -0.423,0.857 -0.495,0.801 -0.56,0.741 -0.614,0.691 -0.677,0.616 -0.743,0.519 -0.788,0.455 -0.823,0.393 -0.849,0.335 -0.876,0.273 -0.894,0.219 -0.903,0.167 c -0.01,-0.054 -0.011,-0.1 -0.002,-0.139 0.009,-0.041 0.027,-0.07 0.055,-0.09 0.035,-0.023 0.069,-0.031 0.112,-0.025 0.039,0.005 0.082,0.023 0.129,0.051 0.047,0.03 0.094,0.07 0.143,0.119 0.048,0.049 0.099,0.11 0.149,0.182 0.062,0.092 0.108,0.172 0.138,0.245 0.036,0.086 0.066,0.175 0.092,0.272 L -0.053,0.907 0.587,1.338 0.563,1.221 C 0.529,1.056 0.474,0.878 0.396,0.692 0.313,0.495 0.181,0.263 0,0"
             style="fill:#f8b271;fill-opacity:1;fill-rule:nonzero;stroke:none"
             id="path118" /></g><g
           id="g120"
           transform="translate(402.1396,569.8275)"><path
             d="M 0,0 C -0.071,-0.172 -0.189,-0.378 -0.355,-0.618 -0.479,-0.798 -0.607,-0.957 -0.74,-1.093 -0.872,-1.23 -0.999,-1.339 -1.119,-1.42 -1.239,-1.501 -1.351,-1.553 -1.452,-1.575 -1.555,-1.598 -1.639,-1.586 -1.705,-1.54 l -0.004,0.002 c -0.066,0.046 -0.107,0.121 -0.123,0.225 -0.017,0.104 -0.008,0.227 0.024,0.369 0.033,0.141 0.089,0.298 0.17,0.47 0.081,0.172 0.186,0.351 0.314,0.537 0.157,0.228 0.302,0.408 0.433,0.539 0.132,0.13 0.261,0.235 0.389,0.316 L -0.616,0.379 C -0.701,0.322 -0.782,0.259 -0.857,0.19 -0.934,0.12 -1.014,0.024 -1.098,-0.099 -1.158,-0.186 -1.206,-0.27 -1.241,-0.35 -1.276,-0.429 -1.301,-0.503 -1.313,-0.572 -1.326,-0.64 -1.327,-0.699 -1.316,-0.75 c 0.011,-0.049 0.035,-0.086 0.069,-0.11 l 0.004,-0.002 c 0.036,-0.025 0.08,-0.034 0.131,-0.028 0.05,0.007 0.106,0.029 0.167,0.067 0.06,0.038 0.124,0.09 0.189,0.156 0.065,0.066 0.129,0.145 0.194,0.238 0.079,0.114 0.138,0.22 0.179,0.318 0.041,0.098 0.075,0.199 0.103,0.304 L 0.153,0.485 C 0.123,0.333 0.071,0.172 0,0"
             style="fill:#1f6870;fill-opacity:1;fill-rule:nonzero;stroke:none"
             id="path122" /></g></g></g></g></svg>
