<svg xmlns="http://www.w3.org/2000/svg" xmlns:xlink="http://www.w3.org/1999/xlink" width="100%" height="100%" viewBox="0 0 1000 1000">
 
  <g id="iPhone_X_XS_1" data-name="iPhone X/XS – 1" clip-path="url(#clip-iPhone_X_XS_1)">
    <rect width="100%" height="100%" fill="#fff"/>
    <g id="Layer_2" data-name="Layer 2" transform="translate(-51.13 -18.16)">
      <g id="Layer_1" data-name="Layer 1" transform="translate(51.13 18.16)">
        <g id="Group_1" data-name="Group 1" clip-path="url(#clip-path)">
          <path id="Path_1" data-name="Path 1" d="M714.937,291.4c-13.273-9.81-121.131-165.25-288.443-157.34S223.07,252.57,0,185L4.343,6.4l723.23,29.86Z" transform="translate(-51.646 -18.16)" fill="#208c91"/>
          <path id="Path_2" data-name="Path 2" d="M730.409,268.08c-13.505-9.26-125.1-160.17-292.16-145.36S237.835,249.56,13.24,191.24V12.55H736.8Z" transform="translate(-51.513 -18.16)" fill="#f8b271"/>
          <path id="Path_3" data-name="Path 3" d="M730.409,255.53c-13.505-9.26-125.1-160.17-292.16-145.35S237.835,237,13.24,178.69V0H736.8Z" transform="translate(-51.513 -18.16)" fill="#1f6870"/>
        </g>
        <path id="Path_4" data-name="Path 4" d="M100.09,52.85c7.33,1.65,16.44,3.26,27.41,5.7,17.78,4,15.28,12.74,3.67,26.57C121.54,96.58,103.6,115.35,98.78,120c-7.91,7.53-6.26,13.86.38,13.86l18,.14c5.6,0,8.75-1.93,10.57-5.79s7-14.56,7-14.56l18.34,14.12h35.3v-1.32s-24.5-11.46-35.86-20.28c-9.13-7.09-5.66-14.24-2.32-21.21,3.78-7.9,7.29-18.49-5.7-28.29-9-6.78-18.1-7.29-34.75-9.94l-7.84-1.3c-1.87-.33-4.47,1.08-5,2.76-.47,1.47.71,4.1,2.57,4.52Z" transform="translate(-51.13 -18.16)" fill="#fff"/>
        <path id="Path_5" data-name="Path 5" d="M117.24,134.23H100.07c-3.42,0-5.73-1.26-6.51-3.56-1-3,.87-7,5.35-11.23s22.5-23.12,32.27-34.76c7-8.28,9.76-14.29,8.55-18.35-1-3.39-5-5.88-11.84-7.41-6-1.34-11.85-2.51-16.52-3.45-3.92-.78-8-1.59-11.43-2.37A4.34,4.34,0,0,1,97,50.87a3.85,3.85,0,0,1-.29-3c.55-1.73,2.37-2.85,4.63-2.85a6.3,6.3,0,0,1,1.15.1l6.59,1.16c2.43.39,4.71.73,6.86,1,12.56,1.87,20.85,3.11,28.73,9.06C157.74,66.27,154.6,77,150.4,85.2c-3.46,6.79-6.35,14.61,3.24,21.42,11.23,8,33.56,18.95,34.29,19.23a1.23,1.23,0,0,1,.82.59,1.25,1.25,0,0,1,.09.88.72.72,0,0,1-.17.39,1.52,1.52,0,0,1-1.15.36H153.44a1.05,1.05,0,0,1-.62-.21l-18-13.85c-1.57,3.24-5.49,11.33-6.92,14.37C125.88,132.75,123.18,134.23,117.24,134.23ZM101.36,45.61a4.118,4.118,0,0,0-4.12,2.47,3.31,3.31,0,0,0,.25,2.53,3.8,3.8,0,0,0,2.56,2c3.45.77,7.5,1.59,11.42,2.37,4.67.89,10.53,2.02,16.53,3.4,7.06,1.58,11.18,4.19,12.24,7.78,1.27,4.27-1.56,10.44-8.65,18.89-9.78,11.64-27.73,30.43-32.32,34.8-4.31,4.1-6.16,7.87-5.21,10.64.7,2,2.84,3.19,6,3.19h17.17c5.69,0,8.27-1.4,10.22-5.54,1.47-3.14,5.6-11.65,7.07-14.67l.14-.29,18.46,14.23a.51.51,0,0,0,.31.11h34.08c.62,0,.78-.18.78-.25v-.06h0a.66.66,0,0,0,0-.47.72.72,0,0,0-.5-.32c-.11,0-22.76-11-34.45-19.31-10-7.07-7-15.14-3.4-22.14,4.09-8,7.16-18.47-5.56-28.07-7.77-5.86-16-7.09-28.48-8.95L109,46.87l-6.59-1.16a5.36,5.36,0,0,0-1.05-.1Zm-1.16,87.54c-2.86,0-4.81-1-5.48-2.69-1-2.49.82-6.22,4.89-10.24,5-5,22.94-23.76,32.38-34.84,7.48-8.79,10.29-15,8.86-19.51-1.19-3.73-5.34-6.34-12.7-8-5.9-1.31-11.43-2.48-16.3-3.51-4.16-.88-8.08-1.7-11.47-2.46A3.42,3.42,0,0,1,98,50.35a2.49,2.49,0,0,1-.17-2c.46-1.42,1.58-2.12,3.43-2.12h.14c.33,0,6.33,1,7.53,1.21l4.11.65c14.47,2.26,23.2,3.63,30.94,9.29,9.5,7,11.23,15.83,5.28,27.16-3.67,7-6.56,15.94,3.72,23.23,11.55,8.21,33.7,18.78,33.93,18.89l1.11.53H153.35l-.07-.06-18.89-14.85c-.92,1.86-5.91,12-7.54,15.48-1.93,4.1-4.08,5.28-9.6,5.28Zm1.1-86.35c-1.61,0-2.54.55-2.92,1.74a2,2,0,0,0,.12,1.54,2.89,2.89,0,0,0,2,1.28c3.39.76,7.31,1.59,11.46,2.47,4.88,1,10.41,2.19,16.32,3.51,7.55,1.69,11.83,4.42,13.09,8.36,1.5,4.72-1.35,11.09-9,20C122.94,96.83,105,115.65,100,120.62c-3.9,3.85-5.64,7.36-4.77,9.63.59,1.52,2.36,2.35,5,2.35l17-.1c5.32,0,7.28-1.07,9.11-5s7.64-15.67,7.69-15.79l.15-.29,19.33,15.19h32.1c-4.64-2.25-22.81-11.22-32.92-18.4-10.74-7.63-7.36-17.33-3.88-24,5.79-11,4.12-19.68-5.12-26.44-7.63-5.59-16.32-6.94-30.71-9.2l-4.1-.57c-2.83-.48-7.16-1.19-7.45-1.2Z" transform="translate(-51.13 -18.16)"/>
        <path id="Path_6" data-name="Path 6" d="M158.33,94.67c-.62,5-2.53,4.92-5.55,1.51C150,93,149.46,84.65,162.63,76.76c20.57-12.31,58-10.47,64.56-18.27a22,22,0,0,0,3.86.41c1,0,2.88-.24,2.88-.24s-2.57,6.7-16.46,9.73c-13.56,3-29.09,4.36-39.77,9.21s-18.2,7.59-19.37,17.07" transform="translate(-49.956 -18.16)" fill="#fff"/>
        <path id="Path_7" data-name="Path 7" d="M156.2,98.88c-.95,0-2.11-.82-3.61-2.51A7.74,7.74,0,0,1,151,90c.49-3.32,2.89-8.37,11.49-13.52,11.08-6.63,27.32-9.22,40.37-11.3C214.21,63.41,224,61.85,227,58.31l.1-.12h.16a22.52,22.52,0,0,0,3.8.4c1,0,2.83-.24,2.85-.24l.45-.06-.17.44c-.11.28-2.78,6.87-16.65,9.9-4.16.9-8.56,1.67-12.82,2.42-9.59,1.68-19.52,3.42-26.9,6.77l-2.12,1c-9.65,4.34-16,7.21-17.1,15.89-.3,2.44-.92,3.78-1.91,4.1A1.51,1.51,0,0,1,156.2,98.88Zm71.09-40.09c-3.23,3.61-13,5.17-24.35,7-13,2.07-29.19,4.65-40.18,11.24-8.42,5-10.76,9.91-11.23,13.12A7.26,7.26,0,0,0,153,96c1.57,1.77,2.77,2.54,3.54,2.28s1.27-1.47,1.54-3.64c1.11-9,7.95-12.07,17.42-16.33l2.11-1c7.45-3.39,17.4-5.13,27-6.82,4.25-.74,8.64-1.51,12.79-2.42,11.5-2.5,15.18-7.59,16-9.12a22.508,22.508,0,0,1-2.41.18,21.53,21.53,0,0,1-3.7-.34Z" transform="translate(-49.958 -18.16)"/>
        <path id="Path_8" data-name="Path 8" d="M227.19,58.49a22,22,0,0,0,3.86.41c1,0,2.88-.24,2.88-.24s-2.57,6.7-16.46,9.73c-13.56,3-29.42,4-40.09,8.83s-17.88,8-19,17.45c-.34,2.71-1.06,3.93-2.12,3.93-.9,0-2.05-.86-3.43-2.42-2.83-3.18-3.37-11.54,9.8-19.42,20.57-12.31,58-10.47,64.56-18.27m0-.88a.79.79,0,0,0-.59.28c-2.86,3.39-12.57,4.94-23.82,6.74C189.69,66.72,173.4,69.32,162.24,76c-8.86,5.3-11.3,10.56-11.78,14a8.34,8.34,0,0,0,1.75,6.74c1.62,1.83,2.89,2.68,4,2.68,2.33,0,2.77-3.53,2.91-4.69,1-8.33,7.17-11.43,16.65-15.7l2-.94c7.32-3.32,17.4-4.79,27-6.47,4.26-.75,8.67-1.52,12.84-2.42,14.15-3.09,16.93-10,17-10.26a.94.94,0,0,0-.1-.86.78.78,0,0,0-.64-.35h-.1s-1.8.23-2.78.23a22.13,22.13,0,0,1-3.71-.39h-.15" transform="translate(-49.963 -18.16)" fill="#fff"/>
        <path id="Path_9" data-name="Path 9" d="M156.2,99.75c-1.18,0-2.52-.88-4.19-2.77a8.7,8.7,0,0,1-1.82-7c.5-3.55,3-8.89,11.92-14.25,11.21-6.71,27.52-9.31,40.63-11.4C214,62.56,223.61,61,226.4,57.71a1,1,0,0,1,1-.35,21.84,21.84,0,0,0,3.65.38,26.789,26.789,0,0,0,2.74-.23h.14a1.06,1.06,0,0,1,.86.47,1.25,1.25,0,0,1,.13,1.13c-.11.29-2.94,7.3-17.23,10.42-4.12.89-8.47,1.66-12.67,2.39h-.19c-15.08,2.64-24.54,5-28.94,7.38l-2.62,1.37c-7.81,4.06-13,6.75-13.88,14.12C159.24,96,158.78,99.75,156.2,99.75Zm71-41.86a.54.54,0,0,0-.39.19c-2.92,3.46-12.66,5-23.94,6.82-13.1,2.08-29.36,4.68-40.49,11.34-8.76,5.24-11.17,10.42-11.65,13.85a8.1,8.1,0,0,0,1.68,6.51c1.57,1.77,2.78,2.6,3.8,2.6,2.11,0,2.52-3.35,2.66-4.45.94-7.67,6.49-10.55,14.17-14.54l2.62-1.37c4.44-2.36,14-4.79,29.09-7.44h.19c4.2-.74,8.54-1.5,12.64-2.4,14-3,16.74-9.79,16.85-10.08a.64.64,0,0,0-.07-.6.49.49,0,0,0-.42-.23h-.08a25.929,25.929,0,0,1-2.8.24,22.11,22.11,0,0,1-3.77-.4Zm-71,41c-.95,0-2.1-.8-3.61-2.51A7.75,7.75,0,0,1,151,90c.5-3.32,2.89-8.37,11.49-13.52,11.06-6.62,26.68-9.18,40.45-11.44,11.34-1.87,21.14-3.48,24.23-7h0l.05-.06.11.1a18,18,0,0,0,3.7.49c1,0,2.83-.24,2.85-.24l.45-.06-.17.44c-.11.28-2.78,6.87-16.65,9.9-2.18.47-4.57.93-7.55,1.44q-3.105.525-6.23,1l-2.15.34c-2.78.45-5.66.9-8.47,1.43-.89.16-1.77.33-2.65.51A83.748,83.748,0,0,0,182,75.74a63.628,63.628,0,0,0-8.42,3.2c-.77.37-1.54.77-2.3,1.17s-1.5.82-2.23,1.25-1.4.84-2.07,1.28c-2.29,1.49-5.12,3.62-6.68,6.83a18.609,18.609,0,0,0-1.66,5.24c-.46,2.88-1.2,4.17-2.44,4.17ZM227.37,58.7C224,62.18,214.24,63.78,203,65.62c-13.7,2.26-29.26,4.81-40.24,11.38-8.42,5-10.75,9.91-11.23,13.11A7.31,7.31,0,0,0,153,96c1.37,1.55,2.45,2.33,3.22,2.33.58,0,1.39-.38,1.86-3.69a19.37,19.37,0,0,1,1.71-5.41,17.925,17.925,0,0,1,6.87-7c.68-.44,1.38-.88,2.1-1.3s1.48-.85,2.24-1.25,1.55-.81,2.32-1.18a64,64,0,0,1,8.5-3.23,83.311,83.311,0,0,1,8.58-2.36l2.65-.52c2.83-.52,5.7-1,8.49-1.42l2.15-.35c2.08-.33,4.15-.66,6.23-1,3-.51,5.35-1,7.52-1.44,11.5-2.5,15.18-7.59,16-9.12-.63.07-1.69.18-2.41.18a17.84,17.84,0,0,1-3.66-.54Z" transform="translate(-49.965 -18.16)"/>
        <path id="Path_10" data-name="Path 10" d="M172.86,111.62c-3-.09-6.64-1.77-6.34-5.49s-.22-5.8-.53-8.83-.52-5.5,1.72-7.38c3.4-2.86,8.45-4.14,13.47-3.78s7.64,4.73,6,6.52-8.54.41-10.77,2.16c-3.05,2.38-1.83,6.21,1.06,5.52s6-2.4,6.55-1.49c1.5,2.62-1.21,3.82-3.6,4.16s-4.21.86-3.9,3.31,1,5.44-3.62,5.3" transform="translate(-49.928 -18.16)" fill="#1f6870"/>
        <path id="Path_11" data-name="Path 11" d="M173.17,111.9h-.32a7.78,7.78,0,0,1-5.5-2.29,4.58,4.58,0,0,1-1.09-3.5,28,28,0,0,0-.29-6.7c-.09-.66-.17-1.34-.25-2.07-.3-2.89-.58-5.61,1.82-7.63,3.35-2.82,8.33-4.23,13.65-3.84a7.37,7.37,0,0,1,6.49,4.23,2.59,2.59,0,0,1-.35,2.76c-.93,1-3.12,1.08-5.44,1.18-2.12.09-4.33.19-5.36,1-1.66,1.3-1.92,3-1.46,4a1.86,1.86,0,0,0,2.3,1,31.276,31.276,0,0,0,3-.95c2-.69,3.37-1.19,3.82-.41a2.56,2.56,0,0,1,.27,2.43c-.7,1.52-3.08,2-4.07,2.15-2.64.37-3.93.93-3.66,3l.05.38c.19,1.46.42,3.11-.5,4.18a3.94,3.94,0,0,1-3.11,1.08Zm-.3-.55c1.49,0,2.48-.24,3-.87.75-.87.56-2.33.37-3.74l-.05-.38c-.36-2.76,1.84-3.3,4.12-3.62,1.88-.27,3.25-.95,3.66-1.84a2,2,0,0,0-.25-1.91c-.23-.39-1.87.19-3.19.66-.95.33-2,.71-3.07,1a2.41,2.41,0,0,1-2.91-1.32c-.55-1.22-.27-3.21,1.63-4.69,1.17-.92,3.45-1,5.66-1.11s4.3-.19,5.08-1a2,2,0,0,0,.23-2.17,6.81,6.81,0,0,0-6-3.88c-5.12-.35-10.08,1-13.29,3.72-2.17,1.83-1.92,4.29-1.62,7.14.08.72.17,1.4.25,2a29.089,29.089,0,0,1,.29,6.83,4,4,0,0,0,1,3.08,7.26,7.26,0,0,0,5.12,2.11Z" transform="translate(-49.93 -18.16)"/>
        <path id="Path_12" data-name="Path 12" d="M179.52,85.56A19.58,19.58,0,0,0,167,89.62c-2.47,2.07-2.19,4.81-1.88,7.72.07.73.16,1.41.25,2.07a28.31,28.31,0,0,1,.28,6.7,4.86,4.86,0,0,0,2.26,4.56,9.33,9.33,0,0,0,4.88,1.47h.35a5.54,5.54,0,0,0,3.11-.75c1.59-1.06,1.32-3,1.09-4.74l-.05-.38c-.27-2.11,1.11-2.46,3.24-2.76a6.83,6.83,0,0,0,4.08-1.74,2.45,2.45,0,0,0,.13-3.1,1.53,1.53,0,0,0-1.4-.61,11.29,11.29,0,0,0-3.31.86,28.5,28.5,0,0,1-2.93.92,1.72,1.72,0,0,1-.37.05,1.19,1.19,0,0,1-.9-.49c-.78-1-.56-2.92,1.17-4.27.87-.68,2.93-.77,4.91-.86,2.39-.1,4.85-.21,5.92-1.35s.78-2.79-.49-4.36a8.54,8.54,0,0,0-6.1-2.94c-.58,0-1.17-.07-1.75-.07" transform="translate(-49.934 -18.16)" fill="#fff"/>
        <path id="Path_13" data-name="Path 13" d="M173.17,112.43h-.35a9.66,9.66,0,0,1-5-1.52,5.13,5.13,0,0,1-2.37-4.82,27.71,27.71,0,0,0-.29-6.63c-.08-.66-.17-1.35-.25-2.08-.31-3-.61-5.8,2-8a19.9,19.9,0,0,1,12.66-4.11q.91,0,1.77.06a8.83,8.83,0,0,1,6.29,3c1.36,1.68,1.55,3.58.47,4.73s-3.65,1.33-6.08,1.44c-1.87.08-4,.17-4.78.8a3.67,3.67,0,0,0-1.48,2.39,2,2,0,0,0,.36,1.49.9.9,0,0,0,1,.34,28.463,28.463,0,0,0,2.9-.91,11.421,11.421,0,0,1,3.4-.88,1.79,1.79,0,0,1,1.63.75,2.73,2.73,0,0,1-.16,3.42,7,7,0,0,1-4.24,1.83c-2.22.32-3.24.66-3,2.46v.38c.23,1.71.51,3.84-1.22,5a5.74,5.74,0,0,1-3.26.86Zm6.35-26.59a19.35,19.35,0,0,0-12.33,4c-2.35,2-2.07,4.65-1.78,7.48.08.73.17,1.41.25,2.07a28.141,28.141,0,0,1,.29,6.75,4.59,4.59,0,0,0,2.14,4.31,9.17,9.17,0,0,0,4.74,1.43h.34a5.27,5.27,0,0,0,3-.7c1.45-1,1.21-2.75,1-4.47l-.05-.38c-.33-2.54,1.69-2.82,3.47-3.08a6.59,6.59,0,0,0,3.92-1.65,2.18,2.18,0,0,0,.09-2.77,1.33,1.33,0,0,0-1.17-.47,11.22,11.22,0,0,0-3.23.84,30.4,30.4,0,0,1-2.95.93,1.4,1.4,0,0,1-1.54-.54,2.61,2.61,0,0,1-.47-1.89,4.22,4.22,0,0,1,1.69-2.77c.94-.74,3-.83,5.06-.92,2.34-.1,4.74-.2,5.74-1.27s.67-2.53-.5-4a8.33,8.33,0,0,0-5.92-2.85C180.7,85.86,180.12,85.84,179.52,85.84Zm-6.58,25.65h-.36A8.63,8.63,0,0,1,167.2,109a3.88,3.88,0,0,1-.94-2.91,28.26,28.26,0,0,0-.29-6.7c-.09-.66-.17-1.34-.25-2.08-.3-2.91-.34-5.29,2.06-7.31a18.028,18.028,0,0,1,11.87-3.81c4,0,7,2.12,7.84,4.14a2.05,2.05,0,0,1-.27,2.29c-.93,1-3,1-5.24,1-2,0-4.16,0-5.2.79a5.06,5.06,0,0,0-1.88,5.09,1.38,1.38,0,0,0,1.34,1,21.3,21.3,0,0,0,3.49-.92,18.44,18.44,0,0,1,3.56-.91,1,1,0,0,1,1,.46,2.24,2.24,0,0,1,0,2c-.5.92-1.78,1.53-3.82,1.82-2.82.39-3.92,1.39-3.67,3.32s0,3.21-.81,4.09a3.8,3.8,0,0,1-3.05,1.13Zm6.57-24.72a17.38,17.38,0,0,0-11.39,3.68c-2.2,1.85-2.16,4-1.87,6.82.08.73.17,1.41.25,2.06a29.06,29.06,0,0,1,.29,6.83,3.34,3.34,0,0,0,.81,2.5,8.07,8.07,0,0,0,5,2.27,3.53,3.53,0,0,0,2.94-.93,4.585,4.585,0,0,0,.67-3.64c-.38-3,2.17-3.67,4.13-3.94s3-.79,3.43-1.54a1.68,1.68,0,0,0,0-1.5.65.65,0,0,0-.46-.13,20.26,20.26,0,0,0-3.41.89,19.32,19.32,0,0,1-3.63.94,1.86,1.86,0,0,1-1.85-1.4A5.65,5.65,0,0,1,176.46,94c1.18-.92,3.38-.91,5.53-.91,2,0,4.08,0,4.85-.8a1.53,1.53,0,0,0,.16-1.68c-.79-1.88-3.74-3.8-7.35-3.8h-.14Z" transform="translate(-49.935 -18.16)"/>
        <path id="Path_14" data-name="Path 14" d="M222.36,111.65c-5,0-10.83-1-10.86-6.5s-1.36-13-.8-15.56,3.46-3.59,5.58-3.53,8,1.38,5.57,9.66c-1.06,3.62-3.44,8-2.29,9.14,1.62,1.57,6.52,1,8.36.27s4.06-.37,4.64,1.24,0,5.28-10.2,5.28" transform="translate(-49.458 -18.16)" fill="#fff"/>
        <path id="Path_15" data-name="Path 15" d="M222.36,111.93c-7.36,0-11.1-2.28-11.13-6.78,0-2.38-.27-5.1-.51-7.73-.33-3.43-.6-6.4-.28-7.89.63-2.86,3.86-3.83,5.85-3.74a7,7,0,0,1,5.35,2.63c1.23,1.76,1.38,4.25.47,7.38-.33,1.13-.79,2.34-1.23,3.5-.88,2.32-1.79,4.71-1.13,5.36,1.51,1.47,6.35.87,8.08.21,1.89-.73,4.33-.4,5,1.4a3,3,0,0,1-.36,2.72C231.55,110.33,229.07,111.93,222.36,111.93ZM216.1,86.34c-1.84,0-4.6.86-5.14,3.31-.3,1.4,0,4.47.29,7.72.24,2.64.5,5.37.52,7.77,0,4.14,3.58,6.24,10.59,6.24,6.47,0,8.82-1.47,9.65-2.71a2.47,2.47,0,0,0,.3-2.21c-.53-1.47-2.64-1.71-4.3-1.08s-6.86,1.4-8.63-.32c-.92-.9,0-3.25,1-6,.44-1.15.89-2.34,1.22-3.45.86-3,.73-5.28-.39-6.9a6.48,6.48,0,0,0-4.94-2.4Z" transform="translate(-49.459 -18.16)"/>
        <path id="Path_16" data-name="Path 16" d="M217,90.23c.06,0-.66-1-.6-1,2.12.07,5.66-2.17,3.24,6.1-1.06,3.63-2.59,8.88-1.44,10,.75.73,2.18,2.63,3.71,2.63a26.119,26.119,0,0,0,6-.79,5.21,5.21,0,0,1,1.74-.62c1.26,0,.88-.5,1.27.58.57,1.61,1.88,3.88-8.36,3.88-5,0-8.69-.76-8.72-6.23-.05-7.27,0-9.45,1-13.92.55-2.49-.56-1.63,1.54-1.63m-.26-3.66c-2.51,0-5.48,1.24-6.07,4-.33,1.51-.05,4.48.27,7.92.25,2.63.5,5.35.52,7.72,0,3.19,2,7,11.55,7,4.84,0,8.16-.8,9.87-2.38a3.24,3.24,0,0,0,1-3.53,3.44,3.44,0,0,0-3.46-2,6.11,6.11,0,0,0-2.18.41,13.779,13.779,0,0,1-4.29.66,4.81,4.81,0,0,1-3.18-.79c-.59-.58.39-3.16,1.18-5.24.44-1.16.9-2.36,1.23-3.5,1.1-3.76.67-6.57-1.28-8.38a8,8,0,0,0-4.94-1.87h-.22" transform="translate(-49.461 -18.16)" fill="#fff"/>
        <path id="Path_17" data-name="Path 17" d="M222.36,112.43c-9.74,0-11.8-4-11.82-7.28,0-2.37-.27-5.08-.52-7.69-.32-3.51-.6-6.47-.26-8,.63-2.86,3.72-4.16,6.33-4.16h.23a8.22,8.22,0,0,1,5.1,1.95c2,1.88,2.5,4.79,1.37,8.66-.33,1.12-.78,2.3-1.21,3.45v.08c-.6,1.56-1.71,4.48-1.25,4.93s1.41.64,3,.72a11.5,11.5,0,0,0,3.36-.59c2.54-.68,5.42-1.44,7,1.5a3.75,3.75,0,0,1-1.23,4C230.65,111.6,227.27,112.43,222.36,112.43Zm-6.27-26.59c-2.4,0-5.25,1.17-5.81,3.73-.32,1.45,0,4.38.27,7.77.25,2.69.51,5.41.52,7.81,0,4.4,3.93,6.72,11.29,6.72,4.77,0,8-.78,9.69-2.31a3.28,3.28,0,0,0,1.12-3.31c-1.34-2.56-3.78-1.91-6.36-1.22a11.929,11.929,0,0,1-3.52.6c-1.79-.08-2.83-.35-3.35-.87-.68-.65,0-2.71,1.11-5.54v-.08c.43-1.13.87-2.3,1.19-3.4,1.07-3.64.66-6.37-1.2-8.09a7.74,7.74,0,0,0-4.77-1.81Zm5.41,25.45c-4.09,0-6.74-.74-8.32-2.32a5.59,5.59,0,0,1-1.55-4.06c0-2.39-.27-5.11-.5-7.51-.31-3.21-.58-6-.26-7.47s2.61-3.31,5-3.37h0c2.64.08,4.42.83,5.44,2.31s1.21,3.9.32,6.91c-.31,1.07-.7,2.18-1.09,3.27-.85,2.42-1.74,4.92-1.21,5.78s2.47,1.26,4,1.26a11.89,11.89,0,0,0,4.18-.75,4.32,4.32,0,0,1,1.7-.33c1,0,2.8,0,3.29,1.36a2.31,2.31,0,0,1-.24,2.1c-1.11,1.71-4.4,2.66-9.76,2.81Zm-5.59-24.17c-2.15,0-4.23,1.64-4.52,2.93s0,4.26.27,7.29c.23,2.42.49,5.15.51,7.57a5,5,0,0,0,1.38,3.66c1.57,1.58,4.51,2.28,9,2.15,6.46-.18,8.64-1.49,9.34-2.55a1.78,1.78,0,0,0,.18-1.61c-.33-.92-1.61-1-2.79-1a3.69,3.69,0,0,0-1.51.29,12.59,12.59,0,0,1-4.37.78c-1.42,0-3.8-.48-4.44-1.51s.18-3.5,1.16-6.28c.38-1.07.78-2.18,1.08-3.23.83-2.84.75-5-.24-6.43s-2.59-1.99-5.05-2.06Z" transform="translate(-49.462 -18.16)"/>
        <path id="Path_18" data-name="Path 18" d="M209,101.71c-.45-4.33-2.79-8.13-5.12-12.82s-7.89-3.25-10.18-.82c-5.86,6.26-6,15.05-6.38,20.09s1.72,5.59,4.17,5.54c5.44-.1,3.55-2.94,3.64-5.06.06-1.45.6-1.6,1.48-1.64a35.368,35.368,0,0,0,4.25-.64c1.37-.29,1.23,1.66,1.2,3.28s.17,3.42,4.1,3,3.5-4.62,2.84-11m-8.75,1.7c-2.09.53-4.73,1.08-5.19.17s1-2.11.5-5c-.23-1.41-.45-2.65,1-3s2.68-1,3.39.67c1,2.33,2.43,6.59.33,7.12" transform="translate(-49.702 -18.16)" fill="#fff"/>
        <path id="Path_19" data-name="Path 19" d="M191.24,113.64a4.13,4.13,0,0,1-3.17-1c-.83-.92-1.16-2.48-1-4.79,0-.48.06-1,.09-1.52.28-5.07.71-12.73,6.09-18.47a8.38,8.38,0,0,1,6.86-2.43,5.29,5.29,0,0,1,4,3c.42.84.84,1.66,1.24,2.45,1.9,3.69,3.53,6.87,3.91,10.47h0c.47,4.58.85,8.19-.57,10a3.46,3.46,0,0,1-2.51,1.26c-1.76.17-2.95-.06-3.64-.72a3.32,3.32,0,0,1-.76-2.59V109c0-1,.05-2.22-.36-2.57a.58.58,0,0,0-.53-.09,34.721,34.721,0,0,1-4.29.64c-.79,0-1.17.12-1.22,1.38a7.327,7.327,0,0,0,.12,1.37,3.5,3.5,0,0,1-.35,2.83c-.6.73-1.76,1.09-3.67,1.13Zm7.9-27.78a8.16,8.16,0,0,0-5.51,2.34c-5.24,5.58-5.66,13.12-5.94,18.11a12.349,12.349,0,0,1-.09,1.53c-.15,2.14.13,3.57.86,4.36a3.79,3.79,0,0,0,3,.88c1.72,0,2.79-.33,3.28-.93a3.12,3.12,0,0,0,.22-2.39,8.189,8.189,0,0,1-.13-1.47c.07-1.68.83-1.86,1.74-1.91a33.652,33.652,0,0,0,4.2-.63,1.09,1.09,0,0,1,1,.2c.61.52.58,1.79.56,3v.33a2.87,2.87,0,0,0,.58,2.17c.57.54,1.65.73,3.23.57A3,3,0,0,0,208.3,111c1.28-1.63.91-5.14.44-9.59h0c-.36-3.5-2-6.63-3.84-10.27-.41-.8-.83-1.61-1.25-2.46A4.76,4.76,0,0,0,200,85.93a5.339,5.339,0,0,0-.86-.07ZM196.45,104c-.8,0-1.38-.17-1.61-.64a2.08,2.08,0,0,1,.12-1.64,6.77,6.77,0,0,0,.35-3.4v-.08c-.22-1.39-.45-2.82,1.18-3.23l.53-.14c1.21-.33,2.46-.67,3.18,1,.62,1.42,2,4.93,1.19,6.62a1.53,1.53,0,0,1-1,.88h0A17.86,17.86,0,0,1,196.45,104Zm2-8.85a5.58,5.58,0,0,0-1.36.26l-.53.14c-1.1.27-1,1.08-.78,2.6v.08a7.19,7.19,0,0,1-.36,3.67c-.2.61-.3.94-.16,1.21.28.54,1.92.44,4.89-.31h0a1,1,0,0,0,.69-.58c.57-1.21-.24-4-1.2-6.15a1.152,1.152,0,0,0-1.15-.92Z" transform="translate(-49.703 -18.16)"/>
        <path id="Path_20" data-name="Path 20" d="M199.17,86.18c1.87,0,3.65.21,4.72,2.37,2.33,4.69,4.67,8.49,5.12,12.82.66,6.33,1.09,10.55-2.84,10.95a9.869,9.869,0,0,1-1,.06c-2.93,0-3.09-1.62-3.07-3.08s.16-3.31-.94-3.31h-.26a33.211,33.211,0,0,1-4.25.63c-.88,0-1.42.2-1.48,1.65-.09,2.12,1.8,5-3.64,5.06h-.25c-2.34,0-4.25-.68-3.92-5.55a29.91,29.91,0,0,1,7.83-18.64c1.23-1.31,1.81-3,4-3m-2,18.37c1.07,0,2.43-1,3.71-1.28,2.09-.53.77-6.33-.6-8.29a3.83,3.83,0,0,0-2.24-1.51,14.09,14.09,0,0,0-2.38.63c-1.42.35-2.88,3-1.27,4.19,2.31,1.77-1.23,5.71-.77,6.64.18.36,2.11-.58,2.79-.58m2.7-19.28a9.12,9.12,0,0,0-6.27,2.64c-5.42,5.78-5.85,13.47-6.14,18.56,0,.54-.06,1-.09,1.52-.18,2.67.28,4.34,1.44,5.25a5.11,5.11,0,0,0,3.17.83h.27a6,6,0,0,0,3.75-1c1-.87.85-2.08.68-3.24a7.269,7.269,0,0,1-.12-1.35c0-1.1.26-1.11.84-1.15a34.119,34.119,0,0,0,4.39-.65h.05c.33.27.3,1.74.28,2.46v.33a3.25,3.25,0,0,0,1,2.89,4.5,4.5,0,0,0,2.72.71,9.13,9.13,0,0,0,1.132-.07c4.578-.47,4.118-4.85,3.428-11.48-.38-3.63-2-6.82-3.91-10.51-.41-.8-.83-1.61-1.25-2.46a5.78,5.78,0,0,0-5.4-3.3m-2.71,18.14c-.19,0-.64,0-.71-.15a2.327,2.327,0,0,1,.16-1.13,7.11,7.11,0,0,0,.37-3.71v-.09c-.24-1.5-.26-2.17.51-2.37l.55-.14a5.28,5.28,0,0,1,1.17-.24c.16,0,.5,0,.81.73,1.5,3.42,1.82,6.2.76,6.47a17.55,17.55,0,0,1-3.61.63" transform="translate(-49.706 -18.16)" fill="#fff"/>
        <path id="Path_21" data-name="Path 21" d="M191.25,114.15a5.34,5.34,0,0,1-3.33-.89c-1.24-1-1.73-2.72-1.54-5.49,0-.47.06-1,.09-1.51.29-5.14.72-12.89,6.21-18.74a9.38,9.38,0,0,1,6.46-2.72,6,6,0,0,1,5.64,3.44c.38.78.77,1.53,1.14,2.26l.1.2c1.91,3.72,3.56,6.93,3.94,10.61.51,4.87.88,8.38-.64,10.32a4.16,4.16,0,0,1-3,1.47,11.37,11.37,0,0,1-1.15.06,4.69,4.69,0,0,1-2.87-.76,3.51,3.51,0,0,1-1.15-3.11V109a7.15,7.15,0,0,0-.12-2.14,36.77,36.77,0,0,1-4.31.63c-.52,0-.56,0-.6.89a7.872,7.872,0,0,0,.11,1.21v.08c.18,1.18.38,2.52-.77,3.49a6.12,6.12,0,0,1-3.91,1Zm7.89-28.8a8.75,8.75,0,0,0-6.07,2.56c-5.35,5.7-5.78,13.32-6.07,18.37a12.194,12.194,0,0,1-.09,1.53c-.18,2.57.25,4.16,1.33,5a4.82,4.82,0,0,0,3,.79h.26a5.81,5.81,0,0,0,3.59-.92c.91-.77.75-1.84.58-3v-.09a6.78,6.78,0,0,1-.11-1.32c.05-1.23.36-1.37,1.1-1.41a35.439,35.439,0,0,0,4.35-.65h.12l.14.07c.37.29.42,1.24.39,2.67v.34a2.92,2.92,0,0,0,.93,2.65,4.2,4.2,0,0,0,2.56.66,10.562,10.562,0,0,0,1.1-.06,3.66,3.66,0,0,0,2.66-1.27c1.38-1.76,1-5.35.53-9.9-.37-3.59-2-6.75-3.88-10.42l-.1-.2L204.3,88.5a5.52,5.52,0,0,0-5.16-3.15ZM191.3,113c-1.2,0-2.43,0-3.22-.87s-1-2.18-.81-4.39v-.76c.33-5.1.83-12.81,6.48-18.83a7.18,7.18,0,0,1,5.37-2.28c1.79,0,3.63.19,4.8,2.56.44.88.88,1.74,1.31,2.56,1.86,3.62,3.48,6.74,3.85,10.31.64,6.17.79,10.26-2.9,10.86l-.38.07a3,3,0,0,1-.67.1,3.43,3.43,0,0,1-2.6-.81,3.33,3.33,0,0,1-.64-2.48c0-1.52-.15-2.49-.52-2.88a.52.52,0,0,0-.4-.18H201a37.941,37.941,0,0,1-4.36.67c-.66,0-1.33.26-1.39,1.63a8.311,8.311,0,0,0,.12,1.32,2.9,2.9,0,0,1-.26,2.34c-.56.68-1.75,1-3.78,1.05Zm7.87-26.58a6.66,6.66,0,0,0-5,2.12c-5.51,5.87-6,13.46-6.33,18.48v.76c-.13,2,.09,3.32.67,4s1.48.7,2.79.7c1.86,0,3-.32,3.41-.86s.26-1.12.15-1.89a6.74,6.74,0,0,1-.13-1.43c.06-1.39.67-2.1,1.89-2.17a33.83,33.83,0,0,0,4.26-.65.36.36,0,0,1,.16,0,1.08,1.08,0,0,1,.81.35c.48.52.7,1.56.67,3.28a2.83,2.83,0,0,0,.48,2.08,3,3,0,0,0,2.22.65,2.49,2.49,0,0,0,.56-.09l.41-.08c3-.48,3.16-3.42,2.45-10.25-.37-3.46-1.95-6.54-3.79-10.11-.43-.83-.87-1.68-1.31-2.57-1.08-2.11-2.68-2.28-4.37-2.28Zm-2.74,17.19c-.46,0-.73,0-1-.46a2.24,2.24,0,0,1,0-1.59,7.47,7.47,0,0,0,.19-3.27,3.79,3.79,0,0,0-.15-.76c-.23-1-.48-2.21.92-2.56l.51-.14a6.11,6.11,0,0,1,1.49-.27c.79,0,1.12.62,1.48,1.42,1.32,3,1.71,5,1.2,6.12a1.58,1.58,0,0,1-1.08.88l-.6.15a10.27,10.27,0,0,1-2.74.48h-.3Zm2-8.5a5.79,5.79,0,0,0-1.35.26l-.52.14c-.82.2-.8.65-.53,1.9.05.25.11.52.15.79a7.88,7.88,0,0,1-.19,3.5c-.15.58-.22.9-.07,1.19s.08.17.59.17h.18a10.41,10.41,0,0,0,2.61-.46l.6-.16a1,1,0,0,0,.72-.58c.44-.92,0-2.83-1.2-5.65-.34-.82-.55-1.06-.95-1.06Zm-1.61,7.57a.59.59,0,0,1-.46-.28,1,1,0,0,1-.09-.92,15.841,15.841,0,0,0,.12-3.46,7.77,7.77,0,0,0-.28-1.1c-.11-.33-.19-.57-.07-.79a.82.82,0,0,1,.55-.34l.51-.14.22-.06a3.12,3.12,0,0,1,1-.15c.38-.06.58.12.84.72.8,1.83,1.64,4.27,1.08,5.47a1.1,1.1,0,0,1-.73.62,9.371,9.371,0,0,1-2.65.47ZM198.49,96a.25.25,0,0,1-.12,0,2.94,2.94,0,0,0-.87.13l-.22.07-.52.14a.82.82,0,0,0-.22.08s.07.19.11.33A6.779,6.779,0,0,1,197,98a17.1,17.1,0,0,1-.14,3.7c-.1.29,0,.44.05.46a8.58,8.58,0,0,0,2.52-.4.57.57,0,0,0,.42-.33c.17-.37.41-1.59-1.09-5C198.57,96.07,198.5,96,198.49,96Z" transform="translate(-49.707 -18.16)"/>
        <path id="Path_22" data-name="Path 22" d="M228.4,89.4a3.34,3.34,0,1,1,3.22-3.34,3.29,3.29,0,0,1-3.22,3.34Zm0-5.81a2.47,2.47,0,1,0,2.38,2.47,2.43,2.43,0,0,0-2.38-2.47Z" transform="translate(-49.355 -18.16)"/>
        <path id="Path_23" data-name="Path 23" d="M228.4,89.22a3.16,3.16,0,1,1,3-3.16A3.11,3.11,0,0,1,228.4,89.22Zm0-5.8a2.64,2.64,0,1,0,2.6,2.64,2.59,2.59,0,0,0-2.6-2.64Z" transform="translate(-49.355 -18.16)"/>
        <path id="Path_24" data-name="Path 24" d="M228.4,89.4a3.34,3.34,0,1,1,3.22-3.34,3.29,3.29,0,0,1-3.22,3.34Zm0-5.81a2.47,2.47,0,1,0,2.38,2.47,2.43,2.43,0,0,0-2.38-2.47Z" transform="translate(-49.355 -18.16)"/>
        <path id="Path_25" data-name="Path 25" d="M228.4,89.22a3.16,3.16,0,1,1,3-3.16A3.11,3.11,0,0,1,228.4,89.22Zm0-5.8a2.64,2.64,0,1,0,2.6,2.64,2.59,2.59,0,0,0-2.6-2.64Z" transform="translate(-49.355 -18.16)" fill="#fff"/>
        <path id="Path_26" data-name="Path 26" d="M228.56,87.78a1.59,1.59,0,0,1-.66-.14,1.54,1.54,0,0,1-.53-.37,1.68,1.68,0,0,1-.35-.54,1.8,1.8,0,0,1-.12-.66,1.85,1.85,0,0,1,.12-.67,1.73,1.73,0,0,1,.35-.55,1.58,1.58,0,0,1,.53-.37,1.6,1.6,0,0,1,.67-.13,1.81,1.81,0,0,1,.74.14,1.72,1.72,0,0,1,.52.41l.11.12-.73.8-.12-.13a1,1,0,0,0-.25-.21.55.55,0,0,0-.28-.06.46.46,0,0,0-.21,0l-.16.13a.53.53,0,0,0-.11.21.69.69,0,0,0,0,.25.77.77,0,0,0,0,.27.43.43,0,0,0,.11.2.55.55,0,0,0,.17.14.59.59,0,0,0,.23,0,.61.61,0,0,0,.28-.06,2.071,2.071,0,0,0,.27-.2l.12-.12.7.74-.11.12a2.09,2.09,0,0,1-.52.42,1.49,1.49,0,0,1-.77.26Z" transform="translate(-49.346 -18.16)"/>
        <path id="Path_27" data-name="Path 27" d="M229.25,87.45a1.41,1.41,0,0,1-.69.15,1.46,1.46,0,0,1-.6-.12,1.43,1.43,0,0,1-.47-.33,1.52,1.52,0,0,1-.42-1.08h0a1.52,1.52,0,0,1,.11-.6,1.57,1.57,0,0,1,.31-.49,1.43,1.43,0,0,1,.47-.33,1.51,1.51,0,0,1,.61-.12,1.48,1.48,0,0,1,.67.13,1.51,1.51,0,0,1,.47.37l-.5.55a1.49,1.49,0,0,0-.28-.24.7.7,0,0,0-.37-.09.53.53,0,0,0-.28.07.69.69,0,0,0-.36.43.81.81,0,0,0,0,.31h0a.83.83,0,0,0,0,.32.72.72,0,0,0,.14.26,1.3,1.3,0,0,0,.23.18.73.73,0,0,0,.3.06.69.69,0,0,0,.36-.09,1.2,1.2,0,0,0,.3-.23l.47.5a1.61,1.61,0,0,1-.47.39Z" transform="translate(-49.346 -18.16)" fill="#fff"/>
      </g>
    </g>
    <g id="Layer_2-2" data-name="Layer 2" transform="translate(214.002 354)">
      <g id="Layer_1-2" data-name="Layer 1">
        <g id="Group_2" data-name="Group 2" opacity="0.12">
          <path id="Path_28" data-name="Path 28" d="M8.26,9.14c8.91,1.93,20,3.82,33.3,6.69C63.16,20.48,60.13,30.76,46,47,34.32,60.43,12.53,82.45,6.67,87.83c-9.61,8.84-7.59,16.27.47,16.27l21.89.16c6.8,0,10.63-2.27,12.83-6.8s8.53-17.07,8.53-17.07L72.67,97h42.88V95.44S85.79,82,72,71.65C60.9,63.34,65.12,55,69.18,46.77c4.59-9.26,8.85-21.68-6.93-33.18C51.33,5.64,40.26,5,20,1.93L10.51.41C8.24,0,5.09,1.67,4.43,3.64c-.56,1.73.87,4.82,3.13,5.3Z" fill="#1f6870"/>
          <path id="Path_29" data-name="Path 29" d="M29.1,104.59H8.24c-4.15,0-7-1.48-7.91-4.17-1.25-3.51,1.06-8.19,6.5-13.18S34.17,60.12,46,46.47c8.45-9.71,11.85-16.76,10.38-21.53C55.2,21,50.36,18.05,42,16.26c-7.34-1.58-14.4-3-20.07-4.05-4.76-.92-9.69-1.87-13.89-2.78a5.23,5.23,0,0,1-3.5-2.62,4.38,4.38,0,0,1-.36-3.47C4.85,1.31,7.06,0,9.81,0A8.07,8.07,0,0,1,11.2.12l8,1.36c2.95.45,5.72.85,8.34,1.23,15.26,2.2,25.33,3.65,34.9,10.62,15.85,11.55,12,24.1,6.94,33.75-4.21,8-7.72,17.13,3.93,25.12C87,81.56,114.08,94.44,115,94.76a1.48,1.48,0,0,1,1,.7,1.43,1.43,0,0,1,.1,1,.77.77,0,0,1-.21.45,1.82,1.82,0,0,1-1.39.43H73.07a1.3,1.3,0,0,1-.76-.25L50.51,80.88c-1.92,3.8-6.68,13.28-8.42,16.85C39.6,102.86,36.32,104.59,29.1,104.59ZM9.81.65c-2.46,0-4.43,1.14-5,2.89a3.71,3.71,0,0,0,.31,3A4.63,4.63,0,0,0,8.22,8.8c4.19.9,9.11,1.86,13.87,2.78,5.67,1.1,12.74,2.47,20.08,4.05,8.57,1.84,13.57,4.91,14.87,9.12,1.54,5-1.9,12.25-10.51,22.15C34.65,60.56,12.85,82.6,7.27,87.72,2,92.53-.21,97,.94,100.2c.86,2.41,3.45,3.74,7.3,3.74H29.1c6.91,0,10-1.64,12.41-6.5,1.79-3.68,6.81-13.66,8.59-17.2l.17-.34L72.7,96.59a.63.63,0,0,0,.37.12h41.4c.75,0,1-.21,1-.28v-.07h0a.76.76,0,0,0,0-.55.89.89,0,0,0-.61-.38c-.13,0-27.65-12.91-41.85-22.65-12.09-8.29-8.47-17.75-4.13-26,5-9.42,8.7-21.67-6.75-32.92C52.62,7,42.61,5.54,27.46,3.35c-2.62-.38-5.4-.78-8.36-1.23L11.1.76A7.81,7.81,0,0,0,9.81.65ZM8.4,103.33c-3.48,0-5.84-1.13-6.66-3.17-1.17-2.92,1-7.29,6-12C13.8,82.33,35.55,60.28,47,47.29,56.1,37,59.52,29.71,57.78,24.41,56.33,20,51.29,17,42.36,15c-7.17-1.54-13.89-2.91-19.81-4.12-5.05-1-9.82-2-13.93-2.89A4.18,4.18,0,0,1,5.77,6.21a2.84,2.84,0,0,1-.2-2.34C6.13,2.2,7.49,1.39,9.73,1.39H9.9c.41,0,7.69,1.18,9.15,1.41l5,.76c17.58,2.66,28.19,4.26,37.59,10.9C73.17,22.61,75.27,33,68,46.32c-4.45,8.19-8,18.69,4.52,27.25,14,9.62,40.94,22,41.21,22.15l1.35.62H73l-.09-.07L49.93,78.85C48.81,81,42.75,92.93,40.77,97c-2.34,4.81-5,6.2-11.66,6.2ZM9.73,2c-1.95,0-3.08.64-3.54,2a2.19,2.19,0,0,0,.15,1.81,3.51,3.51,0,0,0,2.41,1.5c4.11.9,8.88,1.87,13.93,2.89,5.92,1.21,12.64,2.58,19.81,4.13,9.18,2,14.38,5.18,15.9,9.8,1.83,5.54-1.64,13-10.89,23.51C36,60.73,14.25,82.79,8.14,88.62c-4.75,4.52-6.86,8.64-5.8,11.3.71,1.78,2.87,2.76,6.06,2.76l20.71-.12c6.46,0,8.84-1.26,11.07-5.83s9.27-18.38,9.34-18.52l.18-.35L73.18,95.69h39c-5.63-2.64-27.7-13.16-40-21.59-13-8.95-8.94-20.32-4.72-28.09,7-12.95,5-23.09-6.22-31C52,8.44,41.43,6.85,23.94,4.2l-5-.76c-3.45-.55-8.7-1.39-9-1.4Z" fill="#f8b271"/>
          <path id="Path_30" data-name="Path 30" d="M79,58.18C78.26,64.05,75.93,64,72.28,60c-3.42-3.73-4-13.53,12-22.77,25-14.45,70.42-12.29,78.43-21.44a27.661,27.661,0,0,0,4.69.48c1.26,0,3.5-.28,3.5-.28s-3.12,7.86-20,11.41c-16.48,3.47-35.35,5.11-48.32,10.81s-22.11,8.9-23.53,20" fill="#1f6870"/>
          <path id="Path_31" data-name="Path 31" d="M76.42,63.12c-1.15,0-2.56-.95-4.38-2.94a8.87,8.87,0,0,1-1.93-7.42c.6-3.9,3.51-9.81,14-15.85,13.45-7.78,33.19-10.82,49-13.26,13.78-2.13,25.67-4,29.31-8.11l.12-.14h.19a26.43,26.43,0,0,0,4.62.48c1.22,0,3.43-.28,3.46-.28l.54-.07-.2.51c-.13.33-3.38,8.06-20.23,11.61-5,1.06-10.39,2-15.56,2.84-11.66,2-23.72,4-32.69,7.94-.87.39-1.73.76-2.57,1.12-11.72,5.1-19.47,8.47-20.77,18.64C79,61.08,78.21,62.65,77,63a1.92,1.92,0,0,1-.58.12Zm86.36-47c-3.92,4.24-15.82,6.07-29.57,8.19-15.8,2.43-35.47,5.46-48.82,13.18C74.17,43.38,71.33,49.1,70.75,52.86a8.32,8.32,0,0,0,1.77,6.88c1.9,2.08,3.35,3,4.3,2.67s1.54-1.72,1.87-4.27C80,47.6,88.34,44,99.84,39l2.57-1.12c9-4,21.14-6,32.84-8,5.16-.88,10.5-1.78,15.54-2.84,14-2.94,18.44-8.91,19.48-10.7a29.161,29.161,0,0,1-2.92.22,26.37,26.37,0,0,1-4.57-.46Z" fill="#f8b271"/>
          <path id="Path_32" data-name="Path 32" d="M162.66,15.75a27.66,27.66,0,0,0,4.69.48c1.26,0,3.5-.28,3.5-.28s-3.12,7.86-20,11.41c-16.48,3.47-35.74,4.66-48.71,10.36S80.43,47.07,79,58.18c-.41,3.19-1.28,4.62-2.58,4.62-1.09,0-2.48-1-4.15-2.84-3.42-3.73-4-13.53,12-22.77,25-14.45,70.42-12.29,78.43-21.44m0-1a.94.94,0,0,0-.71.33c-3.48,4-15.28,5.79-28.94,7.9-15.9,2.45-35.69,5.5-49.25,13.33C73,42.51,70,48.68,69.45,52.76a9.6,9.6,0,0,0,2.12,7.91c2,2.15,3.52,3.15,4.86,3.15,2.84,0,3.37-4.14,3.54-5.5,1.26-9.77,8.72-13.41,20.23-18.41.84-.37,1.6-.72,2.48-1.1,8.9-3.91,21.15-5.63,32.77-7.59,5.18-.88,10.53-1.79,15.6-2.85,17.18-3.62,20.56-11.69,20.7-12a1.07,1.07,0,0,0-.13-1,.94.94,0,0,0-.77-.41h-.12s-2.19.27-3.38.27a26.64,26.64,0,0,1-4.51-.46h-.18" fill="#1f6870"/>
          <path id="Path_33" data-name="Path 33" d="M76.43,64.15c-1.44,0-3.06-1-5.09-3.26a9.88,9.88,0,0,1-2.21-8.17c.6-4.16,3.59-10.43,14.47-16.72C97.22,28.13,117,25.08,133,22.63c13.62-2.1,25.35-3.91,28.74-7.79a1.34,1.34,0,0,1,1.21-.42,25.79,25.79,0,0,0,4.44.46c1.13,0,3.2-.26,3.32-.28h.18a1.29,1.29,0,0,1,1,.55,1.41,1.41,0,0,1,.16,1.32c-.14.35-3.57,8.57-20.94,12.23-5,1-10.28,1.94-15.39,2.81h-.22c-18.32,3.1-29.81,5.94-35.15,8.67l-3.19,1.61C87.67,46.57,81.4,49.72,80.3,58.36,80.11,59.79,79.56,64.15,76.43,64.15Zm86.23-49.1a.63.63,0,0,0-.47.22c-3.55,4.06-15.38,5.88-29.09,8-15.91,2.45-35.66,5.49-49.18,13.3C73.28,42.72,70.35,48.8,69.77,52.81a9.26,9.26,0,0,0,2,7.64c1.91,2.08,3.37,3,4.62,3,2.55,0,3.06-3.93,3.22-5.22,1.15-9,7.89-12.37,17.22-17.05l3.18-1.61c5.4-2.76,17-5.62,35.34-8.73h.23C140.72,30,146,29.1,151,28.05c17-3.58,20.33-11.49,20.46-11.82a.72.72,0,0,0-.08-.71.61.61,0,0,0-.51-.28h-.1a33.47,33.47,0,0,1-3.4.28,27.68,27.68,0,0,1-4.58-.47ZM76.43,63.12c-1.16,0-2.56-.93-4.39-2.94a8.87,8.87,0,0,1-1.93-7.42c.6-3.9,3.51-9.82,14-15.85,13.44-7.77,32.4-10.78,49.14-13.43,13.77-2.19,25.68-4.08,29.42-8.17h0l.06-.07.13.11a21.75,21.75,0,0,0,4.5.59,34.06,34.06,0,0,0,3.46-.29l.54-.07-.2.52c-.13.32-3.38,8.06-20.23,11.61-2.64.55-5.55,1.09-9.16,1.68-2.52.42-5,.81-7.57,1.2l-2.62.4c-3.37.52-6.87,1-10.29,1.67l-3.21.6A102.44,102.44,0,0,0,107.71,36a78.51,78.51,0,0,0-10.24,3.75c-.93.43-1.87.9-2.79,1.37s-1.82,1-2.71,1.46-1.7,1-2.51,1.51c-2.79,1.75-6.22,4.24-8.12,8a21.58,21.58,0,0,0-2,6.15C78.83,61.61,77.94,63.12,76.43,63.12ZM162.88,16c-4.14,4.08-15.95,6-29.57,8.12-16.68,2.64-35.58,5.64-48.92,13.35C74.17,43.38,71.33,49.1,70.75,52.86a8.33,8.33,0,0,0,1.77,6.88c1.65,1.81,3,2.73,3.91,2.73.69,0,1.68-.45,2.26-4.33a21.92,21.92,0,0,1,2.07-6.35c2-3.9,5.5-6.47,8.35-8.26.82-.52,1.68-1,2.54-1.52s1.81-1,2.73-1.48,1.88-.94,2.82-1.38a79.421,79.421,0,0,1,10.32-3.79,105.631,105.631,0,0,1,10.42-2.77c1.07-.21,2.15-.41,3.23-.6,3.43-.62,6.92-1.15,10.3-1.67l2.62-.41c2.52-.38,5-.77,7.56-1.19,3.6-.59,6.51-1.13,9.14-1.68,14-2.94,18.44-8.91,19.49-10.7a29.369,29.369,0,0,1-2.93.22A21.91,21.91,0,0,1,162.88,16Z" fill="#f8b271"/>
          <path id="Path_34" data-name="Path 34" d="M96.66,78.07C93,78,88.6,76,89,71.63s-.27-6.81-.66-10.35-.62-6.46,2.09-8.66c4.13-3.36,10.27-4.85,16.36-4.43s9.29,5.54,7.25,7.64-10.38.48-13.09,2.53c-3.69,2.79-2.22,7.29,1.29,6.48s7.33-2.81,8-1.75c1.82,3.07-1.47,4.49-4.38,4.88s-5.11,1-4.73,3.89,1.17,6.38-4.4,6.21" fill="#1f6870"/>
          <path id="Path_35" data-name="Path 35" d="M97,78.4h-.38c-2.12-.07-5-.81-6.68-2.69a5.28,5.28,0,0,1-1.33-4.11,32.19,32.19,0,0,0-.34-7.86c-.11-.77-.22-1.57-.31-2.43-.36-3.38-.71-6.57,2.21-8.94,4.07-3.31,10.11-5,16.59-4.51,4.22.29,7,2.78,7.88,5a3,3,0,0,1-.43,3.23c-1.12,1.16-3.79,1.27-6.6,1.39-2.59.11-5.26.22-6.52,1.17-2,1.52-2.34,3.51-1.78,4.71a2.31,2.31,0,0,0,2.8,1.19,37.331,37.331,0,0,0,3.67-1.11c2.38-.81,4.1-1.39,4.64-.48a2.92,2.92,0,0,1,.33,2.85c-.86,1.78-3.74,2.35-5,2.51-3.2.44-4.77,1.1-4.44,3.52l.06.45c.23,1.71.5,3.66-.61,4.9C100.09,78,98.84,78.4,97,78.4Zm-.36-.65c1.81,0,3-.28,3.68-1,.92-1,.68-2.73.45-4.38l-.06-.45c-.43-3.24,2.24-3.88,5-4.25,2.28-.31,4-1.12,4.45-2.15a2.33,2.33,0,0,0-.31-2.24c-.27-.47-2.27.22-3.87.76a37.731,37.731,0,0,1-3.73,1.13,3,3,0,0,1-3.54-1.55c-.66-1.43-.33-3.76,2-5.5,1.42-1.07,4.19-1.19,6.88-1.3s5.22-.22,6.16-1.19a2.34,2.34,0,0,0,.29-2.55c-.76-2-3.38-4.28-7.32-4.55-6.22-.41-12.24,1.2-16.13,4.37-2.64,2.14-2.34,5-2,8.36.09.86.19,1.65.3,2.42a33.221,33.221,0,0,1,.35,8,4.62,4.62,0,0,0,1.16,3.61,9.318,9.318,0,0,0,6.27,2.46Z" fill="#f8b271"/>
          <path id="Path_36" data-name="Path 36" d="M104.76,47.51c-5.93,0-11.47,1.73-15.18,4.75-3,2.44-2.66,5.65-2.29,9.05.09.87.2,1.67.31,2.44a31.9,31.9,0,0,1,.34,7.85A5.65,5.65,0,0,0,90.69,77a11.51,11.51,0,0,0,5.92,1.73H97a6.93,6.93,0,0,0,3.78-.88c1.93-1.25,1.62-3.54,1.34-5.56l-.07-.44c-.33-2.48,1.35-2.89,3.94-3.24a8.45,8.45,0,0,0,5-2,2.82,2.82,0,0,0,.16-3.63,1.92,1.92,0,0,0-1.71-.71,13.85,13.85,0,0,0-4,1c-1.12.38-2.39.81-3.56,1.08a2.48,2.48,0,0,1-.45,0,1.42,1.42,0,0,1-1.09-.57c-1-1.18-.68-3.43,1.42-5,1-.8,3.55-.91,6-1,2.89-.12,5.88-.25,7.19-1.59s.94-3.27-.6-5.1a10.56,10.56,0,0,0-7.41-3.46c-.7,0-1.42-.07-2.12-.07" fill="#1f6870"/>
          <path id="Path_37" data-name="Path 37" d="M97,79h-.41a12,12,0,0,1-6.11-1.79,5.94,5.94,0,0,1-2.89-5.65,31.75,31.75,0,0,0-.34-7.77c-.11-.78-.22-1.58-.31-2.45-.38-3.49-.74-6.79,2.4-9.34,3.78-3.07,9.39-4.83,15.39-4.83a18.783,18.783,0,0,1,2.14.08,10.84,10.84,0,0,1,7.64,3.57c1.66,2,1.89,4.19.58,5.54s-4.44,1.56-7.39,1.69c-2.27.09-4.83.2-5.81.94a4.25,4.25,0,0,0-1.79,2.8,2.29,2.29,0,0,0,.43,1.74,1.09,1.09,0,0,0,1.21.41c1.2-.27,2.55-.74,3.53-1.07a14,14,0,0,1,4.13-1,2.21,2.21,0,0,1,2,.87,3.14,3.14,0,0,1-.19,4,8.78,8.78,0,0,1-5.16,2.15c-2.7.37-3.94.77-3.65,2.87l.06.45c.28,2,.62,4.51-1.48,5.88A7.3,7.3,0,0,1,97,79Zm7.73-31.18c-5.86,0-11.32,1.71-15,4.68-2.86,2.33-2.52,5.46-2.16,8.77.09.86.19,1.66.3,2.43a31.9,31.9,0,0,1,.35,7.92,5.34,5.34,0,0,0,2.59,5.05,11.43,11.43,0,0,0,5.76,1.68H97a6.61,6.61,0,0,0,3.61-.82c1.75-1.14,1.46-3.22,1.18-5.24l-.06-.45c-.4-3,2-3.31,4.22-3.6a8.15,8.15,0,0,0,4.76-2,2.5,2.5,0,0,0,.12-3.25,1.67,1.67,0,0,0-1.43-.55,14.09,14.09,0,0,0-3.92,1,36.857,36.857,0,0,1-3.59,1.09,1.71,1.71,0,0,1-1.86-.63,2.86,2.86,0,0,1-.57-2.22,4.87,4.87,0,0,1,2-3.25c1.14-.86,3.69-1,6.15-1.07,2.84-.12,5.76-.25,7-1.49s.82-3-.61-4.68a10.3,10.3,0,0,0-7.18-3.34c-.64.01-1.34-.02-2.06-.02Zm-8,30.09H96.3c-1.36-.06-4.74-.85-6.54-2.89a4.44,4.44,0,0,1-1.15-3.42,32,32,0,0,0-.34-7.86c-.11-.77-.22-1.57-.31-2.43-.37-3.41-.42-6.21,2.5-8.58,3.63-2.95,8.61-4.48,14.42-4.46,4.83,0,8.5,2.49,9.52,4.85a2.34,2.34,0,0,1-.32,2.69C113,57,110.44,57,107.75,56.94c-2.48,0-5.06,0-6.32.93a5.83,5.83,0,0,0-2.29,6,1.66,1.66,0,0,0,1.63,1.21A26,26,0,0,0,105,64a23.18,23.18,0,0,1,4.32-1.07c.45,0,1,.14,1.15.54a2.51,2.51,0,0,1,0,2.34c-.61,1.08-2.17,1.79-4.65,2.13-3.42.46-4.76,1.63-4.45,3.89s0,3.78-1,4.8a4.74,4.74,0,0,1-3.61,1.29Zm8-29c-5.59,0-10.37,1.49-13.85,4.31-2.67,2.18-2.62,4.69-2.26,8,.09.86.19,1.65.3,2.42a33.22,33.22,0,0,1,.35,8,3.8,3.8,0,0,0,1,2.93c1.64,1.87,4.86,2.62,6.08,2.67a4.39,4.39,0,0,0,3.57-1.09c.8-.87,1.07-2.31.81-4.27-.46-3.47,2.64-4.3,5-4.62,2.23-.31,3.67-.93,4.16-1.81a1.89,1.89,0,0,0,0-1.76.84.84,0,0,0-.56-.15,23.779,23.779,0,0,0-4.14,1,25.87,25.87,0,0,1-4.41,1.1,2.26,2.26,0,0,1-2.25-1.65c-.64-1.83.14-4.92,2.51-6.71,1.43-1.08,4.1-1.07,6.71-1.06,2.43,0,5,0,5.89-.94a1.71,1.71,0,0,0,.19-2c-.94-2.21-4.53-4.46-8.93-4.46Z" fill="#f8b271"/>
          <path id="Path_38" data-name="Path 38" d="M156.79,78.11c-6.09,0-13.15-1.21-13.19-7.64s-1.65-15.23-1-18.24,4.2-4.21,6.77-4.14,9.72,1.62,6.78,11.33c-1.29,4.25-4.18,9.4-2.79,10.72,2,1.84,7.92,1.14,10.16.31s4.93-.43,5.63,1.46,0,6.2-12.39,6.2" fill="#1f6870"/>
          <path id="Path_39" data-name="Path 39" d="M156.79,78.43c-8.94,0-13.49-2.67-13.52-8,0-2.79-.32-6-.62-9.06-.39-4-.73-7.51-.34-9.26.76-3.35,4.69-4.49,7.1-4.39.74,0,4.49.27,6.51,3.09,1.49,2.07,1.68,5,.57,8.65-.41,1.33-1,2.74-1.5,4.1-1.07,2.72-2.18,5.54-1.37,6.29,1.84,1.73,7.72,1,9.81.25,2.31-.86,5.27-.47,6.06,1.64A3.45,3.45,0,0,1,169,75C168,76.56,164.94,78.43,156.79,78.43Zm-7.6-30c-2.23,0-5.59,1-6.24,3.88-.38,1.65,0,5.24.34,9.05.3,3.1.61,6.31.63,9.12,0,4.85,4.36,7.31,12.87,7.31,7.87,0,10.72-1.72,11.72-3.17a2.79,2.79,0,0,0,.37-2.59c-.65-1.73-3.21-2-5.22-1.27-2.17.81-8.34,1.64-10.49-.37-1.12-1.06,0-3.82,1.22-7,.53-1.35,1.08-2.75,1.48-4.06,1-3.47.89-6.19-.48-8.08-1.84-2.57-5.32-2.8-6-2.82Z" fill="#f8b271"/>
          <path id="Path_40" data-name="Path 40" d="M150.22,53c.08,0-.81-1.18-.73-1.18,2.57.07,6.88-2.56,3.94,7.15-1.29,4.25-3.15,10.42-1.75,11.73.91.86,2.64,3.09,4.51,3.09a32.45,32.45,0,0,0,7.31-.93,6.66,6.66,0,0,1,2.11-.74c1.53,0,1.07-.57,1.54.69.7,1.89,2.29,4.55-10.15,4.55-6.09,0-10.56-.89-10.6-7.31-.05-8.53,0-11.08,1.22-16.32.66-2.92-.68-1.91,1.87-1.91m-.31-4.29c-3.05,0-6.66,1.45-7.38,4.63-.4,1.76-.06,5.25.33,9.29.3,3.08.61,6.27.63,9.05,0,3.74,2.47,8.21,14,8.21,5.89,0,9.92-.94,12-2.8A3.67,3.67,0,0,0,170,71.76c-.52-1.42-2.13-2.3-4.19-2.3a7.53,7.53,0,0,0-2.65.48,17.56,17.56,0,0,1-5.21.78c-1.86,0-3.24-.33-3.87-.93s.47-3.71,1.43-6.14c.54-1.37,1.09-2.78,1.5-4.12,1.33-4.4.81-7.7-1.56-9.82a9.94,9.94,0,0,0-6-2.2h-.26" fill="#1f6870"/>
          <path id="Path_41" data-name="Path 41" d="M156.79,79c-11.82,0-14.33-4.64-14.36-8.53,0-2.78-.32-6-.62-9-.4-4.11-.73-7.59-.33-9.39.77-3.36,4.52-4.89,7.7-4.89h.27a10.27,10.27,0,0,1,6.21,2.29c2.47,2.2,3,5.62,1.65,10.16-.4,1.32-.94,2.7-1.47,4v.1c-.72,1.83-2.07,5.25-1.51,5.78s1.71.76,3.67.84a14.24,14.24,0,0,0,4.08-.68c3.09-.8,6.59-1.7,8.45,1.75A4.31,4.31,0,0,1,169,76.14C166.86,78.05,162.76,79,156.79,79Zm-7.61-31.18c-2.93,0-6.38,1.37-7.06,4.38-.39,1.7-.06,5.13.33,9.11.3,3.16.61,6.34.63,9.15,0,5.17,4.77,7.89,13.71,7.89,5.8,0,9.76-.91,11.77-2.71a3.75,3.75,0,0,0,1.36-3.88c-1.63-3-4.59-2.24-7.72-1.43a15.12,15.12,0,0,1-4.28.7c-2.17-.09-3.43-.41-4.07-1-.83-.77,0-3.18,1.35-6.5v-.1c.52-1.32,1.06-2.69,1.45-4,1.29-4.27.8-7.46-1.47-9.48a9.54,9.54,0,0,0-5.79-2.13Zm6.57,29.85c-5,0-8.2-.87-10.11-2.72a6.45,6.45,0,0,1-1.88-4.76c0-2.8-.33-6-.61-8.81-.38-3.77-.71-7-.31-8.76s3.16-3.89,6.11-4h0c3.2.09,5.37,1,6.61,2.7S157,56,156,59.49c-.38,1.25-.86,2.56-1.32,3.83-1.05,2.84-2.12,5.77-1.48,6.78s3,1.48,4.84,1.48a14.94,14.94,0,0,0,5.09-.88,5.36,5.36,0,0,1,2.06-.38c1.19,0,3.41,0,4,1.59a2.65,2.65,0,0,1-.29,2.47c-1.36,2-5.34,3.11-11.86,3.29ZM149,49.33c-2.62.06-5.14,1.93-5.49,3.44s0,5,.32,8.55c.28,2.83.61,6,.62,8.87a5.79,5.79,0,0,0,1.68,4.3C148,76.34,151.57,77.17,157,77c7.84-.22,10.49-1.75,11.34-3a2,2,0,0,0,.22-1.88c-.4-1.08-2-1.17-3.39-1.17a4.64,4.64,0,0,0-1.84.34,15.64,15.64,0,0,1-5.31.92c-1.71,0-4.61-.57-5.39-1.78s.22-4.09,1.42-7.35c.46-1.26.94-2.57,1.31-3.8,1-3.33.91-5.87-.3-7.54S151.94,49.41,149,49.33Z" fill="#f8b271"/>
          <path id="Path_42" data-name="Path 42" d="M140.58,66.45c-.55-5.08-3.4-9.54-6.22-15s-9.59-3.82-12.37-1c-7.12,7.34-7.33,17.65-7.75,23.56s2.09,6.56,5.07,6.5c6.61-.12,4.31-3.45,4.42-5.94.07-1.7.73-1.87,1.8-1.92a44.69,44.69,0,0,0,5.15-.75c1.68-.35,1.5,1.95,1.47,3.85s.21,4,5,3.54,4.25-5.42,3.45-12.84m-10.63,2c-2.54.62-5.75,1.27-6.3.2s1.15-2.48.6-5.82c-.27-1.66-.55-3.1,1.17-3.52s3.27-1.12,4.13.79c1.24,2.73,2.95,7.72.4,8.35" fill="#1f6870"/>
          <path id="Path_43" data-name="Path 43" d="M119,80.44a5.11,5.11,0,0,1-3.85-1.24c-1-1.07-1.41-2.91-1.22-5.61,0-.56.07-1.16.11-1.78.34-6,.86-14.94,7.4-21.67a10.39,10.39,0,0,1,8.33-2.85,6.4,6.4,0,0,1,4.89,3.57c.5,1,1,1.94,1.51,2.87,2.3,4.32,4.28,8.06,4.74,12.29h0c.58,5.36,1,9.6-.69,11.72a4.19,4.19,0,0,1-3.05,1.47c-2.13.21-3.58-.06-4.42-.84a3.78,3.78,0,0,1-.92-3v-.4c0-1.16.06-2.61-.44-3a.7.7,0,0,0-.64-.1,44,44,0,0,1-5.21.75c-1,.05-1.43.14-1.49,1.62a8.15,8.15,0,0,0,.15,1.6c.18,1.18.36,2.39-.42,3.32s-2.15,1.29-4.47,1.33Zm9.59-32.58a10,10,0,0,0-6.69,2.74c-6.37,6.55-6.9,15.4-7.22,21.24,0,.63-.07,1.23-.11,1.8-.18,2.51.16,4.18,1,5.11a4.75,4.75,0,0,0,3.69,1c2.09,0,3.39-.4,4-1.1s.44-1.72.27-2.8a10.281,10.281,0,0,1-.15-1.73c.08-2,1-2.18,2.11-2.24a41.691,41.691,0,0,0,5.11-.74,1.37,1.37,0,0,1,1.19.24c.74.61.7,2.1.67,3.54v.39a3.28,3.28,0,0,0,.71,2.54c.69.64,2,.86,3.92.68a3.61,3.61,0,0,0,2.61-1.24c1.55-1.91,1.11-6,.54-11.24h0c-.44-4.1-2.4-7.78-4.67-12-.49-.93-1-1.89-1.51-2.88a5.75,5.75,0,0,0-4.4-3.21,6.58,6.58,0,0,0-1.08-.1Zm-3.26,21.27c-1,0-1.68-.2-2-.74a2.42,2.42,0,0,1,.15-1.93,7.65,7.65,0,0,0,.42-4v-.1c-.27-1.62-.54-3.31,1.44-3.78l.63-.17c1.48-.38,3-.79,3.87,1.14.76,1.67,2.42,5.78,1.45,7.77a1.85,1.85,0,0,1-1.27,1h0a22,22,0,0,1-4.7.81Zm2.47-10.38a7.19,7.19,0,0,0-1.64.3l-.65.17c-1.33.32-1.24,1.26-1,3.05v.1a8.09,8.09,0,0,1-.45,4.3c-.23.71-.35,1.1-.19,1.42.34.64,2.33.51,5.94-.37h0a1.22,1.22,0,0,0,.85-.68c.69-1.42-.31-4.66-1.46-7.22a1.5,1.5,0,0,0-1.41-1.07Z" fill="#f8b271"/>
          <path id="Path_44" data-name="Path 44" d="M128.62,48.23c2.27,0,4.44.24,5.74,2.78,2.82,5.5,5.67,10,6.22,15,.8,7.42,1.32,12.37-3.45,12.84-.46,0-.88.07-1.26.07-3.56,0-3.75-1.9-3.72-3.61s.18-3.88-1.15-3.88h-.32a42.319,42.319,0,0,1-5.15.74c-1.07.06-1.73.23-1.8,1.93-.11,2.49,2.19,5.82-4.42,5.94H119c-2.84,0-5.16-.8-4.76-6.51a34.48,34.48,0,0,1,9.51-21.86c1.5-1.54,2.2-3.52,4.87-3.52M126.24,69.7c1.29,0,2.94-1.12,4.49-1.5,2.55-.63,1-7.43-.72-9.73a4.69,4.69,0,0,0-2.73-1.77,17.74,17.74,0,0,0-2.88.74c-1.72.41-3.51,3.46-1.54,4.91,2.8,2.08-1.5,6.71-.94,7.79.22.42,2.56-.68,3.38-.68m3.28-22.61A11.23,11.23,0,0,0,121,50c-6.58,6.78-7.11,15.8-7.45,21.77,0,.62-.08,1.22-.12,1.78-.22,3.13.34,5.08,1.75,6.15a6.35,6.35,0,0,0,3.85,1h.33c2.17,0,3.66-.41,4.55-1.14,1.25-1,1-2.43.83-3.8a8.17,8.17,0,0,1-.15-1.58c0-1.3.32-1.31,1-1.35a45.341,45.341,0,0,0,5.33-.76H131c.4.31.36,2,.34,2.87v.4a3.7,3.7,0,0,0,1.26,3.38,5.62,5.62,0,0,0,3.3.83,13.4,13.4,0,0,0,1.373-.07c5.567-.55,5-5.69,4.167-13.47-.46-4.26-2.45-8-4.75-12.33-.5-.93-1-1.89-1.52-2.88a7.05,7.05,0,0,0-6.56-3.87M125.3,68.21c-.23,0-.78,0-.87-.19a2.526,2.526,0,0,1,.2-1.32,8.26,8.26,0,0,0,.45-4.35v-.1c-.29-1.76-.32-2.55.63-2.78l.66-.17a6.6,6.6,0,0,1,1.43-.28c.19,0,.59,0,1,.85,1.81,4,2.21,7.28.92,7.6a21.691,21.691,0,0,1-4.38.74" fill="#1f6870"/>
          <path id="Path_45" data-name="Path 45" d="M119,81a6.61,6.61,0,0,1-4-1c-1.51-1.14-2.11-3.18-1.88-6.43,0-.56.08-1.16.11-1.78.35-6,.89-15.12,7.55-22a11.58,11.58,0,0,1,7.84-3.19,7.36,7.36,0,0,1,6.85,4c.47.91.94,1.79,1.39,2.65l.13.23c2.32,4.36,4.32,8.13,4.78,12.44.62,5.72,1.06,9.84-.78,12.11a5.11,5.11,0,0,1-3.67,1.73c-.49,0-1,.07-1.41.07a5.85,5.85,0,0,1-3.49-.9,4.05,4.05,0,0,1-1.42-3.6v-.39a7.42,7.42,0,0,0-.15-2.51,45.869,45.869,0,0,1-5.23.74c-.63,0-.68,0-.73,1a9.361,9.361,0,0,0,.13,1.42v.11c.21,1.38.45,3-.94,4.09-1,.78-2.5,1.18-4.75,1.22Zm9.58-33.78a10.87,10.87,0,0,0-7.37,3c-6.5,6.69-7,15.63-7.37,21.55,0,.64-.07,1.24-.11,1.8-.21,3,.3,4.88,1.62,5.87a6.07,6.07,0,0,0,3.65.92h.32a6.944,6.944,0,0,0,4.36-1.07c1.1-.91.91-2.17.7-3.5v-.1a8.4,8.4,0,0,1-.14-1.54c.07-1.45.44-1.62,1.34-1.66a44.071,44.071,0,0,0,5.28-.76h.15l.18.08c.44.35.51,1.46.46,3.14v.39a3.4,3.4,0,0,0,1.12,3.12,5.3,5.3,0,0,0,3.11.77,8.793,8.793,0,0,0,1.34-.07,4.51,4.51,0,0,0,3.23-1.49c1.68-2.06,1.23-6.28.65-11.62-.45-4.2-2.43-7.91-4.72-12.22l-.12-.23c-.46-.86-.93-1.74-1.4-2.65a6.74,6.74,0,0,0-6.28-3.69ZM119.07,79.7c-1.47,0-3,0-3.92-1s-1.17-2.55-1-5.14l.06-.9c.4-6,1-15,7.86-22.08a8.88,8.88,0,0,1,6.53-2.68c2.17,0,4.41.23,5.84,3,.53,1,1.06,2,1.58,3,2.27,4.24,4.23,7.91,4.68,12.09.78,7.24,1,12-3.52,12.74a3.4,3.4,0,0,0-.46.09,3.67,3.67,0,0,1-.81.11,4.31,4.31,0,0,1-3.17-1,3.8,3.8,0,0,1-.77-2.91c0-1.78-.18-2.92-.63-3.38a.65.65,0,0,0-.49-.21h-.07a43.458,43.458,0,0,1-5.29.78c-.79,0-1.61.31-1.68,1.92a8.13,8.13,0,0,0,.14,1.55,3.25,3.25,0,0,1-.32,2.74c-.67.8-2.13,1.19-4.58,1.24Zm9.55-31.18A8.23,8.23,0,0,0,122.56,51c-6.69,6.89-7.29,15.79-7.68,21.68l-.06.9c-.17,2.36.09,3.88.81,4.65s1.8.82,3.38.82c2.26,0,3.61-.37,4.14-1s.33-1.32.18-2.22a9.18,9.18,0,0,1-.15-1.67c.07-1.63.82-2.47,2.3-2.55a43.4,43.4,0,0,0,5.17-.76.54.54,0,0,1,.2,0,1.34,1.34,0,0,1,1,.41c.59.6.84,1.82.81,3.84a3.2,3.2,0,0,0,.59,2.44,3.71,3.71,0,0,0,2.7.76,2.94,2.94,0,0,0,.67-.1l.5-.1c3.62-.56,3.84-4,3-12-.44-4.06-2.36-7.67-4.6-11.85-.52-1-1.06-2-1.59-3-1.31-2.49-3.25-2.69-5.31-2.69Zm-3.32,20.2c-.56,0-.89,0-1.16-.54a2.45,2.45,0,0,1,0-1.86,8.4,8.4,0,0,0,.22-3.84c-.05-.31-.12-.61-.18-.89-.27-1.22-.58-2.59,1.13-3l.62-.16a7.309,7.309,0,0,1,1.81-.33c.95,0,1.36.73,1.79,1.68,1.6,3.54,2.08,5.89,1.45,7.17a1.87,1.87,0,0,1-1.31,1l-.72.18a13.26,13.26,0,0,1-3.33.56h-.36Zm2.48-10a6.86,6.86,0,0,0-1.65.31l-.63.16c-1,.24-1,.77-.65,2.22.07.3.14.61.19.93a8.92,8.92,0,0,1-.23,4.11c-.18.68-.27,1.06-.09,1.39s.11.2.72.2h.22a12.76,12.76,0,0,0,3.17-.54l.73-.18a1.24,1.24,0,0,0,.88-.68c.53-1.09,0-3.32-1.47-6.62-.46-1.02-.71-1.27-1.19-1.27Zm-2,8.87a.7.7,0,0,1-.56-.32,1.15,1.15,0,0,1-.11-1.08,18.15,18.15,0,0,0,.14-4.06,7,7,0,0,0-.34-1.29c-.13-.38-.22-.66-.08-.92a1,1,0,0,1,.67-.4l.62-.16.26-.08a4.37,4.37,0,0,1,1.23-.17c.46-.07.71.14,1,.84,1,2.15,2,5,1.31,6.42a1.31,1.31,0,0,1-.89.73,12,12,0,0,1-3.21.52Zm2-7.86a.32.32,0,0,1-.14,0,3.36,3.36,0,0,0-1.06.15l-.26.07-.64.18c-.21.05-.26.08-.26.09s.08.21.14.39a9,9,0,0,1,.37,1.42,19,19,0,0,1-.18,4.34c-.11.34,0,.52.07.55a11.39,11.39,0,0,0,3.06-.47.7.7,0,0,0,.51-.4c.21-.43.49-1.85-1.32-5.86-.17-.36-.27-.43-.28-.43Z" fill="#f8b271"/>
          <path id="Path_46" data-name="Path 46" d="M164.12,52A3.91,3.91,0,1,1,168,48.09,3.91,3.91,0,0,1,164.12,52Zm0-6.8a2.89,2.89,0,1,0,2.05.843A2.89,2.89,0,0,0,164.12,45.2Z" fill="#f8b271"/>
          <path id="Path_47" data-name="Path 47" d="M164.12,51.8a3.71,3.71,0,1,1,3.71-3.71A3.71,3.71,0,0,1,164.12,51.8Zm0-6.81a3.1,3.1,0,1,1,0,.01Z" fill="#f8b271"/>
          <path id="Path_48" data-name="Path 48" d="M164.12,52A3.91,3.91,0,1,1,168,48.09,3.91,3.91,0,0,1,164.12,52Zm0-6.8a2.89,2.89,0,1,0,2.05.843A2.89,2.89,0,0,0,164.12,45.2Z" fill="#f8b271"/>
          <path id="Path_49" data-name="Path 49" d="M164.12,51.8a3.71,3.71,0,1,1,3.71-3.71A3.71,3.71,0,0,1,164.12,51.8Zm0-6.81a3.1,3.1,0,1,1,0,.01Z" fill="#1f6870"/>
          <path id="Path_50" data-name="Path 50" d="M164.32,50.1a2,2,0,0,1-1.44-.59,1.93,1.93,0,0,1-.42-.63,2,2,0,0,1-.15-.78,2.09,2.09,0,0,1,.15-.79,2,2,0,0,1,.42-.64,1.81,1.81,0,0,1,.64-.43,2,2,0,0,1,.81-.16,2.24,2.24,0,0,1,.91.17,2.11,2.11,0,0,1,.63.48l.12.14-.87.94-.15-.15a1.18,1.18,0,0,0-.31-.25.66.66,0,0,0-.34-.08.54.54,0,0,0-.25.06,1,1,0,0,0-.2.15.7.7,0,0,0-.13.24.73.73,0,0,0-.05.3.83.83,0,0,0,.05.32.58.58,0,0,0,.13.23.69.69,0,0,0,.22.16.59.59,0,0,0,.27.05.71.71,0,0,0,.34-.07,2,2,0,0,0,.32-.24l.15-.13.85.86-.13.14a2.53,2.53,0,0,1-.63.5,2,2,0,0,1-.94.2Z" fill="#f8b271"/>
          <path id="Path_51" data-name="Path 51" d="M165.16,49.72a1.74,1.74,0,0,1-.84.18,1.89,1.89,0,0,1-.72-.14,1.85,1.85,0,0,1-.58-.39,1.7,1.7,0,0,1-.37-.57,1.82,1.82,0,0,1-.14-.7h0a1.82,1.82,0,0,1,.14-.7,1.7,1.7,0,0,1,.95-1,1.9,1.9,0,0,1,.73-.14,1.82,1.82,0,0,1,.82.16,1.79,1.79,0,0,1,.57.43l-.6.64a2.149,2.149,0,0,0-.35-.28,1,1,0,0,0-.45-.1.81.81,0,0,0-.34.08.63.63,0,0,0-.26.2,1,1,0,0,0-.24.67h0a1.21,1.21,0,0,0,.06.38,1.14,1.14,0,0,0,.18.3.69.69,0,0,0,.28.2.86.86,0,0,0,.36.08.83.83,0,0,0,.43-.1,1.839,1.839,0,0,0,.37-.27l.58.58A2.14,2.14,0,0,1,165.16,49.72Z" fill="#1f6870"/>
        </g>
      </g>
    </g>
  </g>
</svg>
