<?xml version="1.0" encoding="UTF-8" standalone="no"?>
<svg
   xmlns:dc="http://purl.org/dc/elements/1.1/"
   xmlns:cc="http://creativecommons.org/ns#"
   xmlns:rdf="http://www.w3.org/1999/02/22-rdf-syntax-ns#"
   xmlns:svg="http://www.w3.org/2000/svg"
   xmlns="http://www.w3.org/2000/svg"
   xmlns:sodipodi="http://sodipodi.sourceforge.net/DTD/sodipodi-0.dtd"
   xmlns:inkscape="http://www.inkscape.org/namespaces/inkscape"
   version="1.1"
   id="svg2"
   xml:space="preserve"
   width="793.91998"
   height="1122.24"
   viewBox="0 0 793.91998 1122.24"
   sodipodi:docname="37683_Letterhead_H (1).ai"><metadata
     id="metadata8"><rdf:RDF><cc:Work
         rdf:about=""><dc:format>image/svg+xml</dc:format><dc:type
           rdf:resource="http://purl.org/dc/dcmitype/StillImage" /></cc:Work></rdf:RDF></metadata><defs
     id="defs6"><clipPath
       clipPathUnits="userSpaceOnUse"
       id="clipPath18"><path
         d="M 0,841.68 H 595.44 V 0 H 0 Z"
         id="path16" /></clipPath><clipPath
       clipPathUnits="userSpaceOnUse"
       id="clipPath26"><path
         d="M 211.647,473.134 H 383.793 V 368.546 H 211.647 Z"
         id="path24" /></clipPath><clipPath
       clipPathUnits="userSpaceOnUse"
       id="clipPath134"><path
         d="M 0,560.654 H 595.44 V 841.68 H 0 Z"
         id="path132" /></clipPath><clipPath
       clipPathUnits="userSpaceOnUse"
       id="clipPath154"><path
         d="M 0,841.68 H 595.44 V 0 H 0 Z"
         id="path152" /></clipPath></defs><sodipodi:namedview
     pagecolor="#ffffff"
     bordercolor="#666666"
     borderopacity="1"
     objecttolerance="10"
     gridtolerance="10"
     guidetolerance="10"
     inkscape:pageopacity="0"
     inkscape:pageshadow="2"
     inkscape:window-width="640"
     inkscape:window-height="480"
     id="namedview4" /><g
     id="g10"
     inkscape:groupmode="layer"
     inkscape:label="37683_Letterhead_H (1)"
     transform="matrix(1.3333333,0,0,-1.3333333,0,1122.24)"><g
       id="g12"><g
         id="g14"
         clip-path="url(#clipPath18)"><g
           id="g20"><g
             id="g22" /><g
             id="g126"><g
               clip-path="url(#clipPath26)"
               opacity="0.119995"
               id="g124"><g
                 transform="translate(219.9102,463.9974)"
                 id="g30"><path
                   d="m 0,0 c 8.908,-1.931 19.973,-3.82 33.3,-6.691 21.599,-4.654 18.566,-14.932 4.454,-31.163 -11.693,-13.441 -33.483,-35.457 -39.345,-40.843 -9.611,-8.832 -7.596,-16.264 0.469,-16.264 l 21.885,-0.165 c 6.805,0 10.629,2.27 12.835,6.799 2.206,4.529 8.529,17.078 8.529,17.078 l 22.281,-16.563 42.881,-0.044 v 1.555 c 0,0 -29.763,13.442 -43.56,23.784 -11.095,8.317 -6.873,16.698 -2.814,24.884 4.59,9.258 8.854,21.682 -6.929,33.177 C 43.07,3.496 32,4.099 11.773,7.204 L 2.249,8.723 c -2.269,0.385 -5.426,-1.258 -6.078,-3.23 -0.569,-1.731 0.87,-4.812 3.122,-5.3 z"
                   style="fill:#1f6870;fill-opacity:1;fill-rule:nonzero;stroke:none"
                   id="path28" /></g><g
                 transform="translate(221.3818,471.0975)"
                 id="g34"><path
                   d="m 0,0 c -1.959,0 -3.084,-0.648 -3.544,-2.041 -0.212,-0.647 -0.162,-1.273 0.145,-1.81 0.415,-0.723 1.273,-1.258 2.417,-1.507 4.112,-0.891 8.878,-1.861 13.925,-2.89 5.925,-1.207 12.64,-2.576 19.814,-4.121 9.18,-1.978 14.381,-5.184 15.901,-9.804 1.824,-5.541 -1.638,-13.01 -10.894,-23.505 C 26.288,-58.69 4.519,-80.754 -1.598,-86.583 c -4.746,-4.523 -6.858,-8.643 -5.794,-11.3 0.712,-1.779 2.862,-2.758 6.057,-2.758 l 20.705,0.122 c 6.47,0 8.85,1.252 11.078,5.826 2.182,4.483 9.27,18.38 9.341,18.52 l 0.176,0.345 23.479,-17.823 h 38.993 c -5.627,2.638 -27.702,13.162 -39.981,21.583 -13.055,8.952 -8.945,20.324 -4.718,28.099 7.038,12.944 5.003,23.089 -6.222,31.017 -9.272,6.55 -19.825,8.143 -37.307,10.785 C 12.6,-1.924 10.937,-1.673 9.212,-1.408 5.765,-0.849 0.516,-0.012 0.165,0 Z m -1.333,-101.291 c -3.479,0 -5.845,1.124 -6.662,3.166 -1.167,2.918 1,7.295 5.948,12.01 6.112,5.825 27.859,27.866 39.324,40.865 9.088,10.306 12.509,17.574 10.764,22.874 -1.441,4.381 -6.486,7.446 -15.421,9.373 -7.17,1.544 -13.884,2.911 -19.807,4.119 -5.048,1.028 -9.816,2 -13.932,2.892 -1.327,0.288 -2.338,0.933 -2.843,1.819 -0.401,0.7 -0.47,1.507 -0.199,2.335 C -3.608,-0.164 -2.249,0.65 0,0.65 h 0.167 c 0.405,0 7.69,-1.18 9.147,-1.416 1.72,-0.264 3.384,-0.517 4.991,-0.759 17.578,-2.655 28.188,-4.258 37.587,-10.896 11.542,-8.152 13.642,-18.574 6.417,-31.858 -4.455,-8.192 -7.966,-18.694 4.515,-27.254 14.033,-9.623 40.945,-22.024 41.215,-22.147 l 1.349,-0.62 H 63.226 l -0.088,0.065 -22.947,17.421 C 39.077,-79 33.019,-90.897 31.032,-94.977 c -2.339,-4.803 -4.955,-6.191 -11.66,-6.191 z M 0.077,1.387 c -2.466,0 -4.434,-1.136 -5.013,-2.894 -0.314,-0.958 -0.205,-2.01 0.307,-2.963 0.627,-1.162 1.761,-1.995 3.115,-2.289 4.194,-0.909 9.113,-1.861 13.869,-2.781 5.674,-1.1 12.737,-2.469 20.083,-4.05 8.569,-1.846 13.572,-4.916 14.866,-9.127 1.538,-5.001 -1.901,-12.244 -10.512,-22.146 -11.881,-13.659 -33.68,-35.697 -39.255,-40.819 -5.234,-4.808 -7.483,-9.239 -6.331,-12.481 0.855,-2.412 3.447,-3.739 7.299,-3.739 H 19.36 c 6.917,0 10.05,1.639 12.415,6.496 1.793,3.685 6.808,13.667 8.59,17.202 l 0.174,0.345 22.428,-16.697 c 0.105,-0.078 0.236,-0.121 0.368,-0.121 h 41.399 c 0.752,0 0.947,0.213 0.955,0.288 l -0.004,0.066 0.022,0.041 c 0,0 0.097,0.302 -0.046,0.554 -0.098,0.177 -0.305,0.304 -0.607,0.376 -0.133,0.032 -27.644,12.91 -41.846,22.65 -12.089,8.29 -8.474,17.747 -4.136,25.96 4.972,9.418 8.699,21.672 -6.749,32.924 -9.442,6.874 -19.45,8.318 -34.601,10.503 -2.618,0.378 -5.395,0.778 -8.355,1.233 L 1.359,1.28 C 0.937,1.352 0.506,1.387 0.077,1.387 M 19.36,-102.551 H -1.495 c -4.149,0 -6.958,1.481 -7.911,4.17 -1.244,3.503 1.065,8.183 6.504,13.177 5.566,5.115 27.337,27.123 39.204,40.767 8.451,9.718 11.848,16.761 10.38,21.529 -1.219,3.969 -6.058,6.891 -14.382,8.684 -7.338,1.578 -14.396,2.947 -20.069,4.047 -4.761,0.92 -9.682,1.873 -13.882,2.784 -1.54,0.332 -2.833,1.285 -3.549,2.616 -0.598,1.11 -0.724,2.344 -0.352,3.473 0.667,2.029 2.877,3.341 5.629,3.341 0.466,0 0.933,-0.04 1.391,-0.117 L 9.471,0.559 c 2.953,-0.454 5.728,-0.854 8.341,-1.231 15.249,-2.199 25.321,-3.652 34.894,-10.621 15.85,-11.546 12.035,-24.103 6.939,-33.753 -4.206,-7.964 -7.718,-17.131 3.931,-25.12 13.646,-9.36 40.773,-22.233 41.655,-22.561 0.464,-0.109 0.811,-0.346 1.002,-0.693 0.236,-0.426 0.147,-0.867 0.105,-1.022 -0.009,-0.103 -0.049,-0.281 -0.21,-0.456 -0.263,-0.284 -0.732,-0.43 -1.394,-0.43 H 63.335 c -0.271,0 -0.54,0.089 -0.756,0.252 L 40.772,-78.84 c -1.915,-3.8 -6.677,-13.283 -8.413,-16.85 -2.498,-5.13 -5.778,-6.861 -12.999,-6.861"
                   style="fill:#f8b271;fill-opacity:1;fill-rule:nonzero;stroke:none"
                   id="path32" /></g><g
                 transform="translate(290.6548,414.9525)"
                 id="g38"><path
                   d="m 0,0 c -0.751,-5.865 -3.074,-5.774 -6.732,-1.778 -3.417,3.734 -4.036,13.53 11.955,22.773 24.986,14.445 70.424,12.286 78.432,21.435 0,0 2.401,-0.478 4.685,-0.478 1.263,0 3.497,0.283 3.497,0.283 0,0 -3.118,-7.86 -19.989,-11.412 C 55.369,27.356 36.506,25.708 23.535,20.015 10.563,14.322 1.421,11.108 0,0"
                   style="fill:#1f6870;fill-opacity:1;fill-rule:nonzero;stroke:none"
                   id="path36" /></g><g
                 transform="translate(374.4297,457.0296)"
                 id="g42"><path
                   d="m 0,0 c -3.926,-4.231 -15.823,-6.065 -29.575,-8.183 -15.8,-2.434 -35.464,-5.463 -48.814,-13.181 -10.228,-5.911 -13.065,-11.632 -13.643,-15.39 -0.41,-2.654 0.25,-5.227 1.764,-6.882 1.901,-2.077 3.359,-2.975 4.3,-2.674 0.915,0.291 1.545,1.729 1.871,4.274 1.349,10.542 9.659,14.153 21.159,19.152 0.837,0.364 1.694,0.736 2.567,1.119 9.041,3.969 21.138,6.014 32.837,7.994 5.164,0.873 10.506,1.776 15.539,2.835 C 1.981,-7.995 6.443,-2.022 7.492,-0.237 6.732,-0.322 5.435,-0.451 4.565,-0.451 2.611,-0.451 0.607,-0.112 0,0 m -86.359,-47.019 c -1.151,0 -2.566,0.955 -4.388,2.944 -1.67,1.826 -2.373,4.529 -1.927,7.42 0.6,3.899 3.509,9.814 13.96,15.854 13.455,7.78 33.187,10.818 49.041,13.26 13.777,2.122 25.675,3.955 29.309,8.108 L -0.24,0.708 -0.056,0.671 C -0.031,0.666 2.341,0.199 4.565,0.199 5.792,0.199 8,0.477 8.022,0.479 L 8.568,0.548 8.365,0.038 c -0.13,-0.329 -3.376,-8.063 -20.225,-11.611 -5.048,-1.06 -10.394,-1.965 -15.566,-2.839 -11.66,-1.972 -23.716,-4.011 -32.683,-7.946 -0.875,-0.385 -1.733,-0.757 -2.57,-1.122 -11.725,-5.096 -19.471,-8.463 -20.774,-18.64 -0.366,-2.858 -1.124,-4.429 -2.318,-4.809 -0.189,-0.059 -0.384,-0.09 -0.588,-0.09"
                   style="fill:#f8b271;fill-opacity:1;fill-rule:nonzero;stroke:none"
                   id="path40" /></g><g
                 transform="translate(374.3105,458.4114)"
                 id="g46"><path
                   d="m 0,0 c -0.27,0 -0.529,-0.117 -0.717,-0.33 -3.479,-3.976 -15.276,-5.792 -28.933,-7.899 -15.904,-2.448 -35.696,-5.499 -49.252,-13.333 -10.763,-6.223 -13.723,-12.395 -14.312,-16.48 -0.442,-3.065 0.332,-5.95 2.125,-7.909 1.967,-2.15 3.511,-3.15 4.857,-3.15 2.837,0 3.367,4.142 3.542,5.504 1.252,9.773 8.711,13.41 20.226,18.412 0.839,0.366 1.605,0.718 2.483,1.102 8.894,3.906 21.145,5.626 32.765,7.59 5.182,0.879 10.537,1.783 15.599,2.848 17.183,3.618 20.564,11.683 20.699,12.023 0.135,0.338 0.088,0.726 -0.122,1.017 -0.185,0.259 -0.473,0.408 -0.777,0.408 -0.039,0 -0.078,-0.003 -0.117,-0.006 -0.021,-0.005 -2.193,-0.275 -3.38,-0.275 -2.163,0 -4.483,0.455 -4.506,0.46 C 0.12,-0.005 0.061,0 0,0 m 0,-1.029 c 0,0 2.398,-0.478 4.686,-0.478 1.262,0 3.497,0.283 3.497,0.283 0,0 -3.119,-7.863 -19.99,-11.412 -16.479,-3.467 -35.737,-4.666 -48.709,-10.357 -12.968,-5.693 -21.717,-9.358 -23.139,-20.466 -0.41,-3.187 -1.281,-4.615 -2.577,-4.615 -1.092,0 -2.484,1.011 -4.155,2.838 -3.417,3.733 -4.036,13.529 11.955,22.772 C -53.445,-8.019 -8.011,-10.178 0,-1.029"
                   style="fill:#1f6870;fill-opacity:1;fill-rule:nonzero;stroke:none"
                   id="path44" /></g><g
                 transform="translate(374.5225,457.1375)"
                 id="g50"><path
                   d="m 0,0 c -4.137,-4.088 -15.948,-5.961 -29.567,-8.121 -16.679,-2.645 -35.582,-5.643 -48.913,-13.351 -10.228,-5.91 -13.065,-11.631 -13.644,-15.387 -0.41,-2.656 0.25,-5.229 1.765,-6.884 1.658,-1.813 2.975,-2.733 3.914,-2.733 0.695,0 1.683,0.449 2.257,4.337 0.295,1.997 1.052,4.308 2.076,6.343 1.966,3.904 5.493,6.468 8.347,8.267 0.822,0.518 1.676,1.029 2.543,1.52 0.89,0.506 1.808,1.002 2.729,1.474 0.93,0.477 1.878,0.943 2.814,1.382 3.349,1.568 6.94,2.747 10.321,3.786 3.302,1.014 6.827,2.063 10.422,2.772 1.076,0.211 2.151,0.413 3.229,0.606 3.428,0.614 6.925,1.151 10.306,1.671 l 2.612,0.401 c 2.523,0.387 5.048,0.773 7.566,1.191 3.601,0.594 6.503,1.128 9.136,1.683 C 1.891,-8.105 6.352,-2.13 7.4,-0.344 6.641,-0.429 5.343,-0.559 4.474,-0.559 2.688,-0.559 0.802,-0.182 0,0 m -86.445,-47.125 c -1.16,0 -2.556,0.935 -4.393,2.943 -1.67,1.826 -2.373,4.531 -1.928,7.421 0.6,3.898 3.51,9.813 13.961,15.852 13.435,7.768 32.402,10.775 49.136,13.43 13.77,2.184 25.679,4.072 29.427,8.162 l 0.01,0.04 c 0,0 0.007,-0.002 0.02,-0.005 0.021,0.021 0.04,0.044 0.06,0.067 l 0.128,-0.113 c 0.643,-0.15 2.656,-0.581 4.498,-0.581 1.228,0 3.434,0.279 3.457,0.282 L 8.477,0.442 8.273,-0.069 c -0.128,-0.328 -3.376,-8.067 -20.225,-11.612 -2.643,-0.554 -5.555,-1.091 -9.164,-1.687 -2.523,-0.416 -5.049,-0.803 -7.573,-1.192 l -2.613,-0.4 c -3.378,-0.519 -6.871,-1.056 -10.292,-1.669 -1.071,-0.193 -2.145,-0.392 -3.216,-0.602 -3.565,-0.704 -7.072,-1.748 -10.358,-2.758 -3.358,-1.031 -6.924,-2.201 -10.234,-3.753 -0.931,-0.435 -1.87,-0.897 -2.794,-1.371 -0.913,-0.469 -1.824,-0.959 -2.705,-1.462 -0.859,-0.486 -1.705,-0.992 -2.517,-1.505 -2.784,-1.753 -6.221,-4.248 -8.113,-8.008 -0.994,-1.974 -1.729,-4.215 -2.014,-6.145 -0.5,-3.384 -1.395,-4.892 -2.9,-4.892 M -0.212,0.949 c -0.181,0 -0.348,-0.079 -0.474,-0.22 -3.552,-4.06 -15.384,-5.886 -29.085,-8 -15.915,-2.448 -35.667,-5.488 -49.18,-13.299 -10.649,-6.156 -13.575,-12.231 -14.155,-16.244 -0.427,-2.97 0.318,-5.757 2.045,-7.644 1.901,-2.078 3.368,-3.044 4.616,-3.044 2.554,0 3.055,3.929 3.22,5.219 1.152,8.989 7.892,12.371 17.22,17.054 1.026,0.514 2.087,1.047 3.18,1.606 5.398,2.763 16.959,5.616 35.344,8.725 l 0.221,0.038 c 5.103,0.865 10.38,1.759 15.364,2.808 C 5.13,-8.469 8.436,-0.563 8.568,-0.229 8.662,0.007 8.63,0.278 8.485,0.478 8.36,0.653 8.174,0.752 7.972,0.752 L 7.874,0.749 C 7.841,0.728 5.593,0.471 4.474,0.471 c -2.206,0 -4.555,0.463 -4.577,0.467 -0.029,0.007 -0.067,0.011 -0.109,0.011 m -86.233,-49.101 c -1.444,0 -3.063,1.034 -5.095,3.255 -1.859,2.032 -2.663,5.013 -2.208,8.176 0.6,4.155 3.597,10.427 14.472,16.715 13.618,7.87 33.439,10.92 49.364,13.371 13.617,2.101 25.342,3.911 28.738,7.793 0.308,0.348 0.805,0.501 1.209,0.415 C 0.057,1.569 2.353,1.12 4.474,1.12 c 1.127,0 3.205,0.254 3.325,0.272 0.08,0.007 0.127,0.01 0.173,0.01 0.408,0 0.798,-0.204 1.042,-0.545 0.272,-0.378 0.333,-0.886 0.158,-1.325 -0.137,-0.347 -3.571,-8.566 -20.934,-12.221 -4.996,-1.051 -10.281,-1.945 -15.39,-2.812 l -0.221,-0.037 c -18.318,-3.098 -29.817,-5.931 -35.155,-8.663 -1.095,-0.559 -2.158,-1.093 -3.185,-1.609 -9.49,-4.763 -15.759,-7.911 -16.867,-16.555 -0.183,-1.431 -0.738,-5.787 -3.865,-5.787"
                   style="fill:#f8b271;fill-opacity:1;fill-rule:nonzero;stroke:none"
                   id="path48" /></g><g
                 transform="translate(308.3105,395.0628)"
                 id="g54"><path
                   d="m 0,0 c -3.659,0.108 -8.066,2.076 -7.697,6.438 0.369,4.364 -0.27,6.809 -0.655,10.356 -0.381,3.549 -0.621,6.454 2.089,8.655 4.132,3.357 10.27,4.857 16.363,4.436 6.09,-0.421 9.287,-5.545 7.242,-7.648 C 15.297,20.133 6.966,21.757 4.261,19.712 0.563,16.921 2.034,12.426 5.55,13.233 c 3.515,0.809 7.322,2.81 7.957,1.745 C 15.328,11.911 12.038,10.495 9.128,10.1 6.221,9.705 4.017,9.095 4.398,6.215 4.783,3.339 5.57,-0.164 0,0"
                   style="fill:#1f6870;fill-opacity:1;fill-rule:nonzero;stroke:none"
                   id="path52" /></g><g
                 transform="translate(308.3203,395.387)"
                 id="g58"><path
                   d="M 0,0 C 1.808,-0.058 3.018,0.279 3.678,1.017 4.597,2.04 4.359,3.749 4.13,5.401 L 4.067,5.848 c -0.428,3.236 2.239,3.875 5.008,4.251 2.284,0.309 3.947,1.113 4.448,2.15 0.305,0.63 0.203,1.384 -0.305,2.238 C 12.942,14.952 10.948,14.27 9.344,13.723 8.188,13.33 6.878,12.885 5.612,12.593 4.05,12.238 2.693,12.827 2.08,14.143 c -0.667,1.43 -0.332,3.762 1.976,5.503 1.419,1.072 4.194,1.19 6.881,1.303 2.565,0.108 5.218,0.219 6.162,1.19 0.577,0.592 0.682,1.521 0.291,2.547 -0.766,2.001 -3.383,4.279 -7.323,4.55 -6.215,0.414 -12.245,-1.202 -16.134,-4.364 -2.641,-2.144 -2.331,-5.028 -1.971,-8.369 0.091,-0.854 0.199,-1.643 0.305,-2.412 0.324,-2.397 0.632,-4.66 0.349,-8.005 C -7.502,4.688 -7.109,3.473 -6.219,2.473 -4.672,0.739 -1.994,0.06 0,0 m 0.36,-0.654 c -0.125,0 -0.252,0.001 -0.381,0.005 -2.126,0.063 -4.999,0.802 -6.682,2.69 -1.016,1.139 -1.462,2.518 -1.327,4.102 0.276,3.271 -0.028,5.501 -0.348,7.861 -0.105,0.773 -0.214,1.569 -0.308,2.43 -0.362,3.381 -0.706,6.576 2.209,8.943 4.075,3.312 10.117,4.958 16.59,4.507 4.223,-0.291 7.047,-2.779 7.883,-4.967 0.487,-1.271 0.33,-2.449 -0.432,-3.231 C 16.441,20.53 13.781,20.418 10.965,20.299 8.377,20.19 5.704,20.078 4.446,19.128 2.427,17.603 2.109,15.617 2.669,14.417 3.152,13.379 4.202,12.934 5.468,13.226 6.7,13.51 7.993,13.95 9.135,14.339 c 2.379,0.808 4.099,1.392 4.641,0.48 0.625,-1.052 0.737,-2.013 0.332,-2.853 C 13.248,10.187 10.363,9.617 9.161,9.454 5.958,9.02 4.391,8.354 4.712,5.934 L 4.772,5.49 C 5.012,3.775 5.281,1.831 4.162,0.582 3.416,-0.249 2.171,-0.654 0.36,-0.654"
                   style="fill:#f8b271;fill-opacity:1;fill-rule:nonzero;stroke:none"
                   id="path56" /></g><g
                 transform="translate(316.4033,425.6277)"
                 id="g62"><path
                   d="m 0,0 c -5.93,0 -11.462,-1.733 -15.18,-4.753 -3.001,-2.437 -2.653,-5.652 -2.284,-9.055 0.091,-0.863 0.2,-1.663 0.307,-2.438 0.332,-2.461 0.621,-4.584 0.345,-7.85 -0.234,-2.773 1.362,-4.438 2.742,-5.35 1.566,-1.034 3.728,-1.666 5.926,-1.73 0.144,-0.003 0.284,-0.006 0.421,-0.006 1.615,0 2.888,0.294 3.782,0.876 1.927,1.25 1.611,3.539 1.33,5.557 l -0.063,0.448 c -0.33,2.473 1.344,2.886 3.938,3.24 2.231,0.302 4.04,1.048 4.957,2.045 0.933,1.014 0.987,2.235 0.159,3.633 -0.271,0.452 -0.895,0.712 -1.71,0.712 -1.058,0 -2.364,-0.445 -4.02,-1.008 -1.118,-0.382 -2.382,-0.811 -3.56,-1.081 -0.158,-0.036 -0.307,-0.058 -0.442,-0.058 -0.519,0 -0.883,0.315 -1.096,0.577 -0.951,1.175 -0.681,3.422 1.419,5.01 1.057,0.798 3.554,0.904 5.968,1.006 2.895,0.122 5.888,0.247 7.193,1.59 1.184,1.217 0.945,3.269 -0.598,5.106 C 7.868,-1.544 5.166,-0.284 2.123,-0.073 1.419,-0.024 0.704,0 0,0"
                   style="fill:#1f6870;fill-opacity:1;fill-rule:nonzero;stroke:none"
                   id="path60" /></g><g
                 transform="translate(316.3936,424.2122)"
                 id="g66"><path
                   d="m 0,0 c -5.583,0 -10.37,-1.491 -13.844,-4.312 -2.674,-2.171 -2.627,-4.689 -2.267,-8.006 0.092,-0.857 0.199,-1.647 0.304,-2.416 0.325,-2.397 0.632,-4.66 0.35,-8.005 -0.093,-1.095 0.24,-2.08 0.987,-2.931 1.642,-1.869 4.863,-2.616 6.079,-2.669 1.638,-0.067 2.845,0.293 3.573,1.088 0.8,0.874 1.075,2.312 0.813,4.272 -0.463,3.471 2.642,4.302 5.017,4.625 2.229,0.303 3.671,0.926 4.166,1.804 0.276,0.491 0.264,1.069 -0.036,1.764 -0.026,0.042 -0.223,0.144 -0.554,0.144 -0.663,0 -2.432,-0.53 -4.142,-1.044 -1.847,-0.554 -3.592,-1.077 -4.409,-1.098 -1.09,-0.007 -1.875,0.572 -2.252,1.646 -0.64,1.831 0.135,4.917 2.506,6.708 1.431,1.08 4.105,1.07 6.711,1.059 2.435,-0.009 4.959,-0.022 5.893,0.938 0.597,0.615 0.434,1.413 0.193,1.975 -0.949,2.208 -4.536,4.459 -8.93,4.459 -0.051,0 -0.102,0 -0.155,-0.001 z m -7.991,-28.998 c -0.14,0 -0.283,0.003 -0.428,0.009 -1.358,0.061 -4.742,0.846 -6.539,2.89 -0.868,0.989 -1.254,2.137 -1.146,3.416 0.276,3.274 -0.012,5.399 -0.347,7.862 -0.106,0.774 -0.214,1.57 -0.308,2.431 -0.367,3.412 -0.417,6.21 2.506,8.582 3.625,2.945 8.602,4.484 14.419,4.459 4.83,0 8.501,-2.484 9.519,-4.852 0.451,-1.052 0.336,-2.004 -0.323,-2.683 -1.13,-1.16 -3.67,-1.153 -6.363,-1.137 -2.479,0.018 -5.06,0.023 -6.317,-0.926 -2.137,-1.616 -2.85,-4.36 -2.285,-5.976 0.2,-0.567 0.683,-1.241 1.623,-1.212 0.73,0.019 2.514,0.555 4.24,1.072 1.836,0.551 3.57,1.071 4.328,1.071 0.445,0 0.981,-0.141 1.15,-0.536 0.382,-0.882 0.383,-1.67 0.005,-2.341 -0.607,-1.076 -2.17,-1.792 -4.644,-2.13 -3.428,-0.464 -4.761,-1.629 -4.459,-3.894 0.287,-2.159 -0.042,-3.773 -0.979,-4.796 -0.796,-0.87 -2.023,-1.309 -3.652,-1.309 M 0.01,1.09 c -5.855,0 -11.313,-1.705 -14.976,-4.68 -2.864,-2.326 -2.525,-5.455 -2.166,-8.767 0.091,-0.861 0.199,-1.659 0.306,-2.429 0.337,-2.48 0.626,-4.62 0.347,-7.922 -0.22,-2.61 1.291,-4.188 2.597,-5.052 1.518,-1.002 3.615,-1.612 5.759,-1.677 l 0.411,-0.004 c 1.552,0 2.764,0.276 3.602,0.823 1.757,1.138 1.466,3.223 1.186,5.241 l -0.062,0.446 c -0.397,2.98 2.054,3.313 4.215,3.608 2.16,0.292 3.895,1 4.763,1.942 0.835,0.908 0.874,1.972 0.118,3.248 -0.207,0.345 -0.742,0.552 -1.43,0.552 -1.006,0 -2.29,-0.437 -3.916,-0.989 -0.995,-0.342 -2.361,-0.809 -3.591,-1.09 -0.966,-0.228 -1.543,0.235 -1.864,0.63 -0.471,0.583 -0.674,1.373 -0.57,2.225 0.148,1.208 0.874,2.364 2.044,3.248 1.141,0.861 3.689,0.967 6.153,1.072 2.841,0.12 5.761,0.245 6.971,1.492 1.065,1.092 0.819,2.969 -0.612,4.67 C 7.686,-0.403 5.068,0.813 2.11,1.019 1.436,1.066 0.729,1.09 0.01,1.09 m -7.722,-31.182 -0.416,0.005 c -2.274,0.069 -4.497,0.719 -6.112,1.784 -1.452,0.962 -3.133,2.722 -2.885,5.651 0.272,3.23 -0.014,5.338 -0.345,7.778 -0.107,0.776 -0.216,1.58 -0.307,2.446 -0.378,3.494 -0.736,6.793 2.403,9.343 3.775,3.066 9.384,4.825 15.384,4.825 0.733,0 1.456,-0.024 2.146,-0.074 3.132,-0.216 5.915,-1.518 7.636,-3.571 1.657,-1.971 1.891,-4.198 0.581,-5.541 -1.391,-1.433 -4.44,-1.562 -7.391,-1.688 -2.273,-0.095 -4.829,-0.203 -5.807,-0.94 -1.029,-0.779 -1.664,-1.777 -1.791,-2.809 -0.083,-0.677 0.071,-1.294 0.429,-1.738 0.215,-0.266 0.56,-0.559 1.213,-0.407 1.2,0.275 2.546,0.735 3.528,1.072 1.683,0.573 3.012,1.024 4.126,1.024 0.932,0 1.657,-0.316 1.988,-0.87 0.897,-1.513 0.827,-2.902 -0.199,-4.018 -0.968,-1.053 -2.846,-1.836 -5.153,-2.148 -2.698,-0.367 -3.938,-0.77 -3.658,-2.875 l 0.063,-0.445 c 0.279,-2.01 0.627,-4.512 -1.477,-5.876 -0.945,-0.615 -2.277,-0.928 -3.956,-0.928"
                   style="fill:#f8b271;fill-opacity:1;fill-rule:nonzero;stroke:none"
                   id="path64" /></g><g
                 transform="translate(368.4365,395.0286)"
                 id="g70"><path
                   d="m 0,0 c -6.091,0 -13.153,1.21 -13.192,7.631 -0.039,6.419 -1.648,15.235 -0.967,18.244 0.683,3.009 4.199,4.212 6.774,4.137 2.573,-0.075 9.713,-1.616 6.772,-11.325 C -1.899,14.437 -4.792,9.281 -3.396,7.967 -1.435,6.124 4.516,6.826 6.756,7.654 8.996,8.483 11.69,8.081 12.392,6.199 13.091,4.318 12.438,0 0,0"
                   style="fill:#1f6870;fill-opacity:1;fill-rule:nonzero;stroke:none"
                   id="path68" /></g><g
                 transform="translate(360.835,424.7186)"
                 id="g74"><path
                   d="m 0,0 c -2.229,0 -5.588,-1.01 -6.24,-3.888 -0.373,-1.644 -0.025,-5.24 0.345,-9.048 0.3,-3.1 0.612,-6.305 0.629,-9.12 0.03,-4.851 4.359,-7.31 12.867,-7.31 7.868,0 10.717,1.723 11.722,3.168 0.781,1.125 0.517,2.189 0.365,2.595 -0.645,1.731 -3.209,2.003 -5.217,1.264 -2.165,-0.801 -8.34,-1.637 -10.488,0.378 -1.122,1.059 -0.039,3.812 1.217,7.001 0.532,1.348 1.081,2.746 1.478,4.051 1.051,3.47 0.891,6.192 -0.473,8.089 C 4.359,-0.252 0.886,-0.023 0.207,-0.002 0.14,0 0.071,0 0,0 m 7.601,-30.015 c -8.937,0 -13.485,2.676 -13.516,7.954 -0.017,2.786 -0.326,5.977 -0.626,9.061 -0.391,4.03 -0.729,7.51 -0.333,9.257 0.761,3.35 4.686,4.488 7.1,4.39 0.732,-0.022 4.482,-0.272 6.507,-3.088 1.489,-2.069 1.679,-4.981 0.566,-8.655 -0.403,-1.333 -0.958,-2.741 -1.494,-4.103 -1.072,-2.719 -2.179,-5.532 -1.376,-6.289 1.842,-1.728 7.722,-1.017 9.815,-0.242 2.303,0.853 5.269,0.462 6.054,-1.647 0.186,-0.501 0.514,-1.815 -0.442,-3.191 -1.093,-1.573 -4.107,-3.447 -12.255,-3.447"
                   style="fill:#f8b271;fill-opacity:1;fill-rule:nonzero;stroke:none"
                   id="path72" /></g><g
                 transform="translate(360.8223,425.6277)"
                 id="g78"><path
                   d="m 0,0 c -3.045,0 -6.652,-1.45 -7.374,-4.633 -0.4,-1.762 -0.061,-5.249 0.33,-9.287 0.299,-3.082 0.607,-6.27 0.626,-9.051 0.023,-3.746 2.477,-8.211 14.031,-8.211 5.889,0 9.921,0.941 11.992,2.794 1.916,1.715 1.412,3.598 1.214,4.137 -0.527,1.416 -2.138,2.298 -4.199,2.298 -0.887,0 -1.801,-0.166 -2.645,-0.477 -1.05,-0.387 -3.178,-0.782 -5.21,-0.782 -1.861,0 -3.236,0.33 -3.869,0.927 -0.723,0.678 0.47,3.711 1.431,6.146 0.535,1.364 1.092,2.772 1.497,4.11 1.333,4.404 0.808,7.71 -1.559,9.822 C 4.088,-0.263 1.12,-0.029 0.266,-0.003 0.177,0 0.089,0 0,0 m 1.044,-5.475 c 0.078,0 -0.806,1.184 -0.731,1.182 2.573,-0.073 6.88,2.555 3.939,-7.151 -1.286,-4.253 -3.144,-10.421 -1.746,-11.733 0.91,-0.858 2.643,-3.086 4.507,-3.086 2.143,0 6.107,0.492 7.308,0.934 0.73,0.27 1.368,0.728 2.112,0.731 1.535,0 1.069,0.578 1.542,-0.691 0.699,-1.88 2.289,-4.546 -10.15,-4.546 -6.091,0 -10.558,0.886 -10.597,7.307 -0.055,8.53 0.033,11.085 1.218,16.322 0.662,2.921 -0.679,1.913 1.867,1.913"
                   style="fill:#1f6870;fill-opacity:1;fill-rule:nonzero;stroke:none"
                   id="path76" /></g><g
                 transform="translate(360.6074,423.8065)"
                 id="g82"><path
                   d="m 0,0 c -2.621,-0.06 -5.145,-1.93 -5.488,-3.442 -0.371,-1.636 -0.034,-4.997 0.32,-8.555 0.282,-2.829 0.604,-6.038 0.621,-8.87 0.011,-1.785 0.576,-3.23 1.68,-4.299 1.909,-1.845 5.473,-2.675 10.897,-2.524 7.841,0.216 10.493,1.751 11.337,3.001 0.491,0.728 0.392,1.425 0.223,1.88 -0.401,1.078 -1.96,1.169 -3.39,1.169 -0.689,-0.003 -1.136,-0.087 -1.836,-0.346 -0.927,-0.341 -2.851,-0.913 -5.309,-0.913 -1.716,0 -4.616,0.564 -5.391,1.774 -0.818,1.28 0.216,4.096 1.412,7.357 0.462,1.259 0.941,2.562 1.313,3.793 1.009,3.33 0.911,5.868 -0.295,7.541 C 4.977,-0.882 2.981,-0.085 0,0 m 6.787,-28.357 c -4.964,0 -8.192,0.875 -10.106,2.725 -1.233,1.194 -1.867,2.796 -1.877,4.76 -0.019,2.803 -0.337,5.996 -0.618,8.812 -0.376,3.768 -0.703,7.022 -0.309,8.761 0.403,1.775 3.163,3.885 6.117,3.948 H 0.009 C 3.213,0.56 5.376,-0.325 6.621,-2.053 7.95,-3.9 8.081,-6.628 7.01,-10.163 c -0.376,-1.249 -0.859,-2.56 -1.323,-3.829 -1.043,-2.839 -2.121,-5.774 -1.474,-6.783 0.556,-0.869 2.998,-1.475 4.842,-1.475 2.358,0 4.198,0.547 5.085,0.874 0.771,0.285 1.291,0.382 2.059,0.385 1.191,0 3.407,0 4,-1.592 0.222,-0.598 0.352,-1.512 -0.294,-2.469 -1.351,-2.002 -5.341,-3.109 -11.857,-3.287 -0.431,-0.012 -0.853,-0.018 -1.261,-0.018 M 0.215,1.496 c -2.921,0 -6.375,-1.371 -7.058,-4.38 -0.386,-1.699 -0.053,-5.131 0.329,-9.105 0.307,-3.16 0.617,-6.347 0.636,-9.158 0.031,-5.161 4.771,-7.889 13.706,-7.889 5.803,0 9.764,0.912 11.775,2.711 1.77,1.585 1.57,3.485 1.355,3.88 -1.624,3.007 -4.584,2.243 -7.717,1.435 -1.457,-0.375 -2.945,-0.77 -4.277,-0.706 -2.177,0.098 -3.435,0.412 -4.076,1.017 -0.824,0.772 0.04,3.181 1.352,6.5 l 0.037,0.093 c 0.52,1.327 1.058,2.697 1.452,3.992 1.292,4.274 0.798,7.465 -1.464,9.486 C 4.168,1.243 1.3,1.469 0.47,1.493 Z m 7.613,-31.182 c -11.822,0 -14.332,4.642 -14.355,8.534 -0.02,2.782 -0.328,5.954 -0.626,9.021 -0.396,4.11 -0.733,7.589 -0.324,9.392 0.763,3.356 4.521,4.885 7.692,4.885 L 0.488,2.143 C 1.374,2.116 4.436,1.874 6.695,-0.144 9.166,-2.347 9.723,-5.765 8.35,-10.301 7.949,-11.623 7.406,-13.005 6.881,-14.343 l -0.037,-0.095 c -0.726,-1.837 -2.077,-5.258 -1.511,-5.788 0.506,-0.478 1.704,-0.753 3.661,-0.841 1.224,-0.062 2.61,0.305 4.085,0.686 3.087,0.795 6.586,1.696 8.45,-1.754 0.325,-0.601 0.575,-2.823 -1.492,-4.674 -2.135,-1.908 -6.241,-2.877 -12.209,-2.877"
                   style="fill:#f8b271;fill-opacity:1;fill-rule:nonzero;stroke:none"
                   id="path80" /></g><g
                 transform="translate(341.5986,404.6985)"
                 id="g86"><path
                   d="m 0,0 c -2.544,-0.624 -5.748,-1.273 -6.307,-0.2 -0.555,1.073 1.152,2.471 0.604,5.815 -0.274,1.657 -0.549,3.105 1.174,3.519 1.725,0.41 3.266,1.122 4.129,-0.788 C 0.837,5.615 2.544,0.623 0,0 m 10.625,1.985 c -0.548,5.08 -3.396,9.544 -6.218,15.045 -2.822,5.501 -9.591,3.811 -12.365,0.956 -7.125,-7.336 -7.336,-17.648 -7.752,-23.562 -0.421,-5.914 2.089,-6.554 5.066,-6.499 6.612,0.117 4.312,3.448 4.418,5.937 0.071,1.702 0.73,1.871 1.801,1.928 1.071,0.055 3.485,0.393 5.158,0.743 1.67,0.349 1.496,-1.946 1.463,-3.843 -0.034,-1.897 0.207,-4.017 4.981,-3.544 4.773,0.473 4.251,5.416 3.448,12.839"
                   style="fill:#1f6870;fill-opacity:1;fill-rule:nonzero;stroke:none"
                   id="path84" /></g><g
                 transform="translate(339.4404,414.386)"
                 id="g90"><path
                   d="M 0,0 C -0.446,0 -0.984,-0.131 -1.648,-0.305 -1.86,-0.36 -2.077,-0.418 -2.296,-0.47 -3.627,-0.789 -3.535,-1.736 -3.24,-3.521 l 0.016,-0.098 c 0.328,-2.001 -0.119,-3.33 -0.445,-4.301 -0.239,-0.712 -0.355,-1.099 -0.19,-1.419 0.335,-0.64 2.329,-0.515 5.94,0.367 0.392,0.095 0.667,0.318 0.843,0.678 0.689,1.421 -0.303,4.66 -1.461,7.218 C 1.101,-0.273 0.646,0 0,0 m -2.477,-10.386 c -0.966,0 -1.677,0.207 -1.959,0.748 -0.3,0.579 -0.101,1.173 0.152,1.925 0.304,0.905 0.721,2.147 0.418,3.988 l -0.015,0.098 c -0.269,1.63 -0.547,3.314 1.434,3.789 0.216,0.051 0.427,0.107 0.635,0.161 1.476,0.39 2.999,0.792 3.867,-1.132 0.758,-1.673 2.419,-5.782 1.452,-7.769 -0.26,-0.537 -0.689,-0.882 -1.272,-1.026 -1.745,-0.427 -3.447,-0.782 -4.712,-0.782 m 3.268,21.277 c -2.627,0 -5.311,-1.317 -6.69,-2.738 -6.367,-6.553 -6.878,-15.397 -7.217,-21.249 -0.037,-0.63 -0.072,-1.229 -0.113,-1.791 -0.178,-2.512 0.166,-4.187 1.05,-5.12 0.9,-0.947 2.296,-1.066 3.687,-1.031 2.089,0.037 3.391,0.395 3.983,1.097 0.59,0.698 0.435,1.719 0.27,2.802 -0.087,0.574 -0.178,1.166 -0.154,1.728 0.081,1.97 1.003,2.179 2.108,2.238 0.991,0.05 3.387,0.376 5.111,0.737 0.477,0.098 0.879,0.022 1.186,-0.233 0.74,-0.615 0.708,-2.102 0.675,-3.539 L 4.68,-16.603 c -0.017,-0.899 0.023,-1.91 0.708,-2.541 0.689,-0.635 2.007,-0.863 3.916,-0.673 1.177,0.116 2.033,0.518 2.611,1.231 1.555,1.915 1.109,6.033 0.545,11.248 v 0.001 C 12.017,-3.233 10.059,0.449 7.79,4.713 7.294,5.646 6.784,6.604 6.275,7.595 5.346,9.408 3.823,10.521 1.871,10.812 1.515,10.866 1.153,10.891 0.791,10.891 M -8.8,-21.69 c -1.373,0 -2.852,0.184 -3.851,1.236 -1.016,1.072 -1.417,2.909 -1.224,5.613 0.039,0.559 0.073,1.155 0.11,1.782 0.344,5.949 0.866,14.938 7.399,21.663 1.726,1.777 5.15,3.333 8.334,2.85 C 4.135,11.131 5.824,9.899 6.854,7.892 7.36,6.903 7.869,5.949 8.364,5.018 c 2.3,-4.323 4.285,-8.057 4.742,-12.286 0.581,-5.365 1.039,-9.602 -0.687,-11.726 -0.694,-0.856 -1.691,-1.336 -3.052,-1.471 -2.131,-0.21 -3.576,0.067 -4.42,0.843 -0.882,0.813 -0.936,1.991 -0.918,3.031 l 0.01,0.398 c 0.025,1.163 0.057,2.609 -0.443,3.024 -0.151,0.126 -0.357,0.156 -0.638,0.097 -1.631,-0.342 -4.064,-0.692 -5.209,-0.75 -0.965,-0.051 -1.433,-0.141 -1.492,-1.616 -0.022,-0.5 0.063,-1.06 0.146,-1.603 0.179,-1.178 0.365,-2.396 -0.416,-3.32 -0.729,-0.865 -2.148,-1.286 -4.466,-1.326 -0.107,-10e-4 -0.213,-0.003 -0.321,-0.003"
                   style="fill:#f8b271;fill-opacity:1;fill-rule:nonzero;stroke:none"
                   id="path88" /></g><g
                 transform="translate(336.9453,404.9251)"
                 id="g94"><path
                   d="m 0,0 c -0.231,0 -0.782,0.018 -0.868,0.184 -0.149,0.286 -0.003,0.719 0.2,1.323 0.33,0.981 0.779,2.325 0.449,4.349 L -0.236,5.96 C -0.527,7.72 -0.554,8.512 0.39,8.738 0.613,8.79 0.834,8.85 1.05,8.907 1.593,9.05 2.104,9.185 2.479,9.185 2.674,9.185 3.076,9.183 3.458,8.335 5.274,4.323 5.672,1.057 4.383,0.74 3.087,0.423 1.221,0 0,0 m 3.284,21.276 c -3.178,0 -6.111,-1.554 -7.608,-3.095 -6.587,-6.78 -7.11,-15.799 -7.458,-21.767 -0.036,-0.629 -0.072,-1.226 -0.112,-1.785 -0.22,-3.129 0.333,-5.083 1.747,-6.149 1.162,-0.873 2.668,-0.984 3.851,-0.984 0.109,0 0.218,0 0.327,0.002 2.172,0.039 3.663,0.413 4.555,1.144 1.247,1.021 1.032,2.431 0.821,3.794 -0.083,0.563 -0.166,1.093 -0.145,1.582 0.054,1.296 0.319,1.312 1.029,1.348 1.188,0.063 3.677,0.419 5.329,0.765 0.026,0.005 0.047,0.007 0.06,0.01 0.4,-0.309 0.361,-2.037 0.341,-2.876 L 6.013,-7.128 c -0.021,-1.18 0.056,-2.511 1.262,-3.384 0.762,-0.552 1.871,-0.834 3.298,-0.834 0.423,0 0.886,0.024 1.371,0.074 5.564,0.553 5.008,5.693 4.168,13.475 -0.457,4.251 -2.447,7.992 -4.752,12.327 -0.496,0.933 -1.006,1.889 -1.514,2.879 -1.726,3.365 -4.852,3.867 -6.562,3.867 M 0.937,-1.567 c 1.294,0 2.94,1.119 4.497,1.501 2.544,0.624 0.943,7.428 -0.724,9.72 -0.626,0.862 -2.005,1.77 -2.728,1.77 -0.701,0 -2.032,-0.528 -2.882,-0.731 C -2.623,10.28 -4.404,7.233 -2.443,5.78 0.364,3.7 -3.94,-0.928 -3.377,-2.015 c 0.219,-0.416 2.56,0.687 3.381,0.687 m 3.318,21.305 c 2.274,0 4.44,-0.242 5.739,-2.773 2.822,-5.504 5.669,-9.966 6.217,-15.045 0.804,-7.424 1.326,-12.366 -3.448,-12.84 -0.46,-0.044 -0.878,-0.067 -1.257,-0.067 -3.56,0 -3.755,1.897 -3.723,3.609 0.031,1.768 0.186,3.88 -1.144,3.88 -0.099,0 -0.205,-0.011 -0.319,-0.036 -1.674,-0.349 -4.088,-0.686 -5.158,-0.741 -1.071,-0.057 -1.731,-0.226 -1.801,-1.928 -0.107,-2.489 2.193,-5.82 -4.418,-5.94 -0.101,0 -0.205,-0.002 -0.306,-0.002 -2.841,0 -5.166,0.795 -4.761,6.504 0.416,5.914 2.382,14.522 9.507,21.86 1.499,1.542 2.206,3.519 4.872,3.519"
                   style="fill:#1f6870;fill-opacity:1;fill-rule:nonzero;stroke:none"
                   id="path92" /></g><g
                 transform="translate(339.4395,413.3753)"
                 id="g98"><path
                   d="m 0,0 c -0.047,-0.023 -0.094,-0.03 -0.144,-0.03 -0.338,0 -0.529,-0.014 -1.056,-0.153 l -0.261,-0.072 c -0.223,-0.061 -0.487,-0.137 -0.642,-0.172 -0.209,-0.051 -0.255,-0.089 -0.261,-0.093 0.014,-0.019 0.08,-0.215 0.138,-0.388 0.112,-0.328 0.263,-0.779 0.371,-1.424 0.01,-0.17 0.169,-3.31 -0.175,-4.339 -0.115,-0.339 0.016,-0.516 0.072,-0.546 1.157,0.002 1.794,0.158 3.058,0.468 0.256,0.062 0.402,0.185 0.504,0.395 0.208,0.429 0.499,1.857 -1.315,5.865 C 0.103,-0.074 0.01,-0.006 0,0 m -1.973,-7.866 c -0.209,0 -0.419,0.121 -0.563,0.321 -0.206,0.285 -0.245,0.679 -0.11,1.082 0.254,0.757 0.191,3.189 0.145,4.062 -0.094,0.556 -0.236,0.978 -0.34,1.285 -0.131,0.386 -0.224,0.665 -0.08,0.927 0.131,0.237 0.399,0.329 0.669,0.394 0.15,0.035 0.402,0.107 0.615,0.166 l 0.269,0.074 c 0.563,0.148 0.81,0.174 1.224,0.174 C 0.318,0.688 0.564,0.481 0.88,-0.222 1.854,-2.373 2.872,-5.234 2.189,-6.638 2.003,-7.02 1.696,-7.272 1.302,-7.37 -0.024,-7.693 -0.729,-7.866 -1.973,-7.866 m 1.957,8.874 C -0.5,1.008 -1.063,0.859 -1.66,0.703 -1.868,0.647 -2.08,0.592 -2.295,0.541 c -0.995,-0.238 -0.97,-0.77 -0.643,-2.226 0.067,-0.299 0.136,-0.611 0.19,-0.931 0.32,-1.961 -0.003,-3.201 -0.239,-4.107 -0.177,-0.682 -0.263,-1.054 -0.087,-1.393 0.106,-0.2 0.107,-0.197 0.721,-0.197 h 0.217 c 1.044,0 1.985,0.239 3.174,0.54 l 0.728,0.182 c 0.419,0.102 0.707,0.325 0.88,0.682 0.527,1.085 0.035,3.313 -1.463,6.623 C 0.722,0.73 0.464,1.008 -0.016,1.008 m -2.48,-9.972 c -0.561,0 -0.887,0.038 -1.154,0.547 -0.3,0.577 -0.152,1.144 0.035,1.857 0.22,0.851 0.524,2.013 0.224,3.839 -0.048,0.307 -0.118,0.607 -0.181,0.895 -0.273,1.213 -0.581,2.589 1.126,2.999 0.211,0.051 0.419,0.105 0.622,0.158 0.637,0.168 1.24,0.326 1.808,0.326 0.954,0 1.36,-0.725 1.789,-1.675 1.606,-3.543 2.081,-5.89 1.457,-7.175 -0.26,-0.534 -0.701,-0.88 -1.309,-1.03 L 1.197,-8.402 c -1.233,-0.314 -2.207,-0.56 -3.333,-0.56 L -2.35,-8.964 Z m 3.324,20.165 c -3.011,0 -4.957,-1.351 -6.059,-2.485 -6.692,-6.891 -7.29,-15.786 -7.684,-21.672 l -0.063,-0.901 c -0.167,-2.364 0.1,-3.886 0.815,-4.656 0.706,-0.756 1.797,-0.816 3.381,-0.818 2.261,0.041 3.606,0.371 4.14,1.009 0.453,0.539 0.327,1.318 0.182,2.22 -0.086,0.54 -0.177,1.1 -0.152,1.672 0.067,1.633 0.818,2.466 2.297,2.544 1.049,0.054 3.514,0.416 5.177,0.763 0.076,0.034 0.15,0.034 0.192,0.034 0.382,0 0.711,-0.138 0.979,-0.411 0.59,-0.6 0.849,-1.821 0.815,-3.842 -0.018,-0.991 0.012,-1.857 0.585,-2.439 0.504,-0.513 1.387,-0.763 2.704,-0.763 0.205,0 0.424,0.047 0.675,0.103 0.156,0.033 0.319,0.068 0.492,0.096 3.621,0.569 3.842,4.011 2.975,12.027 C 11.842,-2.261 9.913,1.35 7.679,5.53 7.157,6.505 6.622,7.506 6.088,8.548 4.83,10.998 2.883,11.201 0.828,11.201 M -8.725,-19.98 c -1.468,0 -2.959,0 -3.914,1.025 -0.856,0.921 -1.17,2.556 -0.985,5.143 l 0.061,0.9 c 0.401,5.979 1.008,15.018 7.865,22.08 1.19,1.225 3.289,2.683 6.526,2.683 2.174,0 4.414,-0.232 5.838,-3.006 0.533,-1.038 1.065,-2.037 1.585,-3.008 2.266,-4.24 4.224,-7.903 4.675,-12.085 0.783,-7.238 0.961,-12.036 -3.521,-12.739 -0.16,-0.026 -0.31,-0.058 -0.455,-0.09 -0.277,-0.06 -0.537,-0.116 -0.813,-0.116 -1.5,0 -2.535,0.313 -3.167,0.956 -0.749,0.761 -0.792,1.809 -0.772,2.907 0.031,1.784 -0.18,2.919 -0.629,3.375 -0.139,0.142 -0.296,0.212 -0.493,0.217 -0.025,-0.009 -0.048,-0.014 -0.065,-0.018 -1.695,-0.352 -4.214,-0.723 -5.292,-0.779 -0.795,-0.042 -1.615,-0.303 -1.682,-1.921 -0.021,-0.508 0.063,-1.034 0.145,-1.543 0.156,-0.969 0.317,-1.973 -0.325,-2.739 -0.669,-0.801 -2.125,-1.196 -4.582,-1.242 M 0.79,12.5 c -3.083,0 -5.926,-1.504 -7.375,-2.995 -6.498,-6.688 -7.02,-15.63 -7.367,-21.548 -0.035,-0.644 -0.073,-1.242 -0.112,-1.802 -0.212,-3.009 0.301,-4.873 1.619,-5.866 1.083,-0.815 2.522,-0.919 3.655,-0.919 l 0.319,0.003 c 2.1,0.038 3.525,0.388 4.358,1.069 1.104,0.906 0.911,2.162 0.705,3.494 l -0.016,0.103 c -0.079,0.542 -0.154,1.053 -0.134,1.543 0.062,1.449 0.437,1.612 1.338,1.659 1.183,0.062 3.65,0.415 5.281,0.758 l 0.145,0.03 0.179,-0.082 c 0.446,-0.345 0.509,-1.458 0.466,-3.141 l -0.008,-0.391 c -0.021,-1.147 0.051,-2.334 1.13,-3.114 0.705,-0.511 1.749,-0.772 3.105,-0.772 0.429,0 0.879,0.025 1.34,0.072 1.482,0.147 2.539,0.634 3.232,1.488 1.677,2.064 1.223,6.279 0.648,11.616 -0.453,4.202 -2.43,7.918 -4.719,12.223 L 8.457,6.158 C 7.998,7.02 7.53,7.9 7.062,8.811 5.416,12.021 2.426,12.5 0.79,12.5 m -9.58,-33.779 c -1.233,0 -2.81,0.119 -4.047,1.049 -1.508,1.138 -2.104,3.182 -1.875,6.431 0.039,0.557 0.075,1.153 0.11,1.78 0.353,6.028 0.885,15.116 7.55,21.976 1.545,1.589 4.569,3.193 7.842,3.193 1.784,0 5.046,-0.525 6.851,-4.042 C 8.106,8.199 8.574,7.321 9.031,6.463 L 9.152,6.232 c 2.322,-4.363 4.325,-8.13 4.79,-12.445 0.616,-5.715 1.06,-9.834 -0.788,-12.107 -0.807,-0.996 -2.009,-1.562 -3.672,-1.726 -0.48,-0.049 -0.954,-0.074 -1.404,-0.074 -1.496,0 -2.67,0.302 -3.486,0.895 -1.443,1.043 -1.414,2.741 -1.399,3.651 l 0.008,0.394 c 0.043,1.658 -0.058,2.282 -0.152,2.512 -1.704,-0.343 -4.071,-0.679 -5.236,-0.74 -0.627,-0.031 -0.678,-0.034 -0.721,-1.038 -0.018,-0.427 0.052,-0.909 0.128,-1.419 l 0.013,-0.104 c 0.215,-1.382 0.457,-2.951 -0.935,-4.092 -0.949,-0.777 -2.505,-1.175 -4.755,-1.216 z"
                   style="fill:#f8b271;fill-opacity:1;fill-rule:nonzero;stroke:none"
                   id="path96" /></g><g
                 transform="translate(375.7715,427.9368)"
                 id="g102"><path
                   d="m 0,0 c -1.596,0 -2.894,-1.297 -2.894,-2.893 0,-1.595 1.298,-2.893 2.894,-2.893 1.595,0 2.893,1.298 2.893,2.893 C 2.893,-1.297 1.595,0 0,0 m 0,-6.807 c -2.159,0 -3.915,1.756 -3.915,3.914 0,2.158 1.756,3.914 3.915,3.914 2.157,0 3.913,-1.756 3.913,-3.914 0,-2.158 -1.756,-3.914 -3.913,-3.914"
                   style="fill:#f8b271;fill-opacity:1;fill-rule:nonzero;stroke:none"
                   id="path100" /></g><g
                 transform="translate(375.7715,428.1414)"
                 id="g106"><path
                   d="m 0,0 c -1.708,0 -3.098,-1.389 -3.098,-3.097 0,-1.708 1.39,-3.098 3.098,-3.098 1.708,0 3.097,1.39 3.097,3.098 C 3.097,-1.389 1.708,0 0,0 m 0,-6.807 c -2.046,0 -3.71,1.664 -3.71,3.71 0,2.045 1.664,3.709 3.71,3.709 2.045,0 3.709,-1.664 3.709,-3.709 0,-2.046 -1.664,-3.71 -3.709,-3.71"
                   style="fill:#f8b271;fill-opacity:1;fill-rule:nonzero;stroke:none"
                   id="path104" /></g><g
                 transform="translate(375.7715,427.9368)"
                 id="g110"><path
                   d="m 0,0 c -1.596,0 -2.894,-1.297 -2.894,-2.893 0,-1.595 1.298,-2.893 2.894,-2.893 1.595,0 2.893,1.298 2.893,2.893 C 2.893,-1.297 1.595,0 0,0 m 0,-6.807 c -2.159,0 -3.915,1.756 -3.915,3.914 0,2.158 1.756,3.914 3.915,3.914 2.157,0 3.913,-1.756 3.913,-3.914 0,-2.158 -1.756,-3.914 -3.913,-3.914"
                   style="fill:#f8b271;fill-opacity:1;fill-rule:nonzero;stroke:none"
                   id="path108" /></g><g
                 transform="translate(375.7715,428.1414)"
                 id="g114"><path
                   d="m 0,0 c -1.708,0 -3.098,-1.389 -3.098,-3.097 0,-1.708 1.39,-3.098 3.098,-3.098 1.708,0 3.097,1.39 3.097,3.098 C 3.097,-1.389 1.708,0 0,0 m 0,-6.807 c -2.046,0 -3.71,1.664 -3.71,3.71 0,2.045 1.664,3.709 3.71,3.709 2.045,0 3.709,-1.664 3.709,-3.709 0,-2.046 -1.664,-3.71 -3.709,-3.71"
                   style="fill:#1f6870;fill-opacity:1;fill-rule:nonzero;stroke:none"
                   id="path112" /></g><g
                 transform="translate(375.9658,423.0316)"
                 id="g118"><path
                   d="M 0,0 C -0.285,0 -0.556,0.054 -0.803,0.159 -1.048,0.263 -1.263,0.408 -1.441,0.589 -1.619,0.769 -1.76,0.983 -1.86,1.224 -1.961,1.467 -2.013,1.729 -2.013,2 c 0,0.284 0.051,0.545 0.153,0.791 0.1,0.245 0.241,0.461 0.419,0.641 0.175,0.182 0.391,0.329 0.638,0.433 0.244,0.106 0.52,0.16 0.816,0.16 C 0.37,4.025 0.675,3.966 0.918,3.85 1.157,3.734 1.37,3.574 1.551,3.374 L 1.676,3.235 0.8,2.292 0.65,2.448 C 0.551,2.549 0.448,2.632 0.346,2.692 0.26,2.742 0.146,2.768 0.006,2.768 -0.087,2.768 -0.172,2.75 -0.244,2.714 -0.323,2.676 -0.388,2.625 -0.444,2.559 -0.505,2.491 -0.551,2.413 -0.582,2.323 -0.616,2.229 -0.632,2.131 -0.632,2.026 c 0,-0.124 0.016,-0.225 0.05,-0.321 0.031,-0.091 0.077,-0.17 0.138,-0.237 0.059,-0.065 0.131,-0.117 0.212,-0.155 0.08,-0.036 0.173,-0.055 0.277,-0.055 0.132,0 0.24,0.024 0.332,0.075 0.108,0.059 0.215,0.137 0.327,0.24 L 0.85,1.706 1.7,0.845 1.57,0.702 C 1.387,0.5 1.176,0.333 0.941,0.204 0.693,0.068 0.378,0 0,0"
                   style="fill:#f8b271;fill-opacity:1;fill-rule:nonzero;stroke:none"
                   id="path116" /></g><g
                 transform="translate(376.8076,423.4144)"
                 id="g122"><path
                   d="m 0,0 c -0.216,-0.119 -0.497,-0.178 -0.842,-0.178 -0.26,0 -0.501,0.048 -0.722,0.142 C -1.787,0.059 -1.979,0.188 -2.139,0.35 -2.299,0.512 -2.424,0.702 -2.514,0.92 -2.605,1.138 -2.65,1.371 -2.65,1.617 V 1.63 c 0,0.246 0.045,0.479 0.136,0.7 0.09,0.22 0.215,0.412 0.375,0.577 0.16,0.164 0.352,0.293 0.575,0.388 0.221,0.095 0.467,0.143 0.735,0.143 0.328,0 0.6,-0.052 0.816,-0.156 C 0.203,3.179 0.394,3.036 0.558,2.854 L -0.045,2.207 C -0.157,2.323 -0.273,2.416 -0.392,2.485 -0.511,2.554 -0.659,2.589 -0.836,2.589 -0.961,2.589 -1.074,2.564 -1.177,2.514 -1.277,2.465 -1.366,2.396 -1.441,2.311 -1.518,2.224 -1.575,2.124 -1.617,2.009 -1.658,1.895 -1.678,1.772 -1.678,1.643 V 1.63 c 0,-0.134 0.02,-0.259 0.061,-0.376 0.042,-0.117 0.1,-0.218 0.179,-0.305 0.078,-0.086 0.17,-0.155 0.278,-0.204 0.108,-0.05 0.229,-0.075 0.363,-0.075 0.164,0 0.308,0.034 0.431,0.101 C -0.243,0.838 -0.121,0.928 0,1.04 L 0.577,0.457 C 0.408,0.271 0.216,0.119 0,0"
                   style="fill:#1f6870;fill-opacity:1;fill-rule:nonzero;stroke:none"
                   id="path120" /></g></g></g></g></g></g><g
       id="g128"><g
         id="g130"
         clip-path="url(#clipPath134)"><g
           id="g136"
           transform="translate(670.082,574.8499)"><path
             d="m 0,0 c -13.608,9.812 -124.203,165.253 -295.745,157.34 -171.543,-7.913 -208.571,-118.505 -437.29,-50.937 l 4.456,178.598 741.508,-29.86 z"
             style="fill:#208c91;fill-opacity:1;fill-rule:nonzero;stroke:none"
             id="path138" /></g><g
           id="g140"
           transform="translate(686.0752,598.1741)"><path
             d="M 0,0 C -13.846,9.259 -128.262,160.171 -299.521,145.358 -470.78,130.544 -505.032,18.517 -735.32,76.845 V 255.533 H 6.56 Z"
             style="fill:#f8b271;fill-opacity:1;fill-rule:nonzero;stroke:none"
             id="path142" /></g><g
           id="g144"
           transform="translate(686.0752,610.7215)"><path
             d="M 0,0 C -13.846,9.258 -128.262,160.171 -299.521,145.358 -470.78,130.544 -505.032,18.517 -735.32,76.845 V 255.533 H 6.56 Z"
             style="fill:#1f6870;fill-opacity:1;fill-rule:nonzero;stroke:none"
             id="path146" /></g></g></g><g
       id="g148"><g
         id="g150"
         clip-path="url(#clipPath154)"><g
           id="g156"
           transform="translate(565.8154,805.3836)"><path
             d="m 0,0 c -2.896,0 -5.252,-2.355 -5.252,-5.252 0,-2.895 2.356,-5.252 5.252,-5.252 2.896,0 5.253,2.355 5.253,5.252 C 5.251,-2.355 2.896,0 0,0 m 0,-11.158 c -3.257,0 -5.906,2.649 -5.906,5.906 0,3.257 2.649,5.906 5.906,5.906 3.257,0 5.906,-2.649 5.906,-5.906 0,-3.257 -2.649,-5.906 -5.906,-5.906"
             style="fill:#ffffff;fill-opacity:1;fill-rule:nonzero;stroke:none"
             id="path158" /></g><g
           id="g160"
           transform="translate(567.2324,801.303)"><path
             d="m 0,0 c -0.001,0.781 -0.635,1.417 -1.412,1.416 -0.779,0 -1.412,-0.633 -1.413,-1.413 0,-0.776 0.635,-1.414 1.408,-1.414 C -0.638,-1.411 0,-0.776 0,0 m -4.086,-0.093 v 0.192 c 0.003,0.017 0.008,0.034 0.009,0.051 0.022,0.419 0.133,0.813 0.346,1.173 0.445,0.754 1.102,1.199 1.97,1.326 0.081,0.013 0.162,0.019 0.243,0.028 h 0.211 C -1.291,2.674 -1.275,2.669 -1.26,2.668 -1.051,2.657 -0.845,2.626 -0.646,2.56 0.354,2.228 0.973,1.547 1.204,0.518 1.227,0.418 1.236,0.316 1.252,0.215 V -0.208 C 1.246,-0.252 1.239,-0.297 1.233,-0.341 1.187,-0.657 1.108,-0.962 0.944,-1.24 0.829,-1.435 0.721,-1.633 0.601,-1.824 -0.057,-2.871 -0.717,-3.917 -1.375,-4.963 -1.386,-4.98 -1.394,-4.999 -1.402,-5.017 h -0.02 c -0.005,0.011 -0.01,0.023 -0.016,0.034 -0.217,0.338 -0.438,0.674 -0.65,1.015 -0.531,0.853 -1.057,1.709 -1.588,2.56 -0.209,0.335 -0.338,0.696 -0.386,1.086 -0.009,0.076 -0.015,0.153 -0.024,0.229"
             style="fill:#ffffff;fill-opacity:1;fill-rule:nonzero;stroke:none"
             id="path162" /></g><g
           id="g164"
           transform="translate(565.8174,800.367)"><path
             d="M 0,0 C -0.516,0.001 -0.938,0.427 -0.937,0.943 -0.934,1.458 -0.512,1.877 0.004,1.877 0.517,1.878 0.94,1.453 0.939,0.939 0.937,0.419 0.517,-0.001 0,0"
             style="fill:#ffffff;fill-opacity:1;fill-rule:nonzero;stroke:none"
             id="path166" /></g><g
           id="g168"
           transform="translate(569.2197,815.1111)"><path
             d="M 0,0 C -0.388,0.308 -0.794,0.611 -1.19,0.911 -1.396,1.022 -1.591,1.056 -1.754,1.002 -1.915,0.949 -2.012,0.834 -2.1,0.737 -2.383,0.421 -2.64,0.341 -2.882,0.364 -3.119,0.391 -3.369,0.525 -3.579,0.743 l -0.674,0.675 c -0.219,0.208 -0.353,0.459 -0.38,0.697 -0.022,0.243 0.057,0.5 0.374,0.783 0.099,0.088 0.211,0.183 0.265,0.346 0.054,0.161 0.02,0.357 -0.091,0.564 -0.3,0.394 -0.603,0.801 -0.911,1.19 C -5.181,5.182 -5.425,5.231 -5.617,5.17 -5.809,5.111 -5.953,4.982 -6.075,4.864 -6.645,4.32 -7.131,3.574 -6.978,2.659 c 0.129,-0.741 0.648,-1.457 1.442,-2.25 0.338,-0.338 0.604,-0.604 0.945,-0.946 0.793,-0.793 1.51,-1.312 2.25,-1.441 0.766,-0.116 1.547,0.217 2.207,0.903 0.117,0.121 0.246,0.266 0.306,0.458 C 0.233,-0.428 0.185,-0.185 0,0"
             style="fill:#ffffff;fill-opacity:1;fill-rule:nonzero;stroke:none"
             id="path170" /></g><g
           id="g172"
           transform="translate(565.8154,821.9593)"><path
             d="m 0,0 c -2.896,0 -5.252,-2.356 -5.252,-5.252 0,-2.896 2.356,-5.253 5.252,-5.253 2.896,0 5.253,2.356 5.253,5.253 C 5.251,-2.356 2.896,0 0,0 m 0,-11.159 c -3.257,0 -5.906,2.65 -5.906,5.907 0,3.256 2.649,5.906 5.906,5.906 3.257,0 5.906,-2.65 5.906,-5.906 0,-3.257 -2.649,-5.907 -5.906,-5.907"
             style="fill:#ffffff;fill-opacity:1;fill-rule:nonzero;stroke:none"
             id="path174" /></g><g
           id="g176"
           transform="translate(563.8271,783.6312)"><path
             d="m 0,0 c 0,-0.678 0.129,-1.334 0.366,-1.935 0.466,0.142 0.957,0.221 1.458,0.236 V 0.118 H 0.002 C 0.002,0.077 0,0.039 0,0"
             style="fill:#ffffff;fill-opacity:1;fill-rule:nonzero;stroke:none"
             id="path178" /></g><g
           id="g180"
           transform="translate(563.8467,784.0779)"><path
             d="M 0,0 H 1.805 V 1.256 C 1.303,1.271 0.812,1.351 0.347,1.491 0.162,1.021 0.044,0.52 0,0"
             style="fill:#ffffff;fill-opacity:1;fill-rule:nonzero;stroke:none"
             id="path182" /></g><g
           id="g184"
           transform="translate(565.6523,779.7093)"><path
             d="M 0,0 V 1.89 C -0.457,1.875 -0.901,1.804 -1.326,1.679 -1.012,1.013 -0.561,0.434 0,0"
             style="fill:#ffffff;fill-opacity:1;fill-rule:nonzero;stroke:none"
             id="path186" /></g><g
           id="g188"
           transform="translate(564.3262,785.8738)"><path
             d="M 0,0 C 0.425,-0.125 0.87,-0.196 1.326,-0.21 V 1.679 C 0.766,1.244 0.314,0.665 0,0"
             style="fill:#ffffff;fill-opacity:1;fill-rule:nonzero;stroke:none"
             id="path190" /></g><g
           id="g192"
           transform="translate(568.1133,784.0779)"><path
             d="M 0,0 H 1.824 C 1.732,0.848 1.386,1.62 0.86,2.236 0.486,1.973 0.074,1.759 -0.367,1.597 -0.169,1.094 -0.044,0.556 0,0"
             style="fill:#ffffff;fill-opacity:1;fill-rule:nonzero;stroke:none"
             id="path194" /></g><g
           id="g196"
           transform="translate(565.3799,787.7562)"><path
             d="m 0,0 c -0.971,-0.103 -1.843,-0.541 -2.498,-1.196 0.345,-0.24 0.724,-0.436 1.129,-0.583 C -1.044,-1.082 -0.578,-0.47 0,0"
             style="fill:#ffffff;fill-opacity:1;fill-rule:nonzero;stroke:none"
             id="path198" /></g><g
           id="g200"
           transform="translate(563.8828,785.6727)"><path
             d="M 0,0 C -0.44,0.162 -0.854,0.378 -1.225,0.641 -1.749,0.024 -2.098,-0.748 -2.189,-1.596 h 1.824 C -0.32,-1.039 -0.196,-0.5 0,0"
             style="fill:#ffffff;fill-opacity:1;fill-rule:nonzero;stroke:none"
             id="path202" /></g><g
           id="g204"
           transform="translate(564.0127,781.285)"><path
             d="M 0,0 C -0.406,-0.147 -0.786,-0.345 -1.13,-0.583 -0.476,-1.238 0.396,-1.677 1.366,-1.779 0.789,-1.311 0.323,-0.699 0,0"
             style="fill:#ffffff;fill-opacity:1;fill-rule:nonzero;stroke:none"
             id="path206" /></g><g
           id="g208"
           transform="translate(563.4971,783.6312)"><path
             d="M 0,0 C 0,0.04 0.003,0.078 0.003,0.118 H -1.826 C -1.827,0.078 -1.828,0.039 -1.828,0 c 0,-1.021 0.372,-1.958 0.985,-2.68 0.373,0.263 0.787,0.478 1.228,0.64 C 0.137,-1.407 0,-0.713 0,0"
             style="fill:#ffffff;fill-opacity:1;fill-rule:nonzero;stroke:none"
             id="path210" /></g><g
           id="g212"
           transform="translate(567.3066,781.3885)"><path
             d="M 0,0 C -0.424,0.125 -0.871,0.196 -1.326,0.21 V -1.679 C -0.767,-1.245 -0.314,-0.666 0,0"
             style="fill:#ffffff;fill-opacity:1;fill-rule:nonzero;stroke:none"
             id="path214" /></g><g
           id="g216"
           transform="translate(566.2539,779.5062)"><path
             d="M 0,0 C 0.971,0.102 1.843,0.541 2.498,1.196 2.153,1.435 1.774,1.631 1.368,1.779 1.043,1.08 0.578,0.468 0,0"
             style="fill:#ffffff;fill-opacity:1;fill-rule:nonzero;stroke:none"
             id="path218" /></g><g
           id="g220"
           transform="translate(569.96,783.7488)"><path
             d="m 0,0 h -1.83 c 0.002,-0.041 0.003,-0.079 0.003,-0.118 0,-0.713 -0.137,-1.408 -0.384,-2.043 0.44,-0.161 0.854,-0.378 1.225,-0.641 0.615,0.723 0.989,1.661 0.989,2.683 C 0.003,-0.079 0.002,-0.041 0,0"
             style="fill:#ffffff;fill-opacity:1;fill-rule:nonzero;stroke:none"
             id="path222" /></g><g
           id="g224"
           transform="translate(567.4385,785.5692)"><path
             d="M 0,0 C -0.465,-0.142 -0.956,-0.22 -1.458,-0.235 V -1.491 H 0.346 C 0.302,-0.973 0.183,-0.47 0,0"
             style="fill:#ffffff;fill-opacity:1;fill-rule:nonzero;stroke:none"
             id="path226" /></g><g
           id="g228"
           transform="translate(565.9805,787.5526)"><path
             d="m 0,0 v -1.889 c 0.456,0.014 0.901,0.085 1.326,0.21 C 1.012,-1.014 0.56,-0.435 0,0"
             style="fill:#ffffff;fill-opacity:1;fill-rule:nonzero;stroke:none"
             id="path230" /></g><g
           id="g232"
           transform="translate(567.8057,783.6312)"><path
             d="M 0,0 C 0,0.04 -0.002,0.078 -0.002,0.118 H -1.824 V -1.704 C -1.322,-1.72 -0.832,-1.799 -0.366,-1.939 -0.13,-1.337 0,-0.679 0,0"
             style="fill:#ffffff;fill-opacity:1;fill-rule:nonzero;stroke:none"
             id="path234" /></g><g
           id="g236"
           transform="translate(567.6201,785.9759)"><path
             d="M 0,0 C 0.405,0.147 0.786,0.345 1.13,0.583 0.476,1.238 -0.397,1.677 -1.369,1.779 -0.788,1.311 -0.323,0.698 0,0"
             style="fill:#ffffff;fill-opacity:1;fill-rule:nonzero;stroke:none"
             id="path238" /></g><g
           id="g240"
           transform="translate(565.8154,788.8821)"><path
             d="m 0,0 c -2.896,0 -5.252,-2.355 -5.252,-5.252 0,-2.896 2.356,-5.251 5.252,-5.251 2.896,0 5.253,2.355 5.253,5.251 C 5.251,-2.355 2.896,0 0,0 m 0,-11.157 c -3.257,0 -5.906,2.649 -5.906,5.906 0,3.257 2.649,5.906 5.906,5.906 3.257,0 5.906,-2.649 5.906,-5.906 0,-3.257 -2.649,-5.906 -5.906,-5.906"
             style="fill:#ffffff;fill-opacity:1;fill-rule:nonzero;stroke:none"
             id="path242" /></g><g
           id="g244"
           transform="translate(565.8135,763.639)"><path
             d="m 0,0 h -2.196 c -0.456,-0.01 -0.861,0.295 -0.979,0.736 -0.022,0.083 -0.034,0.17 -0.034,0.257 -0.003,0.698 -0.003,1.398 -0.003,2.097 0,0.181 0.113,0.249 0.276,0.164 0.914,-0.474 1.826,-0.948 2.735,-1.425 0.125,-0.074 0.28,-0.074 0.404,0 C 1.11,2.303 2.019,2.775 2.928,3.246 2.954,3.26 2.982,3.272 3.012,3.278 3.137,3.302 3.213,3.239 3.213,3.113 V 1.296 C 3.222,1.139 3.216,0.982 3.196,0.825 3.12,0.345 2.702,-0.008 2.216,-0.001 c -0.598,-0.006 -1.194,0 -1.789,0 z"
             style="fill:#ffffff;fill-opacity:1;fill-rule:nonzero;stroke:none"
             id="path246" /></g><g
           id="g248"
           transform="translate(565.8037,768.4617)"><path
             d="M 0,0 H 2.189 C 2.619,0 2.936,-0.192 3.129,-0.579 3.193,-0.703 3.161,-0.784 3.035,-0.849 2.067,-1.352 1.1,-1.855 0.131,-2.36 c -0.073,-0.043 -0.165,-0.043 -0.24,0 l -2.929,1.525 c -0.106,0.055 -0.128,0.124 -0.08,0.232 0.185,0.396 0.501,0.598 0.936,0.602 0.728,0.006 1.454,0 2.185,0 z"
             style="fill:#ffffff;fill-opacity:1;fill-rule:nonzero;stroke:none"
             id="path250" /></g><g
           id="g252"
           transform="translate(565.8154,771.3001)"><path
             d="m 0,0 c -2.896,0 -5.252,-2.355 -5.252,-5.252 0,-2.895 2.356,-5.251 5.252,-5.251 2.896,0 5.253,2.356 5.253,5.251 C 5.251,-2.355 2.896,0 0,0 m 0,-11.159 c -3.257,0 -5.906,2.65 -5.906,5.907 0,3.257 2.649,5.906 5.906,5.906 3.257,0 5.906,-2.649 5.906,-5.906 0,-3.257 -2.649,-5.907 -5.906,-5.907"
             style="fill:#ffffff;fill-opacity:1;fill-rule:nonzero;stroke:none"
             id="path254" /></g><g
           id="g256"
           transform="translate(39.0205,808.3543)"><path
             d="m 0,0 c 7.595,-1.646 17.028,-3.256 28.391,-5.705 18.415,-3.967 15.829,-12.731 3.797,-26.568 -9.969,-11.46 -28.546,-30.23 -33.544,-34.822 -8.195,-7.53 -6.477,-13.867 0.4,-13.867 l 18.658,-0.141 c 5.802,0 9.062,1.936 10.943,5.797 1.881,3.862 7.272,14.56 7.272,14.56 l 18.996,-14.12 36.56,-0.038 v 1.326 c 0,0 -25.376,11.459 -37.14,20.278 -9.458,7.09 -5.858,14.236 -2.398,21.215 3.913,7.893 7.549,18.485 -5.908,28.287 C 36.721,2.98 27.282,3.495 10.038,6.142 L 1.917,7.437 C -0.017,7.765 -2.708,6.365 -3.265,4.683 -3.75,3.208 -2.523,0.581 -0.602,0.165 Z"
             style="fill:#ffffff;fill-opacity:1;fill-rule:nonzero;stroke:none"
             id="path258" /></g><g
           id="g260"
           transform="translate(40.2749,814.408)"><path
             d="m 0,0 c -1.67,0 -2.629,-0.553 -3.021,-1.741 -0.181,-0.551 -0.139,-1.085 0.123,-1.542 0.354,-0.617 1.085,-1.073 2.061,-1.285 3.506,-0.76 7.57,-1.587 11.872,-2.464 5.052,-1.029 10.777,-2.197 16.893,-3.514 7.827,-1.686 12.261,-4.42 13.557,-8.358 1.556,-4.724 -1.397,-11.093 -9.288,-20.041 -9.784,-11.093 -28.343,-29.904 -33.559,-34.875 -4.047,-3.855 -5.846,-7.368 -4.94,-9.634 0.607,-1.515 2.44,-2.351 5.164,-2.351 l 17.653,0.104 c 5.516,0 7.545,1.068 9.444,4.968 1.861,3.821 7.904,15.67 7.964,15.789 l 0.151,0.295 20.017,-15.196 h 33.244 c -4.797,2.249 -23.617,11.222 -34.086,18.401 -11.13,7.633 -7.626,17.329 -4.022,23.956 6,11.036 4.265,19.686 -5.305,26.446 C 36.017,-5.458 27.02,-4.1 12.115,-1.848 10.743,-1.641 9.325,-1.427 7.854,-1.201 4.916,-0.724 0.44,-0.011 0.141,0 Z m -1.136,-86.358 c -2.967,0 -4.983,0.958 -5.68,2.699 -0.995,2.488 0.853,6.22 5.071,10.239 5.211,4.966 23.752,23.758 33.527,34.841 7.748,8.786 10.664,14.983 9.177,19.501 -1.229,3.736 -5.53,6.349 -13.147,7.991 -6.113,1.316 -11.838,2.483 -16.887,3.513 -4.304,0.876 -8.37,1.704 -11.879,2.465 -1.131,0.246 -1.992,0.796 -2.424,1.551 -0.342,0.597 -0.4,1.285 -0.169,1.991 0.471,1.427 1.63,2.121 3.547,2.121 h 0.143 c 0.345,0 6.556,-1.006 7.798,-1.207 1.467,-0.225 2.885,-0.441 4.256,-0.647 14.986,-2.264 24.032,-3.631 32.045,-9.29 9.841,-6.951 11.631,-15.836 5.471,-27.161 -3.797,-6.985 -6.792,-15.939 3.85,-23.236 11.964,-8.205 34.908,-18.778 35.139,-18.883 l 1.15,-0.529 H 53.905 l -0.074,0.056 -19.564,14.852 c -0.951,-1.863 -6.116,-12.006 -7.809,-15.485 -1.994,-4.094 -4.225,-5.278 -9.942,-5.278 z m 1.202,87.54 c -2.103,0 -3.78,-0.968 -4.274,-2.467 -0.268,-0.817 -0.175,-1.714 0.262,-2.526 0.534,-0.991 1.502,-1.702 2.655,-1.951 3.576,-0.776 7.77,-1.587 11.825,-2.372 4.838,-0.937 10.86,-2.105 17.122,-3.452 7.306,-1.575 11.571,-4.192 12.675,-7.783 1.311,-4.263 -1.621,-10.438 -8.963,-18.88 C 21.239,-49.895 2.654,-68.684 -2.1,-73.051 c -4.462,-4.098 -6.379,-7.877 -5.398,-10.641 0.73,-2.056 2.94,-3.188 6.224,-3.188 h 17.78 c 5.898,0 8.569,1.398 10.585,5.539 1.529,3.141 5.805,11.652 7.324,14.666 l 0.148,0.294 19.122,-14.236 c 0.089,-0.067 0.201,-0.103 0.314,-0.103 h 35.295 c 0.642,0 0.807,0.181 0.815,0.245 l -0.005,0.058 0.02,0.034 c 0,0 0.082,0.258 -0.039,0.472 -0.085,0.151 -0.259,0.26 -0.518,0.321 -0.114,0.027 -23.569,11.007 -35.677,19.311 -10.307,7.069 -7.225,15.131 -3.526,22.133 4.239,8.029 7.416,18.477 -5.754,28.07 -8.05,5.861 -16.583,7.092 -29.5,8.954 -2.232,0.323 -4.6,0.664 -7.123,1.052 L 1.159,1.091 C 0.8,1.152 0.432,1.182 0.066,1.182 m 16.44,-88.616 h -17.78 c -3.538,0 -5.933,1.264 -6.745,3.556 -1.061,2.987 0.908,6.977 5.545,11.235 4.746,4.36 23.307,23.124 33.425,34.757 7.205,8.285 10.101,14.29 8.849,18.355 -1.039,3.384 -5.165,5.875 -12.261,7.404 -6.257,1.345 -12.274,2.512 -17.111,3.45 -4.058,0.784 -8.255,1.597 -11.835,2.374 -1.313,0.283 -2.416,1.095 -3.026,2.23 -0.51,0.947 -0.617,1.998 -0.3,2.961 0.568,1.73 2.453,2.848 4.799,2.848 0.397,0 0.795,-0.033 1.186,-0.099 L 8.075,0.476 c 2.518,-0.386 4.883,-0.728 7.112,-1.049 13,-1.875 21.588,-3.114 29.75,-9.055 13.513,-9.844 10.26,-20.55 5.916,-28.778 -3.586,-6.79 -6.581,-14.606 3.351,-21.416 11.634,-7.98 34.761,-18.955 35.514,-19.236 0.396,-0.093 0.692,-0.294 0.855,-0.59 0.2,-0.364 0.124,-0.739 0.089,-0.871 -0.008,-0.089 -0.041,-0.24 -0.179,-0.39 -0.224,-0.242 -0.624,-0.365 -1.189,-0.365 H 53.999 c -0.231,0 -0.46,0.076 -0.645,0.214 l -18.592,13.842 c -1.633,-3.24 -5.693,-11.324 -7.173,-14.365 -2.13,-4.374 -4.926,-5.851 -11.083,-5.851"
             style="fill:#000000;fill-opacity:1;fill-rule:nonzero;stroke:none"
             id="path262" /></g><g
           id="g264"
           transform="translate(99.3359,766.5394)"><path
             d="M 0,0 C -0.64,-5 -2.621,-4.923 -5.74,-1.516 -8.653,1.668 -9.181,10.02 4.453,17.9 c 21.303,12.316 60.042,10.475 66.87,18.275 0,0 2.047,-0.407 3.994,-0.407 1.077,0 2.982,0.241 2.982,0.241 0,0 -2.658,-6.702 -17.043,-9.73 C 47.206,23.324 31.124,21.919 20.065,17.065 9.006,12.211 1.212,9.471 0,0"
             style="fill:#ffffff;fill-opacity:1;fill-rule:nonzero;stroke:none"
             id="path266" /></g><g
           id="g268"
           transform="translate(170.7607,802.4139)"><path
             d="m 0,0 c -3.347,-3.608 -13.49,-5.171 -25.215,-6.976 -13.471,-2.076 -30.236,-4.658 -41.618,-11.238 -8.72,-5.04 -11.139,-9.918 -11.632,-13.122 -0.349,-2.263 0.213,-4.456 1.505,-5.867 1.62,-1.771 2.863,-2.537 3.666,-2.279 0.78,0.247 1.316,1.473 1.594,3.643 1.151,8.988 8.236,12.067 18.04,16.329 0.714,0.31 1.445,0.627 2.189,0.954 7.708,3.383 18.021,5.127 27.996,6.815 4.403,0.744 8.957,1.514 13.248,2.417 11.916,2.508 15.72,7.599 16.615,9.121 C 5.74,-0.275 4.633,-0.384 3.892,-0.384 2.226,-0.384 0.518,-0.095 0,0 m -73.628,-40.087 c -0.981,0 -2.188,0.813 -3.741,2.509 -1.423,1.557 -2.023,3.862 -1.643,6.327 0.512,3.324 2.992,8.367 11.902,13.517 11.472,6.632 28.294,9.223 41.811,11.305 11.746,1.809 21.89,3.372 24.988,6.912 l 0.106,0.121 0.157,-0.032 c 0.021,-0.004 2.044,-0.403 3.94,-0.403 1.046,0 2.928,0.238 2.948,0.24 L 7.305,0.467 7.132,0.032 c -0.111,-0.28 -2.879,-6.874 -17.244,-9.899 -4.303,-0.904 -8.862,-1.675 -13.271,-2.421 -9.941,-1.681 -20.22,-3.419 -27.866,-6.774 -0.745,-0.328 -1.476,-0.645 -2.19,-0.957 -9.996,-4.344 -16.6,-7.215 -17.711,-15.892 -0.313,-2.436 -0.958,-3.776 -1.976,-4.099 -0.162,-0.051 -0.328,-0.077 -0.502,-0.077"
             style="fill:#000000;fill-opacity:1;fill-rule:nonzero;stroke:none"
             id="path270" /></g><g
           id="g272"
           transform="translate(170.6597,803.5921)"><path
             d="m 0,0 c -0.23,0 -0.452,-0.1 -0.612,-0.281 -2.966,-3.39 -13.024,-4.939 -24.668,-6.735 -13.558,-2.087 -30.433,-4.688 -41.991,-11.367 -9.176,-5.306 -11.699,-10.568 -12.202,-14.051 -0.377,-2.614 0.284,-5.073 1.812,-6.743 1.677,-1.832 2.993,-2.685 4.14,-2.685 2.42,0 2.872,3.531 3.02,4.692 1.068,8.332 7.428,11.433 17.245,15.697 0.715,0.313 1.368,0.613 2.116,0.941 7.584,3.329 18.028,4.796 27.935,6.471 4.418,0.748 8.984,1.519 13.3,2.428 14.65,3.084 17.532,9.96 17.648,10.251 0.115,0.287 0.075,0.617 -0.104,0.866 -0.158,0.221 -0.404,0.348 -0.663,0.348 -0.033,0 -0.066,-0.003 -0.1,-0.005 -0.018,-0.004 -1.87,-0.235 -2.882,-0.235 -1.843,0 -3.822,0.388 -3.842,0.392 C 0.102,-0.004 0.051,0 0,0 m 0,-0.877 c 0,0 2.044,-0.408 3.994,-0.408 1.077,0 2.982,0.242 2.982,0.242 0,0 -2.659,-6.704 -17.043,-9.73 -14.05,-2.956 -30.469,-3.978 -41.528,-8.831 -11.057,-4.853 -18.516,-7.978 -19.728,-17.449 -0.35,-2.716 -1.092,-3.934 -2.198,-3.934 -0.93,0 -2.117,0.862 -3.542,2.419 -2.913,3.184 -3.44,11.536 10.193,19.416 C -45.566,-6.837 -6.83,-8.678 0,-0.877"
             style="fill:#ffffff;fill-opacity:1;fill-rule:nonzero;stroke:none"
             id="path274" /></g><g
           id="g276"
           transform="translate(170.8398,802.5057)"><path
             d="m 0,0 c -3.527,-3.485 -13.598,-5.082 -25.209,-6.923 -14.219,-2.256 -30.336,-4.812 -41.702,-11.383 -8.72,-5.039 -11.139,-9.917 -11.632,-13.12 -0.35,-2.263 0.213,-4.457 1.505,-5.868 1.413,-1.546 2.537,-2.33 3.337,-2.33 0.592,0 1.434,0.383 1.924,3.697 0.251,1.703 0.897,3.674 1.77,5.408 1.675,3.329 4.683,5.515 7.117,7.048 0.7,0.442 1.429,0.878 2.168,1.296 0.758,0.432 1.541,0.855 2.326,1.258 0.793,0.406 1.602,0.803 2.4,1.177 2.854,1.338 5.916,2.343 8.799,3.228 2.815,0.865 5.821,1.759 8.886,2.364 0.916,0.179 1.833,0.352 2.752,0.516 2.923,0.524 5.904,0.981 8.787,1.424 l 2.227,0.342 c 2.152,0.33 4.303,0.66 6.451,1.016 3.07,0.506 5.545,0.962 7.789,1.434 11.917,2.506 15.72,7.6 16.615,9.123 C 5.662,-0.366 4.555,-0.476 3.814,-0.476 2.291,-0.476 0.684,-0.155 0,0 m -73.701,-40.178 c -0.99,0 -2.18,0.797 -3.746,2.51 -1.424,1.556 -2.023,3.863 -1.643,6.327 0.511,3.323 2.992,8.366 11.902,13.515 11.455,6.622 27.625,9.186 41.893,11.449 11.74,1.863 21.893,3.473 25.088,6.959 l 0.009,0.035 c 0,0 0.007,-0.003 0.017,-0.005 0.017,0.019 0.035,0.038 0.051,0.057 L -0.021,0.573 C 0.528,0.446 2.243,0.078 3.814,0.078 c 1.047,0 2.928,0.238 2.948,0.24 L 7.227,0.377 7.054,-0.059 C 6.943,-0.338 4.175,-6.936 -10.19,-9.958 c -2.253,-0.473 -4.736,-0.931 -7.813,-1.439 -2.151,-0.355 -4.305,-0.685 -6.457,-1.016 l -2.227,-0.342 c -2.88,-0.442 -5.858,-0.9 -8.775,-1.422 -0.914,-0.165 -1.829,-0.335 -2.742,-0.514 -3.04,-0.6 -6.029,-1.49 -8.831,-2.351 -2.863,-0.879 -5.903,-1.876 -8.725,-3.2 -0.795,-0.37 -1.595,-0.764 -2.383,-1.169 -0.778,-0.399 -1.554,-0.818 -2.306,-1.246 -0.732,-0.414 -1.453,-0.846 -2.146,-1.283 -2.373,-1.495 -5.303,-3.622 -6.917,-6.828 -0.847,-1.683 -1.474,-3.593 -1.717,-5.239 -0.427,-2.885 -1.189,-4.171 -2.472,-4.171 m 73.52,40.987 c -0.153,0 -0.296,-0.067 -0.403,-0.187 -3.029,-3.461 -13.118,-5.018 -24.798,-6.82 -13.568,-2.088 -30.41,-4.68 -41.931,-11.339 -9.079,-5.249 -11.573,-10.428 -12.067,-13.85 -0.365,-2.532 0.271,-4.907 1.744,-6.517 1.62,-1.771 2.87,-2.595 3.935,-2.595 2.178,0 2.605,3.35 2.745,4.45 0.982,7.663 6.729,10.547 14.682,14.54 0.875,0.438 1.779,0.892 2.711,1.369 4.603,2.355 14.458,4.788 30.132,7.438 l 0.19,0.033 c 4.35,0.737 8.849,1.5 13.098,2.394 C 4.374,-7.221 7.192,-0.48 7.305,-0.195 7.385,0.006 7.358,0.237 7.234,0.408 7.127,0.557 6.968,0.642 6.796,0.642 L 6.713,0.638 C 6.685,0.621 4.768,0.401 3.814,0.401 1.933,0.401 -0.069,0.796 -0.088,0.8 -0.113,0.806 -0.145,0.809 -0.181,0.809 m -73.52,-41.862 c -1.231,0 -2.612,0.882 -4.344,2.775 -1.585,1.733 -2.271,4.274 -1.883,6.97 0.512,3.543 3.067,8.89 12.339,14.251 11.61,6.71 28.509,9.31 42.087,11.401 11.609,1.791 21.606,3.333 24.501,6.644 0.262,0.296 0.686,0.427 1.031,0.353 0.018,-0.003 1.975,-0.386 3.784,-0.386 0.96,0 2.732,0.216 2.835,0.232 0.068,0.006 0.108,0.008 0.147,0.008 0.349,0 0.681,-0.174 0.889,-0.464 0.232,-0.322 0.284,-0.756 0.135,-1.13 -0.117,-0.295 -3.046,-7.303 -17.848,-10.419 -4.26,-0.896 -8.765,-1.659 -13.121,-2.398 l -0.188,-0.031 c -15.619,-2.642 -25.422,-5.057 -29.974,-7.386 -0.933,-0.477 -1.838,-0.932 -2.714,-1.372 -8.092,-4.06 -13.437,-6.745 -14.381,-14.114 -0.156,-1.22 -0.63,-4.934 -3.295,-4.934"
             style="fill:#000000;fill-opacity:1;fill-rule:nonzero;stroke:none"
             id="path278" /></g><g
           id="g280"
           transform="translate(114.3887,749.5818)"><path
             d="m 0,0 c -3.12,0.093 -6.877,1.77 -6.562,5.49 0.314,3.719 -0.23,5.804 -0.559,8.828 -0.325,3.026 -0.529,5.503 1.782,7.38 3.522,2.862 8.755,4.14 13.95,3.781 5.193,-0.358 7.918,-4.728 6.175,-6.52 C 13.042,17.165 5.939,18.55 3.633,16.806 0.48,14.427 1.734,10.594 4.732,11.283 7.729,11.972 10.975,13.678 11.516,12.77 13.068,10.155 10.264,8.948 7.783,8.611 5.304,8.274 3.425,7.754 3.75,5.299 4.079,2.847 4.75,-0.14 0,0"
             style="fill:#1f6870;fill-opacity:1;fill-rule:nonzero;stroke:none"
             id="path282" /></g><g
           id="g284"
           transform="translate(114.397,749.8587)"><path
             d="m 0,0 c 1.542,-0.049 2.573,0.238 3.136,0.866 0.783,0.873 0.581,2.33 0.385,3.739 l -0.053,0.38 c -0.366,2.76 1.908,3.304 4.269,3.624 1.948,0.265 3.366,0.95 3.793,1.834 0.26,0.537 0.172,1.18 -0.26,1.908 C 11.035,12.748 9.334,12.166 7.967,11.7 6.981,11.365 5.864,10.985 4.786,10.736 c -1.333,-0.302 -2.49,0.2 -3.012,1.322 -0.569,1.219 -0.284,3.207 1.684,4.692 1.209,0.914 3.576,1.014 5.866,1.11 2.188,0.092 4.449,0.187 5.255,1.015 0.492,0.505 0.581,1.297 0.247,2.171 -0.652,1.707 -2.884,3.649 -6.243,3.88 -5.299,0.353 -10.439,-1.025 -13.756,-3.721 -2.251,-1.828 -1.987,-4.287 -1.68,-7.135 0.078,-0.728 0.17,-1.401 0.26,-2.056 C -6.316,9.97 -6.054,8.041 -6.295,5.189 -6.396,3.997 -6.061,2.96 -5.302,2.108 -3.983,0.63 -1.7,0.051 0,0 m 0.307,-0.558 c -0.106,0 -0.214,0.001 -0.325,0.004 -1.813,0.054 -4.261,0.685 -5.697,2.294 -0.866,0.971 -1.246,2.147 -1.132,3.496 0.236,2.79 -0.022,4.691 -0.296,6.703 -0.09,0.66 -0.182,1.338 -0.262,2.072 -0.309,2.884 -0.602,5.606 1.884,7.625 3.473,2.824 8.625,4.227 14.144,3.842 3.599,-0.248 6.007,-2.369 6.72,-4.234 0.416,-1.084 0.282,-2.089 -0.367,-2.755 C 14.018,17.503 11.75,17.408 9.348,17.307 7.143,17.213 4.863,17.118 3.792,16.308 2.069,15.008 1.799,13.315 2.276,12.292 c 0.412,-0.885 1.307,-1.265 2.386,-1.016 1.05,0.242 2.153,0.618 3.126,0.949 2.028,0.69 3.495,1.187 3.957,0.41 0.534,-0.898 0.629,-1.717 0.284,-2.433 C 11.295,8.685 8.835,8.199 7.811,8.06 5.08,7.69 3.744,7.123 4.018,5.059 L 4.069,4.681 C 4.272,3.219 4.503,1.561 3.549,0.497 2.913,-0.212 1.851,-0.558 0.307,-0.558"
             style="fill:#000000;fill-opacity:1;fill-rule:nonzero;stroke:none"
             id="path286" /></g><g
           id="g288"
           transform="translate(121.2891,775.6409)"><path
             d="m 0,0 c -5.056,0 -9.772,-1.478 -12.942,-4.052 -2.559,-2.078 -2.263,-4.819 -1.948,-7.72 0.077,-0.736 0.171,-1.418 0.262,-2.079 0.283,-2.098 0.529,-3.908 0.294,-6.692 -0.199,-2.364 1.161,-3.784 2.337,-4.562 1.336,-0.882 3.18,-1.42 5.054,-1.475 0.122,-0.003 0.241,-0.004 0.359,-0.004 1.376,0 2.461,0.25 3.223,0.746 1.644,1.066 1.374,3.017 1.134,4.738 l -0.053,0.382 c -0.281,2.109 1.146,2.461 3.357,2.762 1.902,0.257 3.444,0.893 4.226,1.744 0.796,0.864 0.843,1.905 0.135,3.097 -0.23,0.386 -0.761,0.607 -1.457,0.607 -0.902,0 -2.016,-0.379 -3.427,-0.86 -0.953,-0.325 -2.032,-0.691 -3.035,-0.921 -0.136,-0.031 -0.262,-0.049 -0.377,-0.049 -0.443,0 -0.753,0.268 -0.935,0.492 -0.811,1.001 -0.581,2.917 1.21,4.271 0.901,0.68 3.03,0.771 5.088,0.857 2.469,0.105 5.02,0.211 6.133,1.356 1.01,1.037 0.806,2.787 -0.51,4.354 C 6.708,-1.316 4.404,-0.241 1.81,-0.062 1.209,-0.02 0.6,0 0,0"
             style="fill:#ffffff;fill-opacity:1;fill-rule:nonzero;stroke:none"
             id="path290" /></g><g
           id="g292"
           transform="translate(121.2798,774.4344)"><path
             d="m 0,0 c -4.76,0 -8.841,-1.271 -11.803,-3.677 -2.279,-1.85 -2.239,-3.997 -1.933,-6.825 0.079,-0.73 0.17,-1.405 0.26,-2.06 0.277,-2.043 0.538,-3.972 0.298,-6.825 -0.079,-0.933 0.205,-1.774 0.842,-2.499 1.4,-1.593 4.145,-2.23 5.183,-2.276 1.396,-0.057 2.425,0.25 3.046,0.929 0.682,0.745 0.916,1.97 0.693,3.642 -0.395,2.96 2.252,3.668 4.277,3.943 1.901,0.258 3.13,0.79 3.552,1.538 0.235,0.419 0.226,0.911 -0.031,1.504 -0.021,0.035 -0.19,0.123 -0.472,0.123 -0.565,0 -2.073,-0.452 -3.531,-0.891 -1.575,-0.472 -3.063,-0.918 -3.759,-0.936 -0.93,-0.005 -1.599,0.488 -1.92,1.404 -0.547,1.561 0.114,4.192 2.136,5.719 1.221,0.921 3.501,0.912 5.722,0.902 2.075,-0.007 4.228,-0.018 5.024,0.801 0.51,0.524 0.37,1.205 0.165,1.683 -0.81,1.882 -3.868,3.802 -7.614,3.802 -0.043,0 -0.087,0 -0.132,-0.001 z m -6.812,-24.723 c -0.12,0 -0.242,0.002 -0.365,0.008 -1.159,0.051 -4.044,0.721 -5.575,2.464 -0.74,0.842 -1.069,1.821 -0.977,2.912 0.234,2.791 -0.011,4.603 -0.297,6.702 -0.09,0.661 -0.182,1.34 -0.262,2.074 -0.313,2.909 -0.356,5.294 2.137,7.317 3.09,2.511 7.333,3.823 12.293,3.801 4.118,0 7.248,-2.118 8.115,-4.137 C 8.642,-4.478 8.545,-5.291 7.982,-5.869 7.02,-6.858 4.854,-6.853 2.557,-6.838 c -2.113,0.015 -4.314,0.019 -5.386,-0.79 -1.821,-1.377 -2.429,-3.717 -1.947,-5.095 0.17,-0.484 0.582,-1.058 1.382,-1.033 0.624,0.016 2.144,0.472 3.616,0.914 1.565,0.469 3.044,0.913 3.69,0.913 0.38,0 0.837,-0.12 0.981,-0.458 0.325,-0.752 0.326,-1.424 0.004,-1.996 -0.518,-0.917 -1.85,-1.527 -3.96,-1.815 -2.922,-0.396 -4.059,-1.389 -3.801,-3.32 0.244,-1.841 -0.036,-3.217 -0.834,-4.089 -0.68,-0.742 -1.726,-1.116 -3.114,-1.116 M 0.009,0.929 c -4.991,0 -9.645,-1.453 -12.768,-3.99 -2.442,-1.983 -2.153,-4.65 -1.846,-7.475 0.076,-0.734 0.169,-1.414 0.26,-2.07 0.287,-2.114 0.533,-3.939 0.297,-6.755 -0.189,-2.225 1.1,-3.57 2.213,-4.306 1.293,-0.854 3.083,-1.375 4.91,-1.43 l 0.35,-0.005 c 1.323,0 2.356,0.236 3.072,0.703 1.498,0.97 1.25,2.748 1.011,4.468 l -0.053,0.381 c -0.339,2.54 1.751,2.824 3.593,3.075 1.842,0.249 3.321,0.853 4.061,1.657 0.712,0.774 0.745,1.68 0.101,2.769 -0.177,0.294 -0.633,0.47 -1.219,0.47 -0.858,0 -1.953,-0.372 -3.34,-0.843 -0.848,-0.291 -2.012,-0.689 -3.061,-0.93 -0.823,-0.193 -1.316,0.202 -1.589,0.538 -0.401,0.497 -0.575,1.17 -0.486,1.897 0.126,1.03 0.746,2.015 1.743,2.77 0.972,0.733 3.144,0.824 5.245,0.913 2.423,0.102 4.913,0.208 5.944,1.272 0.908,0.931 0.698,2.531 -0.522,3.982 C 6.553,-0.344 4.322,0.693 1.8,0.869 1.225,0.909 0.622,0.929 0.009,0.929 m -6.584,-26.584 -0.355,0.004 c -1.938,0.058 -3.833,0.612 -5.21,1.521 -1.239,0.82 -2.671,2.32 -2.46,4.817 0.232,2.754 -0.012,4.551 -0.295,6.632 -0.09,0.662 -0.183,1.347 -0.261,2.086 -0.323,2.979 -0.628,5.791 2.049,7.965 3.219,2.614 8,4.113 13.116,4.113 0.625,0 1.241,-0.02 1.83,-0.063 2.67,-0.183 5.043,-1.293 6.51,-3.045 1.413,-1.68 1.612,-3.578 0.495,-4.724 C 7.659,-7.57 5.058,-7.68 2.543,-7.787 0.605,-7.868 -1.574,-7.96 -2.408,-8.589 c -0.877,-0.664 -1.419,-1.514 -1.527,-2.395 -0.07,-0.577 0.06,-1.103 0.367,-1.482 0.182,-0.226 0.477,-0.476 1.034,-0.347 1.022,0.235 2.17,0.627 3.007,0.914 1.435,0.489 2.568,0.874 3.518,0.874 0.795,0 1.412,-0.27 1.695,-0.742 0.765,-1.291 0.705,-2.475 -0.17,-3.426 -0.826,-0.898 -2.427,-1.565 -4.393,-1.831 -2.301,-0.313 -3.358,-0.657 -3.119,-2.452 l 0.053,-0.379 c 0.238,-1.713 0.535,-3.847 -1.259,-5.01 -0.806,-0.524 -1.942,-0.79 -3.373,-0.79"
             style="fill:#000000;fill-opacity:1;fill-rule:nonzero;stroke:none"
             id="path294" /></g><g
           id="g296"
           transform="translate(165.6509,749.553)"><path
             d="m 0,0 c -5.193,0 -11.214,1.032 -11.248,6.506 -0.033,5.473 -1.404,12.989 -0.824,15.555 0.583,2.565 3.58,3.591 5.776,3.526 2.193,-0.064 8.281,-1.378 5.773,-9.654 C -1.62,12.309 -4.085,7.913 -2.896,6.792 -1.223,5.222 3.85,5.819 5.76,6.526 7.669,7.233 9.967,6.89 10.565,5.286 11.161,3.682 10.605,0 0,0"
             style="fill:#ffffff;fill-opacity:1;fill-rule:nonzero;stroke:none"
             id="path298" /></g><g
           id="g300"
           transform="translate(159.1699,774.866)"><path
             d="m 0,0 c -1.901,0 -4.764,-0.861 -5.32,-3.314 -0.318,-1.402 -0.02,-4.469 0.294,-7.715 0.256,-2.643 0.522,-5.375 0.537,-7.776 0.025,-4.135 3.716,-6.232 10.969,-6.232 6.708,0 9.138,1.469 9.995,2.702 0.666,0.959 0.44,1.865 0.311,2.211 -0.55,1.477 -2.736,1.708 -4.449,1.078 -1.845,-0.683 -7.11,-1.395 -8.941,0.322 -0.957,0.904 -0.033,3.251 1.038,5.97 0.453,1.15 0.921,2.34 1.259,3.453 0.897,2.959 0.761,5.279 -0.402,6.896 C 3.717,-0.215 0.755,-0.02 0.176,-0.002 0.119,0 0.061,0 0,0 m 6.48,-25.59 c -7.619,0 -11.496,2.281 -11.523,6.781 -0.014,2.375 -0.278,5.096 -0.533,7.726 -0.334,3.435 -0.621,6.402 -0.285,7.892 0.649,2.856 3.996,3.826 6.053,3.743 0.625,-0.019 3.822,-0.233 5.549,-2.633 1.269,-1.764 1.431,-4.247 0.482,-7.38 -0.344,-1.136 -0.817,-2.336 -1.274,-3.497 -0.913,-2.319 -1.857,-4.716 -1.173,-5.362 1.571,-1.473 6.584,-0.867 8.369,-0.207 1.963,0.727 4.491,0.394 5.161,-1.404 0.159,-0.427 0.439,-1.547 -0.377,-2.72 -0.932,-1.342 -3.501,-2.939 -10.449,-2.939"
             style="fill:#000000;fill-opacity:1;fill-rule:nonzero;stroke:none"
             id="path302" /></g><g
           id="g304"
           transform="translate(159.1592,775.6409)"><path
             d="m 0,0 c -2.596,0 -5.671,-1.236 -6.287,-3.95 -0.341,-1.502 -0.051,-4.475 0.281,-7.918 0.255,-2.627 0.519,-5.345 0.534,-7.716 0.02,-3.195 2.111,-7 11.963,-7 5.02,0 8.459,0.801 10.224,2.381 1.633,1.462 1.203,3.068 1.035,3.527 -0.45,1.207 -1.823,1.96 -3.58,1.96 -0.755,0 -1.535,-0.141 -2.255,-0.407 -0.895,-0.33 -2.71,-0.667 -4.442,-0.667 -1.587,0 -2.759,0.281 -3.299,0.791 -0.616,0.578 0.401,3.164 1.221,5.239 0.456,1.163 0.93,2.364 1.276,3.505 C 7.807,-6.5 7.36,-3.682 5.341,-1.881 3.485,-0.224 0.955,-0.024 0.226,-0.002 0.151,0 0.076,0 0,0 m 0.891,-4.667 c 0.066,0 -0.688,1.009 -0.623,1.007 2.192,-0.062 5.865,2.179 3.357,-6.096 -1.097,-3.627 -2.68,-8.885 -1.488,-10.004 0.775,-0.731 2.254,-2.631 3.842,-2.631 1.828,0 5.208,0.42 6.231,0.796 0.623,0.231 1.166,0.621 1.8,0.623 1.309,0 0.912,0.493 1.315,-0.588 0.596,-1.604 1.951,-3.877 -8.654,-3.877 -5.192,0 -9.001,0.757 -9.034,6.231 -0.048,7.272 0.028,9.451 1.038,13.915 0.565,2.491 -0.579,1.631 1.593,1.631"
             style="fill:#ffffff;fill-opacity:1;fill-rule:nonzero;stroke:none"
             id="path306" /></g><g
           id="g308"
           transform="translate(158.9761,774.0882)"><path
             d="m 0,0 c -2.235,-0.051 -4.386,-1.645 -4.679,-2.935 -0.316,-1.394 -0.029,-4.259 0.273,-7.293 0.24,-2.412 0.514,-5.147 0.529,-7.562 0.01,-1.522 0.491,-2.754 1.433,-3.665 1.628,-1.574 4.666,-2.281 9.291,-2.152 6.685,0.183 8.945,1.492 9.665,2.558 0.419,0.621 0.334,1.215 0.19,1.603 -0.342,0.919 -1.671,0.996 -2.89,0.996 -0.587,-0.002 -0.968,-0.073 -1.565,-0.294 -0.791,-0.291 -2.431,-0.779 -4.528,-0.779 -1.462,0 -3.934,0.481 -4.595,1.512 -0.697,1.092 0.184,3.493 1.204,6.273 0.394,1.073 0.802,2.184 1.119,3.234 0.861,2.839 0.777,5.003 -0.251,6.429 C 4.243,-0.751 2.542,-0.072 0,0 m 5.787,-24.177 c -4.232,0 -6.985,0.747 -8.617,2.324 -1.051,1.018 -1.591,2.383 -1.601,4.059 -0.015,2.389 -0.286,5.111 -0.527,7.512 -0.32,3.213 -0.598,5.988 -0.262,7.469 0.344,1.514 2.697,3.313 5.215,3.367 H 0.008 C 2.739,0.477 4.583,-0.277 5.645,-1.75 6.778,-3.325 6.89,-5.651 5.977,-8.665 5.655,-9.729 5.245,-10.848 4.849,-11.929 c -0.89,-2.42 -1.808,-4.923 -1.257,-5.783 0.473,-0.741 2.555,-1.257 4.127,-1.257 2.011,0 3.58,0.466 4.336,0.744 0.658,0.244 1.101,0.327 1.756,0.329 1.016,0 2.905,0 3.411,-1.357 0.189,-0.51 0.299,-1.29 -0.251,-2.106 -1.153,-1.707 -4.554,-2.65 -10.109,-2.803 -0.368,-0.009 -0.727,-0.015 -1.075,-0.015 M 0.183,1.275 c -2.49,0 -5.434,-1.168 -6.016,-3.733 -0.33,-1.449 -0.047,-4.375 0.28,-7.763 0.261,-2.695 0.525,-5.412 0.541,-7.808 0.028,-4.401 4.068,-6.726 11.686,-6.726 4.947,0 8.325,0.777 10.039,2.311 1.509,1.351 1.338,2.971 1.155,3.308 -1.384,2.564 -3.908,1.913 -6.579,1.224 -1.242,-0.32 -2.511,-0.657 -3.646,-0.603 -1.856,0.084 -2.929,0.352 -3.476,0.868 -0.702,0.657 0.035,2.711 1.153,5.542 l 0.032,0.079 c 0.443,1.131 0.902,2.299 1.237,3.403 1.102,3.644 0.682,6.365 -1.248,8.088 C 3.554,1.061 1.108,1.253 0.4,1.273 Z m 6.491,-26.584 c -10.079,0 -12.219,3.957 -12.239,7.276 -0.017,2.372 -0.279,5.076 -0.534,7.691 -0.337,3.504 -0.624,6.469 -0.276,8.007 0.65,2.861 3.855,4.165 6.558,4.165 L 0.417,1.827 C 1.172,1.805 3.782,1.598 5.708,-0.122 7.814,-2.001 8.29,-4.915 7.119,-8.782 6.777,-9.909 6.314,-11.087 5.866,-12.229 l -0.031,-0.08 c -0.619,-1.566 -1.771,-4.483 -1.288,-4.935 0.432,-0.407 1.453,-0.642 3.121,-0.717 1.043,-0.053 2.226,0.26 3.483,0.584 2.632,0.678 5.615,1.446 7.204,-1.495 0.277,-0.511 0.49,-2.407 -1.272,-3.985 -1.819,-1.627 -5.321,-2.452 -10.409,-2.452"
             style="fill:#000000;fill-opacity:1;fill-rule:nonzero;stroke:none"
             id="path310" /></g><g
           id="g312"
           transform="translate(142.7695,757.7972)"><path
             d="m 0,0 c -2.168,-0.532 -4.9,-1.085 -5.376,-0.17 -0.475,0.915 0.981,2.107 0.513,4.958 -0.232,1.413 -0.467,2.647 1.002,2.999 1.471,0.35 2.784,0.957 3.52,-0.671 C 0.713,4.788 2.169,0.532 0,0 M 9.059,1.693 C 8.591,6.024 6.164,9.83 3.757,14.52 1.352,19.21 -4.419,17.769 -6.785,15.334 -12.86,9.081 -13.04,0.288 -13.394,-4.754 c -0.359,-5.042 1.781,-5.587 4.32,-5.541 5.636,0.1 3.675,2.94 3.766,5.062 0.06,1.451 0.622,1.595 1.536,1.644 0.912,0.047 2.97,0.335 4.397,0.634 1.424,0.297 1.276,-1.66 1.247,-3.277 -0.029,-1.617 0.177,-3.425 4.247,-3.021 4.07,0.402 3.625,4.616 2.94,10.946"
             style="fill:#ffffff;fill-opacity:1;fill-rule:nonzero;stroke:none"
             id="path314" /></g><g
           id="g316"
           transform="translate(140.9297,766.0565)"><path
             d="M 0,0 C -0.381,0 -0.839,-0.111 -1.405,-0.26 -1.586,-0.307 -1.771,-0.356 -1.958,-0.4 -3.093,-0.673 -3.014,-1.48 -2.763,-3.002 l 0.014,-0.083 c 0.279,-1.706 -0.102,-2.84 -0.379,-3.667 -0.204,-0.607 -0.303,-0.937 -0.163,-1.209 0.286,-0.546 1.986,-0.441 5.065,0.312 0.334,0.081 0.569,0.271 0.718,0.578 C 3.081,-5.86 2.235,-3.098 1.247,-0.917 0.938,-0.232 0.551,0 0,0 m -2.112,-8.854 c -0.824,0 -1.43,0.176 -1.67,0.637 -0.256,0.494 -0.086,1.001 0.129,1.641 0.259,0.772 0.614,1.83 0.357,3.401 l -0.013,0.083 c -0.23,1.389 -0.466,2.825 1.222,3.231 0.184,0.043 0.365,0.09 0.541,0.137 1.259,0.332 2.557,0.675 3.297,-0.965 C 2.398,-2.116 3.814,-5.619 2.99,-7.313 2.768,-7.771 2.402,-8.065 1.906,-8.188 0.417,-8.552 -1.033,-8.854 -2.112,-8.854 m 2.786,18.14 c -2.239,0 -4.527,-1.123 -5.704,-2.335 -5.427,-5.587 -5.864,-13.127 -6.153,-18.116 -0.031,-0.537 -0.061,-1.048 -0.095,-1.527 -0.153,-2.142 0.14,-3.57 0.894,-4.365 0.767,-0.808 1.958,-0.909 3.144,-0.879 1.781,0.031 2.891,0.337 3.395,0.935 0.504,0.595 0.371,1.466 0.231,2.389 -0.075,0.489 -0.152,0.994 -0.131,1.473 0.069,1.679 0.854,1.858 1.797,1.909 0.844,0.042 2.887,0.32 4.357,0.628 0.407,0.083 0.75,0.019 1.011,-0.199 0.631,-0.525 0.604,-1.791 0.576,-3.017 l -0.007,-0.336 c -0.014,-0.767 0.021,-1.63 0.604,-2.167 0.589,-0.542 1.711,-0.736 3.339,-0.575 1.004,0.1 1.733,0.443 2.227,1.051 1.325,1.632 0.945,5.143 0.464,9.589 v 0.002 C 10.245,-2.756 8.576,0.383 6.642,4.019 6.219,4.814 5.784,5.63 5.35,6.475 4.557,8.021 3.259,8.97 1.596,9.219 1.292,9.264 0.983,9.286 0.674,9.286 m -8.177,-27.778 c -1.17,0 -2.432,0.157 -3.283,1.054 -0.866,0.914 -1.208,2.48 -1.044,4.785 0.034,0.477 0.063,0.986 0.094,1.52 0.293,5.071 0.738,12.735 6.308,18.469 1.472,1.515 4.392,2.841 7.106,2.43 C 3.525,9.49 4.965,8.44 5.843,6.729 6.275,5.886 6.709,5.072 7.131,4.278 c 1.961,-3.685 3.654,-6.869 4.043,-10.474 0.494,-4.574 0.885,-8.187 -0.586,-9.997 -0.592,-0.73 -1.442,-1.14 -2.602,-1.254 -1.817,-0.18 -3.049,0.056 -3.768,0.718 -0.752,0.693 -0.799,1.697 -0.782,2.584 l 0.007,0.339 c 0.022,0.992 0.049,2.225 -0.378,2.578 -0.128,0.108 -0.303,0.134 -0.544,0.083 -1.39,-0.291 -3.464,-0.59 -4.44,-0.639 -0.823,-0.044 -1.221,-0.12 -1.272,-1.378 -0.018,-0.426 0.054,-0.904 0.124,-1.367 0.153,-1.004 0.311,-2.042 -0.354,-2.831 -0.622,-0.736 -1.832,-1.096 -3.808,-1.13 -0.091,-0.001 -0.182,-0.002 -0.274,-0.002"
             style="fill:#000000;fill-opacity:1;fill-rule:nonzero;stroke:none"
             id="path318" /></g><g
           id="g320"
           transform="translate(138.8022,757.9901)"><path
             d="m 0,0 c -0.197,0 -0.667,0.016 -0.74,0.157 -0.127,0.244 -0.003,0.614 0.17,1.128 0.282,0.838 0.665,1.983 0.383,3.709 l -0.015,0.088 c -0.248,1.5 -0.27,2.176 0.534,2.369 0.19,0.044 0.379,0.095 0.563,0.144 0.463,0.121 0.899,0.237 1.218,0.237 0.166,0 0.51,-0.002 0.835,-0.725 C 4.497,3.687 4.836,0.902 3.737,0.631 2.632,0.361 1.041,0 0,0 m 2.8,18.14 c -2.71,0 -5.211,-1.325 -6.487,-2.639 -5.616,-5.78 -6.061,-13.469 -6.358,-18.558 -0.031,-0.536 -0.062,-1.046 -0.095,-1.522 -0.189,-2.668 0.284,-4.334 1.489,-5.242 0.99,-0.744 2.275,-0.839 3.283,-0.839 0.093,0 0.186,0 0.279,0.002 1.852,0.033 3.124,0.352 3.883,0.974 1.064,0.871 0.88,2.074 0.701,3.235 -0.071,0.481 -0.142,0.933 -0.124,1.349 0.046,1.106 0.272,1.119 0.877,1.15 1.012,0.053 3.135,0.357 4.544,0.651 0.022,0.005 0.04,0.007 0.051,0.009 0.341,-0.263 0.307,-1.737 0.29,-2.452 L 5.126,-6.077 c -0.018,-1.006 0.049,-2.14 1.077,-2.884 0.649,-0.472 1.595,-0.711 2.811,-0.711 0.361,0 0.756,0.02 1.17,0.062 4.743,0.472 4.269,4.854 3.553,11.489 C 13.348,5.503 11.65,8.693 9.686,12.389 9.262,13.184 8.828,13.999 8.394,14.843 6.923,17.712 4.258,18.14 2.8,18.14 M 0.799,-1.336 c 1.103,0 2.507,0.955 3.833,1.28 C 6.801,0.476 5.437,6.277 4.015,8.232 3.482,8.966 2.306,9.74 1.69,9.74 1.092,9.74 -0.043,9.29 -0.768,9.117 -2.236,8.765 -3.755,6.168 -2.083,4.929 0.311,3.155 -3.36,-0.79 -2.879,-1.717 c 0.186,-0.355 2.183,0.585 2.882,0.585 m 2.83,18.164 c 1.938,0 3.784,-0.206 4.892,-2.364 2.406,-4.692 4.834,-8.496 5.301,-12.827 0.685,-6.329 1.13,-10.543 -2.94,-10.946 -0.392,-0.038 -0.748,-0.058 -1.072,-0.058 -3.035,0 -3.201,1.618 -3.175,3.078 0.027,1.506 0.16,3.307 -0.974,3.307 -0.084,0 -0.175,-0.009 -0.273,-0.031 -1.426,-0.297 -3.485,-0.585 -4.397,-0.631 -0.913,-0.049 -1.476,-0.193 -1.536,-1.644 -0.091,-2.123 1.87,-4.963 -3.766,-5.065 -0.086,0 -0.175,-0.002 -0.261,-0.002 -2.422,0 -4.404,0.678 -4.059,5.545 0.355,5.043 2.031,12.382 8.106,18.639 1.278,1.314 1.881,2.999 4.154,2.999"
             style="fill:#ffffff;fill-opacity:1;fill-rule:nonzero;stroke:none"
             id="path322" /></g><g
           id="g324"
           transform="translate(140.9287,765.1956)"><path
             d="m 0,0 c -0.04,-0.021 -0.08,-0.026 -0.123,-0.026 -0.288,0 -0.45,-0.012 -0.9,-0.13 l -0.222,-0.062 c -0.191,-0.053 -0.416,-0.116 -0.547,-0.147 -0.179,-0.043 -0.219,-0.075 -0.224,-0.079 0.013,-0.016 0.069,-0.183 0.119,-0.331 0.095,-0.28 0.223,-0.664 0.315,-1.213 0.009,-0.145 0.145,-2.823 -0.149,-3.7 -0.097,-0.289 0.014,-0.44 0.062,-0.465 0.986,10e-4 1.529,0.134 2.606,0.398 0.219,0.053 0.344,0.158 0.431,0.338 0.177,0.365 0.424,1.582 -1.121,4.999 C 0.087,-0.064 0.008,-0.005 0,0 m -1.682,-6.707 c -0.178,0 -0.357,0.103 -0.481,0.274 -0.175,0.243 -0.208,0.579 -0.094,0.922 0.218,0.645 0.164,2.719 0.125,3.463 -0.08,0.475 -0.201,0.834 -0.29,1.096 -0.112,0.329 -0.192,0.567 -0.068,0.789 0.111,0.203 0.339,0.282 0.57,0.337 0.128,0.03 0.343,0.091 0.524,0.142 l 0.229,0.063 c 0.481,0.126 0.692,0.149 1.044,0.149 C 0.271,0.586 0.481,0.41 0.75,-0.189 1.582,-2.024 2.449,-4.463 1.867,-5.66 1.708,-5.985 1.446,-6.201 1.11,-6.284 -0.021,-6.56 -0.621,-6.707 -1.682,-6.707 m 1.669,7.566 c -0.413,0 -0.894,-0.127 -1.402,-0.26 C -1.592,0.551 -1.773,0.504 -1.957,0.46 -2.805,0.257 -2.784,-0.196 -2.505,-1.437 c 0.057,-0.255 0.116,-0.521 0.162,-0.794 0.274,-1.672 -0.002,-2.729 -0.203,-3.501 -0.152,-0.582 -0.225,-0.899 -0.075,-1.188 0.091,-0.171 0.092,-0.169 0.615,-0.169 l 0.185,0.001 c 0.89,0 1.692,0.204 2.706,0.46 l 0.621,0.156 c 0.357,0.086 0.602,0.277 0.749,0.581 0.45,0.925 0.031,2.825 -1.247,5.646 -0.393,0.867 -0.612,1.104 -1.021,1.104 m -2.115,-8.502 c -0.478,0 -0.756,0.033 -0.984,0.467 -0.256,0.492 -0.129,0.974 0.03,1.583 0.188,0.725 0.447,1.716 0.191,3.273 -0.042,0.261 -0.1,0.517 -0.154,0.762 -0.233,1.034 -0.496,2.208 0.959,2.558 0.18,0.042 0.357,0.089 0.53,0.135 0.544,0.142 1.058,0.278 1.543,0.278 0.813,0 1.159,-0.619 1.525,-1.428 C 2.88,-3.037 3.286,-5.038 2.754,-6.134 2.532,-6.588 2.157,-6.883 1.638,-7.011 L 1.021,-7.165 C -0.03,-7.432 -0.861,-7.642 -1.821,-7.642 L -2.003,-7.643 Z M 0.706,9.549 c -2.567,0 -4.226,-1.152 -5.166,-2.119 -5.705,-5.875 -6.215,-13.459 -6.551,-18.477 l -0.053,-0.768 c -0.143,-2.015 0.084,-3.313 0.694,-3.969 0.602,-0.645 1.532,-0.696 2.882,-0.697 1.928,0.034 3.075,0.315 3.531,0.859 0.385,0.46 0.278,1.124 0.155,1.893 -0.074,0.461 -0.151,0.938 -0.13,1.426 0.057,1.392 0.698,2.102 1.958,2.169 0.895,0.046 2.996,0.355 4.414,0.65 0.064,0.029 0.128,0.029 0.164,0.029 0.325,0 0.605,-0.117 0.834,-0.35 0.504,-0.512 0.725,-1.553 0.695,-3.276 -0.015,-0.844 0.011,-1.583 0.499,-2.08 0.43,-0.437 1.183,-0.65 2.305,-0.65 0.175,0 0.361,0.04 0.576,0.088 0.133,0.028 0.272,0.058 0.419,0.082 3.088,0.485 3.277,3.419 2.537,10.254 C 10.096,-1.928 8.452,1.15 6.546,4.714 6.102,5.546 5.646,6.399 5.19,7.288 4.118,9.376 2.458,9.549 0.706,9.549 m -8.144,-26.584 c -1.253,0 -2.523,0 -3.337,0.874 -0.73,0.785 -0.997,2.178 -0.841,4.385 l 0.052,0.767 c 0.342,5.098 0.86,12.804 6.706,18.825 1.014,1.044 2.804,2.287 5.564,2.287 1.853,0 3.764,-0.198 4.977,-2.562 0.455,-0.885 0.909,-1.738 1.351,-2.565 1.932,-3.615 3.601,-6.738 3.987,-10.304 0.667,-6.171 0.818,-10.261 -3.002,-10.86 -0.137,-0.022 -0.265,-0.05 -0.389,-0.077 -0.235,-0.051 -0.457,-0.1 -0.693,-0.1 -1.279,0 -2.161,0.267 -2.7,0.816 -0.638,0.649 -0.675,1.543 -0.658,2.478 0.026,1.521 -0.153,2.489 -0.536,2.878 -0.119,0.121 -0.252,0.18 -0.42,0.185 -0.021,-0.008 -0.041,-0.013 -0.056,-0.015 -1.444,-0.301 -3.593,-0.617 -4.512,-0.665 -0.677,-0.036 -1.377,-0.258 -1.433,-1.638 -0.019,-0.432 0.053,-0.881 0.123,-1.315 0.133,-0.826 0.27,-1.682 -0.277,-2.336 -0.571,-0.682 -1.812,-1.018 -3.906,-1.058 m 8.112,27.692 c -2.629,0 -5.053,-1.283 -6.288,-2.554 -5.54,-5.702 -5.986,-13.326 -6.281,-18.371 -0.03,-0.548 -0.063,-1.059 -0.096,-1.536 -0.181,-2.566 0.257,-4.155 1.38,-5.002 0.924,-0.694 2.151,-0.783 3.116,-0.783 l 0.273,0.002 c 1.79,0.032 3.005,0.331 3.715,0.912 0.942,0.772 0.777,1.843 0.601,2.978 l -0.012,0.089 c -0.069,0.462 -0.133,0.898 -0.115,1.315 0.053,1.235 0.372,1.375 1.141,1.415 1.008,0.052 3.111,0.354 4.501,0.646 l 0.124,0.025 0.153,-0.07 c 0.381,-0.294 0.434,-1.243 0.397,-2.678 l -0.007,-0.333 c -0.017,-0.978 0.044,-1.989 0.963,-2.655 0.602,-0.436 1.492,-0.658 2.648,-0.658 0.366,0 0.75,0.021 1.143,0.061 1.263,0.125 2.164,0.541 2.756,1.269 1.429,1.76 1.042,5.354 0.551,9.903 C 10.951,-1.785 9.266,1.383 7.314,5.054 L 7.211,5.25 C 6.819,5.984 6.42,6.735 6.021,7.511 4.618,10.248 2.068,10.657 0.674,10.657 m -8.169,-28.8 c -1.051,0 -2.394,0.101 -3.449,0.894 -1.286,0.971 -1.795,2.713 -1.599,5.484 0.034,0.475 0.064,0.983 0.094,1.517 0.301,5.14 0.754,12.887 6.437,18.736 1.317,1.356 3.895,2.723 6.686,2.723 1.521,0 4.302,-0.448 5.84,-3.446 C 6.911,6.99 7.31,6.241 7.7,5.51 L 7.804,5.313 c 1.978,-3.72 3.686,-6.933 4.083,-10.61 0.525,-4.872 0.904,-8.385 -0.672,-10.324 -0.689,-0.849 -1.713,-1.33 -3.13,-1.471 -0.41,-0.041 -0.814,-0.062 -1.198,-0.062 -1.275,0 -2.276,0.257 -2.972,0.763 -1.23,0.89 -1.206,2.336 -1.192,3.113 l 0.006,0.336 c 0.037,1.413 -0.05,1.945 -0.13,2.141 -1.453,-0.292 -3.471,-0.579 -4.463,-0.631 -0.535,-0.027 -0.579,-0.029 -0.615,-0.885 -0.016,-0.364 0.044,-0.775 0.109,-1.21 l 0.012,-0.088 c 0.183,-1.178 0.389,-2.516 -0.799,-3.489 -0.809,-0.663 -2.135,-1.002 -4.053,-1.037 z"
             style="fill:#000000;fill-opacity:1;fill-rule:nonzero;stroke:none"
             id="path326" /></g><g
           id="g328"
           transform="translate(171.9043,777.6097)"><path
             d="m 0,0 c -1.36,0 -2.467,-1.105 -2.467,-2.466 0,-1.36 1.107,-2.467 2.467,-2.467 1.36,0 2.466,1.107 2.466,2.467 C 2.466,-1.105 1.36,0 0,0 m 0,-5.803 c -1.84,0 -3.337,1.497 -3.337,3.337 0,1.84 1.497,3.337 3.337,3.337 1.84,0 3.337,-1.497 3.337,-3.337 0,-1.84 -1.497,-3.337 -3.337,-3.337"
             style="fill:#000000;fill-opacity:1;fill-rule:nonzero;stroke:none"
             id="path330" /></g><g
           id="g332"
           transform="translate(171.9043,777.784)"><path
             d="m 0,0 c -1.456,0 -2.641,-1.184 -2.641,-2.64 0,-1.456 1.185,-2.641 2.641,-2.641 1.457,0 2.641,1.185 2.641,2.641 C 2.641,-1.184 1.457,0 0,0 m 0,-5.803 c -1.744,0 -3.163,1.419 -3.163,3.163 0,1.744 1.419,3.162 3.163,3.162 1.744,0 3.163,-1.418 3.163,-3.162 0,-1.744 -1.419,-3.163 -3.163,-3.163"
             style="fill:#000000;fill-opacity:1;fill-rule:nonzero;stroke:none"
             id="path334" /></g><g
           id="g336"
           transform="translate(171.9043,777.6097)"><path
             d="m 0,0 c -1.36,0 -2.467,-1.105 -2.467,-2.466 0,-1.36 1.107,-2.467 2.467,-2.467 1.36,0 2.466,1.107 2.466,2.467 C 2.466,-1.105 1.36,0 0,0 m 0,-5.803 c -1.84,0 -3.337,1.497 -3.337,3.337 0,1.84 1.497,3.337 3.337,3.337 1.84,0 3.337,-1.497 3.337,-3.337 0,-1.84 -1.497,-3.337 -3.337,-3.337"
             style="fill:#000000;fill-opacity:1;fill-rule:nonzero;stroke:none"
             id="path338" /></g><g
           id="g340"
           transform="translate(171.9043,777.784)"><path
             d="m 0,0 c -1.456,0 -2.641,-1.184 -2.641,-2.64 0,-1.456 1.185,-2.641 2.641,-2.641 1.457,0 2.641,1.185 2.641,2.641 C 2.641,-1.184 1.457,0 0,0 m 0,-5.803 c -1.744,0 -3.163,1.419 -3.163,3.163 0,1.744 1.419,3.162 3.163,3.162 1.744,0 3.163,-1.418 3.163,-3.162 0,-1.744 -1.419,-3.163 -3.163,-3.163"
             style="fill:#ffffff;fill-opacity:1;fill-rule:nonzero;stroke:none"
             id="path342" /></g><g
           id="g344"
           transform="translate(172.0703,773.4276)"><path
             d="M 0,0 C -0.243,0 -0.474,0.046 -0.685,0.136 -0.894,0.225 -1.076,0.348 -1.229,0.502 -1.38,0.655 -1.5,0.838 -1.586,1.044 c -0.086,0.207 -0.13,0.43 -0.13,0.661 0,0.243 0.043,0.465 0.13,0.674 0.086,0.209 0.206,0.394 0.357,0.547 0.15,0.156 0.334,0.281 0.544,0.37 0.209,0.09 0.443,0.136 0.696,0.136 0.304,0 0.564,-0.051 0.772,-0.15 C 0.987,3.184 1.168,3.047 1.322,2.876 L 1.429,2.758 0.682,1.954 0.554,2.087 C 0.47,2.174 0.382,2.244 0.295,2.295 0.222,2.338 0.124,2.36 0.005,2.36 -0.074,2.36 -0.146,2.345 -0.208,2.314 -0.275,2.282 -0.331,2.238 -0.379,2.182 -0.43,2.125 -0.469,2.057 -0.497,1.98 -0.525,1.901 -0.539,1.817 -0.539,1.728 c 0,-0.106 0.014,-0.192 0.042,-0.274 0.028,-0.078 0.067,-0.145 0.118,-0.202 0.051,-0.056 0.112,-0.1 0.181,-0.132 0.068,-0.031 0.148,-0.047 0.236,-0.047 0.112,0 0.205,0.02 0.283,0.064 0.093,0.05 0.184,0.117 0.279,0.204 L 0.724,1.455 1.449,0.721 1.339,0.599 C 1.183,0.427 1.002,0.284 0.802,0.174 0.592,0.059 0.322,0 0,0"
             style="fill:#000000;fill-opacity:1;fill-rule:nonzero;stroke:none"
             id="path346" /></g><g
           id="g348"
           transform="translate(172.7881,773.7542)"><path
             d="m 0,0 c -0.184,-0.102 -0.424,-0.152 -0.718,-0.152 -0.221,0 -0.427,0.041 -0.616,0.122 -0.19,0.08 -0.353,0.19 -0.489,0.328 C -1.959,0.437 -2.066,0.599 -2.144,0.785 -2.221,0.97 -2.26,1.168 -2.26,1.378 v 0.011 c 0,0.21 0.039,0.409 0.116,0.597 0.078,0.188 0.185,0.352 0.321,0.492 0.136,0.14 0.299,0.251 0.489,0.331 0.189,0.082 0.398,0.122 0.627,0.122 0.28,0 0.512,-0.044 0.696,-0.133 C 0.173,2.71 0.335,2.588 0.475,2.434 L -0.039,1.881 c -0.095,0.1 -0.194,0.179 -0.295,0.238 -0.102,0.059 -0.228,0.088 -0.378,0.088 -0.107,0 -0.204,-0.021 -0.291,-0.063 C -1.089,2.102 -1.165,2.043 -1.229,1.97 -1.293,1.896 -1.343,1.81 -1.378,1.713 -1.414,1.615 -1.431,1.511 -1.431,1.4 V 1.389 c 0,-0.114 0.017,-0.221 0.053,-0.32 0.035,-0.099 0.085,-0.186 0.151,-0.259 0.067,-0.074 0.146,-0.133 0.238,-0.175 0.092,-0.042 0.195,-0.063 0.309,-0.063 0.14,0 0.263,0.028 0.368,0.085 0.105,0.057 0.209,0.134 0.312,0.23 L 0.492,0.389 C 0.348,0.231 0.184,0.101 0,0"
             style="fill:#ffffff;fill-opacity:1;fill-rule:nonzero;stroke:none"
             id="path350" /></g><g
           id="g352"
           transform="translate(585.7734,788.4866)"><path
             d="m 0,0 c 0,-29.377 -23.815,-53.193 -53.193,-53.193 -29.378,0 -53.194,23.816 -53.194,53.193 0,29.378 23.816,53.193 53.194,53.193 C -23.815,53.193 0,29.378 0,0 Z"
             style="fill:none;stroke:#f8b271;stroke-width:3;stroke-linecap:butt;stroke-linejoin:miter;stroke-miterlimit:10;stroke-dasharray:none;stroke-opacity:1"
             id="path354" /></g></g></g></g></svg>
