<svg xmlns="http://www.w3.org/2000/svg" width="172.146" height="104.588" viewBox="0 0 172.146 104.588">
  <g id="Group_3" data-name="Group 3" transform="translate(-211.647 -368.546)" opacity="0.12">
    <path id="Path_1" data-name="Path 1" d="M219.91,377.682c8.908,1.931,19.973,3.82,33.3,6.692,21.6,4.654,18.566,14.932,4.454,31.162-11.693,13.442-33.482,35.457-39.344,40.844-9.612,8.832-7.6,16.264.469,16.264l21.884.165c6.8,0,10.629-2.27,12.835-6.8s8.529-17.078,8.529-17.078l22.281,16.562,42.881.045v-1.556s-29.763-13.441-43.56-23.784c-11.1-8.316-6.872-16.7-2.814-24.883,4.59-9.258,8.854-21.682-6.929-33.178-10.916-7.951-21.986-8.554-42.213-11.659l-9.524-1.52c-2.269-.384-5.425,1.258-6.078,3.231-.569,1.73.87,4.811,3.123,5.3Z" fill="#1f6870"/>
    <path id="Path_2" data-name="Path 2" d="M240.742,473.134H219.887c-4.149,0-6.958-1.482-7.911-4.17-1.244-3.5,1.065-8.184,6.5-13.178,5.566-5.114,27.337-27.123,39.2-40.767,8.451-9.718,11.848-16.761,10.38-21.529-1.219-3.969-6.058-6.891-14.382-8.683-7.338-1.579-14.4-2.948-20.069-4.048-4.761-.92-9.682-1.873-13.882-2.784a5.253,5.253,0,0,1-3.549-2.616,4.379,4.379,0,0,1-.353-3.472c.668-2.029,2.878-3.341,5.63-3.341a8.3,8.3,0,0,1,1.391.117l8,1.361c2.953.453,5.727.854,8.341,1.231,15.248,2.2,25.321,3.651,34.894,10.621,15.85,11.546,12.035,24.1,6.939,33.753-4.206,7.964-7.718,17.131,3.931,25.119,13.646,9.36,40.772,22.233,41.655,22.562a1.466,1.466,0,0,1,1,.693,1.406,1.406,0,0,1,.105,1.021.771.771,0,0,1-.21.457,1.856,1.856,0,0,1-1.394.429h-41.4a1.263,1.263,0,0,1-.756-.252l-21.807-16.235c-1.915,3.8-6.678,13.282-8.413,16.85C251.242,471.4,247.963,473.134,240.742,473.134ZM221.459,369.2c-2.466,0-4.434,1.135-5.013,2.894a3.744,3.744,0,0,0,.307,2.962,4.616,4.616,0,0,0,3.115,2.289c4.193.91,9.112,1.861,13.869,2.781,5.674,1.1,12.737,2.469,20.082,4.05,8.57,1.846,13.572,4.917,14.867,9.128,1.537,5-1.9,12.244-10.512,22.145-11.881,13.66-33.68,35.7-39.255,40.819-5.234,4.808-7.483,9.24-6.331,12.481.855,2.412,3.447,3.739,7.3,3.739h20.855c6.917,0,10.05-1.639,12.415-6.5,1.793-3.684,6.808-13.667,8.59-17.2l.174-.345,22.428,16.7a.616.616,0,0,0,.368.122h41.4c.752,0,.946-.213.955-.288l-.005-.067.023-.041a.773.773,0,0,0-.046-.553.886.886,0,0,0-.607-.377c-.134-.032-27.645-12.91-41.846-22.65-12.089-8.29-8.474-17.747-4.136-25.959,4.972-9.419,8.7-21.672-6.749-32.924-9.442-6.874-19.45-8.318-34.6-10.5-2.617-.378-5.4-.779-8.355-1.233l-8.008-1.363A7.744,7.744,0,0,0,221.459,369.2Zm-1.41,102.677c-3.48,0-5.845-1.124-6.662-3.166-1.167-2.918,1-7.3,5.948-12.01,6.112-5.825,27.859-27.866,39.323-40.865,9.089-10.3,12.509-17.574,10.765-22.873-1.442-4.382-6.486-7.447-15.421-9.373-7.17-1.544-13.884-2.912-19.807-4.12-5.048-1.027-9.816-2-13.932-2.891a4.167,4.167,0,0,1-2.844-1.82,2.815,2.815,0,0,1-.2-2.334c.552-1.675,1.912-2.488,4.161-2.488h.167c.4,0,7.69,1.18,9.147,1.416q2.58.4,4.991.758c17.578,2.656,28.187,4.258,37.587,10.9,11.542,8.152,13.642,18.573,6.417,31.857-4.455,8.193-7.967,18.7,4.514,27.254,14.034,9.624,40.945,22.025,41.216,22.148l1.348.62H284.608l-.088-.066L261.573,447.4c-1.114,2.185-7.173,14.082-9.159,18.162-2.339,4.8-4.955,6.192-11.661,6.192Zm1.333-101.291c-1.959,0-3.085.649-3.544,2.042a2.184,2.184,0,0,0,.145,1.809,3.542,3.542,0,0,0,2.417,1.507c4.112.891,8.879,1.862,13.925,2.891,5.925,1.206,12.64,2.575,19.814,4.121,9.18,1.978,14.38,5.184,15.9,9.8,1.825,5.54-1.638,13.01-10.893,23.5-11.476,13.011-33.245,35.075-39.362,40.9-4.746,4.522-6.858,8.642-5.794,11.3.712,1.778,2.862,2.757,6.057,2.757l20.705-.121c6.47,0,8.85-1.253,11.078-5.827,2.182-4.482,9.27-18.379,9.341-18.519l.176-.346,23.479,17.824h38.992c-5.627-2.638-27.7-13.163-39.981-21.584-13.054-8.952-8.944-20.324-4.717-28.1,7.038-12.944,5-23.089-6.222-31.018-9.272-6.549-19.825-8.143-37.307-10.785q-2.414-.363-5-.758c-3.447-.56-8.7-1.4-9.047-1.409Z" fill="#f8b271"/>
    <path id="Path_3" data-name="Path 3" d="M290.655,426.728c-.751,5.865-3.074,5.774-6.733,1.777-3.417-3.734-4.035-13.53,11.956-22.772,24.987-14.445,70.423-12.286,78.432-21.435a27.769,27.769,0,0,0,4.685.478c1.263,0,3.5-.283,3.5-.283s-3.118,7.86-19.989,11.412c-16.48,3.466-35.342,5.114-48.314,10.807s-22.113,8.908-23.534,20.016" fill="#1f6870"/>
    <path id="Path_4" data-name="Path 4" d="M288.07,431.669c-1.151,0-2.565-.954-4.387-2.944a8.877,8.877,0,0,1-1.928-7.419c.6-3.9,3.51-9.814,13.961-15.855,13.455-7.779,33.186-10.818,49.041-13.26,13.776-2.121,25.675-3.955,29.309-8.108l.124-.14.184.036a27.6,27.6,0,0,0,4.621.472c1.227,0,3.434-.278,3.457-.28L383,384.1l-.2.51c-.13.329-3.376,8.064-20.226,11.611-5.047,1.061-10.394,1.965-15.565,2.84-11.66,1.971-23.716,4.01-32.684,7.946q-1.311.576-2.569,1.122c-11.725,5.1-19.471,8.462-20.774,18.639-.367,2.858-1.124,4.43-2.318,4.809A1.933,1.933,0,0,1,288.07,431.669Zm86.36-47.018c-3.926,4.231-15.823,6.064-29.576,8.182-15.8,2.435-35.463,5.463-48.813,13.181-10.228,5.912-13.065,11.632-13.644,15.391a8.341,8.341,0,0,0,1.765,6.881c1.9,2.077,3.359,2.976,4.3,2.674.915-.291,1.544-1.728,1.87-4.273,1.35-10.543,9.66-14.154,21.16-19.153q1.256-.546,2.567-1.119c9.041-3.969,21.137-6.014,32.837-7.993,5.164-.873,10.505-1.776,15.539-2.836,13.977-2.941,18.438-8.913,19.487-10.7-.76.085-2.058.213-2.927.213A27.6,27.6,0,0,1,374.43,384.651Z" fill="#f8b271"/>
    <path id="Path_5" data-name="Path 5" d="M374.311,384.3a27.722,27.722,0,0,0,4.685.478c1.263,0,3.5-.284,3.5-.284s-3.119,7.863-19.99,11.413c-16.48,3.466-35.737,4.666-48.709,10.356s-21.718,9.358-23.139,20.467c-.411,3.186-1.281,4.615-2.578,4.615-1.091,0-2.484-1.011-4.155-2.838-3.417-3.734-4.035-13.53,11.956-22.773,24.987-14.445,70.421-12.285,78.432-21.434m0-1.03a.953.953,0,0,0-.717.33c-3.48,3.976-15.277,5.792-28.934,7.9-15.9,2.448-35.7,5.5-49.251,13.333-10.763,6.223-13.723,12.394-14.313,16.479a9.585,9.585,0,0,0,2.126,7.91c1.967,2.149,3.51,3.149,4.856,3.149,2.838,0,3.368-4.142,3.542-5.5,1.252-9.772,8.712-13.409,20.226-18.411.84-.367,1.6-.718,2.483-1.1,8.895-3.9,21.145-5.626,32.766-7.59,5.181-.878,10.536-1.783,15.6-2.848,17.184-3.617,20.564-11.683,20.7-12.023a1.065,1.065,0,0,0-.123-1.016.949.949,0,0,0-.776-.408c-.04,0-.078,0-.117.005-.021.005-2.194.276-3.381.276a27.025,27.025,0,0,1-4.506-.46.838.838,0,0,0-.179-.019" fill="#1f6870"/>
    <path id="Path_6" data-name="Path 6" d="M288.078,432.694c-1.444,0-3.063-1.034-5.1-3.254a9.913,9.913,0,0,1-2.207-8.176c.6-4.155,3.6-10.427,14.471-16.715,13.618-7.87,33.439-10.921,49.365-13.372,13.616-2.1,25.341-3.91,28.738-7.793a1.316,1.316,0,0,1,1.209-.415,26.824,26.824,0,0,0,4.438.453c1.127,0,3.2-.253,3.326-.271a1.6,1.6,0,0,1,.172-.01,1.29,1.29,0,0,1,1.042.544,1.4,1.4,0,0,1,.158,1.326c-.137.346-3.571,8.565-20.933,12.221-5,1.05-10.281,1.945-15.391,2.811l-.22.037c-18.319,3.1-29.818,5.932-35.156,8.663q-1.643.84-3.184,1.609c-9.491,4.763-15.76,7.911-16.868,16.555C291.76,428.339,291.2,432.694,288.078,432.694Zm86.232-49.1a.629.629,0,0,0-.473.219c-3.552,4.06-15.385,5.886-29.085,8-15.915,2.449-35.668,5.489-49.181,13.3-10.649,6.156-13.575,12.231-14.154,16.244A9.265,9.265,0,0,0,283.462,429c1.9,2.077,3.367,3.044,4.616,3.044,2.554,0,3.055-3.93,3.22-5.22,1.152-8.988,7.892-12.371,17.22-17.054q1.539-.771,3.179-1.606c5.4-2.762,16.959-5.616,35.344-8.724l.222-.038c5.1-.866,10.379-1.76,15.363-2.808,17.026-3.583,20.332-11.489,20.464-11.824a.745.745,0,0,0-.082-.707.63.63,0,0,0-.514-.274l-.1,0a33.781,33.781,0,0,1-3.4.278,27.191,27.191,0,0,1-4.576-.468A.5.5,0,0,0,374.31,383.594Zm-86.232,48.074c-1.161,0-2.557-.935-4.394-2.944a8.879,8.879,0,0,1-1.927-7.421c.6-3.9,3.509-9.813,13.96-15.852,13.435-7.768,32.4-10.775,49.136-13.429,13.77-2.185,25.679-4.073,29.427-8.162l.01-.041.02.006c.021-.022.041-.045.06-.068l.128.113a21.9,21.9,0,0,0,4.5.581c1.228,0,3.435-.279,3.458-.281l.545-.07-.2.511c-.129.329-3.376,8.067-20.226,11.612-2.642.555-5.554,1.091-9.164,1.688-2.522.416-5.048.8-7.573,1.191l-2.613.4c-3.377.519-6.87,1.056-10.291,1.668q-1.608.29-3.216.6a104.084,104.084,0,0,0-10.359,2.757,78.609,78.609,0,0,0-10.234,3.753c-.931.435-1.87.9-2.793,1.372s-1.824.959-2.7,1.461c-.859.486-1.706.993-2.518,1.505-2.783,1.754-6.221,4.248-8.112,8.009a21.2,21.2,0,0,0-2.015,6.144C290.477,430.159,289.582,431.668,288.078,431.668Zm86.444-47.125c-4.136,4.088-15.948,5.96-29.567,8.12-16.678,2.645-35.582,5.643-48.913,13.351-10.228,5.91-13.065,11.631-13.643,15.388a8.34,8.34,0,0,0,1.765,6.883c1.658,1.813,2.975,2.733,3.914,2.733.694,0,1.682-.449,2.257-4.337a21.865,21.865,0,0,1,2.076-6.342c1.965-3.9,5.492-6.468,8.347-8.268.821-.517,1.676-1.029,2.543-1.52.889-.506,1.808-1,2.729-1.474s1.878-.943,2.814-1.382a79.524,79.524,0,0,1,10.32-3.786,105.1,105.1,0,0,1,10.423-2.772q1.612-.316,3.228-.6c3.428-.614,6.925-1.151,10.306-1.671l2.613-.4c2.523-.387,5.047-.774,7.565-1.191,3.6-.594,6.5-1.128,9.137-1.683,13.977-2.938,18.438-8.913,19.487-10.7-.76.085-2.058.214-2.927.214A21.975,21.975,0,0,1,374.522,384.543Z" fill="#f8b271"/>
    <path id="Path_7" data-name="Path 7" d="M308.31,446.617c-3.658-.109-8.065-2.076-7.7-6.438s-.271-6.808-.655-10.355-.621-6.455,2.089-8.656c4.131-3.357,10.269-4.856,16.362-4.435s9.287,5.545,7.242,7.647-10.375.481-13.08,2.525c-3.7,2.791-2.227,7.287,1.288,6.479s7.323-2.809,7.957-1.744c1.822,3.066-1.468,4.482-4.378,4.877s-5.112,1.006-4.73,3.885,1.172,6.379-4.4,6.215" fill="#1f6870"/>
    <path id="Path_8" data-name="Path 8" d="M308.68,446.948c-.124,0-.251,0-.38-.005h0c-2.127-.064-5-.8-6.683-2.691a5.262,5.262,0,0,1-1.327-4.1,32.311,32.311,0,0,0-.348-7.862c-.1-.773-.213-1.569-.307-2.429-.363-3.383-.707-6.576,2.209-8.944,4.074-3.313,10.116-4.958,16.589-4.507,4.223.291,7.047,2.779,7.883,4.966a2.954,2.954,0,0,1-.431,3.232c-1.123,1.156-3.784,1.268-6.6,1.387-2.587.109-5.261.221-6.518,1.171-2.02,1.525-2.337,3.511-1.778,4.711a2.3,2.3,0,0,0,2.8,1.191c1.232-.284,2.525-.724,3.667-1.112,2.379-.81,4.1-1.394,4.641-.481a2.924,2.924,0,0,1,.333,2.853c-.861,1.779-3.746,2.349-4.947,2.512-3.2.434-4.771,1.1-4.45,3.52l.061.444c.239,1.714.509,3.659-.61,4.908C311.737,446.542,310.491,446.948,308.68,446.948Zm-.36-.655c1.808.057,3.018-.279,3.678-1.016.919-1.024.681-2.733.452-4.385l-.062-.447c-.429-3.236,2.238-3.875,5.007-4.25,2.284-.31,3.948-1.114,4.449-2.151a2.319,2.319,0,0,0-.306-2.238c-.275-.466-2.27.217-3.874.764-1.155.393-2.466.839-3.731,1.13a2.95,2.95,0,0,1-3.532-1.55c-.668-1.43-.333-3.762,1.975-5.5,1.419-1.072,4.2-1.19,6.881-1.3,2.565-.108,5.218-.219,6.162-1.19a2.335,2.335,0,0,0,.291-2.546c-.765-2-3.383-4.28-7.322-4.552-6.216-.413-12.245,1.2-16.135,4.365-2.641,2.144-2.331,5.028-1.971,8.369.091.854.2,1.643.3,2.412a32.913,32.913,0,0,1,.35,8.005,4.64,4.64,0,0,0,1.165,3.613c1.546,1.733,4.225,2.413,6.218,2.473Z" fill="#f8b271"/>
    <path id="Path_9" data-name="Path 9" d="M316.4,416.052c-5.93,0-11.462,1.734-15.181,4.753-3,2.437-2.653,5.652-2.284,9.056.091.863.2,1.663.307,2.437a31.96,31.96,0,0,1,.346,7.85,5.641,5.641,0,0,0,2.741,5.35,11.659,11.659,0,0,0,5.927,1.731c.143,0,.283.005.421.005a6.94,6.94,0,0,0,3.781-.876c1.928-1.249,1.611-3.539,1.33-5.558l-.062-.447c-.33-2.473,1.343-2.887,3.937-3.24a8.439,8.439,0,0,0,4.957-2.045,2.806,2.806,0,0,0,.159-3.633,1.912,1.912,0,0,0-1.71-.711,14.1,14.1,0,0,0-4.02,1.008c-1.117.382-2.383.81-3.56,1.081a2.014,2.014,0,0,1-.441.057,1.427,1.427,0,0,1-1.1-.577c-.951-1.175-.681-3.422,1.419-5.01,1.057-.8,3.555-.9,5.969-1,2.894-.123,5.888-.247,7.192-1.591,1.185-1.216.946-3.269-.6-5.106a10.567,10.567,0,0,0-7.41-3.456c-.705-.049-1.419-.073-2.123-.073" fill="#1f6870"/>
    <path id="Path_10" data-name="Path 10" d="M308.681,447.559l-.416-.005a12.02,12.02,0,0,1-6.111-1.784,5.958,5.958,0,0,1-2.886-5.65,31.6,31.6,0,0,0-.345-7.778c-.106-.777-.215-1.58-.307-2.447-.378-3.494-.736-6.793,2.4-9.342,3.776-3.066,9.384-4.825,15.384-4.825.734,0,1.457.024,2.147.074a10.872,10.872,0,0,1,7.636,3.571c1.657,1.971,1.89,4.2.581,5.541-1.391,1.433-4.441,1.562-7.391,1.688-2.274.1-4.829.2-5.807.94a4.279,4.279,0,0,0-1.792,2.809,2.294,2.294,0,0,0,.43,1.738,1.1,1.1,0,0,0,1.213.407c1.2-.275,2.546-.736,3.528-1.072a14.25,14.25,0,0,1,4.126-1.025,2.216,2.216,0,0,1,1.988.87,3.139,3.139,0,0,1-.2,4.019,8.755,8.755,0,0,1-5.153,2.148c-2.7.366-3.938.77-3.658,2.875l.062.445c.28,2.01.627,4.512-1.476,5.876A7.254,7.254,0,0,1,308.681,447.559Zm7.722-31.181c-5.854,0-11.312,1.705-14.975,4.68-2.864,2.326-2.525,5.455-2.166,8.768.09.86.2,1.658.306,2.428a32.215,32.215,0,0,1,.347,7.922,5.34,5.34,0,0,0,2.6,5.051,11.335,11.335,0,0,0,5.759,1.678l.411.005a6.623,6.623,0,0,0,3.6-.824c1.757-1.138,1.466-3.224,1.186-5.241l-.062-.447c-.4-2.979,2.054-3.313,4.215-3.607a8.153,8.153,0,0,0,4.763-1.942,2.489,2.489,0,0,0,.118-3.248,1.638,1.638,0,0,0-1.43-.552,13.971,13.971,0,0,0-3.917.989,37.224,37.224,0,0,1-3.591,1.09,1.74,1.74,0,0,1-1.864-.63,2.937,2.937,0,0,1-.569-2.226,4.915,4.915,0,0,1,2.044-3.248c1.14-.86,3.688-.967,6.152-1.071,2.842-.12,5.762-.245,6.972-1.492,1.065-1.092.818-2.969-.613-4.67a10.23,10.23,0,0,0-7.184-3.342C317.829,416.4,317.123,416.378,316.4,416.378Zm-8,30.088c-.139,0-.283,0-.427-.009-1.359-.061-4.743-.847-6.54-2.891a4.443,4.443,0,0,1-1.145-3.415,31.936,31.936,0,0,0-.348-7.862c-.1-.775-.213-1.57-.307-2.432-.368-3.412-.417-6.209,2.506-8.582,3.625-2.945,8.6-4.484,14.418-4.458,4.831,0,8.5,2.484,9.519,4.852a2.329,2.329,0,0,1-.323,2.683c-1.129,1.16-3.669,1.153-6.362,1.137-2.48-.018-5.06-.023-6.318.926-2.136,1.615-2.849,4.36-2.284,5.976a1.649,1.649,0,0,0,1.622,1.212,25.78,25.78,0,0,0,4.24-1.072,23.146,23.146,0,0,1,4.328-1.071,1.219,1.219,0,0,1,1.151.536,2.537,2.537,0,0,1,.005,2.341c-.608,1.076-2.17,1.792-4.645,2.129-3.427.465-4.761,1.629-4.459,3.894.287,2.16-.041,3.774-.978,4.8A4.733,4.733,0,0,1,308.4,446.466Zm7.991-29c-5.583,0-10.37,1.49-13.844,4.312-2.673,2.171-2.626,4.688-2.267,8.006.093.857.2,1.647.3,2.416a33.012,33.012,0,0,1,.35,8.005,3.812,3.812,0,0,0,.987,2.931c1.642,1.868,4.862,2.616,6.079,2.669a4.41,4.41,0,0,0,3.573-1.089c.8-.874,1.074-2.311.813-4.272-.463-3.471,2.641-4.3,5.017-4.624,2.229-.3,3.67-.926,4.165-1.8a1.9,1.9,0,0,0-.036-1.764.825.825,0,0,0-.554-.145,24.17,24.17,0,0,0-4.141,1.045,24.836,24.836,0,0,1-4.409,1.1,2.246,2.246,0,0,1-2.252-1.647c-.641-1.83.134-4.916,2.505-6.708,1.432-1.079,4.106-1.069,6.711-1.058,2.435.009,4.96.022,5.894-.939a1.734,1.734,0,0,0,.192-1.974c-.949-2.208-4.535-4.46-8.929-4.46-.051,0-.1,0-.155,0Z" fill="#f8b271"/>
    <path id="Path_11" data-name="Path 11" d="M368.436,446.652c-6.091,0-13.153-1.211-13.192-7.632s-1.648-15.235-.967-18.244,4.2-4.212,6.774-4.137,9.714,1.617,6.772,11.325c-1.286,4.251-4.178,9.406-2.783,10.721,1.962,1.842,7.912,1.141,10.152.312s4.935-.427,5.636,1.455.047,6.2-12.392,6.2" fill="#1f6870"/>
    <path id="Path_12" data-name="Path 12" d="M368.436,446.977c-8.937,0-13.485-2.676-13.516-7.954-.017-2.786-.326-5.977-.626-9.062-.391-4.029-.728-7.51-.334-9.257.762-3.349,4.687-4.487,7.1-4.39.732.022,4.482.273,6.507,3.088,1.488,2.07,1.679,4.982.566,8.656-.4,1.332-.958,2.741-1.495,4.1-1.07,2.72-2.178,5.532-1.375,6.289,1.842,1.729,7.722,1.018,9.815.243,2.3-.853,5.268-.462,6.054,1.647a3.435,3.435,0,0,1-.442,3.191C379.6,445.1,376.584,446.977,368.436,446.977Zm-7.6-30.016c-2.23,0-5.588,1.01-6.24,3.888-.373,1.644-.024,5.241.345,9.049.3,3.1.612,6.3.629,9.12.029,4.85,4.359,7.309,12.867,7.309,7.868,0,10.717-1.723,11.722-3.168a2.791,2.791,0,0,0,.366-2.6c-.646-1.731-3.21-2-5.219-1.263-2.164.8-8.34,1.637-10.486-.378-1.123-1.06-.04-3.813,1.216-7,.532-1.349,1.081-2.746,1.477-4.052,1.052-3.47.892-6.191-.472-8.088-1.846-2.568-5.32-2.8-6-2.818C360.974,416.961,360.906,416.961,360.835,416.961Z" fill="#f8b271"/>
    <path id="Path_13" data-name="Path 13" d="M361.867,421.527c.078,0-.806-1.184-.731-1.181,2.572.072,6.88-2.556,3.938,7.15-1.286,4.253-3.144,10.421-1.746,11.733.91.858,2.644,3.086,4.507,3.086a32.266,32.266,0,0,0,7.308-.934,6.528,6.528,0,0,1,2.111-.731c1.536,0,1.07-.577,1.543.691.7,1.881,2.289,4.547-10.15,4.547-6.091,0-10.558-.887-10.6-7.308-.055-8.53.033-11.085,1.218-16.322.663-2.921-.679-1.912,1.868-1.912m-.314-4.294c-3.045,0-6.652,1.451-7.374,4.634-.4,1.761-.06,5.249.33,9.287.3,3.081.608,6.27.626,9.05.023,3.747,2.476,8.211,14.032,8.211,5.888,0,9.921-.941,11.992-2.793a3.7,3.7,0,0,0,1.213-4.137c-.527-1.416-2.138-2.3-4.2-2.3a7.74,7.74,0,0,0-2.645.478,17.277,17.277,0,0,1-5.21.783c-1.861,0-3.235-.33-3.869-.928-.723-.678.47-3.711,1.432-6.145.535-1.365,1.091-2.773,1.5-4.111,1.333-4.4.808-7.71-1.559-9.822a9.9,9.9,0,0,0-6-2.2c-.088,0-.176,0-.265,0" fill="#1f6870"/>
    <path id="Path_14" data-name="Path 14" d="M368.436,447.559c-11.822,0-14.332-4.641-14.356-8.534-.019-2.782-.328-5.954-.626-9.021-.4-4.109-.732-7.588-.323-9.391.762-3.356,4.52-4.885,7.691-4.885l.274,0a10.228,10.228,0,0,1,6.207,2.286c2.47,2.2,3.027,5.622,1.654,10.158-.4,1.321-.943,2.7-1.469,4.042l-.037.094c-.725,1.837-2.077,5.258-1.511,5.788.507.479,1.7.754,3.662.841a14.448,14.448,0,0,0,4.084-.685c3.087-.8,6.586-1.7,8.45,1.754a4.28,4.28,0,0,1-1.492,4.674C378.51,446.591,374.4,447.559,368.436,447.559Zm-7.614-31.181c-2.921,0-6.374,1.37-7.057,4.38-.386,1.7-.054,5.13.329,9.1.307,3.161.616,6.348.635,9.158.032,5.162,4.771,7.89,13.707,7.89,5.8,0,9.763-.913,11.774-2.712a3.737,3.737,0,0,0,1.355-3.88c-1.624-3.007-4.584-2.243-7.716-1.435a15.237,15.237,0,0,1-4.277.707c-2.178-.1-3.435-.412-4.077-1.018-.823-.771.041-3.18,1.352-6.5l.037-.093c.52-1.327,1.058-2.7,1.452-3.993,1.293-4.273.8-7.464-1.464-9.485a9.554,9.554,0,0,0-5.8-2.122Zm6.572,29.853c-4.963,0-8.192-.876-10.106-2.725a6.407,6.407,0,0,1-1.877-4.761c-.018-2.8-.337-5.995-.618-8.812-.376-3.768-.7-7.022-.309-8.761.4-1.775,3.164-3.885,6.117-3.948h.016c3.2.09,5.366.974,6.611,2.7,1.33,1.848,1.46,4.576.39,8.111-.377,1.248-.859,2.56-1.324,3.829-1.043,2.838-2.12,5.774-1.474,6.783.556.869,3,1.474,4.842,1.474a15.038,15.038,0,0,0,5.085-.873,5.341,5.341,0,0,1,2.059-.386c1.192,0,3.408,0,4,1.593a2.627,2.627,0,0,1-.3,2.469c-1.351,2-5.34,3.108-11.856,3.287Q368.008,446.231,367.394,446.231Zm-6.786-28.357c-2.622.059-5.145,1.929-5.489,3.442-.371,1.635-.034,5,.321,8.554.282,2.829.6,6.038.62,8.87a5.788,5.788,0,0,0,1.68,4.3c1.91,1.846,5.474,2.675,10.9,2.524,7.841-.215,10.493-1.75,11.336-3a2.007,2.007,0,0,0,.224-1.881c-.4-1.078-1.961-1.168-3.391-1.168a4.683,4.683,0,0,0-1.835.345,15.7,15.7,0,0,1-5.31.914c-1.716,0-4.615-.564-5.39-1.774-.818-1.28.216-4.1,1.412-7.358.462-1.258.94-2.562,1.312-3.792,1.01-3.331.911-5.868-.294-7.542C365.584,418.755,363.589,417.959,360.608,417.874Z" fill="#f8b271"/>
    <g id="Group_1" data-name="Group 1">
      <path id="Path_15" data-name="Path 15" d="M352.224,435c-.548-5.08-3.4-9.544-6.218-15.045s-9.591-3.811-12.366-.955c-7.125,7.335-7.336,17.648-7.752,23.562s2.09,6.553,5.067,6.5c6.611-.117,4.311-3.448,4.418-5.938.07-1.7.73-1.871,1.8-1.928a43.224,43.224,0,0,0,5.158-.743c1.67-.348,1.5,1.946,1.462,3.843s.208,4.017,4.982,3.544,4.251-5.415,3.448-12.839M341.6,436.982c-2.544.623-5.748,1.273-6.307.2s1.151-2.471.6-5.816c-.273-1.657-.548-3.105,1.175-3.518s3.266-1.122,4.129.787c1.237,2.731,2.944,7.723.4,8.347" fill="#1f6870"/>
      <path id="Path_16" data-name="Path 16" d="M330.64,448.984a5.091,5.091,0,0,1-3.85-1.236c-1.017-1.072-1.418-2.909-1.225-5.613.039-.559.074-1.156.111-1.782.343-5.948.865-14.938,7.4-21.664a10.378,10.378,0,0,1,8.334-2.849,6.382,6.382,0,0,1,4.886,3.562c.507.989,1.016,1.943,1.51,2.874,2.3,4.323,4.286,8.057,4.743,12.286h0c.58,5.364,1.038,9.6-.688,11.726a4.234,4.234,0,0,1-3.051,1.47c-2.132.211-3.577-.066-4.42-.842a3.776,3.776,0,0,1-.918-3.031l.009-.4c.025-1.164.057-2.61-.443-3.025a.712.712,0,0,0-.638-.1,43.543,43.543,0,0,1-5.208.749c-.966.051-1.433.141-1.492,1.616a8.6,8.6,0,0,0,.146,1.6c.178,1.178.364,2.4-.417,3.321-.729.864-2.148,1.285-4.466,1.326Zm9.591-32.581a10.045,10.045,0,0,0-6.69,2.738c-6.366,6.553-6.878,15.4-7.217,21.248-.037.631-.071,1.23-.112,1.792-.179,2.512.165,4.187,1.05,5.119a4.723,4.723,0,0,0,3.687,1.032c2.088-.037,3.391-.4,3.982-1.1s.435-1.721.271-2.8a9.093,9.093,0,0,1-.154-1.728c.081-1.969,1-2.179,2.107-2.238a43.24,43.24,0,0,0,5.111-.737,1.351,1.351,0,0,1,1.186.233c.74.615.708,2.1.675,3.539l-.007.394a3.244,3.244,0,0,0,.708,2.542c.69.635,2.007.862,3.917.673a3.626,3.626,0,0,0,2.611-1.232c1.554-1.914,1.109-6.033.544-11.247v0c-.443-4.1-2.4-7.785-4.669-12.049-.5-.933-1.006-1.891-1.515-2.882a5.759,5.759,0,0,0-4.4-3.217A7.225,7.225,0,0,0,340.231,416.4Zm-3.267,21.276c-.967,0-1.677-.207-1.959-.747a2.393,2.393,0,0,1,.151-1.925,7.593,7.593,0,0,0,.419-3.989l-.016-.1c-.269-1.629-.547-3.312,1.434-3.788.216-.051.428-.107.634-.161,1.477-.39,3-.792,3.868,1.132.758,1.673,2.419,5.781,1.452,7.77a1.845,1.845,0,0,1-1.271,1.025h0A22.1,22.1,0,0,1,336.964,437.679Zm2.477-10.385a7.061,7.061,0,0,0-1.649.3c-.211.056-.428.113-.648.165-1.331.319-1.238,1.266-.944,3.051l.017.1a8.169,8.169,0,0,1-.446,4.3c-.238.712-.355,1.1-.19,1.419.335.639,2.329.516,5.94-.367h0a1.2,1.2,0,0,0,.843-.678c.69-1.421-.3-4.66-1.461-7.218A1.49,1.49,0,0,0,339.441,427.294Z" fill="#f8b271"/>
      <path id="Path_17" data-name="Path 17" d="M340.267,416.778c2.274,0,4.44.242,5.739,2.773,2.822,5.5,5.67,9.965,6.218,15.045.8,7.424,1.325,12.366-3.448,12.839-.46.044-.878.068-1.258.068-3.56,0-3.755-1.9-3.723-3.61.031-1.767.187-3.879-1.144-3.879a1.424,1.424,0,0,0-.319.036,44,44,0,0,1-5.158.741c-1.071.057-1.731.226-1.8,1.928-.107,2.489,2.193,5.82-4.418,5.94l-.306,0c-2.84,0-5.166-.8-4.76-6.5a34.462,34.462,0,0,1,9.506-21.862c1.5-1.541,2.206-3.518,4.872-3.518m-2.385,21.544c1.294,0,2.94-1.119,4.5-1.5,2.544-.624.943-7.428-.724-9.721a4.663,4.663,0,0,0-2.727-1.769,18.369,18.369,0,0,0-2.883.731c-1.722.413-3.5,3.459-1.543,4.912,2.808,2.08-1.5,6.708-.934,7.8.219.416,2.56-.687,3.382-.687m3.279-22.6a11.219,11.219,0,0,0-7.608,3.1c-6.587,6.779-7.109,15.8-7.457,21.767-.037.629-.073,1.227-.112,1.785-.221,3.129.332,5.083,1.746,6.148a6.335,6.335,0,0,0,3.851.985c.109,0,.218,0,.327,0,2.173-.039,3.664-.414,4.555-1.144,1.248-1.021,1.032-2.432.821-3.794a8.7,8.7,0,0,1-.145-1.582c.055-1.3.32-1.312,1.029-1.349a44.728,44.728,0,0,0,5.329-.764l.06-.01c.4.309.361,2.037.341,2.877l-.008.392a3.691,3.691,0,0,0,1.263,3.383,5.571,5.571,0,0,0,3.3.834c.424,0,.886-.023,1.372-.072,5.563-.554,5.007-5.694,4.168-13.476-.457-4.251-2.448-7.993-4.753-12.327-.5-.933-1.005-1.889-1.514-2.879a7.068,7.068,0,0,0-6.562-3.867m-3.284,21.276c-.231,0-.782-.018-.868-.184-.148-.286,0-.72.2-1.323a8.267,8.267,0,0,0,.45-4.35l-.018-.1c-.291-1.76-.317-2.552.626-2.778.223-.052.444-.112.66-.169a6.491,6.491,0,0,1,1.429-.278c.195,0,.6,0,.98.85,1.816,4.012,2.213,7.278.925,7.6a22.016,22.016,0,0,1-4.384.74" fill="#1f6870"/>
      <path id="Path_18" data-name="Path 18" d="M330.649,449.584a6.634,6.634,0,0,1-4.046-1.049c-1.509-1.138-2.105-3.182-1.875-6.431.039-.557.075-1.154.11-1.781.353-6.028.884-15.115,7.549-21.975a11.569,11.569,0,0,1,7.843-3.193,7.38,7.38,0,0,1,6.85,4.042c.466.908.934,1.786,1.39,2.644l.122.231c2.321,4.363,4.324,8.132,4.79,12.445.615,5.715,1.059,9.835-.788,12.108a5.1,5.1,0,0,1-3.672,1.726c-.481.048-.954.074-1.4.074a5.882,5.882,0,0,1-3.487-.9,4.069,4.069,0,0,1-1.4-3.65l.007-.395a7.8,7.8,0,0,0-.152-2.511,45.488,45.488,0,0,1-5.235.74c-.628.031-.679.034-.722,1.038a7.852,7.852,0,0,0,.128,1.419l.014.1c.215,1.382.457,2.951-.936,4.092-.949.778-2.505,1.176-4.754,1.217Zm9.581-33.78a10.878,10.878,0,0,0-7.376,3c-6.5,6.688-7.02,15.63-7.366,21.548-.036.643-.074,1.242-.113,1.8-.212,3.01.3,4.874,1.619,5.867a6.045,6.045,0,0,0,3.655.919l.32,0c2.1-.038,3.525-.388,4.357-1.069,1.105-.906.911-2.162.705-3.493l-.015-.1a8.338,8.338,0,0,1-.134-1.543c.062-1.449.436-1.613,1.338-1.66a44.027,44.027,0,0,0,5.28-.757l.145-.031.179.083c.447.345.509,1.458.466,3.141l-.008.391a3.376,3.376,0,0,0,1.13,3.114,5.279,5.279,0,0,0,3.106.771,13.251,13.251,0,0,0,1.339-.071,4.5,4.5,0,0,0,3.233-1.488c1.676-2.065,1.222-6.28.647-11.616-.453-4.2-2.429-7.919-4.718-12.224l-.122-.229c-.459-.862-.928-1.742-1.4-2.653A6.754,6.754,0,0,0,340.23,415.8Zm-9.515,32.481c-1.469,0-2.959,0-3.914-1.025-.856-.921-1.17-2.555-.986-5.144l.061-.9c.4-5.98,1.009-15.019,7.865-22.081a8.862,8.862,0,0,1,6.527-2.682c2.173,0,4.414.232,5.837,3.006.533,1.037,1.066,2.037,1.585,3.008,2.266,4.24,4.224,7.9,4.676,12.085.782,7.238.96,12.036-3.521,12.739-.16.025-.311.058-.456.09a3.849,3.849,0,0,1-.813.116,4.29,4.29,0,0,1-3.167-.956,3.788,3.788,0,0,1-.771-2.907c.03-1.784-.18-2.92-.63-3.375a.676.676,0,0,0-.492-.217.52.52,0,0,1-.066.018,46.6,46.6,0,0,1-5.292.779c-.794.042-1.615.3-1.681,1.921a7.691,7.691,0,0,0,.145,1.543,3.257,3.257,0,0,1-.325,2.739c-.67.8-2.126,1.2-4.582,1.242Zm9.553-31.182a8.224,8.224,0,0,0-6.06,2.486c-6.691,6.891-7.289,15.786-7.684,21.672l-.062.9c-.167,2.364.1,3.886.815,4.655s1.8.817,3.38.818c2.261-.04,3.607-.37,4.141-1.008.452-.54.326-1.319.182-2.221a8.3,8.3,0,0,1-.153-1.672c.067-1.633.819-2.465,2.3-2.544a45.193,45.193,0,0,0,5.178-.762.437.437,0,0,1,.191-.035,1.333,1.333,0,0,1,.98.411c.59.6.849,1.822.814,3.842a3.249,3.249,0,0,0,.585,2.44,3.717,3.717,0,0,0,2.7.763,3.2,3.2,0,0,0,.675-.1c.156-.033.32-.069.492-.1,3.621-.569,3.843-4.011,2.976-12.027-.438-4.058-2.367-7.667-4.6-11.848-.522-.976-1.057-1.977-1.591-3.019C344.27,417.306,342.322,417.1,340.268,417.1Zm-3.324,20.165c-.561,0-.887-.038-1.155-.547a2.462,2.462,0,0,1,.036-1.857,8.379,8.379,0,0,0,.224-3.838c-.049-.307-.118-.607-.181-.895-.273-1.213-.581-2.589,1.125-3,.211-.051.419-.1.622-.159a7.429,7.429,0,0,1,1.809-.326c.954,0,1.359.726,1.789,1.675,1.6,3.544,2.081,5.891,1.457,7.176a1.886,1.886,0,0,1-1.31,1.029l-.723.18a13.089,13.089,0,0,1-3.333.56h-.36Zm2.48-9.971a6.992,6.992,0,0,0-1.644.3c-.208.056-.42.112-.636.163-1,.238-.969.77-.643,2.225.067.3.137.612.19.931a8.952,8.952,0,0,1-.238,4.108c-.178.682-.263,1.054-.088,1.393.107.2.108.2.722.2l.217,0a12.7,12.7,0,0,0,3.173-.539l.728-.183a1.235,1.235,0,0,0,.88-.681c.527-1.085.035-3.314-1.463-6.623C340.161,427.575,339.9,427.3,339.424,427.3Zm-1.958,8.874a.72.72,0,0,1-.563-.321,1.187,1.187,0,0,1-.11-1.083,18.155,18.155,0,0,0,.146-4.061,7.751,7.751,0,0,0-.341-1.285c-.13-.386-.224-.665-.079-.926a.952.952,0,0,1,.668-.395c.151-.036.4-.107.616-.166l.269-.075a4.071,4.071,0,0,1,1.224-.174c.462-.068.708.138,1.024.841.974,2.152,1.992,5.013,1.309,6.417a1.322,1.322,0,0,1-.888.732A11.952,11.952,0,0,1,337.466,436.171Zm1.973-7.867a.3.3,0,0,1-.143.031,3.414,3.414,0,0,0-1.057.152l-.26.072c-.223.062-.487.137-.642.173a.779.779,0,0,0-.261.092c.013.019.079.216.138.389a8.544,8.544,0,0,1,.37,1.423,19.254,19.254,0,0,1-.175,4.339c-.114.339.017.517.073.546a11.052,11.052,0,0,0,3.057-.467.684.684,0,0,0,.505-.4c.208-.429.5-1.856-1.315-5.864C339.542,428.379,339.449,428.311,339.439,428.3Z" fill="#f8b271"/>
    </g>
    <g id="Group_2" data-name="Group 2">
      <path id="Path_19" data-name="Path 19" d="M375.771,420.55a3.914,3.914,0,1,1,3.914-3.914A3.919,3.919,0,0,1,375.771,420.55Zm0-6.807a2.893,2.893,0,1,0,2.893,2.893A2.9,2.9,0,0,0,375.771,413.743Z" fill="#f8b271"/>
      <path id="Path_20" data-name="Path 20" d="M375.771,420.346a3.71,3.71,0,1,1,3.709-3.71A3.714,3.714,0,0,1,375.771,420.346Zm0-6.807a3.1,3.1,0,1,0,3.1,3.1A3.1,3.1,0,0,0,375.771,413.539Z" fill="#f8b271"/>
      <path id="Path_21" data-name="Path 21" d="M375.771,420.55a3.914,3.914,0,1,1,3.914-3.914A3.919,3.919,0,0,1,375.771,420.55Zm0-6.807a2.893,2.893,0,1,0,2.893,2.893A2.9,2.9,0,0,0,375.771,413.743Z" fill="#f8b271"/>
      <path id="Path_22" data-name="Path 22" d="M375.771,420.346a3.71,3.71,0,1,1,3.709-3.71A3.714,3.714,0,0,1,375.771,420.346Zm0-6.807a3.1,3.1,0,1,0,3.1,3.1A3.1,3.1,0,0,0,375.771,413.539Z" fill="#1f6870"/>
      <path id="Path_23" data-name="Path 23" d="M375.966,418.649a2.027,2.027,0,0,1-.8-.16,1.95,1.95,0,0,1-1.058-1.065,2.092,2.092,0,0,1,0-1.566,1.978,1.978,0,0,1,.419-.641,1.924,1.924,0,0,1,.639-.434,2.041,2.041,0,0,1,.816-.159,2.089,2.089,0,0,1,.9.175,2.038,2.038,0,0,1,.632.476l.126.138-.877.943-.149-.155a1.434,1.434,0,0,0-.3-.244.677.677,0,0,0-.34-.076.564.564,0,0,0-.251.054.614.614,0,0,0-.2.154.718.718,0,0,0-.138.237.878.878,0,0,0-.049.3.967.967,0,0,0,.049.321.7.7,0,0,0,.138.236.678.678,0,0,0,.212.156.692.692,0,0,0,.278.054.682.682,0,0,0,.332-.074,1.667,1.667,0,0,0,.327-.241l.145-.132.851.86-.13.144a2.426,2.426,0,0,1-.629.5A1.942,1.942,0,0,1,375.966,418.649Z" fill="#f8b271"/>
      <path id="Path_24" data-name="Path 24" d="M376.808,418.266a1.752,1.752,0,0,1-.843.178,1.817,1.817,0,0,1-.722-.143,1.74,1.74,0,0,1-.95-.956,1.807,1.807,0,0,1-.136-.7v-.013a1.834,1.834,0,0,1,.136-.7,1.805,1.805,0,0,1,.376-.577,1.732,1.732,0,0,1,.574-.388,1.835,1.835,0,0,1,.735-.143,1.9,1.9,0,0,1,.817.155,1.843,1.843,0,0,1,.57.428l-.6.648a1.666,1.666,0,0,0-.347-.279.873.873,0,0,0-.444-.1.778.778,0,0,0-.341.074.848.848,0,0,0-.265.2.924.924,0,0,0-.175.3,1.073,1.073,0,0,0-.062.366v.013a1.127,1.127,0,0,0,.062.376.887.887,0,0,0,.178.3.848.848,0,0,0,.279.2.869.869,0,0,0,.363.074.888.888,0,0,0,.431-.1,1.84,1.84,0,0,0,.366-.269l.577.583A2.226,2.226,0,0,1,376.808,418.266Z" fill="#1f6870"/>
    </g>
  </g>
</svg>
