<?xml version="1.0" encoding="UTF-8" standalone="no"?>
<svg
   xmlns:dc="http://purl.org/dc/elements/1.1/"
   xmlns:cc="http://creativecommons.org/ns#"
   xmlns:rdf="http://www.w3.org/1999/02/22-rdf-syntax-ns#"
   xmlns:svg="http://www.w3.org/2000/svg"
   xmlns="http://www.w3.org/2000/svg"
   xmlns:sodipodi="http://sodipodi.sourceforge.net/DTD/sodipodi-0.dtd"
   xmlns:inkscape="http://www.inkscape.org/namespaces/inkscape"
   version="1.1"
   id="svg2"
   xml:space="preserve"
   width="793.70135"
   height="1122.52"
   viewBox="0 0 793.70135 1122.52"
   sodipodi:docname="Page side may12.ai"><metadata
     id="metadata8"><rdf:RDF><cc:Work
         rdf:about=""><dc:format>image/svg+xml</dc:format><dc:type
           rdf:resource="http://purl.org/dc/dcmitype/StillImage" /></cc:Work></rdf:RDF></metadata><defs
     id="defs6"><clipPath
       clipPathUnits="userSpaceOnUse"
       id="clipPath18"><path
         d="M 98.579,0 H 595.275 V 690 H 98.579 Z"
         id="path16" /></clipPath></defs><sodipodi:namedview
     pagecolor="#ffffff"
     bordercolor="#666666"
     borderopacity="1"
     objecttolerance="10"
     gridtolerance="10"
     guidetolerance="10"
     inkscape:pageopacity="0"
     inkscape:pageshadow="2"
     inkscape:window-width="640"
     inkscape:window-height="480"
     id="namedview4" /><g
     id="g10"
     inkscape:groupmode="layer"
     inkscape:label="Page side may12"
     transform="matrix(1.3333333,0,0,-1.3333333,0,1122.52)"><g
       id="g12"><g
         id="g14"
         clip-path="url(#clipPath18)"><g
           id="g20"
           transform="translate(369.5127,-3.6902)"><path
             d="M 0,0 C 3.639,13.194 61.301,120.424 58.366,286.746 55.431,453.068 14.405,488.969 39.471,710.727 l 66.252,-4.32 -11.077,-718.941 z"
             style="fill:#208d92;fill-opacity:1;fill-rule:nonzero;stroke:none"
             id="path22" /></g><g
           id="g24"
           transform="translate(378.2969,-19.1961)"><path
             d="M 0,0 C 3.435,13.425 59.416,124.358 53.921,290.405 48.426,456.453 6.868,489.662 28.506,712.943 H 94.791 V -6.359 Z"
             style="fill:#f7b171;fill-opacity:1;fill-rule:nonzero;stroke:none"
             id="path26" /></g><g
           id="g28"
           transform="translate(383.7021,-19.1961)"><path
             d="M 0,0 C 3.435,13.425 59.417,124.358 53.922,290.405 48.427,456.453 6.869,489.662 28.507,712.943 h 184.577 l 1.443,-719.302 z"
             style="fill:#1f6971;fill-opacity:1;fill-rule:nonzero;stroke:none"
             id="path30" /></g></g></g></g></svg>
