<?xml version="1.0" encoding="UTF-8" standalone="no"?>
<svg
   xmlns:dc="http://purl.org/dc/elements/1.1/"
   xmlns:cc="http://creativecommons.org/ns#"
   xmlns:rdf="http://www.w3.org/1999/02/22-rdf-syntax-ns#"
   xmlns:svg="http://www.w3.org/2000/svg"
   xmlns="http://www.w3.org/2000/svg"
   xmlns:sodipodi="http://sodipodi.sourceforge.net/DTD/sodipodi-0.dtd"
   xmlns:inkscape="http://www.inkscape.org/namespaces/inkscape"
   version="1.1"
   id="svg2"
   xml:space="preserve"
   width="793.91998"
   height="1122.24"
   viewBox="0 0 793.91998 1122.24"
   sodipodi:docname="Page header may12.ai"><metadata
     id="metadata8"><rdf:RDF><cc:Work
         rdf:about=""><dc:format>image/svg+xml</dc:format><dc:type
           rdf:resource="http://purl.org/dc/dcmitype/StillImage" /></cc:Work></rdf:RDF></metadata><defs
     id="defs6"><clipPath
       clipPathUnits="userSpaceOnUse"
       id="clipPath18"><path
         d="m 0,585.68 h 595.44 v 256 H 0 Z"
         id="path16" /></clipPath><clipPath
       clipPathUnits="userSpaceOnUse"
       id="clipPath98"><path
         d="M 0,841.68 H 595.44 V 0 H 0 Z"
         id="path96" /></clipPath></defs><sodipodi:namedview
     pagecolor="#ffffff"
     bordercolor="#666666"
     borderopacity="1"
     objecttolerance="10"
     gridtolerance="10"
     guidetolerance="10"
     inkscape:pageopacity="0"
     inkscape:pageshadow="2"
     inkscape:window-width="640"
     inkscape:window-height="480"
     id="namedview4" /><g
     id="g10"
     inkscape:groupmode="layer"
     inkscape:label="Page header may12"
     transform="matrix(1.3333333,0,0,-1.3333333,0,1122.24)"><g
       id="g12"><g
         id="g14"
         clip-path="url(#clipPath18)"><g
           id="g20"
           transform="translate(658.251,599.8758)"><path
             d="M 0,0 C -13.223,9.811 -120.685,165.253 -287.366,157.34 -454.048,149.427 -490.027,38.835 -712.265,106.403 l 4.33,178.598 720.497,-29.86 z"
             style="fill:#208c91;fill-opacity:1;fill-rule:nonzero;stroke:none"
             id="path22" /></g><g
           id="g24"
           transform="translate(673.791,623.2)"><path
             d="M 0,0 C -13.454,9.258 -124.628,160.171 -291.034,145.358 -457.441,130.544 -490.722,18.517 -714.485,76.845 V 255.533 H 6.373 Z"
             style="fill:#f8b271;fill-opacity:1;fill-rule:nonzero;stroke:none"
             id="path26" /></g><g
           id="g28"
           transform="translate(673.791,635.7474)"><path
             d="M 0,0 C -13.454,9.258 -124.628,160.171 -291.034,145.357 -457.441,130.544 -490.722,18.517 -714.485,76.845 V 255.533 H 6.373 Z"
             style="fill:#1f6870;fill-opacity:1;fill-rule:nonzero;stroke:none"
             id="path30" /></g></g></g><g
       id="g32"
       transform="translate(504.2256,802.7899)"><path
         d="M 0,0 0.92,1.582 H 1.564 L 0.314,-0.429 1.592,-2.474 H 0.955 l -0.943,1.61 -0.949,-1.61 h -0.644 l 1.278,2.045 -1.251,2.011 h 0.639 z"
         style="fill:#ffffff;fill-opacity:1;fill-rule:nonzero;stroke:none"
         id="path34" /></g><g
       id="g36"
       transform="translate(507.3525,802.2186)"><path
         d="M 0,0 0.622,1.111 H 1.244 L 0.295,-0.379 1.272,-1.903 H 0.66 l -0.65,1.14 -0.649,-1.14 h -0.618 l 0.978,1.524 -0.95,1.49 h 0.614 z"
         style="fill:#ffffff;fill-opacity:1;fill-rule:nonzero;stroke:none"
         id="path38" /></g><g
       id="g40"
       transform="translate(510.1396,802.2186)"><path
         d="M 0,0 0.623,1.111 H 1.245 L 0.296,-0.379 1.272,-1.903 H 0.661 l -0.65,1.14 -0.65,-1.14 h -0.617 l 0.978,1.524 -0.951,1.49 h 0.615 z"
         style="fill:#ffffff;fill-opacity:1;fill-rule:nonzero;stroke:none"
         id="path42" /></g><g
       id="g44"
       transform="translate(512.9277,802.2186)"><path
         d="m 0,0 0.623,1.111 h 0.622 l -0.95,-1.49 0.977,-1.524 H 0.66 l -0.649,1.14 -0.65,-1.14 h -0.617 l 0.977,1.524 -0.95,1.49 h 0.614 z"
         style="fill:#ffffff;fill-opacity:1;fill-rule:nonzero;stroke:none"
         id="path46" /></g><g
       id="g48"
       transform="translate(515.7158,802.2186)"><path
         d="m 0,0 0.622,1.111 h 0.623 l -0.95,-1.49 0.977,-1.524 H 0.66 l -0.649,1.14 -0.65,-1.14 h -0.618 l 0.978,1.524 -0.95,1.49 h 0.614 z"
         style="fill:#ffffff;fill-opacity:1;fill-rule:nonzero;stroke:none"
         id="path50" /></g><g
       id="g52"
       transform="translate(517.4424,800.9316)"><path
         d="m 0,0 v -0.454 l -0.19,-0.881 h 0.317 l 0.406,0.853 V 0 Z"
         style="fill:#ffffff;fill-opacity:1;fill-rule:nonzero;stroke:none"
         id="path54" /></g><g
       id="g56"
       transform="translate(521.3535,802.7899)"><path
         d="M 0,0 0.921,1.582 H 1.565 L 0.314,-0.429 1.593,-2.474 H 0.956 l -0.944,1.61 -0.949,-1.61 H -1.58 l 1.278,2.045 -1.251,2.011 h 0.639 z"
         style="fill:#ffffff;fill-opacity:1;fill-rule:nonzero;stroke:none"
         id="path58" /></g><g
       id="g60"
       transform="translate(524.4805,802.2186)"><path
         d="m 0,0 0.623,1.111 h 0.622 l -0.95,-1.49 0.977,-1.524 H 0.66 l -0.649,1.14 -0.65,-1.14 h -0.617 l 0.977,1.524 -0.95,1.49 h 0.614 z"
         style="fill:#ffffff;fill-opacity:1;fill-rule:nonzero;stroke:none"
         id="path62" /></g><g
       id="g64"
       transform="translate(527.2686,802.2186)"><path
         d="m 0,0 0.622,1.111 h 0.623 l -0.95,-1.49 0.977,-1.524 H 0.66 l -0.649,1.14 -0.65,-1.14 h -0.618 l 0.978,1.524 -0.95,1.49 h 0.614 z"
         style="fill:#ffffff;fill-opacity:1;fill-rule:nonzero;stroke:none"
         id="path66" /></g><g
       id="g68"
       transform="translate(528.9948,800.9316)"><path
         d="m 0,0 v -0.454 l -0.189,-0.881 h 0.317 l 0.406,0.853 V 0 Z"
         style="fill:#ffffff;fill-opacity:1;fill-rule:nonzero;stroke:none"
         id="path70" /></g><g
       id="g72"
       transform="translate(532.9072,802.7899)"><path
         d="M 0,0 0.92,1.582 H 1.564 L 0.313,-0.429 1.592,-2.474 H 0.955 l -0.944,1.61 -0.948,-1.61 h -0.644 l 1.278,2.045 -1.251,2.011 h 0.639 z"
         style="fill:#ffffff;fill-opacity:1;fill-rule:nonzero;stroke:none"
         id="path74" /></g><g
       id="g76"
       transform="translate(536.0332,802.2186)"><path
         d="m 0,0 0.623,1.111 h 0.622 l -0.95,-1.49 0.977,-1.524 H 0.66 l -0.649,1.14 -0.65,-1.14 h -0.617 l 0.977,1.524 -0.95,1.49 h 0.615 z"
         style="fill:#ffffff;fill-opacity:1;fill-rule:nonzero;stroke:none"
         id="path78" /></g><g
       id="g80"
       transform="translate(538.8213,802.2186)"><path
         d="m 0,0 0.622,1.111 h 0.623 l -0.95,-1.49 0.977,-1.524 H 0.66 l -0.649,1.14 -0.65,-1.14 h -0.618 l 0.978,1.524 -0.95,1.49 h 0.614 z"
         style="fill:#ffffff;fill-opacity:1;fill-rule:nonzero;stroke:none"
         id="path82" /></g><g
       id="g84"
       transform="translate(541.6094,802.2186)"><path
         d="M 0,0 0.622,1.111 H 1.244 L 0.295,-0.379 1.272,-1.903 H 0.66 l -0.65,1.14 -0.649,-1.14 h -0.618 l 0.978,1.524 -0.95,1.49 h 0.614 z"
         style="fill:#ffffff;fill-opacity:1;fill-rule:nonzero;stroke:none"
         id="path86" /></g><g
       id="g88"
       transform="translate(544.3965,802.2186)"><path
         d="M 0,0 0.623,1.111 H 1.245 L 0.296,-0.379 1.272,-1.903 H 0.661 l -0.65,1.14 -0.65,-1.14 h -0.617 l 0.978,1.524 -0.951,1.49 h 0.615 z"
         style="fill:#ffffff;fill-opacity:1;fill-rule:nonzero;stroke:none"
         id="path90" /></g><g
       id="g92"><g
         id="g94"
         clip-path="url(#clipPath98)"><g
           id="g100"
           transform="translate(560.8613,806.6741)"><path
             d="m 0,0 c -2.479,0 -4.498,-2.076 -4.498,-4.629 0,-2.552 2.018,-4.629 4.498,-4.629 2.48,0 4.497,2.076 4.497,4.629 C 4.496,-2.076 2.479,0 0,0 m 0,-9.834 c -2.789,0 -5.058,2.335 -5.058,5.205 0,2.87 2.269,5.205 5.058,5.205 2.789,0 5.058,-2.335 5.058,-5.205 0,-2.87 -2.269,-5.205 -5.058,-5.205"
             style="fill:#ffffff;fill-opacity:1;fill-rule:nonzero;stroke:none"
             id="path102" /></g><g
           id="g104"
           transform="translate(562.0742,803.0779)"><path
             d="m 0,0 c -0.001,0.688 -0.543,1.248 -1.209,1.248 -0.668,0 -1.21,-0.559 -1.21,-1.246 -10e-4,-0.684 0.543,-1.246 1.205,-1.246 C -0.546,-1.244 0,-0.684 0,0 m -3.498,-0.082 v 0.169 c 0.002,0.016 0.006,0.03 0.007,0.045 0.019,0.369 0.113,0.716 0.296,1.034 0.381,0.665 0.944,1.056 1.687,1.169 0.07,0.01 0.139,0.016 0.208,0.024 h 0.182 C -1.105,2.356 -1.092,2.353 -1.078,2.352 -0.899,2.341 -0.723,2.314 -0.553,2.256 0.303,1.963 0.833,1.363 1.031,0.456 1.051,0.369 1.059,0.278 1.072,0.189 V -0.184 C 1.066,-0.223 1.062,-0.262 1.056,-0.301 1.016,-0.579 0.949,-0.848 0.809,-1.093 0.71,-1.264 0.617,-1.439 0.515,-1.607 -0.049,-2.53 -0.613,-3.452 -1.178,-4.374 -1.187,-4.389 -1.193,-4.406 -1.201,-4.421 h -0.017 c -0.004,0.009 -0.008,0.02 -0.013,0.029 -0.186,0.298 -0.375,0.595 -0.557,0.895 -0.455,0.751 -0.904,1.506 -1.359,2.256 -0.179,0.295 -0.291,0.613 -0.332,0.957 -0.007,0.067 -0.013,0.135 -0.019,0.202"
             style="fill:#ffffff;fill-opacity:1;fill-rule:nonzero;stroke:none"
             id="path106" /></g><g
           id="g108"
           transform="translate(560.8623,802.2527)"><path
             d="M 0,0 C -0.441,0.001 -0.804,0.376 -0.802,0.832 -0.8,1.285 -0.438,1.654 0.004,1.655 0.443,1.655 0.806,1.28 0.805,0.828 0.803,0.37 0.442,-0.001 0,0"
             style="fill:#ffffff;fill-opacity:1;fill-rule:nonzero;stroke:none"
             id="path110" /></g><g
           id="g112"
           transform="translate(563.7764,815.2469)"><path
             d="M 0,0 C -0.332,0.271 -0.681,0.539 -1.02,0.802 -1.196,0.901 -1.362,0.93 -1.502,0.883 -1.641,0.836 -1.723,0.735 -1.798,0.649 -2.041,0.371 -2.261,0.3 -2.469,0.32 -2.671,0.345 -2.886,0.463 -3.065,0.655 L -3.643,1.25 c -0.187,0.183 -0.301,0.404 -0.324,0.614 -0.019,0.214 0.048,0.44 0.32,0.69 0.084,0.077 0.181,0.161 0.227,0.304 0.045,0.143 0.017,0.315 -0.079,0.497 C -3.756,3.703 -4.015,4.062 -4.278,4.404 -4.437,4.567 -4.646,4.61 -4.811,4.556 -4.975,4.504 -5.099,4.391 -5.202,4.287 -5.69,3.807 -6.106,3.15 -5.976,2.343 -5.865,1.69 -5.421,1.059 -4.741,0.36 c 0.289,-0.298 0.517,-0.532 0.809,-0.833 0.68,-0.699 1.293,-1.157 1.927,-1.27 0.655,-0.103 1.324,0.191 1.89,0.795 0.1,0.107 0.211,0.235 0.261,0.404 C 0.199,-0.377 0.158,-0.163 0,0"
             style="fill:#ffffff;fill-opacity:1;fill-rule:nonzero;stroke:none"
             id="path114" /></g><g
           id="g116"
           transform="translate(560.8613,821.2816)"><path
             d="m 0,0 c -2.479,0 -4.498,-2.076 -4.498,-4.628 0,-2.552 2.018,-4.629 4.498,-4.629 2.48,0 4.497,2.076 4.497,4.629 C 4.496,-2.076 2.479,0 0,0 m 0,-9.833 c -2.789,0 -5.058,2.334 -5.058,5.205 0,2.87 2.269,5.205 5.058,5.205 2.789,0 5.058,-2.335 5.058,-5.205 0,-2.871 -2.269,-5.205 -5.058,-5.205"
             style="fill:#ffffff;fill-opacity:1;fill-rule:nonzero;stroke:none"
             id="path118" /></g><g
           id="g120"
           transform="translate(513.8389,817.1907)"><path
             d="M 0,0 C 0,0.351 -0.062,0.615 -0.187,0.792 -0.31,0.969 -0.488,1.058 -0.724,1.058 -0.958,1.058 -1.136,0.969 -1.259,0.792 -1.382,0.615 -1.443,0.351 -1.443,0 v -1.188 c 0,-0.351 0.062,-0.616 0.186,-0.795 0.125,-0.179 0.305,-0.268 0.539,-0.268 0.235,0 0.413,0.088 0.534,0.267 C -0.061,-1.806 0,-1.541 0,-1.188 Z m 0.533,-1.079 c 0,-0.518 -0.112,-0.915 -0.334,-1.191 -0.222,-0.275 -0.528,-0.414 -0.917,-0.414 -0.387,0 -0.694,0.139 -0.92,0.415 -0.225,0.277 -0.339,0.674 -0.339,1.19 v 0.961 c 0,0.516 0.114,0.913 0.338,1.191 0.224,0.278 0.53,0.417 0.915,0.417 0.389,0 0.696,-0.139 0.92,-0.417 C 0.42,0.795 0.533,0.398 0.533,-0.118 Z"
             style="fill:#ffffff;fill-opacity:1;fill-rule:nonzero;stroke:none"
             id="path122" /></g><g
           id="g124"
           transform="translate(516.5244,814.5657)"><path
             d="M 0,0 H -0.533 V 3.521 L -1.34,3.51 V 3.906 L 0,4.056 Z"
             style="fill:#ffffff;fill-opacity:1;fill-rule:nonzero;stroke:none"
             id="path126" /></g><g
           id="g128"
           transform="translate(520.6768,814.5657)"><path
             d="m 0,0 h -2.556 v 0.378 l 1.29,1.475 c 0.233,0.265 0.389,0.476 0.47,0.632 0.083,0.156 0.124,0.316 0.124,0.479 0,0.203 -0.057,0.373 -0.172,0.512 C -0.959,3.614 -1.11,3.683 -1.3,3.683 -1.572,3.683 -1.772,3.611 -1.901,3.467 -2.031,3.323 -2.096,3.121 -2.096,2.861 h -0.511 l -0.005,0.017 c -0.01,0.349 0.103,0.643 0.338,0.88 0.235,0.238 0.559,0.357 0.974,0.357 0.354,0 0.636,-0.107 0.846,-0.319 0.21,-0.213 0.315,-0.483 0.315,-0.812 0,-0.221 -0.063,-0.443 -0.19,-0.665 C -0.457,2.097 -0.635,1.859 -0.863,1.604 L -1.901,0.446 -1.896,0.432 H 0 Z"
             style="fill:#ffffff;fill-opacity:1;fill-rule:nonzero;stroke:none"
             id="path130" /></g><path
           d="m 522.344,816.065 h -1.326 v 0.429 h 1.326 z"
           style="fill:#ffffff;fill-opacity:1;fill-rule:nonzero;stroke:none"
           id="path132" /><g
           id="g134"
           transform="translate(523.4912,816.8475)"><path
             d="M 0,0 H 0.466 C 0.702,0 0.869,0.061 0.968,0.183 1.065,0.304 1.114,0.474 1.114,0.691 1.114,0.923 1.059,1.1 0.946,1.22 0.835,1.341 0.67,1.401 0.451,1.401 0.244,1.401 0.077,1.338 -0.048,1.213 -0.173,1.088 -0.235,0.921 -0.235,0.713 H -0.747 L -0.753,0.73 c -0.01,0.306 0.099,0.567 0.323,0.781 0.225,0.215 0.519,0.322 0.881,0.322 0.364,0 0.656,-0.1 0.872,-0.299 C 1.54,1.334 1.647,1.049 1.647,0.68 1.647,0.513 1.599,0.346 1.501,0.18 1.402,0.013 1.255,-0.113 1.058,-0.201 1.294,-0.281 1.462,-0.406 1.561,-0.577 1.658,-0.748 1.708,-0.939 1.708,-1.151 1.708,-1.521 1.59,-1.811 1.354,-2.022 1.118,-2.234 0.817,-2.34 0.451,-2.34 c -0.358,0 -0.656,0.1 -0.891,0.299 -0.236,0.2 -0.349,0.471 -0.34,0.812 l 0.009,0.017 h 0.508 c 0,-0.213 0.064,-0.382 0.191,-0.508 0.127,-0.126 0.301,-0.188 0.523,-0.188 0.226,0 0.403,0.062 0.53,0.188 0.129,0.126 0.194,0.312 0.194,0.558 0,0.25 -0.058,0.434 -0.171,0.553 C 0.89,-0.491 0.71,-0.432 0.466,-0.432 H 0 Z"
             style="fill:#ffffff;fill-opacity:1;fill-rule:nonzero;stroke:none"
             id="path136" /></g><g
           id="g138"
           transform="translate(526.2783,815.931)"><path
             d="M 0,0 H 1.203 V 1.903 L 1.187,1.905 1.135,1.766 Z M 1.733,0 H 2.276 V -0.432 H 1.733 v -0.933 h -0.53 v 0.933 h -1.771 v 0.309 L 1.17,2.691 h 0.563 z"
             style="fill:#ffffff;fill-opacity:1;fill-rule:nonzero;stroke:none"
             id="path140" /></g><g
           id="g142"
           transform="translate(529.1562,816.3963)"><path
             d="M 0,0 0.228,2.226 H 2.201 V 1.738 H 0.679 L 0.549,0.599 C 0.633,0.662 0.725,0.714 0.827,0.756 0.929,0.798 1.046,0.821 1.18,0.824 1.542,0.828 1.828,0.707 2.037,0.459 2.245,0.212 2.349,-0.12 2.349,-0.538 c 0,-0.407 -0.105,-0.733 -0.318,-0.981 -0.212,-0.247 -0.521,-0.37 -0.927,-0.37 -0.333,0 -0.612,0.094 -0.833,0.281 -0.222,0.188 -0.33,0.463 -0.32,0.828 l 0.006,0.016 h 0.48 c 0,-0.22 0.064,-0.39 0.187,-0.511 0.123,-0.121 0.283,-0.182 0.48,-0.182 0.226,0 0.401,0.082 0.526,0.245 0.124,0.163 0.185,0.386 0.185,0.67 0,0.26 -0.062,0.473 -0.188,0.64 C 1.501,0.265 1.326,0.348 1.104,0.348 0.896,0.348 0.743,0.315 0.649,0.25 0.556,0.186 0.487,0.086 0.443,-0.047 Z"
             style="fill:#ffffff;fill-opacity:1;fill-rule:nonzero;stroke:none"
             id="path144" /></g><path
           d="m 533.225,816.065 h -1.326 v 0.429 h 1.326 z"
           style="fill:#ffffff;fill-opacity:1;fill-rule:nonzero;stroke:none"
           id="path146" /><g
           id="g148"
           transform="translate(533.7949,816.3963)"><path
             d="M 0,0 0.228,2.226 H 2.201 V 1.738 H 0.68 L 0.55,0.599 C 0.633,0.662 0.725,0.714 0.827,0.756 0.929,0.798 1.047,0.821 1.181,0.824 1.543,0.828 1.828,0.707 2.037,0.459 2.246,0.212 2.35,-0.12 2.35,-0.538 c 0,-0.407 -0.106,-0.733 -0.319,-0.981 -0.211,-0.247 -0.52,-0.37 -0.927,-0.37 -0.333,0 -0.612,0.094 -0.833,0.281 -0.221,0.188 -0.329,0.463 -0.32,0.828 l 0.006,0.016 h 0.481 c 0,-0.22 0.063,-0.39 0.186,-0.511 0.124,-0.121 0.284,-0.182 0.48,-0.182 0.226,0 0.401,0.082 0.526,0.245 0.125,0.163 0.186,0.386 0.186,0.67 0,0.26 -0.062,0.473 -0.189,0.64 C 1.501,0.265 1.326,0.348 1.104,0.348 0.896,0.348 0.744,0.315 0.65,0.25 0.556,0.186 0.487,0.086 0.444,-0.047 Z"
             style="fill:#ffffff;fill-opacity:1;fill-rule:nonzero;stroke:none"
             id="path150" /></g><g
           id="g152"
           transform="translate(538.0879,816.8504)"><path
             d="M 0,0 C -0.183,0 -0.337,-0.038 -0.465,-0.114 -0.593,-0.19 -0.691,-0.292 -0.758,-0.417 v -0.329 c 0,-0.373 0.077,-0.66 0.231,-0.862 0.153,-0.202 0.344,-0.303 0.576,-0.303 0.219,0 0.388,0.095 0.511,0.285 0.121,0.19 0.182,0.426 0.182,0.708 0,0.267 -0.065,0.486 -0.196,0.659 C 0.414,-0.086 0.233,0 0,0 M 0.182,1.83 C 0.316,1.83 0.45,1.814 0.583,1.783 0.716,1.751 0.826,1.711 0.913,1.663 L 0.799,1.242 C 0.711,1.289 0.617,1.326 0.521,1.355 0.425,1.384 0.312,1.398 0.182,1.398 -0.1,1.398 -0.326,1.282 -0.499,1.05 -0.671,0.818 -0.758,0.515 -0.758,0.142 V 0.078 c 0.115,0.104 0.248,0.185 0.398,0.244 0.148,0.058 0.307,0.087 0.479,0.087 0.353,0 0.633,-0.125 0.842,-0.376 0.21,-0.25 0.314,-0.568 0.314,-0.952 0,-0.42 -0.111,-0.763 -0.334,-1.027 -0.223,-0.265 -0.52,-0.397 -0.892,-0.397 -0.386,0 -0.706,0.144 -0.958,0.432 -0.253,0.287 -0.379,0.693 -0.379,1.217 v 0.775 c 0,0.52 0.141,0.941 0.423,1.264 0.28,0.323 0.63,0.485 1.047,0.485"
             style="fill:#ffffff;fill-opacity:1;fill-rule:nonzero;stroke:none"
             id="path154" /></g><g
           id="g156"
           transform="translate(542.4385,818.1902)"><path
             d="M 0,0 C -0.477,-0.583 -0.798,-1.1 -0.965,-1.55 -1.132,-2.001 -1.253,-2.546 -1.326,-3.187 L -1.37,-3.625 h -0.533 l 0.043,0.438 c 0.076,0.639 0.223,1.21 0.441,1.713 0.219,0.503 0.518,0.995 0.897,1.474 h -2.144 v 0.432 l 2.666,0 z"
             style="fill:#ffffff;fill-opacity:1;fill-rule:nonzero;stroke:none"
             id="path158" /></g><g
           id="g160"
           transform="translate(544.8848,817.5521)"><path
             d="M 0,0 C 0,0.201 -0.061,0.367 -0.183,0.499 -0.305,0.631 -0.458,0.697 -0.645,0.697 -0.833,0.697 -0.987,0.633 -1.104,0.506 -1.222,0.378 -1.28,0.21 -1.28,0 c 0,-0.206 0.058,-0.371 0.177,-0.496 0.118,-0.124 0.273,-0.187 0.464,-0.187 0.188,0 0.342,0.063 0.46,0.187 C -0.059,-0.371 0,-0.206 0,0 m 0.111,-1.876 c 0,0.222 -0.071,0.405 -0.214,0.548 -0.142,0.142 -0.323,0.214 -0.542,0.214 -0.221,0 -0.401,-0.072 -0.54,-0.214 -0.137,-0.143 -0.207,-0.326 -0.207,-0.548 0,-0.23 0.069,-0.41 0.206,-0.541 0.137,-0.131 0.32,-0.196 0.547,-0.196 0.222,0 0.403,0.066 0.542,0.197 0.139,0.132 0.208,0.312 0.208,0.54 M 0.533,0.011 C 0.533,-0.2 0.476,-0.386 0.36,-0.544 0.245,-0.703 0.088,-0.822 -0.108,-0.9 0.119,-0.981 0.301,-1.109 0.437,-1.284 0.574,-1.458 0.642,-1.66 0.642,-1.889 c 0,-0.375 -0.12,-0.661 -0.357,-0.859 -0.237,-0.198 -0.545,-0.297 -0.924,-0.297 -0.386,0 -0.697,0.099 -0.932,0.297 -0.236,0.198 -0.354,0.484 -0.354,0.859 0,0.229 0.067,0.431 0.2,0.605 0.134,0.175 0.315,0.303 0.542,0.384 -0.197,0.078 -0.35,0.197 -0.463,0.356 -0.112,0.158 -0.167,0.344 -0.167,0.555 0,0.357 0.107,0.632 0.32,0.826 0.214,0.194 0.497,0.291 0.848,0.291 0.348,0 0.63,-0.097 0.85,-0.291 C 0.424,0.643 0.533,0.368 0.533,0.011"
             style="fill:#ffffff;fill-opacity:1;fill-rule:nonzero;stroke:none"
             id="path162" /></g><g
           id="g164"
           transform="translate(559.1582,787.5037)"><path
             d="m 0,0 c 0,-0.598 0.11,-1.176 0.313,-1.705 0.4,0.124 0.82,0.195 1.249,0.207 V 0.104 H 0.002 C 0.002,0.068 0,0.034 0,0"
             style="fill:#ffffff;fill-opacity:1;fill-rule:nonzero;stroke:none"
             id="path166" /></g><g
           id="g168"
           transform="translate(559.1758,787.8978)"><path
             d="M 0,0 H 1.544 V 1.106 C 1.114,1.12 0.695,1.19 0.296,1.314 0.138,0.9 0.037,0.458 0,0"
             style="fill:#ffffff;fill-opacity:1;fill-rule:nonzero;stroke:none"
             id="path170" /></g><g
           id="g172"
           transform="translate(560.7207,784.0477)"><path
             d="M 0,0 V 1.665 C -0.391,1.652 -0.771,1.589 -1.135,1.479 -0.866,0.893 -0.479,0.382 0,0"
             style="fill:#ffffff;fill-opacity:1;fill-rule:nonzero;stroke:none"
             id="path174" /></g><g
           id="g176"
           transform="translate(559.5859,789.4798)"><path
             d="M 0,0 C 0.363,-0.11 0.745,-0.173 1.135,-0.186 V 1.48 C 0.655,1.096 0.269,0.586 0,0"
             style="fill:#ffffff;fill-opacity:1;fill-rule:nonzero;stroke:none"
             id="path178" /></g><g
           id="g180"
           transform="translate(562.8291,787.8978)"><path
             d="M 0,0 H 1.562 C 1.483,0.747 1.186,1.427 0.736,1.97 0.416,1.738 0.062,1.55 -0.315,1.407 -0.145,0.964 -0.038,0.489 0,0"
             style="fill:#ffffff;fill-opacity:1;fill-rule:nonzero;stroke:none"
             id="path182" /></g><g
           id="g184"
           transform="translate(560.4883,791.139)"><path
             d="m 0,0 c -0.831,-0.09 -1.579,-0.477 -2.14,-1.054 0.295,-0.211 0.62,-0.384 0.967,-0.514 C -0.895,-0.954 -0.495,-0.414 0,0"
             style="fill:#ffffff;fill-opacity:1;fill-rule:nonzero;stroke:none"
             id="path186" /></g><g
           id="g188"
           transform="translate(559.2061,789.303)"><path
             d="M 0,0 C -0.377,0.143 -0.731,0.333 -1.049,0.564 -1.498,0.021 -1.797,-0.659 -1.875,-1.407 h 1.563 C -0.274,-0.916 -0.168,-0.441 0,0"
             style="fill:#ffffff;fill-opacity:1;fill-rule:nonzero;stroke:none"
             id="path190" /></g><g
           id="g192"
           transform="translate(559.3164,785.4359)"><path
             d="M 0,0 C -0.347,-0.13 -0.673,-0.304 -0.967,-0.513 -0.407,-1.091 0.341,-1.478 1.17,-1.567 0.677,-1.155 0.277,-0.616 0,0"
             style="fill:#ffffff;fill-opacity:1;fill-rule:nonzero;stroke:none"
             id="path194" /></g><g
           id="g196"
           transform="translate(558.876,787.5037)"><path
             d="M 0,0 C 0,0.036 0.002,0.069 0.002,0.104 H -1.564 C -1.565,0.069 -1.566,0.034 -1.566,0 c 0,-0.899 0.319,-1.725 0.844,-2.362 0.32,0.231 0.674,0.421 1.051,0.565 C 0.117,-1.24 0,-0.629 0,0"
             style="fill:#ffffff;fill-opacity:1;fill-rule:nonzero;stroke:none"
             id="path198" /></g><g
           id="g200"
           transform="translate(562.1377,785.5272)"><path
             d="M 0,0 C -0.363,0.11 -0.746,0.173 -1.136,0.186 V -1.479 C -0.656,-1.097 -0.27,-0.587 0,0"
             style="fill:#ffffff;fill-opacity:1;fill-rule:nonzero;stroke:none"
             id="path202" /></g><g
           id="g204"
           transform="translate(561.2363,783.8685)"><path
             d="M 0,0 C 0.831,0.09 1.578,0.477 2.14,1.054 1.844,1.265 1.52,1.437 1.172,1.567 0.893,0.951 0.495,0.413 0,0"
             style="fill:#ffffff;fill-opacity:1;fill-rule:nonzero;stroke:none"
             id="path206" /></g><g
           id="g208"
           transform="translate(564.4102,787.6072)"><path
             d="m 0,0 h -1.567 c 10e-4,-0.036 0.002,-0.069 0.002,-0.104 0,-0.628 -0.118,-1.24 -0.329,-1.8 0.376,-0.142 0.731,-0.333 1.049,-0.565 0.528,0.637 0.847,1.464 0.847,2.365 C 0.002,-0.069 0.001,-0.036 0,0"
             style="fill:#ffffff;fill-opacity:1;fill-rule:nonzero;stroke:none"
             id="path210" /></g><g
           id="g212"
           transform="translate(562.25,789.2117)"><path
             d="M 0,0 C -0.397,-0.125 -0.818,-0.194 -1.248,-0.208 V -1.314 H 0.297 C 0.259,-0.857 0.157,-0.414 0,0"
             style="fill:#ffffff;fill-opacity:1;fill-rule:nonzero;stroke:none"
             id="path214" /></g><g
           id="g216"
           transform="translate(561.002,790.9598)"><path
             d="M 0,0 V -1.666 C 0.391,-1.653 0.771,-1.59 1.136,-1.48 0.866,-0.894 0.479,-0.384 0,0"
             style="fill:#ffffff;fill-opacity:1;fill-rule:nonzero;stroke:none"
             id="path218" /></g><g
           id="g220"
           transform="translate(562.5654,787.5037)"><path
             d="m 0,0 c 0,0.036 -0.002,0.069 -0.002,0.104 h -1.56 v -1.606 c 0.429,-0.014 0.849,-0.084 1.248,-0.207 C -0.111,-1.178 0,-0.599 0,0"
             style="fill:#ffffff;fill-opacity:1;fill-rule:nonzero;stroke:none"
             id="path222" /></g><g
           id="g224"
           transform="translate(562.4062,789.5701)"><path
             d="M 0,0 C 0.348,0.13 0.673,0.304 0.968,0.514 0.407,1.091 -0.34,1.478 -1.172,1.568 -0.675,1.155 -0.277,0.615 0,0"
             style="fill:#ffffff;fill-opacity:1;fill-rule:nonzero;stroke:none"
             id="path226" /></g><g
           id="g228"
           transform="translate(560.8613,792.1312)"><path
             d="m 0,0 c -2.479,0 -4.498,-2.076 -4.498,-4.629 0,-2.551 2.018,-4.627 4.498,-4.627 2.48,0 4.497,2.076 4.497,4.627 C 4.496,-2.076 2.479,0 0,0 m 0,-9.833 c -2.789,0 -5.058,2.335 -5.058,5.206 0,2.87 2.269,5.205 5.058,5.205 2.789,0 5.058,-2.335 5.058,-5.205 0,-2.871 -2.269,-5.206 -5.058,-5.206"
             style="fill:#ffffff;fill-opacity:1;fill-rule:nonzero;stroke:none"
             id="path230" /></g><g
           id="g232"
           transform="translate(504.0576,786.2396)"><path
             d="M 0,0 0.062,-0.365 H 0.079 L 0.154,0 0.739,1.917 H 1.167 L 1.755,0 1.838,-0.407 H 1.854 L 1.933,0 2.394,1.917 h 0.53 L 2.073,-1.098 H 1.644 L 1.078,0.738 0.955,1.251 0.939,1.248 0.822,0.738 0.266,-1.098 h -0.431 l -0.851,3.015 h 0.532 z"
             style="fill:#ffffff;fill-opacity:1;fill-rule:nonzero;stroke:none"
             id="path234" /></g><g
           id="g236"
           transform="translate(508.2539,786.2396)"><path
             d="M 0,0 0.062,-0.365 H 0.078 L 0.154,0 0.739,1.917 H 1.167 L 1.754,0 1.838,-0.407 H 1.854 L 1.933,0 2.393,1.917 h 0.53 L 2.073,-1.098 H 1.644 L 1.078,0.738 0.955,1.251 0.939,1.248 0.822,0.738 0.266,-1.098 h -0.431 l -0.851,3.015 h 0.532 z"
             style="fill:#ffffff;fill-opacity:1;fill-rule:nonzero;stroke:none"
             id="path238" /></g><g
           id="g240"
           transform="translate(512.4492,786.2396)"><path
             d="M 0,0 0.063,-0.365 H 0.079 L 0.155,0 0.739,1.917 H 1.168 L 1.755,0 1.839,-0.407 H 1.854 L 1.934,0 2.394,1.917 h 0.53 L 2.073,-1.098 H 1.644 L 1.078,0.738 0.956,1.251 0.939,1.248 0.823,0.738 0.266,-1.098 h -0.431 l -0.85,3.015 h 0.532 z"
             style="fill:#ffffff;fill-opacity:1;fill-rule:nonzero;stroke:none"
             id="path242" /></g><path
           d="m 516.142,785.142 h -0.533 v 0.568 h 0.533 z"
           style="fill:#ffffff;fill-opacity:1;fill-rule:nonzero;stroke:none"
           id="path244" /><g
           id="g246"
           transform="translate(518.0371,787.0447)"><path
             d="M 0,0 0.622,1.111 H 1.244 L 0.295,-0.379 1.272,-1.903 H 0.66 l -0.65,1.14 -0.649,-1.14 h -0.618 l 0.978,1.524 -0.95,1.49 h 0.614 z"
             style="fill:#ffffff;fill-opacity:1;fill-rule:nonzero;stroke:none"
             id="path248" /></g><g
           id="g250"
           transform="translate(520.8242,787.0447)"><path
             d="m 0,0 0.623,1.111 h 0.622 l -0.95,-1.49 0.977,-1.524 H 0.661 l -0.65,1.14 -0.65,-1.14 h -0.617 l 0.978,1.524 -0.951,1.49 h 0.615 z"
             style="fill:#ffffff;fill-opacity:1;fill-rule:nonzero;stroke:none"
             id="path252" /></g><g
           id="g254"
           transform="translate(523.6123,787.0447)"><path
             d="m 0,0 0.622,1.111 h 0.623 l -0.95,-1.49 0.977,-1.524 H 0.66 l -0.649,1.14 -0.65,-1.14 h -0.617 l 0.977,1.524 -0.95,1.49 h 0.614 z"
             style="fill:#ffffff;fill-opacity:1;fill-rule:nonzero;stroke:none"
             id="path256" /></g><g
           id="g258"
           transform="translate(526.4004,787.0447)"><path
             d="m 0,0 0.622,1.111 h 0.623 l -0.95,-1.49 0.977,-1.524 H 0.66 l -0.65,1.14 -0.649,-1.14 h -0.618 l 0.978,1.524 -0.95,1.49 h 0.614 z"
             style="fill:#ffffff;fill-opacity:1;fill-rule:nonzero;stroke:none"
             id="path260" /></g><g
           id="g262"
           transform="translate(529.1885,787.0447)"><path
             d="M 0,0 0.622,1.111 H 1.244 L 0.295,-0.379 1.272,-1.903 H 0.66 l -0.65,1.14 -0.649,-1.14 h -0.618 l 0.978,1.524 -0.95,1.49 h 0.614 z"
             style="fill:#ffffff;fill-opacity:1;fill-rule:nonzero;stroke:none"
             id="path264" /></g><g
           id="g266"
           transform="translate(531.9756,787.0447)"><path
             d="m 0,0 0.623,1.111 h 0.622 l -0.95,-1.49 0.977,-1.524 H 0.661 l -0.65,1.14 -0.65,-1.14 h -0.617 l 0.978,1.524 -0.951,1.49 h 0.615 z"
             style="fill:#ffffff;fill-opacity:1;fill-rule:nonzero;stroke:none"
             id="path268" /></g><path
           d="m 534.352,785.142 h -0.533 v 0.568 h 0.533 z"
           style="fill:#ffffff;fill-opacity:1;fill-rule:nonzero;stroke:none"
           id="path270" /><g
           id="g272"
           transform="translate(536.4443,785.5154)"><path
             d="m 0,0 c 0.178,0 0.333,0.056 0.467,0.168 0.135,0.113 0.202,0.25 0.202,0.414 H 1.148 L 1.152,0.565 C 1.162,0.305 1.051,0.074 0.816,-0.128 0.582,-0.331 0.311,-0.432 0,-0.432 c -0.426,0 -0.752,0.143 -0.978,0.429 -0.224,0.286 -0.337,0.646 -0.337,1.078 v 0.117 c 0,0.429 0.113,0.787 0.339,1.074 C -0.75,2.553 -0.424,2.697 0,2.697 0.343,2.697 0.623,2.592 0.841,2.384 1.058,2.176 1.163,1.921 1.155,1.618 L 1.151,1.602 H 0.669 c 0,0.184 -0.064,0.34 -0.19,0.469 C 0.353,2.2 0.193,2.265 0,2.265 -0.28,2.265 -0.479,2.161 -0.6,1.955 -0.72,1.748 -0.779,1.494 -0.779,1.193 V 1.077 c 0,-0.308 0.058,-0.565 0.178,-0.77 C -0.482,0.102 -0.282,0 0,0"
             style="fill:#ffffff;fill-opacity:1;fill-rule:nonzero;stroke:none"
             id="path274" /></g><g
           id="g276"
           transform="translate(538.6045,786.617)"><path
             d="m 0,0 c 0,-0.319 0.065,-0.583 0.196,-0.79 0.131,-0.208 0.325,-0.312 0.583,-0.312 0.255,0 0.449,0.104 0.58,0.312 0.132,0.207 0.198,0.471 0.198,0.79 v 0.062 c 0,0.314 -0.067,0.577 -0.2,0.787 C 1.226,1.058 1.031,1.163 0.774,1.163 0.52,1.163 0.327,1.058 0.196,0.849 0.065,0.639 0,0.376 0,0.062 Z m -0.533,0.06 c 0,0.446 0.117,0.813 0.352,1.102 0.235,0.289 0.552,0.433 0.955,0.433 0.407,0 0.728,-0.144 0.963,-0.432 C 1.972,0.875 2.09,0.507 2.09,0.06 v -0.061 c 0,-0.45 -0.118,-0.817 -0.353,-1.103 -0.234,-0.287 -0.553,-0.43 -0.958,-0.43 -0.404,0 -0.723,0.144 -0.959,0.431 -0.235,0.287 -0.353,0.654 -0.353,1.102 z"
             style="fill:#ffffff;fill-opacity:1;fill-rule:nonzero;stroke:none"
             id="path278" /></g><g
           id="g280"
           transform="translate(541.8232,788.1561)"><path
             d="m 0,0 0.038,-0.396 c 0.096,0.144 0.218,0.254 0.364,0.334 0.148,0.079 0.319,0.118 0.513,0.118 0.195,0 0.362,-0.047 0.502,-0.139 0.141,-0.093 0.246,-0.232 0.316,-0.418 0.092,0.17 0.213,0.306 0.366,0.406 0.151,0.101 0.328,0.151 0.53,0.151 0.298,0 0.533,-0.105 0.707,-0.316 0.172,-0.211 0.26,-0.528 0.26,-0.952 V -3.014 H 3.063 v 1.808 c 0,0.297 -0.051,0.507 -0.15,0.631 C 2.813,-0.452 2.666,-0.39 2.47,-0.39 2.287,-0.39 2.139,-0.455 2.026,-0.585 1.913,-0.715 1.848,-0.879 1.828,-1.078 V -1.1 -3.014 H 1.292 v 1.808 c 0,0.282 -0.052,0.489 -0.153,0.62 -0.103,0.131 -0.248,0.196 -0.441,0.196 -0.162,0 -0.296,-0.034 -0.4,-0.103 -0.105,-0.069 -0.185,-0.165 -0.24,-0.29 V -3.014 H -0.477 V 0 Z"
             style="fill:#ffffff;fill-opacity:1;fill-rule:nonzero;stroke:none"
             id="path282" /></g><g
           id="g284"
           transform="translate(560.8594,769.8846)"><path
             d="m 0,0 h -1.881 c -0.39,-0.008 -0.737,0.26 -0.838,0.648 -0.019,0.074 -0.029,0.15 -0.029,0.227 -0.002,0.615 -0.002,1.232 -0.002,1.849 0,0.159 0.097,0.218 0.236,0.144 0.782,-0.418 1.563,-0.836 2.342,-1.256 0.107,-0.065 0.239,-0.065 0.346,0 C 0.951,2.03 1.728,2.446 2.507,2.861 2.529,2.874 2.554,2.884 2.579,2.889 2.687,2.91 2.751,2.854 2.751,2.744 V 1.142 C 2.759,1.004 2.753,0.866 2.737,0.727 2.672,0.304 2.313,-0.007 1.896,-0.001 c -0.51,-0.005 -1.02,0 -1.531,0 z"
             style="fill:#ffffff;fill-opacity:1;fill-rule:nonzero;stroke:none"
             id="path286" /></g><g
           id="g288"
           transform="translate(560.8516,774.1351)"><path
             d="M 0,0 H 1.874 C 2.242,0 2.513,-0.17 2.679,-0.51 2.733,-0.62 2.706,-0.69 2.599,-0.749 1.77,-1.191 0.94,-1.635 0.111,-2.08 c -0.062,-0.038 -0.141,-0.038 -0.205,0 l -2.508,1.344 c -0.09,0.049 -0.11,0.109 -0.069,0.205 0.158,0.348 0.43,0.527 0.802,0.53 0.623,0.005 1.245,0 1.871,0 z"
             style="fill:#ffffff;fill-opacity:1;fill-rule:nonzero;stroke:none"
             id="path290" /></g><g
           id="g292"
           transform="translate(560.8613,776.6365)"><path
             d="m 0,0 c -2.479,0 -4.498,-2.076 -4.498,-4.629 0,-2.552 2.018,-4.627 4.498,-4.627 2.48,0 4.497,2.075 4.497,4.627 C 4.496,-2.076 2.479,0 0,0 m 0,-9.834 c -2.789,0 -5.058,2.335 -5.058,5.205 0,2.87 2.269,5.205 5.058,5.205 2.789,0 5.058,-2.335 5.058,-5.205 0,-2.87 -2.269,-5.205 -5.058,-5.205"
             style="fill:#ffffff;fill-opacity:1;fill-rule:nonzero;stroke:none"
             id="path294" /></g><g
           id="g296"
           transform="translate(496.3447,773.1727)"><path
             d="m 0,0 0.623,1.111 h 0.622 l -0.95,-1.49 0.977,-1.524 H 0.661 l -0.65,1.14 -0.65,-1.14 h -0.617 l 0.978,1.524 -0.951,1.49 h 0.615 z"
             style="fill:#ffffff;fill-opacity:1;fill-rule:nonzero;stroke:none"
             id="path298" /></g><g
           id="g300"
           transform="translate(499.1328,773.1727)"><path
             d="m 0,0 0.622,1.111 h 0.623 l -0.95,-1.49 0.977,-1.524 H 0.66 l -0.649,1.14 -0.65,-1.14 h -0.617 l 0.977,1.524 -0.95,1.49 h 0.614 z"
             style="fill:#ffffff;fill-opacity:1;fill-rule:nonzero;stroke:none"
             id="path302" /></g><g
           id="g304"
           transform="translate(501.9209,773.1727)"><path
             d="m 0,0 0.622,1.111 h 0.623 l -0.95,-1.49 0.977,-1.524 H 0.66 l -0.65,1.14 -0.649,-1.14 h -0.618 l 0.978,1.524 -0.95,1.49 h 0.614 z"
             style="fill:#ffffff;fill-opacity:1;fill-rule:nonzero;stroke:none"
             id="path306" /></g><g
           id="g308"
           transform="translate(504.709,773.1727)"><path
             d="M 0,0 0.622,1.111 H 1.244 L 0.295,-0.379 1.272,-1.903 H 0.66 l -0.65,1.14 -0.649,-1.14 h -0.618 l 0.978,1.524 -0.95,1.49 h 0.614 z"
             style="fill:#ffffff;fill-opacity:1;fill-rule:nonzero;stroke:none"
             id="path310" /></g><g
           id="g312"
           transform="translate(507.4961,773.1727)"><path
             d="m 0,0 0.623,1.111 h 0.622 l -0.95,-1.49 0.977,-1.524 H 0.661 l -0.65,1.14 -0.65,-1.14 h -0.617 l 0.978,1.524 -0.951,1.49 h 0.615 z"
             style="fill:#ffffff;fill-opacity:1;fill-rule:nonzero;stroke:none"
             id="path314" /></g><g
           id="g316"
           transform="translate(510.2842,773.1727)"><path
             d="m 0,0 0.622,1.111 h 0.623 l -0.95,-1.49 0.977,-1.524 H 0.66 l -0.649,1.14 -0.65,-1.14 h -0.617 l 0.977,1.524 -0.95,1.49 h 0.614 z"
             style="fill:#ffffff;fill-opacity:1;fill-rule:nonzero;stroke:none"
             id="path318" /></g><g
           id="g320"
           transform="translate(513.0723,773.1727)"><path
             d="m 0,0 0.622,1.111 h 0.623 l -0.95,-1.49 0.977,-1.524 H 0.66 l -0.65,1.14 -0.649,-1.14 h -0.618 l 0.978,1.524 -0.95,1.49 h 0.614 z"
             style="fill:#ffffff;fill-opacity:1;fill-rule:nonzero;stroke:none"
             id="path322" /></g><g
           id="g324"
           transform="translate(515.8604,773.1727)"><path
             d="M 0,0 0.622,1.111 H 1.244 L 0.295,-0.379 1.272,-1.903 H 0.66 l -0.65,1.14 -0.649,-1.14 h -0.618 l 0.978,1.524 -0.95,1.49 h 0.614 z"
             style="fill:#ffffff;fill-opacity:1;fill-rule:nonzero;stroke:none"
             id="path326" /></g><g
           id="g328"
           transform="translate(518.6475,773.1727)"><path
             d="m 0,0 0.623,1.111 h 0.622 l -0.95,-1.49 0.977,-1.524 H 0.661 l -0.65,1.14 -0.65,-1.14 h -0.617 l 0.978,1.524 -0.951,1.49 h 0.615 z"
             style="fill:#ffffff;fill-opacity:1;fill-rule:nonzero;stroke:none"
             id="path330" /></g><g
           id="g332"
           transform="translate(522.0039,772.429)"><path
             d="m 0,0 c -0.02,-0.264 0,-0.464 0.058,-0.602 0.059,-0.137 0.155,-0.206 0.289,-0.206 0.115,0 0.22,0.022 0.316,0.068 0.096,0.046 0.184,0.127 0.263,0.244 -0.002,0.022 -0.002,0.046 -0.002,0.071 0.001,0.025 0.004,0.052 0.007,0.082 L 1.058,1.156 C 1.012,1.178 0.962,1.196 0.911,1.209 0.859,1.222 0.806,1.229 0.75,1.229 0.523,1.229 0.353,1.126 0.232,0.923 0.114,0.72 0.036,0.412 0,0 M 2.739,0.239 C 2.724,-0.158 2.615,-0.5 2.415,-0.787 c -0.2,-0.287 -0.5,-0.431 -0.898,-0.431 -0.132,0 -0.246,0.039 -0.342,0.116 -0.096,0.077 -0.164,0.186 -0.206,0.327 -0.09,-0.148 -0.2,-0.259 -0.33,-0.332 -0.13,-0.074 -0.282,-0.111 -0.454,-0.111 -0.227,0 -0.401,0.112 -0.526,0.336 -0.125,0.224 -0.171,0.518 -0.138,0.882 0.042,0.481 0.166,0.867 0.372,1.157 C 0.1,1.448 0.353,1.593 0.65,1.593 0.839,1.593 0.991,1.569 1.107,1.521 1.223,1.473 1.349,1.398 1.483,1.298 L 1.473,1.287 h 0.016 l -0.137,-1.63 c -0.018,-0.204 0.002,-0.345 0.057,-0.422 0.055,-0.077 0.128,-0.115 0.22,-0.115 0.223,0 0.4,0.105 0.534,0.315 0.134,0.211 0.207,0.478 0.222,0.802 C 2.414,0.946 2.284,1.498 1.995,1.894 1.706,2.29 1.259,2.488 0.653,2.488 0.097,2.488 -0.35,2.273 -0.688,1.845 -1.027,1.417 -1.21,0.858 -1.237,0.17 c -0.033,-0.698 0.103,-1.249 0.406,-1.654 0.304,-0.406 0.738,-0.608 1.305,-0.608 0.159,0 0.319,0.02 0.483,0.059 0.164,0.04 0.302,0.093 0.413,0.158 L 1.473,-2.173 C 1.352,-2.251 1.197,-2.312 1.012,-2.356 0.824,-2.399 0.642,-2.421 0.463,-2.421 c -0.686,0 -1.216,0.232 -1.59,0.695 -0.375,0.463 -0.546,1.096 -0.514,1.898 0.035,0.786 0.259,1.425 0.675,1.917 0.415,0.493 0.957,0.739 1.629,0.739 0.685,0 1.209,-0.233 1.574,-0.697 C 2.603,1.667 2.77,1.036 2.739,0.239"
             style="fill:#ffffff;fill-opacity:1;fill-rule:nonzero;stroke:none"
             id="path334" /></g><g
           id="g336"
           transform="translate(526.3975,773.1727)"><path
             d="m 0,0 0.622,1.111 h 0.623 l -0.95,-1.49 0.977,-1.524 H 0.66 l -0.649,1.14 -0.65,-1.14 h -0.618 l 0.978,1.524 -0.95,1.49 h 0.614 z"
             style="fill:#ffffff;fill-opacity:1;fill-rule:nonzero;stroke:none"
             id="path338" /></g><g
           id="g340"
           transform="translate(529.1855,773.1727)"><path
             d="M 0,0 0.622,1.111 H 1.244 L 0.295,-0.379 1.272,-1.903 H 0.66 l -0.65,1.14 -0.649,-1.14 h -0.618 l 0.978,1.524 -0.95,1.49 h 0.614 z"
             style="fill:#ffffff;fill-opacity:1;fill-rule:nonzero;stroke:none"
             id="path342" /></g><g
           id="g344"
           transform="translate(531.9727,773.1727)"><path
             d="M 0,0 0.623,1.111 H 1.245 L 0.296,-0.379 1.272,-1.903 H 0.661 l -0.65,1.14 -0.65,-1.14 h -0.617 l 0.978,1.524 -0.951,1.49 h 0.615 z"
             style="fill:#ffffff;fill-opacity:1;fill-rule:nonzero;stroke:none"
             id="path346" /></g><path
           d="m 534.349,771.27 h -0.533 v 0.568 h 0.533 z"
           style="fill:#ffffff;fill-opacity:1;fill-rule:nonzero;stroke:none"
           id="path348" /><g
           id="g350"
           transform="translate(536.4414,771.6434)"><path
             d="m 0,0 c 0.178,0 0.333,0.056 0.467,0.168 0.135,0.113 0.202,0.25 0.202,0.414 H 1.148 L 1.153,0.565 C 1.162,0.305 1.051,0.074 0.816,-0.128 0.583,-0.331 0.311,-0.432 0,-0.432 c -0.426,0 -0.752,0.143 -0.978,0.429 -0.224,0.286 -0.337,0.646 -0.337,1.078 v 0.117 c 0,0.429 0.113,0.787 0.339,1.074 C -0.75,2.553 -0.424,2.697 0,2.697 0.343,2.697 0.623,2.592 0.841,2.384 1.058,2.176 1.163,1.921 1.155,1.618 L 1.151,1.602 H 0.669 c 0,0.184 -0.064,0.34 -0.19,0.469 C 0.353,2.2 0.193,2.265 0,2.265 -0.28,2.265 -0.479,2.161 -0.6,1.955 -0.72,1.748 -0.779,1.494 -0.779,1.193 V 1.077 c 0,-0.308 0.058,-0.565 0.178,-0.77 C -0.482,0.102 -0.282,0 0,0"
             style="fill:#ffffff;fill-opacity:1;fill-rule:nonzero;stroke:none"
             id="path352" /></g><g
           id="g354"
           transform="translate(538.6016,772.7449)"><path
             d="m 0,0 c 0,-0.319 0.065,-0.583 0.197,-0.79 0.13,-0.208 0.324,-0.312 0.582,-0.312 0.255,0 0.449,0.104 0.58,0.312 0.132,0.207 0.198,0.471 0.198,0.79 v 0.062 c 0,0.314 -0.067,0.577 -0.2,0.787 C 1.226,1.058 1.031,1.163 0.774,1.163 0.52,1.163 0.327,1.058 0.197,0.849 0.065,0.639 0,0.376 0,0.062 Z m -0.533,0.06 c 0,0.446 0.117,0.813 0.352,1.102 0.235,0.289 0.552,0.433 0.955,0.433 0.407,0 0.728,-0.144 0.963,-0.432 C 1.973,0.875 2.09,0.507 2.09,0.06 v -0.061 c 0,-0.45 -0.117,-0.817 -0.352,-1.103 -0.234,-0.287 -0.554,-0.43 -0.959,-0.43 -0.404,0 -0.723,0.144 -0.959,0.431 -0.235,0.287 -0.353,0.654 -0.353,1.102 z"
             style="fill:#ffffff;fill-opacity:1;fill-rule:nonzero;stroke:none"
             id="path356" /></g><g
           id="g358"
           transform="translate(541.8203,774.284)"><path
             d="m 0,0 0.038,-0.396 c 0.096,0.144 0.218,0.254 0.364,0.334 0.148,0.079 0.319,0.118 0.513,0.118 0.195,0 0.362,-0.047 0.502,-0.139 0.141,-0.093 0.246,-0.232 0.316,-0.418 0.092,0.17 0.213,0.306 0.366,0.406 0.151,0.101 0.328,0.151 0.53,0.151 0.298,0 0.533,-0.105 0.707,-0.316 0.173,-0.211 0.26,-0.528 0.26,-0.952 V -3.014 H 3.063 v 1.808 c 0,0.297 -0.051,0.507 -0.15,0.631 C 2.813,-0.452 2.666,-0.39 2.47,-0.39 2.287,-0.39 2.139,-0.455 2.026,-0.585 1.913,-0.715 1.848,-0.879 1.828,-1.078 V -1.1 -3.014 H 1.292 v 1.808 c 0,0.282 -0.052,0.489 -0.153,0.62 -0.103,0.131 -0.248,0.196 -0.441,0.196 -0.162,0 -0.296,-0.034 -0.4,-0.103 -0.104,-0.069 -0.185,-0.165 -0.24,-0.29 V -3.014 H -0.476 V 0 Z"
             style="fill:#ffffff;fill-opacity:1;fill-rule:nonzero;stroke:none"
             id="path360" /></g><g
           id="g362"
           transform="translate(60.6426,810.2366)"><path
             d="m 0,0 c 5.597,-1.249 12.549,-2.47 20.922,-4.327 13.57,-3.009 11.665,-9.655 2.798,-20.15 -7.346,-8.691 -21.036,-22.926 -24.72,-26.41 -6.038,-5.711 -4.772,-10.516 0.295,-10.516 l 13.75,-0.107 c 4.276,0 6.678,1.468 8.064,4.396 1.386,2.929 5.359,11.043 5.359,11.043 l 13.999,-10.709 26.942,-0.029 v 1.006 c 0,0 -18.701,8.691 -27.369,15.379 -6.971,5.377 -4.318,10.797 -1.768,16.09 2.884,5.986 5.563,14.02 -4.353,21.453 C 27.061,2.26 20.105,2.65 7.397,4.658 L 1.413,5.64 C -0.013,5.889 -1.996,4.827 -2.406,3.551 -2.763,2.433 -1.859,0.44 -0.444,0.125 Z"
             style="fill:#ffffff;fill-opacity:1;fill-rule:nonzero;stroke:none"
             id="path364" /></g><g
           id="g366"
           transform="translate(61.5674,814.8275)"><path
             d="m 0,0 c -1.231,0 -1.938,-0.419 -2.227,-1.32 -0.133,-0.418 -0.102,-0.823 0.091,-1.17 0.261,-0.468 0.8,-0.814 1.519,-0.974 2.583,-0.577 5.578,-1.204 8.749,-1.869 3.722,-0.781 7.942,-1.666 12.449,-2.665 5.767,-1.279 9.035,-3.352 9.99,-6.339 1.146,-3.583 -1.029,-8.413 -6.844,-15.199 -7.211,-8.414 -20.888,-22.68 -24.731,-26.45 -2.982,-2.924 -4.308,-5.588 -3.641,-7.306 0.448,-1.15 1.799,-1.784 3.806,-1.784 l 13.009,0.079 c 4.065,0 5.56,0.81 6.96,3.768 1.371,2.898 5.824,11.884 5.869,11.974 l 0.11,0.224 14.752,-11.525 h 24.498 c -3.535,1.706 -17.404,8.511 -25.119,13.956 -8.202,5.789 -5.62,13.142 -2.964,18.169 4.422,8.369 3.143,14.93 -3.909,20.056 -5.826,4.235 -12.456,5.266 -23.44,6.974 -1.01,0.156 -2.056,0.319 -3.139,0.49 C 3.622,-0.549 0.324,-0.008 0.104,0 Z m -0.837,-65.496 c -2.187,0 -3.673,0.727 -4.186,2.047 -0.733,1.887 0.628,4.718 3.737,7.766 3.84,3.767 17.503,18.019 24.706,26.424 5.71,6.663 7.859,11.363 6.764,14.79 -0.906,2.833 -4.076,4.815 -9.689,6.061 -4.505,0.998 -8.724,1.883 -12.445,2.663 -3.172,0.665 -6.167,1.293 -8.753,1.87 -0.834,0.187 -1.469,0.604 -1.787,1.177 -0.252,0.452 -0.295,0.974 -0.124,1.509 C -2.268,-0.106 -1.413,0.42 0,0.42 h 0.105 c 0.254,0 4.832,-0.763 5.747,-0.916 1.081,-0.17 2.126,-0.334 3.136,-0.49 11.044,-1.717 17.709,-2.753 23.615,-7.046 7.251,-5.271 8.571,-12.01 4.032,-20.599 -2.799,-5.298 -5.006,-12.088 2.836,-17.623 8.818,-6.223 25.725,-14.241 25.895,-14.321 l 0.847,-0.401 H 39.724 l -0.055,0.043 -14.418,11.264 c -0.7,-1.413 -4.506,-9.106 -5.754,-11.744 -1.47,-3.106 -3.113,-4.004 -7.326,-4.004 z M 0.048,0.896 c -1.549,0 -2.786,-0.733 -3.149,-1.871 -0.198,-0.619 -0.129,-1.299 0.193,-1.915 0.393,-0.752 1.106,-1.291 1.957,-1.48 2.635,-0.588 5.725,-1.204 8.714,-1.798 3.565,-0.712 8.002,-1.597 12.617,-2.62 5.384,-1.193 8.527,-3.178 9.34,-5.901 0.967,-3.234 -1.194,-7.917 -6.604,-14.32 -7.465,-8.832 -21.161,-23.082 -24.663,-26.394 -3.289,-3.108 -4.702,-5.974 -3.978,-8.07 0.537,-1.56 2.166,-2.418 4.586,-2.418 h 13.103 c 4.346,0 6.314,1.06 7.8,4.201 1.126,2.382 4.277,8.837 5.397,11.123 l 0.109,0.223 14.091,-10.797 c 0.066,-0.05 0.148,-0.079 0.231,-0.079 h 26.011 c 0.473,0 0.594,0.138 0.6,0.187 l -0.003,0.043 0.015,0.027 c 0,0 0.06,0.194 -0.029,0.357 -0.063,0.115 -0.192,0.197 -0.382,0.244 -0.084,0.02 -17.369,8.347 -26.291,14.646 -7.596,5.36 -5.324,11.475 -2.599,16.785 3.124,6.09 5.465,14.014 -4.24,21.289 -5.933,4.445 -12.221,5.378 -21.74,6.791 -1.644,0.245 -3.389,0.504 -5.249,0.798 L 0.854,0.828 C 0.589,0.874 0.318,0.896 0.048,0.896 M 12.164,-66.311 H -0.939 c -2.607,0 -4.372,0.958 -4.971,2.697 -0.781,2.265 0.669,5.291 4.087,8.52 3.497,3.307 17.175,17.538 24.631,26.361 5.31,6.283 7.444,10.837 6.522,13.92 -0.767,2.567 -3.807,4.456 -9.036,5.615 -4.611,1.021 -9.045,1.906 -12.609,2.617 -2.992,0.595 -6.084,1.211 -8.722,1.8 -0.968,0.216 -1.78,0.832 -2.23,1.692 -0.376,0.718 -0.455,1.515 -0.222,2.246 0.42,1.311 1.808,2.16 3.537,2.16 0.293,0 0.586,-0.025 0.874,-0.076 l 5.029,-0.88 c 1.855,-0.293 3.598,-0.552 5.24,-0.796 9.58,-1.421 15.909,-2.361 21.924,-6.867 9.958,-7.466 7.561,-15.586 4.359,-21.826 -2.642,-5.149 -4.849,-11.077 2.47,-16.242 8.573,-6.052 25.617,-14.376 26.171,-14.588 0.292,-0.071 0.51,-0.224 0.63,-0.449 0.148,-0.275 0.092,-0.56 0.066,-0.66 -0.006,-0.067 -0.031,-0.182 -0.132,-0.295 -0.165,-0.184 -0.46,-0.278 -0.876,-0.278 H 39.792 c -0.169,0 -0.338,0.058 -0.475,0.163 l -13.7,10.498 c -1.203,-2.458 -4.196,-8.588 -5.286,-10.895 -1.57,-3.317 -3.631,-4.437 -8.167,-4.437"
             style="fill:#000000;fill-opacity:1;fill-rule:nonzero;stroke:none"
             id="path368" /></g><g
           id="g370"
           transform="translate(105.0908,778.5233)"><path
             d="m 0,0 c -0.472,-3.792 -1.932,-3.733 -4.23,-1.149 -2.147,2.414 -2.536,8.748 7.511,14.725 15.699,9.34 44.247,7.944 49.278,13.86 0,0 1.509,-0.31 2.944,-0.31 0.793,0 2.197,0.184 2.197,0.184 0,0 -1.959,-5.083 -12.559,-7.38 C 34.787,17.689 22.936,16.624 14.786,12.942 6.636,9.261 0.893,7.183 0,0"
             style="fill:#ffffff;fill-opacity:1;fill-rule:nonzero;stroke:none"
             id="path372" /></g><g
           id="g374"
           transform="translate(157.7256,805.7308)"><path
             d="m 0,0 c -2.467,-2.736 -9.941,-3.921 -18.582,-5.291 -9.927,-1.574 -22.281,-3.532 -30.669,-8.523 -6.426,-3.822 -8.208,-7.521 -8.572,-9.952 -0.258,-1.716 0.157,-3.38 1.109,-4.449 1.194,-1.344 2.11,-1.924 2.701,-1.729 0.575,0.188 0.971,1.117 1.176,2.763 0.848,6.817 6.068,9.152 13.294,12.384 0.526,0.235 1.064,0.476 1.612,0.724 5.681,2.566 13.281,3.888 20.632,5.168 3.244,0.565 6.6,1.149 9.762,1.834 8.782,1.902 11.585,5.763 12.244,6.918 C 4.229,-0.208 3.414,-0.291 2.868,-0.291 1.64,-0.291 0.382,-0.072 0,0 m -54.259,-30.403 c -0.723,0 -1.612,0.617 -2.757,1.903 -1.048,1.181 -1.49,2.93 -1.211,4.798 0.378,2.521 2.206,6.347 8.772,10.252 8.454,5.03 20.851,6.995 30.811,8.575 8.656,1.371 16.132,2.557 18.415,5.242 l 0.078,0.091 0.116,-0.024 C -0.02,0.431 1.471,0.129 2.868,0.129 c 0.771,0 2.158,0.18 2.172,0.181 L 5.383,0.354 5.255,0.024 C 5.174,-0.188 3.134,-5.189 -7.452,-7.483 c -3.171,-0.686 -6.53,-1.271 -9.779,-1.836 -7.327,-1.275 -14.901,-2.593 -20.536,-5.138 -0.549,-0.249 -1.087,-0.489 -1.614,-0.726 -7.366,-3.294 -12.233,-5.472 -13.052,-12.052 -0.23,-1.848 -0.706,-2.864 -1.456,-3.109 -0.119,-0.039 -0.241,-0.059 -0.37,-0.059"
             style="fill:#000000;fill-opacity:1;fill-rule:nonzero;stroke:none"
             id="path376" /></g><g
           id="g378"
           transform="translate(157.6509,806.6243)"><path
             d="m 0,0 c -0.17,0 -0.333,-0.076 -0.451,-0.213 -2.186,-2.571 -9.598,-3.745 -18.178,-5.108 -9.992,-1.583 -22.427,-3.555 -30.945,-8.621 -6.762,-4.024 -8.621,-8.015 -8.992,-10.656 -0.277,-1.983 0.209,-3.848 1.336,-5.114 1.235,-1.39 2.205,-2.037 3.051,-2.037 1.783,0 2.116,2.679 2.225,3.559 0.787,6.319 5.474,8.67 12.708,11.905 0.527,0.237 1.008,0.464 1.56,0.713 5.588,2.526 13.285,3.638 20.586,4.908 3.256,0.568 6.621,1.153 9.801,1.841 10.796,2.339 12.92,7.554 13.005,7.775 0.085,0.218 0.055,0.468 -0.077,0.656 -0.116,0.168 -0.297,0.265 -0.488,0.265 -0.025,0 -0.049,-0.002 -0.074,-0.004 -0.013,-0.003 -1.378,-0.178 -2.124,-0.178 -1.358,0 -2.816,0.294 -2.831,0.297 C 0.075,-0.003 0.038,0 0,0 m 0,-0.666 c 0,0 1.507,-0.309 2.943,-0.309 0.794,0 2.198,0.184 2.198,0.184 0,0 -1.959,-5.084 -12.559,-7.38 -10.354,-2.241 -22.454,-3.017 -30.603,-6.696 -8.149,-3.681 -13.646,-6.051 -14.539,-13.234 -0.257,-2.06 -0.804,-2.984 -1.619,-2.984 -0.686,0 -1.561,0.653 -2.611,1.835 -2.147,2.414 -2.535,8.749 7.512,14.725 15.699,9.34 44.245,7.944 49.278,13.859"
             style="fill:#ffffff;fill-opacity:1;fill-rule:nonzero;stroke:none"
             id="path380" /></g><g
           id="g382"
           transform="translate(157.7837,805.8006)"><path
             d="m 0,0 c -2.599,-2.644 -10.021,-3.854 -18.577,-5.25 -10.479,-1.711 -22.356,-3.65 -30.732,-8.634 -6.425,-3.821 -8.208,-7.52 -8.571,-9.949 -0.258,-1.718 0.157,-3.382 1.109,-4.451 1.042,-1.173 1.869,-1.768 2.459,-1.768 0.436,0 1.057,0.291 1.418,2.804 0.185,1.292 0.661,2.787 1.304,4.102 1.235,2.524 3.451,4.182 5.245,5.346 0.515,0.334 1.053,0.665 1.597,0.983 0.559,0.327 1.136,0.648 1.715,0.953 0.584,0.308 1.179,0.609 1.768,0.893 2.103,1.014 4.36,1.776 6.484,2.448 2.075,0.656 4.289,1.334 6.549,1.793 0.675,0.136 1.351,0.267 2.027,0.391 2.155,0.397 4.351,0.744 6.476,1.081 l 1.641,0.259 c 1.586,0.25 3.171,0.5 4.754,0.77 2.262,0.384 4.086,0.729 5.74,1.088 8.781,1.9 11.584,5.764 12.244,6.918 C 4.172,-0.277 3.357,-0.361 2.811,-0.361 1.688,-0.361 0.504,-0.117 0,0 m -54.312,-30.472 c -0.73,0 -1.606,0.605 -2.761,1.904 -1.049,1.18 -1.49,2.929 -1.211,4.798 0.377,2.52 2.205,6.345 8.771,10.25 8.442,5.023 20.358,6.967 30.872,8.684 8.652,1.412 16.134,2.633 18.489,5.277 l 0.006,0.027 c 0,0 0.005,-0.002 0.013,-0.004 0.012,0.014 0.025,0.029 0.037,0.044 L -0.015,0.435 C 0.389,0.338 1.653,0.059 2.811,0.059 c 0.772,0 2.158,0.18 2.172,0.182 L 5.326,0.286 5.198,-0.044 C 5.117,-0.257 3.077,-5.261 -7.509,-7.553 -9.17,-7.911 -11,-8.258 -13.267,-8.644 c -1.585,-0.269 -3.172,-0.519 -4.758,-0.77 l -1.642,-0.259 c -2.122,-0.336 -4.316,-0.683 -6.466,-1.079 -0.673,-0.125 -1.347,-0.254 -2.02,-0.39 -2.241,-0.455 -4.444,-1.129 -6.509,-1.783 -2.109,-0.667 -4.35,-1.423 -6.429,-2.427 -0.585,-0.281 -1.175,-0.58 -1.756,-0.886 -0.573,-0.303 -1.145,-0.62 -1.699,-0.946 -0.54,-0.314 -1.072,-0.641 -1.582,-0.973 -1.749,-1.134 -3.908,-2.746 -5.097,-5.178 -0.625,-1.276 -1.087,-2.725 -1.266,-3.973 -0.314,-2.188 -0.876,-3.164 -1.821,-3.164 M -0.133,0.614 c -0.114,0 -0.219,-0.052 -0.298,-0.142 -2.232,-2.626 -9.666,-3.806 -18.274,-5.173 -9.999,-1.583 -22.409,-3.549 -30.899,-8.599 -6.691,-3.981 -8.529,-7.909 -8.894,-10.504 -0.268,-1.921 0.201,-3.722 1.286,-4.943 1.194,-1.343 2.115,-1.968 2.9,-1.968 1.604,0 1.919,2.541 2.023,3.375 0.724,5.812 4.958,7.999 10.819,11.027 0.645,0.332 1.311,0.677 1.998,1.039 3.391,1.786 10.655,3.631 22.205,5.641 l 0.14,0.024 c 3.206,0.56 6.522,1.138 9.653,1.816 C 3.223,-5.476 5.3,-0.364 5.383,-0.148 5.442,0.005 5.422,0.18 5.331,0.309 5.252,0.422 5.135,0.486 5.008,0.486 L 4.947,0.484 C 4.926,0.471 3.514,0.304 2.811,0.304 c -1.387,0 -2.862,0.3 -2.876,0.303 -0.018,0.004 -0.042,0.007 -0.068,0.007 m -54.179,-31.749 c -0.907,0 -1.924,0.668 -3.202,2.104 -1.168,1.314 -1.673,3.241 -1.387,5.287 0.378,2.686 2.26,6.742 9.093,10.808 8.556,5.089 21.009,7.061 31.015,8.646 8.555,1.358 15.921,2.528 18.056,5.039 0.193,0.225 0.505,0.324 0.759,0.268 C 0.036,1.015 1.478,0.724 2.811,0.724 3.519,0.724 4.824,0.888 4.9,0.9 4.95,0.905 4.979,0.906 5.008,0.906 5.265,0.906 5.51,0.774 5.663,0.555 5.834,0.31 5.873,-0.019 5.763,-0.303 5.676,-0.527 3.519,-5.841 -7.39,-8.205 c -3.139,-0.679 -6.459,-1.258 -9.67,-1.818 l -0.138,-0.024 c -11.51,-2.003 -18.734,-3.835 -22.088,-5.601 -0.688,-0.362 -1.355,-0.707 -2.001,-1.041 -5.963,-3.08 -9.901,-5.115 -10.597,-10.705 -0.115,-0.925 -0.464,-3.741 -2.428,-3.741"
             style="fill:#000000;fill-opacity:1;fill-rule:nonzero;stroke:none"
             id="path384" /></g><g
           id="g386"
           transform="translate(116.1831,765.6624)"><path
             d="m 0,0 c -2.298,0.07 -5.067,1.342 -4.835,4.164 0.231,2.82 -0.17,4.401 -0.412,6.695 -0.24,2.295 -0.39,4.174 1.312,5.597 2.597,2.17 6.453,3.14 10.281,2.868 3.827,-0.272 5.835,-3.586 4.55,-4.945 C 9.611,13.018 4.377,14.068 2.678,12.746 0.354,10.941 1.278,8.035 3.487,8.557 5.696,9.08 8.088,10.374 8.486,9.685 9.631,7.702 7.564,6.786 5.735,6.531 3.909,6.275 2.524,5.881 2.764,4.019 3.006,2.159 3.5,-0.106 0,0"
             style="fill:#1f6870;fill-opacity:1;fill-rule:nonzero;stroke:none"
             id="path388" /></g><g
           id="g390"
           transform="translate(116.1895,765.8724)"><path
             d="M 0,0 C 1.136,-0.037 1.896,0.18 2.311,0.657 2.888,1.319 2.739,2.424 2.595,3.492 L 2.556,3.781 C 2.286,5.874 3.962,6.287 5.702,6.529 7.137,6.729 8.182,7.25 8.497,7.92 8.688,8.328 8.624,8.815 8.305,9.367 8.132,9.668 6.878,9.227 5.871,8.874 5.145,8.619 4.321,8.331 3.526,8.142 2.544,7.914 1.692,8.294 1.307,9.145 c -0.419,0.924 -0.209,2.432 1.241,3.558 0.891,0.693 2.636,0.77 4.324,0.842 1.611,0.07 3.278,0.143 3.871,0.77 0.363,0.383 0.429,0.984 0.183,1.646 -0.481,1.295 -2.125,2.768 -4.601,2.943 C 2.42,19.172 -1.368,18.126 -3.812,16.082 -5.471,14.696 -5.276,12.831 -5.05,10.671 -4.993,10.119 -4.925,9.608 -4.859,9.111 -4.655,7.562 -4.461,6.098 -4.639,3.935 -4.713,3.031 -4.467,2.245 -3.907,1.599 -2.935,0.478 -1.252,0.039 0,0 m 0.226,-0.423 c -0.078,0 -0.158,0 -0.239,0.003 -1.336,0.041 -3.141,0.519 -4.198,1.74 -0.638,0.736 -0.919,1.627 -0.834,2.651 0.173,2.116 -0.017,3.558 -0.219,5.084 -0.066,0.5 -0.133,1.014 -0.193,1.57 -0.228,2.188 -0.444,4.253 1.388,5.784 2.56,2.142 6.356,3.206 10.423,2.914 2.653,-0.188 4.427,-1.797 4.953,-3.211 0.306,-0.822 0.207,-1.585 -0.271,-2.09 C 10.33,13.275 8.659,13.203 6.889,13.125 5.264,13.055 3.584,12.983 2.794,12.368 1.525,11.382 1.326,10.098 1.677,9.322 1.981,8.651 2.64,8.363 3.436,8.552 4.209,8.735 5.022,9.02 5.739,9.271 7.234,9.794 8.315,10.172 8.655,9.582 9.048,8.901 9.119,8.28 8.864,7.737 8.324,6.587 6.511,6.218 5.756,6.113 3.743,5.832 2.759,5.402 2.96,3.837 L 2.999,3.55 C 3.148,2.441 3.318,1.184 2.615,0.376 2.146,-0.161 1.364,-0.423 0.226,-0.423"
             style="fill:#000000;fill-opacity:1;fill-rule:nonzero;stroke:none"
             id="path392" /></g><g
           id="g394"
           transform="translate(121.2686,785.4261)"><path
             d="m 0,0 c -3.726,0 -7.202,-1.121 -9.538,-3.073 -1.885,-1.576 -1.667,-3.655 -1.435,-5.856 0.057,-0.557 0.126,-1.075 0.193,-1.576 0.209,-1.591 0.39,-2.964 0.217,-5.076 -0.147,-1.793 0.855,-2.869 1.722,-3.459 0.985,-0.669 2.343,-1.077 3.724,-1.119 0.09,-0.002 0.178,-0.004 0.264,-0.004 1.015,0 1.814,0.19 2.376,0.567 1.211,0.808 1.012,2.288 0.836,3.594 l -0.039,0.289 c -0.208,1.599 0.844,1.866 2.473,2.095 1.402,0.195 2.539,0.677 3.115,1.322 0.586,0.655 0.62,1.445 0.1,2.349 -0.17,0.293 -0.562,0.461 -1.074,0.461 -0.665,0 -1.486,-0.288 -2.526,-0.653 -0.702,-0.246 -1.497,-0.524 -2.237,-0.698 -0.099,-0.024 -0.192,-0.038 -0.277,-0.038 -0.327,0 -0.555,0.204 -0.689,0.374 -0.598,0.759 -0.428,2.212 0.891,3.239 0.665,0.516 2.234,0.585 3.75,0.65 1.819,0.079 3.699,0.16 4.519,1.029 C 7.11,-4.797 6.959,-3.47 5.99,-2.282 4.943,-0.998 3.245,-0.183 1.333,-0.047 0.891,-0.015 0.442,0 0,0"
             style="fill:#ffffff;fill-opacity:1;fill-rule:nonzero;stroke:none"
             id="path396" /></g><g
           id="g398"
           transform="translate(121.2617,784.511)"><path
             d="m 0,0 c -3.507,0 -6.515,-0.964 -8.698,-2.789 -1.679,-1.403 -1.65,-3.031 -1.425,-5.176 0.059,-0.554 0.126,-1.065 0.192,-1.562 0.204,-1.55 0.397,-3.013 0.22,-5.177 -0.058,-0.708 0.15,-1.345 0.62,-1.895 1.031,-1.208 3.055,-1.691 3.82,-1.726 1.028,-0.043 1.787,0.19 2.244,0.704 0.503,0.565 0.675,1.495 0.511,2.763 -0.291,2.244 1.66,2.781 3.152,2.99 1.401,0.196 2.306,0.599 2.617,1.166 0.174,0.318 0.167,0.691 -0.022,1.141 -0.016,0.027 -0.141,0.093 -0.349,0.093 -0.416,0 -1.527,-0.343 -2.601,-0.675 -1.161,-0.358 -2.257,-0.696 -2.771,-0.71 -0.684,-0.004 -1.178,0.37 -1.414,1.064 -0.403,1.185 0.084,3.18 1.574,4.338 0.899,0.698 2.58,0.692 4.216,0.684 1.53,-0.005 3.116,-0.014 3.703,0.607 0.375,0.397 0.272,0.914 0.121,1.277 C 5.114,-1.456 2.86,0.001 0.1,0.001 0.068,0.001 0.035,0.001 0.002,0 Z m -5.021,-18.75 c -0.087,0 -0.177,0.001 -0.268,0.005 -0.854,0.039 -2.98,0.548 -4.109,1.869 -0.545,0.639 -0.788,1.382 -0.72,2.209 0.173,2.116 -0.007,3.491 -0.218,5.083 -0.066,0.501 -0.134,1.016 -0.193,1.573 -0.231,2.206 -0.262,4.015 1.574,5.549 2.278,1.904 5.404,2.899 9.059,2.883 3.035,0 5.341,-1.607 5.98,-3.137 0.285,-0.68 0.213,-1.297 -0.202,-1.736 -0.709,-0.75 -2.305,-0.745 -3.998,-0.735 -1.557,0.012 -3.178,0.015 -3.968,-0.599 -1.343,-1.044 -1.791,-2.818 -1.436,-3.864 0.125,-0.367 0.429,-0.802 1.02,-0.783 0.458,0.012 1.579,0.358 2.664,0.693 1.153,0.356 2.243,0.693 2.718,0.693 0.28,0 0.618,-0.092 0.723,-0.348 0.24,-0.57 0.241,-1.079 0.004,-1.513 -0.382,-0.696 -1.363,-1.158 -2.919,-1.377 -2.153,-0.3 -2.991,-1.053 -2.801,-2.518 0.18,-1.396 -0.026,-2.44 -0.615,-3.102 -0.5,-0.562 -1.271,-0.845 -2.295,-0.845 M 0.006,0.705 c -3.678,0 -7.107,-1.103 -9.408,-3.027 -1.8,-1.504 -1.587,-3.527 -1.361,-5.669 0.056,-0.556 0.125,-1.072 0.192,-1.57 0.211,-1.603 0.393,-2.987 0.218,-5.123 -0.139,-1.687 0.811,-2.707 1.631,-3.266 0.953,-0.648 2.272,-1.043 3.618,-1.084 l 0.259,-0.004 c 0.975,0 1.736,0.179 2.263,0.533 1.104,0.736 0.921,2.085 0.745,3.389 l -0.039,0.289 c -0.249,1.926 1.291,2.142 2.648,2.332 1.357,0.189 2.448,0.647 2.993,1.256 0.525,0.588 0.549,1.275 0.074,2.1 -0.13,0.223 -0.466,0.357 -0.898,0.357 -0.632,0 -1.439,-0.282 -2.461,-0.639 -0.625,-0.221 -1.483,-0.523 -2.256,-0.705 -0.607,-0.147 -0.97,0.152 -1.171,0.407 -0.296,0.377 -0.424,0.888 -0.358,1.439 0.093,0.781 0.549,1.528 1.284,2.101 0.717,0.556 2.317,0.625 3.866,0.692 1.785,0.078 3.619,0.158 4.38,0.965 0.669,0.706 0.514,1.919 -0.385,3.02 C 4.829,-0.261 3.185,0.526 1.327,0.659 0.902,0.689 0.458,0.705 0.006,0.705 m -4.851,-20.163 -0.261,0.003 c -1.429,0.045 -2.826,0.465 -3.841,1.154 -0.912,0.622 -1.968,1.76 -1.812,3.654 0.171,2.088 -0.009,3.451 -0.217,5.029 -0.067,0.502 -0.136,1.022 -0.193,1.582 -0.238,2.26 -0.462,4.392 1.51,6.041 2.372,1.983 5.895,3.12 9.665,3.12 0.461,0 0.915,-0.016 1.349,-0.048 C 3.323,0.937 5.071,0.096 6.152,-1.232 7.193,-2.506 7.34,-3.946 6.518,-4.815 5.644,-5.741 3.728,-5.825 1.874,-5.906 0.446,-5.968 -1.16,-6.038 -1.774,-6.514 -2.421,-7.018 -2.82,-7.663 -2.9,-8.331 c -0.052,-0.437 0.045,-0.836 0.27,-1.124 0.135,-0.171 0.352,-0.36 0.762,-0.263 0.754,0.178 1.599,0.476 2.216,0.694 1.058,0.37 1.893,0.662 2.593,0.662 0.585,0 1.041,-0.205 1.249,-0.562 0.563,-0.979 0.519,-1.878 -0.126,-2.598 -0.607,-0.682 -1.787,-1.188 -3.236,-1.39 -1.696,-0.237 -2.475,-0.498 -2.299,-1.859 l 0.039,-0.288 c 0.176,-1.299 0.394,-2.917 -0.928,-3.799 -0.594,-0.398 -1.431,-0.6 -2.485,-0.6"
             style="fill:#000000;fill-opacity:1;fill-rule:nonzero;stroke:none"
             id="path400" /></g><g
           id="g402"
           transform="translate(153.96,765.6404)"><path
             d="m 0,0 c -3.827,0 -8.264,0.783 -8.289,4.935 -0.024,4.149 -1.035,9.851 -0.607,11.796 0.429,1.946 2.638,2.724 4.256,2.675 1.616,-0.049 6.102,-1.045 4.255,-7.323 C -1.194,9.335 -3.011,6.001 -2.134,5.151 -0.901,3.96 2.837,4.414 4.245,4.95 5.652,5.485 7.345,5.225 7.786,4.009 8.225,2.792 7.815,0 0,0"
             style="fill:#ffffff;fill-opacity:1;fill-rule:nonzero;stroke:none"
             id="path404" /></g><g
           id="g406"
           transform="translate(149.1836,784.8382)"><path
             d="m 0,0 c -1.4,0 -3.51,-0.653 -3.92,-2.514 -0.235,-1.063 -0.016,-3.389 0.216,-5.851 0.189,-2.004 0.385,-4.076 0.396,-5.897 0.018,-3.136 2.738,-4.726 8.084,-4.726 4.943,0 6.734,1.114 7.365,2.049 0.491,0.727 0.324,1.415 0.23,1.677 -0.406,1.12 -2.017,1.296 -3.279,0.817 -1.36,-0.517 -5.24,-1.058 -6.589,0.245 -0.705,0.685 -0.024,2.465 0.765,4.527 0.334,0.872 0.679,1.775 0.928,2.619 0.66,2.244 0.56,4.004 -0.297,5.23 C 2.739,-0.163 0.557,-0.015 0.13,-0.001 0.088,0 0.045,0 0,0 m 4.776,-19.408 c -5.615,0 -8.472,1.73 -8.492,5.143 -0.011,1.802 -0.205,3.865 -0.393,5.859 -0.245,2.606 -0.458,4.856 -0.21,5.986 0.479,2.166 2.945,2.902 4.461,2.838 0.46,-0.013 2.816,-0.176 4.089,-1.996 0.935,-1.339 1.054,-3.221 0.355,-5.597 -0.253,-0.862 -0.602,-1.772 -0.939,-2.653 -0.672,-1.758 -1.369,-3.576 -0.864,-4.066 1.157,-1.118 4.852,-0.658 6.167,-0.157 1.447,0.551 3.31,0.299 3.803,-1.065 0.117,-0.324 0.324,-1.173 -0.277,-2.063 -0.687,-1.017 -2.58,-2.229 -7.7,-2.229"
             style="fill:#000000;fill-opacity:1;fill-rule:nonzero;stroke:none"
             id="path408" /></g><g
           id="g410"
           transform="translate(149.1763,785.4261)"><path
             d="m 0,0 c -1.914,0 -4.18,-0.937 -4.633,-2.996 -0.252,-1.139 -0.038,-3.394 0.207,-6.005 0.188,-1.993 0.382,-4.054 0.393,-5.852 0.015,-2.423 1.556,-5.31 8.816,-5.31 3.699,0 6.234,0.609 7.534,1.807 1.204,1.109 0.887,2.327 0.763,2.675 -0.331,0.915 -1.344,1.487 -2.638,1.487 -0.557,0 -1.131,-0.108 -1.662,-0.309 -0.66,-0.251 -1.997,-0.506 -3.274,-0.506 -1.169,0 -2.032,0.213 -2.43,0.599 -0.454,0.439 0.295,2.4 0.899,3.974 0.337,0.882 0.686,1.793 0.941,2.658 0.837,2.848 0.507,4.986 -0.98,6.351 C 2.568,-0.17 0.704,-0.019 0.167,-0.002 0.111,0 0.055,0 0,0 m 0.656,-3.54 c 0.049,0 -0.507,0.766 -0.459,0.764 1.616,-0.047 4.322,1.652 2.474,-4.623 -0.808,-2.751 -1.975,-6.739 -1.097,-7.587 0.572,-0.555 1.661,-1.995 2.832,-1.995 1.346,0 3.837,0.317 4.592,0.603 0.458,0.175 0.859,0.471 1.326,0.473 0.965,0 0.672,0.373 0.969,-0.447 0.439,-1.216 1.438,-2.94 -6.377,-2.94 -3.827,0 -6.633,0.574 -6.658,4.726 -0.035,5.515 0.021,7.167 0.765,10.553 0.416,1.889 -0.426,1.237 1.174,1.237"
             style="fill:#ffffff;fill-opacity:1;fill-rule:nonzero;stroke:none"
             id="path412" /></g><g
           id="g414"
           transform="translate(149.041,784.2484)"><path
             d="m 0,0 c -1.647,-0.039 -3.232,-1.248 -3.448,-2.226 -0.233,-1.057 -0.022,-3.231 0.201,-5.531 0.177,-1.829 0.379,-3.904 0.39,-5.735 0.007,-1.154 0.362,-2.089 1.056,-2.78 1.199,-1.193 3.438,-1.73 6.846,-1.632 4.927,0.139 6.593,1.132 7.123,1.94 0.309,0.471 0.246,0.921 0.14,1.215 -0.252,0.698 -1.231,0.756 -2.13,0.756 -0.432,-0.002 -0.713,-0.055 -1.153,-0.223 -0.583,-0.221 -1.792,-0.591 -3.337,-0.591 -1.077,0 -2.898,0.365 -3.386,1.147 -0.514,0.828 0.136,2.649 0.887,4.758 0.29,0.814 0.591,1.656 0.825,2.452 0.634,2.154 0.572,3.794 -0.185,4.877 C 3.126,-0.57 1.874,-0.055 0,0 m 4.264,-18.336 c -3.118,0 -5.147,0.566 -6.349,1.762 -0.775,0.772 -1.173,1.807 -1.18,3.078 -0.011,1.813 -0.212,3.877 -0.388,5.698 -0.236,2.437 -0.441,4.541 -0.194,5.665 0.253,1.148 1.987,2.512 3.843,2.553 h 0.01 C 2.019,0.362 3.377,-0.21 4.16,-1.327 4.995,-2.522 5.077,-4.286 4.404,-6.571 4.167,-7.378 3.865,-8.227 3.573,-9.047 c -0.656,-1.836 -1.332,-3.734 -0.927,-4.386 0.35,-0.562 1.884,-0.954 3.042,-0.954 1.482,0 2.639,0.354 3.196,0.565 0.484,0.184 0.811,0.248 1.293,0.249 0.749,0 2.141,0 2.514,-1.03 0.14,-0.386 0.221,-0.977 -0.185,-1.596 -0.849,-1.295 -3.355,-2.01 -7.449,-2.126 -0.271,-0.007 -0.536,-0.011 -0.793,-0.011 M 0.135,0.967 c -1.835,0 -4.005,-0.885 -4.434,-2.832 -0.243,-1.098 -0.034,-3.318 0.206,-5.887 0.194,-2.043 0.388,-4.104 0.4,-5.922 0.02,-3.337 2.997,-5.101 8.611,-5.101 3.646,0 6.135,0.59 7.398,1.754 1.112,1.024 0.986,2.252 0.851,2.508 -1.02,1.945 -2.879,1.45 -4.848,0.928 -0.915,-0.243 -1.85,-0.498 -2.687,-0.457 -1.368,0.064 -2.158,0.267 -2.561,0.658 -0.518,0.499 0.025,2.057 0.849,4.203 l 0.024,0.06 c 0.327,0.858 0.664,1.744 0.911,2.581 0.813,2.764 0.503,4.827 -0.919,6.134 -1.317,1.21 -3.12,1.356 -3.641,1.372 z m 4.783,-20.162 c -7.427,0 -9.004,3.001 -9.019,5.518 -0.012,1.799 -0.206,3.85 -0.393,5.833 -0.249,2.657 -0.46,4.907 -0.204,6.073 0.48,2.17 2.841,3.158 4.833,3.158 L 0.307,1.386 C 0.863,1.369 2.787,1.212 4.207,-0.093 5.759,-1.518 6.109,-3.728 5.246,-6.661 4.994,-7.515 4.653,-8.409 4.323,-9.274 L 4.3,-9.335 c -0.456,-1.188 -1.305,-3.4 -0.949,-3.743 0.317,-0.309 1.07,-0.487 2.3,-0.544 0.768,-0.04 1.64,0.197 2.566,0.443 1.94,0.514 4.138,1.097 5.309,-1.134 0.204,-0.388 0.361,-1.825 -0.937,-3.022 -1.341,-1.234 -3.922,-1.86 -7.671,-1.86"
             style="fill:#000000;fill-opacity:1;fill-rule:nonzero;stroke:none"
             id="path416" /></g><g
           id="g418"
           transform="translate(137.0981,771.8929)"><path
             d="m 0,0 c -1.598,-0.403 -3.611,-0.823 -3.962,-0.129 -0.35,0.693 0.723,1.598 0.379,3.76 -0.172,1.072 -0.345,2.008 0.737,2.275 1.084,0.265 2.053,0.726 2.595,-0.509 C 0.526,3.631 1.598,0.403 0,0 M 6.676,1.284 C 6.331,4.568 4.542,7.455 2.769,11.012 0.996,14.569 -3.257,13.477 -5,11.63 -9.477,6.887 -9.609,0.218 -9.871,-3.605 c -0.264,-3.825 1.313,-4.238 3.184,-4.203 4.153,0.076 2.708,2.23 2.775,3.839 0.044,1.101 0.459,1.21 1.132,1.247 0.672,0.035 2.189,0.254 3.24,0.481 1.05,0.225 0.941,-1.259 0.919,-2.485 -0.021,-1.227 0.131,-2.598 3.13,-2.292 2.999,0.306 2.671,3.501 2.167,8.302"
             style="fill:#ffffff;fill-opacity:1;fill-rule:nonzero;stroke:none"
             id="path420" /></g><g
           id="g422"
           transform="translate(135.7422,778.157)"><path
             d="M 0,0 C -0.281,0 -0.619,-0.084 -1.036,-0.197 -1.169,-0.233 -1.305,-0.27 -1.443,-0.304 -2.279,-0.51 -2.221,-1.123 -2.036,-2.277 l 0.01,-0.063 c 0.206,-1.294 -0.075,-2.154 -0.28,-2.781 -0.15,-0.461 -0.223,-0.711 -0.119,-0.917 0.21,-0.414 1.464,-0.334 3.732,0.237 0.247,0.061 0.42,0.205 0.529,0.438 C 2.27,-4.444 1.647,-2.35 0.919,-0.696 0.691,-0.176 0.406,0 0,0 m -1.556,-6.715 c -0.608,0 -1.054,0.133 -1.231,0.483 -0.189,0.375 -0.064,0.759 0.095,1.245 0.191,0.586 0.453,1.388 0.263,2.579 l -0.009,0.063 c -0.169,1.053 -0.344,2.142 0.9,2.45 0.136,0.033 0.269,0.069 0.399,0.104 0.928,0.252 1.884,0.512 2.43,-0.732 0.476,-1.082 1.52,-3.738 0.912,-5.024 C 2.04,-5.894 1.771,-6.117 1.404,-6.21 0.308,-6.486 -0.761,-6.715 -1.556,-6.715 M 0.497,7.042 c -1.651,0 -3.336,-0.852 -4.204,-1.77 -3.999,-4.238 -4.321,-9.956 -4.534,-13.74 -0.023,-0.407 -0.045,-0.795 -0.071,-1.158 -0.112,-1.624 0.104,-2.707 0.66,-3.311 0.565,-0.612 1.443,-0.689 2.317,-0.667 1.312,0.024 2.13,0.257 2.502,0.709 0.371,0.453 0.273,1.113 0.169,1.813 -0.054,0.371 -0.111,0.754 -0.096,1.117 0.051,1.274 0.63,1.409 1.324,1.447 0.623,0.033 2.128,0.243 3.211,0.477 0.3,0.063 0.553,0.014 0.746,-0.151 C 2.985,-8.59 2.965,-9.55 2.945,-10.48 L 2.94,-10.735 c -0.01,-0.582 0.015,-1.236 0.445,-1.643 0.433,-0.412 1.261,-0.559 2.461,-0.436 0.739,0.075 1.277,0.335 1.64,0.796 0.976,1.239 0.697,3.902 0.342,7.273 v 0.001 C 7.55,-2.09 6.32,0.291 4.895,3.048 4.583,3.651 4.262,4.27 3.943,4.911 3.358,6.083 2.402,6.803 1.176,6.991 0.952,7.026 0.725,7.042 0.497,7.042 m -6.026,-21.067 c -0.863,0 -1.792,0.119 -2.42,0.799 -0.638,0.693 -0.89,1.881 -0.769,3.63 0.025,0.362 0.047,0.747 0.07,1.152 0.215,3.846 0.543,9.659 4.648,14.008 1.084,1.148 3.236,2.154 5.236,1.843 C 2.598,7.197 3.659,6.401 4.306,5.103 4.624,4.464 4.944,3.847 5.255,3.245 6.7,0.449 7.948,-1.965 8.234,-4.699 c 0.365,-3.469 0.653,-6.209 -0.431,-7.583 -0.437,-0.552 -1.063,-0.864 -1.918,-0.95 -1.339,-0.137 -2.247,0.042 -2.777,0.544 -0.554,0.526 -0.588,1.288 -0.576,1.96 l 0.005,0.257 c 0.016,0.752 0.036,1.688 -0.278,1.956 -0.095,0.081 -0.224,0.101 -0.401,0.062 -1.025,-0.22 -2.553,-0.447 -3.272,-0.485 -0.607,-0.032 -0.9,-0.091 -0.938,-1.044 -0.013,-0.323 0.04,-0.686 0.092,-1.037 0.113,-0.761 0.229,-1.549 -0.261,-2.147 -0.459,-0.559 -1.35,-0.831 -2.807,-0.857 -0.067,-10e-4 -0.133,-0.002 -0.201,-0.002"
             style="fill:#000000;fill-opacity:1;fill-rule:nonzero;stroke:none"
             id="path424" /></g><g
           id="g426"
           transform="translate(134.1743,772.0394)"><path
             d="m 0,0 c -0.146,0 -0.492,0.012 -0.545,0.119 -0.094,0.185 -0.002,0.465 0.125,0.856 0.208,0.634 0.49,1.503 0.283,2.812 L -0.149,3.854 C -0.332,4.992 -0.348,5.504 0.245,5.65 0.385,5.684 0.524,5.723 0.659,5.76 1,5.852 1.322,5.939 1.557,5.939 1.68,5.939 1.933,5.938 2.173,5.39 3.314,2.796 3.564,0.684 2.754,0.479 1.939,0.274 0.767,0 0,0 m 2.063,13.757 c -1.996,0 -3.839,-1.005 -4.78,-2.001 -4.138,-4.383 -4.467,-10.215 -4.685,-14.075 -0.023,-0.406 -0.046,-0.793 -0.071,-1.154 -0.138,-2.023 0.209,-3.286 1.098,-3.975 0.729,-0.565 1.676,-0.637 2.419,-0.637 0.069,0 0.137,0 0.206,0.002 1.365,0.025 2.302,0.267 2.862,0.739 0.784,0.66 0.648,1.573 0.515,2.453 -0.052,0.365 -0.104,0.707 -0.091,1.023 0.034,0.839 0.201,0.848 0.647,0.872 0.746,0.04 2.31,0.271 3.348,0.494 0.016,0.003 0.03,0.005 0.038,0.007 0.251,-0.2 0.226,-1.318 0.214,-1.86 L 3.778,-4.609 c -0.013,-0.763 0.035,-1.623 0.793,-2.187 0.478,-0.358 1.176,-0.54 2.072,-0.54 0.266,0 0.557,0.015 0.862,0.047 3.495,0.358 3.146,3.682 2.619,8.714 -0.288,2.748 -1.539,5.168 -2.986,7.971 -0.312,0.603 -0.632,1.221 -0.952,1.861 -1.084,2.176 -3.048,2.5 -4.123,2.5 M 0.589,-1.013 c 0.813,0 1.847,0.723 2.825,0.971 C 5.012,0.361 4.006,4.761 2.959,6.243 2.566,6.799 1.699,7.387 1.246,7.387 0.805,7.387 -0.032,7.045 -0.565,6.915 -1.648,6.647 -2.767,4.678 -1.535,3.738 0.229,2.393 -2.476,-0.599 -2.122,-1.303 c 0.138,-0.268 1.609,0.444 2.125,0.444 m 2.084,13.776 c 1.429,0 2.789,-0.156 3.606,-1.792 C 7.466,7.566 9.255,4.681 9.6,1.396 10.104,-3.404 10.432,-6.6 7.433,-6.906 7.144,-6.934 6.881,-6.949 6.643,-6.949 c -2.237,0 -2.359,1.226 -2.34,2.333 0.02,1.143 0.118,2.509 -0.718,2.509 -0.062,0 -0.129,-0.007 -0.201,-0.023 -1.051,-0.226 -2.568,-0.444 -3.24,-0.479 -0.673,-0.037 -1.088,-0.146 -1.132,-1.247 -0.067,-1.61 1.378,-3.764 -2.775,-3.841 -0.064,0 -0.129,-0.002 -0.193,-0.002 -1.784,0 -3.246,0.514 -2.991,4.206 0.261,3.824 1.497,9.39 5.973,14.136 0.942,0.996 1.386,2.274 3.061,2.274"
             style="fill:#ffffff;fill-opacity:1;fill-rule:nonzero;stroke:none"
             id="path428" /></g><g
           id="g430"
           transform="translate(135.7412,777.5037)"><path
             d="m 0,0 c -0.029,-0.016 -0.059,-0.02 -0.09,-0.02 -0.213,0 -0.332,-0.008 -0.664,-0.098 l -0.163,-0.047 c -0.141,-0.04 -0.307,-0.088 -0.404,-0.111 -0.131,-0.033 -0.161,-0.058 -0.164,-0.06 0.009,-0.013 0.05,-0.14 0.087,-0.251 0.07,-0.213 0.165,-0.504 0.232,-0.921 0.007,-0.11 0.107,-2.14 -0.109,-2.805 -0.072,-0.22 0.01,-0.334 0.045,-0.354 0.727,10e-4 1.127,0.103 1.921,0.303 0.161,0.04 0.253,0.119 0.317,0.256 0.131,0.277 0.313,1.2 -0.826,3.792 C 0.064,-0.048 0.006,-0.004 0,0 m -1.24,-5.086 c -0.13,0 -0.262,0.078 -0.353,0.207 -0.13,0.185 -0.154,0.439 -0.07,0.7 0.161,0.489 0.121,2.062 0.092,2.626 -0.059,0.36 -0.148,0.633 -0.214,0.831 -0.082,0.25 -0.141,0.43 -0.05,0.599 0.082,0.153 0.251,0.213 0.42,0.255 0.095,0.023 0.253,0.069 0.387,0.108 l 0.169,0.048 C -0.505,0.383 -0.35,0.4 -0.09,0.4 0.2,0.445 0.355,0.311 0.553,-0.144 1.166,-1.535 1.805,-3.385 1.376,-4.292 1.259,-4.539 1.066,-4.703 0.818,-4.766 -0.015,-4.975 -0.458,-5.086 -1.24,-5.086 m 1.231,5.737 c -0.305,0 -0.659,-0.095 -1.033,-0.196 -0.131,-0.037 -0.265,-0.073 -0.4,-0.105 -0.625,-0.155 -0.609,-0.498 -0.404,-1.439 0.042,-0.194 0.086,-0.396 0.119,-0.602 0.202,-1.269 -10e-4,-2.07 -0.149,-2.656 -0.112,-0.442 -0.166,-0.682 -0.056,-0.901 0.068,-0.129 0.068,-0.128 0.454,-0.128 l 0.137,0.001 c 0.655,0 1.246,0.154 1.993,0.349 l 0.458,0.118 c 0.263,0.065 0.444,0.21 0.552,0.44 0.332,0.702 0.023,2.143 -0.919,4.283 -0.289,0.657 -0.451,0.836 -0.752,0.836 m -1.559,-6.447 c -0.352,0 -0.557,0.025 -0.725,0.354 -0.188,0.373 -0.095,0.739 0.022,1.201 0.139,0.549 0.329,1.301 0.141,2.481 -0.031,0.199 -0.074,0.392 -0.114,0.579 -0.172,0.784 -0.365,1.674 0.707,1.939 0.133,0.033 0.263,0.068 0.391,0.103 0.401,0.108 0.779,0.211 1.137,0.211 0.599,0 0.853,-0.469 1.124,-1.083 C 2.123,-2.303 2.422,-3.82 2.03,-4.651 1.866,-4.996 1.59,-5.22 1.207,-5.317 L 0.752,-5.434 C -0.022,-5.636 -0.634,-5.795 -1.341,-5.795 L -1.476,-5.796 Z M 0.521,7.243 C -1.371,7.243 -2.594,6.369 -3.287,5.636 -7.491,1.18 -7.866,-4.572 -8.114,-8.378 L -8.153,-8.96 c -0.105,-1.529 0.062,-2.513 0.511,-3.01 0.444,-0.489 1.129,-0.529 2.124,-0.53 1.421,0.027 2.267,0.24 2.602,0.653 0.284,0.348 0.205,0.852 0.114,1.435 -0.054,0.35 -0.111,0.712 -0.095,1.082 0.042,1.056 0.514,1.594 1.442,1.644 0.66,0.035 2.208,0.269 3.253,0.494 0.048,0.022 0.095,0.022 0.121,0.022 0.24,0 0.446,-0.09 0.615,-0.266 0.371,-0.388 0.533,-1.178 0.512,-2.484 -0.011,-0.641 0.008,-1.201 0.368,-1.578 0.316,-0.331 0.872,-0.493 1.698,-0.493 0.129,0 0.266,0.031 0.424,0.067 0.098,0.021 0.201,0.044 0.31,0.062 2.275,0.367 2.414,2.593 1.869,7.777 C 7.44,-1.462 6.229,0.872 4.825,3.576 4.497,4.207 4.161,4.854 3.825,5.527 3.035,7.111 1.811,7.243 0.521,7.243 m -6.002,-20.162 c -0.923,0 -1.859,0 -2.459,0.662 -0.539,0.596 -0.735,1.653 -0.62,3.326 l 0.039,0.582 c 0.251,3.867 0.633,9.711 4.941,14.277 0.748,0.792 2.066,1.735 4.101,1.735 1.365,0 2.773,-0.15 3.667,-1.944 0.335,-0.671 0.67,-1.317 0.996,-1.945 1.424,-2.742 2.654,-5.11 2.938,-7.815 0.491,-4.68 0.603,-7.782 -2.213,-8.236 -0.1,-0.016 -0.195,-0.038 -0.286,-0.058 -0.174,-0.039 -0.337,-0.076 -0.511,-0.076 -0.942,0 -1.592,0.203 -1.989,0.619 -0.471,0.492 -0.498,1.169 -0.485,1.879 0.019,1.154 -0.113,1.888 -0.395,2.183 -0.088,0.091 -0.186,0.136 -0.31,0.14 -0.016,-0.006 -0.03,-0.009 -0.041,-0.012 -1.064,-0.228 -2.648,-0.467 -3.325,-0.503 -0.499,-0.027 -1.015,-0.197 -1.056,-1.243 -0.014,-0.328 0.039,-0.668 0.091,-0.997 0.098,-0.627 0.199,-1.276 -0.205,-1.771 -0.42,-0.518 -1.335,-0.773 -2.878,-0.803 M 0.497,8.083 C -1.44,8.083 -3.227,7.11 -4.137,6.146 -8.219,1.821 -8.548,-3.961 -8.766,-7.787 c -0.022,-0.416 -0.046,-0.803 -0.07,-1.165 -0.134,-1.946 0.19,-3.152 1.017,-3.794 0.68,-0.526 1.585,-0.594 2.297,-0.594 l 0.2,0.002 c 1.32,0.025 2.215,0.251 2.738,0.692 0.694,0.585 0.572,1.397 0.443,2.258 l -0.01,0.068 c -0.05,0.35 -0.097,0.68 -0.084,0.997 0.039,0.937 0.274,1.043 0.841,1.073 0.743,0.04 2.292,0.269 3.317,0.49 l 0.092,0.02 0.112,-0.053 c 0.281,-0.224 0.32,-0.943 0.292,-2.032 l -0.004,-0.253 c -0.013,-0.741 0.032,-1.508 0.709,-2.013 0.443,-0.33 1.1,-0.499 1.952,-0.499 0.269,0 0.552,0.016 0.841,0.046 0.932,0.095 1.596,0.41 2.032,0.962 1.052,1.335 0.767,4.061 0.406,7.511 C 8.07,-1.354 6.829,1.049 5.391,3.833 L 5.314,3.981 C 5.025,4.539 4.731,5.108 4.437,5.697 3.403,7.772 1.524,8.083 0.497,8.083 M -5.522,-13.76 c -0.775,0 -1.766,0.077 -2.543,0.679 -0.948,0.736 -1.322,2.058 -1.178,4.159 0.025,0.359 0.047,0.745 0.069,1.151 0.222,3.897 0.556,9.773 4.743,14.209 0.972,1.028 2.871,2.065 4.928,2.065 1.121,0 3.17,-0.34 4.304,-2.614 C 5.093,5.302 5.387,4.734 5.674,4.179 L 5.751,4.03 c 1.458,-2.822 2.716,-5.258 3.009,-8.048 0.386,-3.694 0.666,-6.358 -0.495,-7.829 -0.508,-0.644 -1.263,-1.008 -2.307,-1.115 -0.302,-0.032 -0.6,-0.048 -0.882,-0.048 -0.94,0 -1.678,0.196 -2.191,0.579 -0.906,0.675 -0.888,1.772 -0.879,2.361 l 0.005,0.255 C 2.039,-8.744 1.975,-8.34 1.916,-8.191 0.845,-8.413 -0.643,-8.63 -1.374,-8.67 -1.768,-8.69 -1.8,-8.692 -1.827,-9.341 c -0.011,-0.277 0.033,-0.588 0.08,-0.918 l 0.009,-0.067 c 0.135,-0.893 0.287,-1.908 -0.588,-2.645 -0.596,-0.503 -1.573,-0.761 -2.987,-0.787 z"
             style="fill:#000000;fill-opacity:1;fill-rule:nonzero;stroke:none"
             id="path432" /></g><g
           id="g434"
           transform="translate(158.5684,786.9193)"><path
             d="m 0,0 c -1.002,0 -1.818,-0.839 -1.818,-1.87 0,-1.032 0.816,-1.871 1.818,-1.871 1.002,0 1.817,0.839 1.817,1.871 C 1.817,-0.839 1.002,0 0,0 m 0,-4.401 c -1.356,0 -2.459,1.135 -2.459,2.531 0,1.395 1.103,2.53 2.459,2.53 1.355,0 2.458,-1.135 2.458,-2.53 0,-1.396 -1.103,-2.531 -2.458,-2.531"
             style="fill:#000000;fill-opacity:1;fill-rule:nonzero;stroke:none"
             id="path436" /></g><g
           id="g438"
           transform="translate(158.5684,787.0516)"><path
             d="m 0,0 c -1.073,0 -1.946,-0.898 -1.946,-2.002 0,-1.105 0.873,-2.004 1.946,-2.004 1.073,0 1.946,0.899 1.946,2.004 C 1.946,-0.898 1.073,0 0,0 m 0,-4.401 c -1.286,0 -2.331,1.075 -2.331,2.399 0,1.322 1.045,2.398 2.331,2.398 1.285,0 2.33,-1.076 2.33,-2.398 0,-1.324 -1.045,-2.399 -2.33,-2.399"
             style="fill:#000000;fill-opacity:1;fill-rule:nonzero;stroke:none"
             id="path440" /></g><g
           id="g442"
           transform="translate(158.5684,786.9193)"><path
             d="m 0,0 c -1.002,0 -1.818,-0.839 -1.818,-1.87 0,-1.032 0.816,-1.871 1.818,-1.871 1.002,0 1.817,0.839 1.817,1.871 C 1.817,-0.839 1.002,0 0,0 m 0,-4.401 c -1.356,0 -2.459,1.135 -2.459,2.531 0,1.395 1.103,2.53 2.459,2.53 1.355,0 2.458,-1.135 2.458,-2.53 0,-1.396 -1.103,-2.531 -2.458,-2.531"
             style="fill:#000000;fill-opacity:1;fill-rule:nonzero;stroke:none"
             id="path444" /></g><g
           id="g446"
           transform="translate(158.5684,787.0516)"><path
             d="m 0,0 c -1.073,0 -1.946,-0.898 -1.946,-2.002 0,-1.105 0.873,-2.004 1.946,-2.004 1.073,0 1.946,0.899 1.946,2.004 C 1.946,-0.898 1.073,0 0,0 m 0,-4.401 c -1.286,0 -2.331,1.075 -2.331,2.399 0,1.322 1.045,2.398 2.331,2.398 1.285,0 2.33,-1.076 2.33,-2.398 0,-1.324 -1.045,-2.399 -2.33,-2.399"
             style="fill:#ffffff;fill-opacity:1;fill-rule:nonzero;stroke:none"
             id="path448" /></g><g
           id="g450"
           transform="translate(158.6904,783.7474)"><path
             d="m 0,0 c -0.179,0 -0.349,0.035 -0.504,0.103 -0.154,0.067 -0.289,0.161 -0.402,0.278 -0.112,0.116 -0.199,0.255 -0.263,0.411 -0.063,0.157 -0.096,0.326 -0.096,0.501 0,0.184 0.032,0.353 0.096,0.511 0.064,0.159 0.151,0.299 0.263,0.415 0.111,0.118 0.246,0.213 0.402,0.281 0.153,0.068 0.326,0.103 0.512,0.103 0.224,0 0.416,-0.039 0.569,-0.114 C 0.727,2.414 0.861,2.311 0.974,2.182 L 1.053,2.092 0.502,1.482 0.408,1.583 C 0.346,1.648 0.282,1.702 0.217,1.741 0.164,1.773 0.091,1.79 0.004,1.79 -0.055,1.79 -0.108,1.778 -0.153,1.755 -0.203,1.73 -0.244,1.697 -0.279,1.655 -0.317,1.611 -0.346,1.56 -0.366,1.502 -0.387,1.441 -0.397,1.378 -0.397,1.31 c 0,-0.08 0.01,-0.145 0.031,-0.207 0.02,-0.06 0.049,-0.11 0.087,-0.153 0.037,-0.043 0.082,-0.076 0.133,-0.101 0.05,-0.023 0.109,-0.036 0.174,-0.036 0.083,0 0.151,0.016 0.209,0.049 C 0.305,0.9 0.372,0.951 0.442,1.017 L 0.534,1.103 1.068,0.546 0.987,0.454 C 0.871,0.324 0.739,0.215 0.591,0.132 0.436,0.044 0.237,0 0,0"
             style="fill:#000000;fill-opacity:1;fill-rule:nonzero;stroke:none"
             id="path452" /></g><g
           id="g454"
           transform="translate(159.2197,783.9949)"><path
             d="m 0,0 c -0.136,-0.077 -0.312,-0.115 -0.53,-0.115 -0.162,0 -0.314,0.031 -0.453,0.092 -0.141,0.061 -0.261,0.145 -0.361,0.25 -0.1,0.104 -0.179,0.227 -0.236,0.368 -0.057,0.141 -0.086,0.291 -0.086,0.45 v 0.009 c 0,0.159 0.029,0.31 0.086,0.452 0.057,0.143 0.136,0.267 0.236,0.373 0.1,0.106 0.22,0.19 0.361,0.252 0.139,0.061 0.294,0.092 0.462,0.092 0.206,0 0.377,-0.034 0.513,-0.1 C 0.127,2.055 0.247,1.963 0.35,1.846 L -0.029,1.427 C -0.1,1.502 -0.172,1.562 -0.247,1.607 -0.321,1.652 -0.414,1.674 -0.525,1.674 -0.604,1.674 -0.675,1.658 -0.739,1.626 -0.803,1.594 -0.859,1.55 -0.906,1.494 -0.954,1.438 -0.99,1.373 -1.016,1.299 -1.042,1.225 -1.055,1.146 -1.055,1.062 V 1.054 c 0,-0.087 0.013,-0.168 0.039,-0.243 0.026,-0.076 0.063,-0.142 0.112,-0.197 0.049,-0.056 0.107,-0.1 0.175,-0.132 0.068,-0.032 0.144,-0.048 0.228,-0.048 0.103,0 0.193,0.021 0.271,0.065 C -0.153,0.542 -0.076,0.6 0,0.672 L 0.362,0.295 C 0.256,0.175 0.135,0.077 0,0"
             style="fill:#ffffff;fill-opacity:1;fill-rule:nonzero;stroke:none"
             id="path456" /></g></g></g></g></svg>
