<svg xmlns="http://www.w3.org/2000/svg" xmlns:xlink="http://www.w3.org/1999/xlink" width="615" height="206" viewBox="0 0 615 206">
  <defs>
    <clipPath id="clip-path">
      <rect id="Rectangle_1" data-name="Rectangle 1" width="615.44" height="287.442" transform="translate(-10 -6.416)" fill="none"/>
    </clipPath>
    <clipPath id="clip-SPRK_default_preset_name_custom_1">
      <rect width="615" height="206"/>
    </clipPath>
  </defs>
  <g id="SPRK_default_preset_name_custom_1" data-name="SPRK_default_preset_name_custom – 1" clip-path="url(#clip-SPRK_default_preset_name_custom_1)">
    <rect width="615" height="206" fill="#fff"/>
    <g id="Group_5" data-name="Group 5" transform="translate(10 6.416)" clip-path="url(#clip-path)">
      <g id="Group_4" data-name="Group 4">
        <path id="Path_25" data-name="Path 25" d="M670.082,266.83c-13.608-9.811-124.2-165.253-295.745-157.34s-208.571,118.5-437.29,50.937l4.456-178.6L683.01,11.689Z" fill="#208c91"/>
        <path id="Path_26" data-name="Path 26" d="M686.076,243.506C672.229,234.247,557.813,83.334,386.554,98.148s-205.511,126.841-435.8,68.513V-12.028H692.634Z" fill="#f8b271"/>
        <path id="Path_27" data-name="Path 27" d="M686.076,230.958C672.229,221.7,557.813,70.787,386.554,85.6s-205.511,126.841-435.8,68.512V-24.575H692.634Z" fill="#1f6870"/>
      </g>
    </g>
    <g id="Group_28" data-name="Group 28" transform="translate(10 6.416)">
      <path id="Path_111" data-name="Path 111" d="M39.021,33.325c7.594,1.647,17.028,3.257,28.391,5.7C85.826,43,83.241,51.761,71.209,65.6c-9.97,11.46-28.547,30.229-33.545,34.822-8.194,7.53-6.476,13.867.4,13.867l18.658.14c5.8,0,9.062-1.935,10.943-5.8s7.272-14.561,7.272-14.561l19,14.121,36.56.038V106.9s-25.376-11.46-37.139-20.278c-9.459-7.09-5.859-14.236-2.4-21.215,3.914-7.893,7.549-18.486-5.907-28.287-9.307-6.779-18.745-7.293-35.99-9.94l-8.121-1.3c-1.934-.328-4.625,1.073-5.181,2.754a4,4,0,0,0,2.662,4.519Z" fill="#fff"/>
      <path id="Path_112" data-name="Path 112" d="M56.781,114.706H39c-3.537,0-5.932-1.264-6.745-3.556-1.061-2.987.908-6.977,5.545-11.235,4.746-4.361,23.307-23.124,33.425-34.757,7.205-8.285,10.1-14.29,8.849-18.355-1.039-3.384-5.165-5.875-12.261-7.4-6.257-1.345-12.275-2.513-17.111-3.45-4.059-.785-8.255-1.6-11.835-2.374a4.48,4.48,0,0,1-3.026-2.23,3.735,3.735,0,0,1-.3-2.961c.569-1.73,2.454-2.848,4.8-2.848a7.137,7.137,0,0,1,1.186.1L48.35,26.8c2.517.386,4.883.728,7.112,1.049,13,1.875,21.588,3.114,29.75,9.056,13.513,9.843,10.26,20.549,5.916,28.777-3.586,6.79-6.581,14.606,3.351,21.416,11.634,7.98,34.761,18.956,35.514,19.236a1.254,1.254,0,0,1,.855.59,1.2,1.2,0,0,1,.089.871.663.663,0,0,1-.179.39,1.584,1.584,0,0,1-1.189.365h-35.3a1.083,1.083,0,0,1-.644-.214L75.037,94.49c-1.633,3.24-5.693,11.324-7.173,14.366C65.734,113.229,62.937,114.706,56.781,114.706ZM40.341,26.09c-2.1,0-3.781.968-4.274,2.467a3.194,3.194,0,0,0,.262,2.526,3.929,3.929,0,0,0,2.656,1.951c3.575.776,7.769,1.587,11.824,2.372,4.838.937,10.86,2.105,17.122,3.452,7.306,1.574,11.571,4.192,12.674,7.783,1.312,4.263-1.62,10.438-8.962,18.88-10.129,11.646-28.714,30.435-33.468,34.8-4.462,4.1-6.38,7.877-5.4,10.641.729,2.056,2.939,3.188,6.223,3.188h17.78c5.9,0,8.569-1.4,10.585-5.539,1.529-3.141,5.805-11.652,7.323-14.666l.149-.294L93.96,107.888a.519.519,0,0,0,.313.1h35.3c.642,0,.807-.181.815-.245l-.005-.058.02-.034a.66.66,0,0,0-.039-.472.761.761,0,0,0-.518-.321c-.114-.027-23.569-11.007-35.677-19.311C83.858,80.483,86.94,72.42,90.639,65.418c4.239-8.029,7.416-18.477-5.754-28.07-8.05-5.86-16.583-7.091-29.5-8.954-2.232-.323-4.6-.664-7.123-1.052l-6.828-1.161A6.554,6.554,0,0,0,40.341,26.09Zm-1.2,87.54c-2.967,0-4.983-.958-5.68-2.7-.995-2.488.852-6.22,5.071-10.239,5.211-4.967,23.752-23.759,33.527-34.841,7.748-8.786,10.664-14.983,9.177-19.5C80,42.614,75.7,40,68.087,38.359c-6.113-1.317-11.838-2.483-16.887-3.513-4.305-.876-8.37-1.7-11.879-2.465A3.552,3.552,0,0,1,36.9,30.83a2.4,2.4,0,0,1-.169-1.991c.471-1.427,1.63-2.121,3.547-2.121h.143c.345,0,6.556,1.006,7.8,1.207q2.2.338,4.256.647C67.458,30.836,76.5,32.2,84.517,37.862c9.841,6.95,11.631,15.836,5.471,27.162-3.8,6.984-6.792,15.938,3.849,23.235,11.965,8.2,34.909,18.778,35.139,18.883l1.15.529H94.18l-.074-.056L74.541,92.763c-.95,1.862-6.115,12.006-7.809,15.485-1.993,4.094-4.224,5.278-9.941,5.278Zm1.136-86.358c-1.67,0-2.63.553-3.021,1.741a1.859,1.859,0,0,0,.123,1.542,3.024,3.024,0,0,0,2.061,1.285c3.506.76,7.57,1.587,11.872,2.464,5.052,1.029,10.777,2.2,16.893,3.514,7.827,1.686,12.261,4.42,13.557,8.358,1.555,4.724-1.4,11.093-9.288,20.041-9.784,11.093-28.344,29.9-33.559,34.875-4.047,3.855-5.847,7.368-4.94,9.634.607,1.515,2.44,2.35,5.164,2.35l17.653-.1c5.516,0,7.545-1.068,9.445-4.968,1.86-3.821,7.9-15.67,7.963-15.789l.151-.3,20.017,15.2H127.61c-4.8-2.249-23.617-11.222-34.086-18.4C82.394,81.083,85.9,71.387,89.5,64.76c6-11.036,4.265-19.686-5.305-26.446-7.9-5.584-16.9-6.942-31.808-9.194q-2.056-.311-4.259-.647c-2.94-.477-7.415-1.19-7.714-1.2Z"/>
      <path id="Path_113" data-name="Path 113" d="M99.336,75.141c-.64,5-2.621,4.922-5.74,1.515-2.913-3.184-3.441-11.535,10.193-19.416,21.3-12.315,60.042-10.474,66.87-18.275a23.647,23.647,0,0,0,3.994.408c1.077,0,2.982-.241,2.982-.241s-2.659,6.7-17.043,9.73c-14.05,2.955-30.132,4.36-41.191,9.214S100.548,65.67,99.336,75.141" fill="#fff"/>
      <path id="Path_114" data-name="Path 114" d="M97.132,79.353c-.981,0-2.187-.813-3.74-2.509a7.572,7.572,0,0,1-1.644-6.326c.512-3.324,2.993-8.368,11.9-13.518,11.472-6.632,28.294-9.223,41.811-11.305,11.746-1.809,21.89-3.372,24.988-6.912l.106-.12.157.031a23.6,23.6,0,0,0,3.94.4c1.046,0,2.928-.236,2.948-.239l.465-.058-.173.435c-.111.28-2.879,6.874-17.244,9.9-4.3.9-8.862,1.675-13.271,2.421-9.941,1.681-20.22,3.419-27.866,6.775q-1.118.49-2.19.956c-10,4.344-16.6,7.215-17.711,15.892-.313,2.436-.959,3.776-1.977,4.1A1.682,1.682,0,0,1,97.132,79.353Zm73.629-40.087c-3.347,3.608-13.491,5.171-25.216,6.976-13.47,2.076-30.235,4.658-41.617,11.239C95.208,62.52,92.789,67.4,92.3,70.6A7.106,7.106,0,0,0,93.8,76.469c1.62,1.771,2.863,2.537,3.666,2.28.779-.248,1.316-1.474,1.594-3.644,1.151-8.988,8.235-12.066,18.04-16.328q1.071-.467,2.188-.955c7.709-3.383,18.022-5.127,28-6.815,4.4-.744,8.957-1.514,13.248-2.417,11.916-2.508,15.72-7.6,16.614-9.121-.648.072-1.754.181-2.495.181A23.48,23.48,0,0,1,170.761,39.266Z"/>
      <path id="Path_115" data-name="Path 115" d="M170.659,38.965a23.619,23.619,0,0,0,4,.408c1.076,0,2.982-.242,2.982-.242s-2.659,6.7-17.043,9.73c-14.05,2.956-30.469,3.978-41.528,8.83s-18.516,7.979-19.728,17.45c-.35,2.716-1.092,3.934-2.2,3.934-.93,0-2.118-.862-3.542-2.419C90.684,73.472,90.156,65.12,103.79,57.24c21.3-12.315,60.039-10.474,66.869-18.275m0-.877a.813.813,0,0,0-.611.281c-2.966,3.39-13.024,4.938-24.668,6.735-13.559,2.087-30.433,4.688-41.991,11.367-9.176,5.306-11.7,10.568-12.2,14.05A8.173,8.173,0,0,0,93,77.265c1.677,1.832,2.993,2.685,4.14,2.685,2.419,0,2.871-3.531,3.02-4.692,1.068-8.332,7.428-11.433,17.244-15.7.716-.312,1.368-.612,2.117-.94,7.583-3.329,18.028-4.8,27.935-6.471,4.418-.749,8.984-1.52,13.3-2.428,14.651-3.084,17.533-9.96,17.648-10.251a.908.908,0,0,0-.1-.866.812.812,0,0,0-.662-.348c-.034,0-.067,0-.1.005-.018,0-1.87.235-2.882.235a22.912,22.912,0,0,1-3.842-.393.721.721,0,0,0-.153-.015" fill="#fff"/>
      <path id="Path_116" data-name="Path 116" d="M97.139,80.227c-1.231,0-2.612-.881-4.345-2.774a8.455,8.455,0,0,1-1.882-6.971c.512-3.543,3.067-8.89,12.339-14.251,11.61-6.71,28.509-9.31,42.087-11.4,11.609-1.792,21.6-3.334,24.5-6.644a1.118,1.118,0,0,1,1.031-.354,22.928,22.928,0,0,0,3.784.386c.96,0,2.732-.216,2.835-.231a1.357,1.357,0,0,1,.147-.009,1.1,1.1,0,0,1,.888.464,1.194,1.194,0,0,1,.136,1.131c-.117.295-3.046,7.3-17.848,10.419-4.26.9-8.765,1.658-13.122,2.4l-.188.031c-15.618,2.642-25.422,5.057-29.973,7.386q-1.4.716-2.715,1.372c-8.091,4.061-13.436,6.745-14.38,14.115C100.278,76.514,99.8,80.227,97.139,80.227Zm73.52-41.862a.536.536,0,0,0-.4.187c-3.029,3.462-13.118,5.019-24.8,6.821-13.568,2.087-30.41,4.679-41.931,11.338C94.448,61.96,91.954,67.139,91.46,70.561A7.9,7.9,0,0,0,93.2,77.078c1.621,1.771,2.871,2.6,3.936,2.6,2.177,0,2.605-3.351,2.745-4.451.982-7.663,6.729-10.547,14.682-14.539q1.313-.657,2.71-1.37c4.6-2.355,14.459-4.788,30.133-7.438l.19-.032c4.35-.738,8.849-1.5,13.1-2.394,14.516-3.055,17.335-9.8,17.448-10.081a.633.633,0,0,0-.071-.6.535.535,0,0,0-.438-.234l-.083,0a28.818,28.818,0,0,1-2.9.237,23.224,23.224,0,0,1-3.9-.4A.412.412,0,0,0,170.659,38.365ZM97.139,79.352c-.99,0-2.18-.8-3.746-2.509a7.57,7.57,0,0,1-1.643-6.327c.511-3.324,2.992-8.367,11.9-13.516,11.454-6.622,27.625-9.186,41.892-11.449,11.74-1.863,21.894-3.472,25.089-6.959l.009-.034.017,0c.017-.018.035-.038.051-.057l.109.1a18.664,18.664,0,0,0,3.835.495c1.047,0,2.928-.238,2.948-.24l.465-.059-.173.436c-.111.28-2.879,6.877-17.244,9.9-2.254.473-4.736.93-7.814,1.439-2.15.354-4.3.684-6.457,1.015l-2.227.342c-2.879.443-5.857.9-8.774,1.423q-1.371.246-2.742.513a88.782,88.782,0,0,0-8.831,2.351,66.888,66.888,0,0,0-8.726,3.2c-.794.371-1.594.765-2.382,1.169s-1.554.818-2.306,1.246c-.732.415-1.454.846-2.146,1.283-2.373,1.5-5.3,3.622-6.917,6.828a18.082,18.082,0,0,0-1.717,5.239C99.184,78.066,98.422,79.352,97.139,79.352Zm73.7-40.178c-3.527,3.486-13.6,5.082-25.209,6.923-14.22,2.256-30.336,4.812-41.7,11.384C95.209,62.519,92.79,67.4,92.3,70.6A7.107,7.107,0,0,0,93.8,76.468c1.413,1.546,2.536,2.33,3.337,2.33.591,0,1.434-.383,1.924-3.7a18.654,18.654,0,0,1,1.77-5.408c1.675-3.328,4.683-5.514,7.117-7.048.7-.442,1.429-.877,2.167-1.3.759-.432,1.542-.855,2.327-1.257s1.6-.8,2.4-1.178a67.676,67.676,0,0,1,8.8-3.228,89.653,89.653,0,0,1,8.887-2.364q1.374-.268,2.752-.516c2.923-.523,5.9-.981,8.787-1.424l2.227-.342c2.152-.33,4.3-.66,6.45-1.016,3.07-.506,5.545-.961,7.79-1.434,11.916-2.506,15.72-7.6,16.614-9.122-.648.072-1.754.182-2.495.182A18.668,18.668,0,0,1,170.84,39.174Z"/>
      <path id="Path_117" data-name="Path 117" d="M114.389,92.1c-3.12-.093-6.877-1.77-6.562-5.49s-.231-5.8-.559-8.828-.529-5.5,1.781-7.38c3.523-2.862,8.756-4.14,13.951-3.781s7.918,4.727,6.174,6.52-8.846.409-11.152,2.153c-3.153,2.379-1.9,6.212,1.1,5.523s6.243-2.4,6.783-1.487c1.553,2.615-1.252,3.822-3.733,4.159s-4.357.857-4.032,3.312,1,5.439-3.75,5.3" fill="#1f6870"/>
      <path id="Path_118" data-name="Path 118" d="M114.7,92.38c-.106,0-.214,0-.325,0h0a8.226,8.226,0,0,1-5.7-2.294,4.489,4.489,0,0,1-1.132-3.5,27.5,27.5,0,0,0-.3-6.7c-.09-.66-.182-1.338-.262-2.071-.309-2.884-.6-5.607,1.884-7.625,3.473-2.825,8.624-4.228,14.143-3.843,3.6.248,6.008,2.369,6.721,4.234a2.516,2.516,0,0,1-.368,2.755c-.957.986-3.225,1.081-5.627,1.183-2.206.093-4.485.188-5.557,1-1.722,1.3-1.992,2.993-1.515,4.017a1.959,1.959,0,0,0,2.386,1.015c1.05-.242,2.153-.617,3.126-.948,2.029-.69,3.5-1.188,3.957-.41a2.492,2.492,0,0,1,.284,2.433c-.734,1.516-3.194,2-4.218,2.141-2.731.37-4.067.937-3.794,3l.052.379c.2,1.461.434,3.119-.52,4.184A4.165,4.165,0,0,1,114.7,92.38Zm-.307-.559c1.541.049,2.573-.238,3.136-.866.783-.873.581-2.33.385-3.739l-.053-.38c-.366-2.76,1.908-3.3,4.269-3.624,1.948-.264,3.366-.95,3.793-1.834a1.975,1.975,0,0,0-.261-1.908c-.234-.4-1.935.185-3.3.651-.986.336-2.1.715-3.182.964a2.515,2.515,0,0,1-3.011-1.322c-.569-1.219-.284-3.207,1.684-4.691,1.209-.914,3.576-1.015,5.866-1.111,2.188-.092,4.45-.187,5.254-1.015a1.991,1.991,0,0,0,.248-2.171c-.652-1.707-2.884-3.649-6.243-3.88-5.3-.353-10.439,1.025-13.756,3.721-2.251,1.828-1.987,4.287-1.68,7.135.078.728.17,1.4.26,2.057a28.031,28.031,0,0,1,.3,6.824,3.961,3.961,0,0,0,.993,3.081,7.665,7.665,0,0,0,5.3,2.108Z"/>
      <path id="Path_119" data-name="Path 119" d="M121.289,66.039c-5.056,0-9.772,1.478-12.942,4.052-2.559,2.078-2.262,4.818-1.948,7.721.078.735.171,1.418.262,2.078a27.266,27.266,0,0,1,.294,6.692,4.813,4.813,0,0,0,2.337,4.562,9.943,9.943,0,0,0,5.054,1.475c.122,0,.241,0,.359,0a5.918,5.918,0,0,0,3.223-.747c1.644-1.065,1.374-3.017,1.134-4.739l-.053-.381c-.281-2.109,1.146-2.461,3.357-2.762a7.2,7.2,0,0,0,4.227-1.744,2.393,2.393,0,0,0,.135-3.1,1.632,1.632,0,0,0-1.458-.607,12.007,12.007,0,0,0-3.427.86c-.953.325-2.032.691-3.035.921a1.72,1.72,0,0,1-.377.049,1.215,1.215,0,0,1-.935-.492c-.811-1-.58-2.917,1.21-4.271.9-.68,3.03-.771,5.088-.857,2.468-.105,5.021-.211,6.133-1.356,1.01-1.037.806-2.787-.51-4.353A9,9,0,0,0,123.1,66.1c-.6-.042-1.21-.062-1.81-.062" fill="#fff"/>
      <path id="Path_120" data-name="Path 120" d="M114.705,92.9l-.355,0a10.266,10.266,0,0,1-5.21-1.521,5.08,5.08,0,0,1-2.46-4.817,26.942,26.942,0,0,0-.295-6.632c-.09-.662-.183-1.347-.261-2.086-.323-2.979-.628-5.792,2.048-7.965,3.22-2.614,8-4.114,13.117-4.114.625,0,1.241.021,1.83.063a9.271,9.271,0,0,1,6.51,3.045c1.412,1.68,1.612,3.579.495,4.724-1.185,1.221-3.786,1.332-6.3,1.439-1.938.081-4.117.173-4.951.8a3.651,3.651,0,0,0-1.527,2.395,1.951,1.951,0,0,0,.366,1.482.938.938,0,0,0,1.034.348c1.023-.235,2.17-.628,3.008-.914a12.144,12.144,0,0,1,3.517-.875,1.888,1.888,0,0,1,1.695.743,2.673,2.673,0,0,1-.169,3.425A7.466,7.466,0,0,1,122.4,84.27c-2.3.312-3.358.656-3.119,2.451l.053.38c.238,1.713.534,3.846-1.259,5.009A6.176,6.176,0,0,1,114.705,92.9Zm6.584-26.585c-4.992,0-9.645,1.454-12.768,3.991-2.442,1.983-2.153,4.65-1.847,7.475.077.733.17,1.413.261,2.07a27.44,27.44,0,0,1,.3,6.754,4.551,4.551,0,0,0,2.214,4.307,9.668,9.668,0,0,0,4.91,1.43l.35,0a5.646,5.646,0,0,0,3.071-.7c1.5-.97,1.251-2.749,1.012-4.469l-.053-.38c-.339-2.54,1.751-2.825,3.593-3.076a6.945,6.945,0,0,0,4.061-1.656,2.122,2.122,0,0,0,.1-2.769,1.4,1.4,0,0,0-1.22-.471,11.9,11.9,0,0,0-3.339.844,31.79,31.79,0,0,1-3.061.929,1.482,1.482,0,0,1-1.589-.537,2.5,2.5,0,0,1-.486-1.9,4.188,4.188,0,0,1,1.743-2.769c.972-.733,3.144-.824,5.245-.913,2.423-.1,4.912-.209,5.944-1.272.908-.931.7-2.531-.522-3.982a8.725,8.725,0,0,0-6.125-2.849C122.5,66.337,121.9,66.316,121.289,66.316Zm-6.822,25.653c-.119,0-.241,0-.364-.008a9.009,9.009,0,0,1-5.576-2.464,3.792,3.792,0,0,1-.977-2.912,27.188,27.188,0,0,0-.3-6.7c-.09-.661-.182-1.339-.262-2.073-.313-2.909-.356-5.294,2.137-7.317,3.09-2.511,7.333-3.823,12.293-3.8,4.118,0,7.247,2.118,8.115,4.136a1.985,1.985,0,0,1-.275,2.288c-.963.989-3.128.983-5.425.969-2.114-.015-4.314-.019-5.386.79a4.961,4.961,0,0,0-1.947,5.1A1.405,1.405,0,0,0,117.886,81a21.957,21.957,0,0,0,3.616-.914,19.708,19.708,0,0,1,3.689-.913,1.039,1.039,0,0,1,.982.457,2.166,2.166,0,0,1,0,2c-.518.918-1.85,1.528-3.96,1.815-2.922.4-4.059,1.389-3.8,3.32.245,1.841-.035,3.217-.834,4.09A4.036,4.036,0,0,1,114.467,91.969Zm6.813-24.724c-4.76,0-8.841,1.271-11.8,3.677-2.279,1.851-2.239,4-1.933,6.826.079.73.17,1.4.26,2.06a28.079,28.079,0,0,1,.3,6.824,3.25,3.25,0,0,0,.842,2.5,8.5,8.5,0,0,0,5.182,2.276,3.763,3.763,0,0,0,3.047-.928c.682-.745.916-1.971.693-3.642-.395-2.96,2.252-3.668,4.277-3.943,1.9-.259,3.13-.79,3.551-1.538a1.621,1.621,0,0,0-.03-1.5.7.7,0,0,0-.473-.123,20.608,20.608,0,0,0-3.53.89,21.233,21.233,0,0,1-3.759.937,1.916,1.916,0,0,1-1.92-1.4,5.543,5.543,0,0,1,2.136-5.72c1.22-.92,3.5-.911,5.721-.9,2.076.008,4.229.019,5.025-.8a1.478,1.478,0,0,0,.164-1.683c-.809-1.883-3.867-3.8-7.613-3.8h-.135Z"/>
      <path id="Path_121" data-name="Path 121" d="M165.651,92.127c-5.193,0-11.214-1.032-11.248-6.506s-1.4-12.989-.824-15.555,3.58-3.591,5.776-3.527,8.281,1.378,5.773,9.655c-1.1,3.625-3.562,8.02-2.373,9.141,1.673,1.571,6.746.972,8.656.266s4.207-.364,4.805,1.24.04,5.286-10.565,5.286" fill="#fff"/>
      <path id="Path_122" data-name="Path 122" d="M165.651,92.4c-7.62,0-11.5-2.281-11.524-6.781-.014-2.375-.278-5.1-.533-7.726-.334-3.435-.621-6.4-.285-7.892.649-2.856,4-3.826,6.053-3.743.625.019,3.822.233,5.549,2.633,1.269,1.764,1.431,4.247.482,7.38-.344,1.136-.817,2.336-1.274,3.5-.913,2.319-1.858,4.716-1.173,5.362,1.571,1.473,6.584.868,8.369.207,1.963-.727,4.491-.394,5.161,1.4a2.926,2.926,0,0,1-.377,2.72C175.167,90.807,172.6,92.4,165.651,92.4Zm-6.481-25.59c-1.9,0-4.764.861-5.32,3.314-.318,1.4-.021,4.469.294,7.715.257,2.643.522,5.375.537,7.776.025,4.135,3.715,6.232,10.97,6.232,6.707,0,9.137-1.469,9.994-2.7a2.381,2.381,0,0,0,.311-2.213c-.55-1.476-2.737-1.708-4.449-1.077-1.845.683-7.11,1.395-8.94-.322-.958-.9-.034-3.251,1.037-5.969.453-1.15.922-2.341,1.259-3.454.9-2.959.761-5.279-.4-6.9-1.574-2.19-4.536-2.386-5.115-2.4C159.289,66.814,159.23,66.814,159.17,66.814Z"/>
      <path id="Path_123" data-name="Path 123" d="M160.05,70.707c.066,0-.688-1.01-.623-1.008,2.193.062,5.865-2.178,3.357,6.1-1.1,3.627-2.68,8.885-1.488,10,.775.731,2.254,2.631,3.842,2.631a27.568,27.568,0,0,0,6.231-.8,5.527,5.527,0,0,1,1.8-.623c1.309,0,.912-.493,1.315.588.6,1.6,1.952,3.877-8.653,3.877-5.193,0-9-.757-9.035-6.231-.047-7.272.028-9.451,1.038-13.915.565-2.49-.578-1.631,1.593-1.631m-.268-3.66c-2.6,0-5.671,1.236-6.287,3.95-.341,1.5-.051,4.475.281,7.918.255,2.627.519,5.346.534,7.716.02,3.195,2.112,7,11.963,7,5.021,0,8.459-.8,10.225-2.382a3.155,3.155,0,0,0,1.034-3.527c-.45-1.207-1.823-1.96-3.58-1.96a6.581,6.581,0,0,0-2.255.407,14.76,14.76,0,0,1-4.442.667,5.133,5.133,0,0,1-3.3-.791c-.616-.578.4-3.163,1.221-5.239.456-1.163.93-2.364,1.276-3.505,1.136-3.755.689-6.573-1.329-8.374a8.447,8.447,0,0,0-5.116-1.879c-.075,0-.15,0-.226,0" fill="#fff"/>
      <path id="Path_124" data-name="Path 124" d="M165.651,92.9c-10.08,0-12.22-3.957-12.24-7.276-.017-2.372-.279-5.076-.534-7.691-.337-3.5-.624-6.47-.275-8.007.65-2.861,3.854-4.165,6.557-4.165l.234,0a8.718,8.718,0,0,1,5.292,1.949c2.106,1.879,2.581,4.793,1.41,8.66-.342,1.126-.805,2.305-1.252,3.447l-.032.08c-.619,1.566-1.771,4.482-1.288,4.935.431.407,1.453.642,3.122.717a12.379,12.379,0,0,0,3.482-.584c2.632-.679,5.615-1.447,7.2,1.495a3.65,3.65,0,0,1-1.272,3.985C174.24,92.076,170.738,92.9,165.651,92.9Zm-6.492-26.585c-2.49,0-5.435,1.168-6.017,3.734-.328,1.449-.046,4.375.281,7.763.261,2.695.525,5.412.542,7.808.027,4.4,4.067,6.726,11.686,6.726,4.946,0,8.324-.778,10.038-2.312a3.185,3.185,0,0,0,1.155-3.307c-1.384-2.564-3.908-1.913-6.579-1.224a13,13,0,0,1-3.646.6c-1.857-.085-2.929-.352-3.476-.868-.7-.658.035-2.712,1.153-5.542l.032-.079c.443-1.131.9-2.3,1.237-3.4,1.1-3.643.682-6.364-1.248-8.087a8.148,8.148,0,0,0-4.94-1.809Zm5.6,25.452c-4.231,0-6.984-.746-8.616-2.323a5.465,5.465,0,0,1-1.6-4.059c-.015-2.389-.286-5.111-.526-7.512-.321-3.213-.6-5.988-.263-7.47.344-1.513,2.7-3.312,5.215-3.366h.013c2.731.077,4.576.831,5.637,2.3,1.133,1.575,1.245,3.9.332,6.914-.321,1.065-.732,2.183-1.128,3.265-.89,2.42-1.808,4.923-1.257,5.783.473.741,2.556,1.257,4.128,1.257a12.82,12.82,0,0,0,4.335-.744,4.526,4.526,0,0,1,1.756-.329c1.016,0,2.9,0,3.411,1.357a2.242,2.242,0,0,1-.251,2.1c-1.152,1.707-4.553,2.651-10.109,2.8Q165.286,91.768,164.762,91.768Zm-5.786-24.176c-2.235.05-4.386,1.645-4.679,2.934-.316,1.395-.03,4.26.273,7.293.24,2.413.514,5.148.529,7.563a4.93,4.93,0,0,0,1.433,3.665c1.628,1.574,4.666,2.281,9.291,2.152,6.685-.183,8.946-1.492,9.665-2.558a1.706,1.706,0,0,0,.19-1.6c-.342-.919-1.671-1-2.89-1a4,4,0,0,0-1.565.294,13.382,13.382,0,0,1-4.527.779c-1.463,0-3.935-.481-4.6-1.512-.7-1.092.184-3.493,1.2-6.273.394-1.074.8-2.185,1.119-3.234.861-2.839.776-5-.251-6.43C163.219,68.343,161.518,67.664,158.976,67.592Z"/>
      <g id="Group_26" data-name="Group 26">
        <path id="Path_125" data-name="Path 125" d="M151.828,82.19c-.467-4.331-2.9-8.137-5.3-12.827s-8.176-3.249-10.543-.815C129.91,74.8,129.73,83.6,129.375,88.637s1.782,5.587,4.32,5.541c5.636-.1,3.676-2.94,3.767-5.062.059-1.452.622-1.6,1.535-1.644a37.051,37.051,0,0,0,4.4-.634c1.425-.3,1.277,1.659,1.248,3.277s.177,3.425,4.247,3.021,3.624-4.616,2.939-10.946m-9.058,1.693c-2.169.531-4.9,1.085-5.377.17s.981-2.107.514-4.958c-.233-1.413-.468-2.647,1-3s2.785-.957,3.521.671c1.054,2.328,2.51,6.584.341,7.116" fill="#fff"/>
        <path id="Path_126" data-name="Path 126" d="M133.427,94.116a4.342,4.342,0,0,1-3.283-1.054c-.867-.914-1.209-2.48-1.044-4.785.033-.477.063-.986.094-1.52.293-5.071.738-12.736,6.307-18.47a8.85,8.85,0,0,1,7.106-2.429,5.44,5.44,0,0,1,4.166,3.037c.432.843.866,1.656,1.287,2.45,1.962,3.686,3.655,6.869,4.044,10.475h0c.494,4.573.885,8.186-.586,10a3.615,3.615,0,0,1-2.6,1.254c-1.817.179-3.049-.056-3.769-.718a3.225,3.225,0,0,1-.782-2.585l.008-.338c.021-.992.048-2.225-.378-2.579a.608.608,0,0,0-.544-.082,37.208,37.208,0,0,1-4.44.639c-.824.043-1.222.12-1.272,1.377a7.374,7.374,0,0,0,.124,1.367,3.394,3.394,0,0,1-.355,2.831c-.622.737-1.831,1.1-3.808,1.131ZM141.6,66.338a8.563,8.563,0,0,0-5.7,2.334c-5.428,5.587-5.865,13.127-6.153,18.116-.032.538-.061,1.048-.1,1.528-.152,2.141.141,3.569.9,4.364a4.029,4.029,0,0,0,3.144.88c1.78-.032,2.891-.338,3.4-.935a2.968,2.968,0,0,0,.231-2.389,7.723,7.723,0,0,1-.131-1.474c.069-1.679.854-1.857,1.8-1.908a36.679,36.679,0,0,0,4.358-.628,1.149,1.149,0,0,1,1.011.2c.631.524.6,1.791.576,3.017l-.007.336a2.768,2.768,0,0,0,.6,2.167c.588.542,1.711.735,3.339.574a3.089,3.089,0,0,0,2.226-1.05c1.325-1.633.946-5.144.464-9.59h0c-.377-3.5-2.046-6.637-3.98-10.273-.423-.8-.858-1.612-1.292-2.457a4.91,4.91,0,0,0-3.755-2.743A6.156,6.156,0,0,0,141.6,66.338Zm-2.786,18.14c-.824,0-1.43-.177-1.67-.638a2.041,2.041,0,0,1,.129-1.641,6.479,6.479,0,0,0,.357-3.4l-.013-.083c-.23-1.389-.467-2.824,1.222-3.23.184-.043.365-.091.541-.137,1.259-.332,2.557-.675,3.3.965.647,1.426,2.063,4.929,1.239,6.624a1.572,1.572,0,0,1-1.084.874h0A18.8,18.8,0,0,1,138.818,84.478Zm2.112-8.855a6.039,6.039,0,0,0-1.406.26c-.18.048-.365.1-.552.141-1.135.272-1.056,1.079-.8,2.6l.014.084a6.963,6.963,0,0,1-.38,3.667c-.2.607-.3.936-.162,1.209.286.545,1.986.44,5.065-.313h0a1.023,1.023,0,0,0,.718-.577c.588-1.212-.257-3.973-1.245-6.154A1.271,1.271,0,0,0,140.93,75.623Z"/>
        <path id="Path_127" data-name="Path 127" d="M141.635,66.658c1.938,0,3.784.206,4.892,2.364,2.406,4.692,4.834,8.5,5.3,12.827.685,6.329,1.13,10.543-2.939,10.946-.392.038-.749.058-1.073.058-3.035,0-3.2-1.618-3.174-3.078.026-1.506.159-3.307-.975-3.307a1.227,1.227,0,0,0-.272.031,37.22,37.22,0,0,1-4.4.631c-.913.049-1.475.193-1.535,1.644-.091,2.123,1.869,4.963-3.767,5.065l-.261,0c-2.421,0-4.4-.678-4.059-5.545a29.387,29.387,0,0,1,8.106-18.639c1.278-1.314,1.881-3,4.154-3M139.6,85.026c1.1,0,2.507-.955,3.834-1.28,2.169-.532.8-6.333-.617-8.288a3.975,3.975,0,0,0-2.326-1.509,15.663,15.663,0,0,0-2.457.624c-1.469.352-2.988,2.949-1.316,4.188,2.394,1.774-1.276,5.719-.8,6.646.186.355,2.183-.585,2.883-.585m2.8-19.272a9.562,9.562,0,0,0-6.486,2.639c-5.616,5.78-6.062,13.469-6.359,18.558-.031.536-.062,1.046-.1,1.522-.188,2.667.284,4.333,1.489,5.242a5.406,5.406,0,0,0,3.283.839c.093,0,.186,0,.279,0a6.357,6.357,0,0,0,3.884-.975c1.063-.87.879-2.073.7-3.234a7.4,7.4,0,0,1-.124-1.349c.046-1.106.272-1.119.877-1.15a38.356,38.356,0,0,0,4.544-.651c.022,0,.04-.007.051-.009.341.263.308,1.737.29,2.452l-.007.335a3.15,3.15,0,0,0,1.077,2.884,4.753,4.753,0,0,0,2.811.711,11.669,11.669,0,0,0,1.17-.062c4.743-.472,4.269-4.854,3.554-11.489-.39-3.624-2.087-6.814-4.052-10.51-.423-.8-.858-1.61-1.292-2.454a6.025,6.025,0,0,0-5.594-3.3m-2.8,18.14c-.2,0-.667-.016-.74-.157-.126-.244,0-.614.171-1.128a7.058,7.058,0,0,0,.383-3.709l-.016-.088c-.248-1.5-.27-2.176.534-2.369.191-.044.379-.1.563-.144a5.585,5.585,0,0,1,1.218-.237c.167,0,.51,0,.836.725,1.548,3.42,1.887,6.205.788,6.475a18.7,18.7,0,0,1-3.737.632" fill="#fff"/>
        <path id="Path_128" data-name="Path 128" d="M133.434,94.627a5.652,5.652,0,0,1-3.449-.894c-1.287-.97-1.795-2.713-1.6-5.483.033-.475.064-.984.094-1.518.3-5.139.754-12.887,6.436-18.736a9.867,9.867,0,0,1,6.686-2.723,6.293,6.293,0,0,1,5.841,3.447c.4.774.8,1.523,1.185,2.254l.1.2c1.979,3.72,3.687,6.933,4.084,10.611.524,4.872.9,8.384-.672,10.323a4.35,4.35,0,0,1-3.131,1.471c-.41.041-.813.063-1.2.063a5.02,5.02,0,0,1-2.973-.764,3.469,3.469,0,0,1-1.192-3.112l.007-.337a6.656,6.656,0,0,0-.13-2.14,38.869,38.869,0,0,1-4.463.63c-.536.027-.579.03-.616.885a6.8,6.8,0,0,0,.109,1.211l.012.087c.183,1.178.39,2.516-.8,3.489a6.594,6.594,0,0,1-4.053,1.037Zm8.168-28.8a9.276,9.276,0,0,0-6.288,2.554c-5.539,5.7-5.985,13.326-6.28,18.371-.031.549-.063,1.059-.1,1.536-.18,2.566.258,4.155,1.381,5a5.153,5.153,0,0,0,3.116.784l.273,0a6.135,6.135,0,0,0,3.715-.911c.942-.773.776-1.844.6-2.978l-.013-.089a7.2,7.2,0,0,1-.115-1.316c.053-1.235.372-1.374,1.142-1.415a37.241,37.241,0,0,0,4.5-.645l.124-.026.153.07c.38.294.433,1.243.4,2.678l-.007.334a2.876,2.876,0,0,0,.963,2.654,4.5,4.5,0,0,0,2.648.658,11.31,11.31,0,0,0,1.142-.061,3.834,3.834,0,0,0,2.757-1.269c1.429-1.76,1.041-5.353.551-9.9-.386-3.583-2.071-6.751-4.023-10.421l-.1-.2c-.391-.735-.79-1.485-1.189-2.262A5.76,5.76,0,0,0,141.6,65.827ZM133.491,93.52c-1.253,0-2.523,0-3.338-.874-.73-.786-1-2.179-.84-4.386l.052-.767c.342-5.1.86-12.8,6.705-18.825a7.554,7.554,0,0,1,5.565-2.287c1.853,0,3.763.2,4.977,2.563.454.885.909,1.737,1.351,2.565,1.932,3.615,3.6,6.738,3.986,10.3.668,6.171.819,10.261-3,10.861-.136.021-.265.05-.388.077a3.309,3.309,0,0,1-.693.1,3.652,3.652,0,0,1-2.7-.816,3.226,3.226,0,0,1-.658-2.478c.026-1.521-.154-2.489-.537-2.877a.577.577,0,0,0-.419-.185.542.542,0,0,1-.056.015,39.383,39.383,0,0,1-4.512.664c-.678.036-1.377.259-1.434,1.638a6.586,6.586,0,0,0,.124,1.315,2.78,2.78,0,0,1-.277,2.336c-.571.682-1.812,1.019-3.906,1.059Zm8.144-26.585a7.009,7.009,0,0,0-5.166,2.119c-5.706,5.875-6.215,13.459-6.551,18.477l-.053.768c-.143,2.016.084,3.314.694,3.969s1.532.7,2.882.7c1.927-.035,3.075-.316,3.531-.86.385-.46.278-1.124.154-1.893a7.2,7.2,0,0,1-.13-1.426c.058-1.392.7-2.1,1.958-2.169a38.449,38.449,0,0,0,4.415-.65.385.385,0,0,1,.163-.029,1.134,1.134,0,0,1,.835.35c.5.512.724,1.554.695,3.276a2.765,2.765,0,0,0,.5,2.08,3.169,3.169,0,0,0,2.3.65,2.772,2.772,0,0,0,.575-.087c.133-.029.273-.059.42-.083,3.087-.484,3.277-3.419,2.537-10.253-.374-3.46-2.018-6.537-3.923-10.1-.444-.832-.9-1.685-1.356-2.573C145.047,67.108,143.386,66.935,141.635,66.935ZM138.8,84.127c-.478,0-.756-.032-.985-.466a2.1,2.1,0,0,1,.031-1.584,7.149,7.149,0,0,0,.191-3.272c-.042-.262-.1-.517-.155-.763-.232-1.034-.495-2.208.96-2.557.18-.043.357-.09.53-.135a6.3,6.3,0,0,1,1.543-.278c.813,0,1.158.619,1.525,1.428,1.368,3.021,1.774,5.022,1.242,6.118a1.606,1.606,0,0,1-1.117.877l-.616.154a11.2,11.2,0,0,1-2.842.477H138.8Zm2.115-8.5a5.957,5.957,0,0,0-1.4.259c-.178.048-.358.1-.542.139-.848.2-.827.656-.549,1.9.058.255.117.521.163.794a7.642,7.642,0,0,1-.2,3.5c-.151.582-.224.9-.074,1.187.09.171.091.169.615.169h.185a10.8,10.8,0,0,0,2.705-.46l.621-.155a1.055,1.055,0,0,0,.75-.581c.45-.925.03-2.826-1.247-5.647C141.544,75.863,141.324,75.626,140.916,75.626Zm-1.67,7.565a.611.611,0,0,1-.48-.273,1.014,1.014,0,0,1-.094-.923,15.471,15.471,0,0,0,.124-3.463,6.789,6.789,0,0,0-.289-1.1c-.112-.328-.192-.566-.069-.789a.821.821,0,0,1,.57-.337c.129-.03.343-.09.525-.141l.229-.064a3.458,3.458,0,0,1,1.044-.148c.394-.059.6.118.873.717.831,1.834,1.7,4.274,1.117,5.47a1.125,1.125,0,0,1-.758.624A10.159,10.159,0,0,1,139.246,83.191Zm1.683-6.706a.265.265,0,0,1-.123.026,2.9,2.9,0,0,0-.9.129l-.222.062c-.19.053-.415.117-.547.147a.646.646,0,0,0-.223.079c.012.016.068.184.118.331a7.231,7.231,0,0,1,.316,1.214,16.389,16.389,0,0,1-.149,3.7c-.1.289.014.441.061.465a9.442,9.442,0,0,0,2.607-.4.588.588,0,0,0,.431-.337c.177-.366.424-1.583-1.122-5C141.016,76.548,140.937,76.49,140.929,76.485Z"/>
      </g>
      <g id="Group_27" data-name="Group 27">
        <path id="Path_129" data-name="Path 129" d="M171.9,69.873a3.337,3.337,0,1,1,3.337-3.337A3.34,3.34,0,0,1,171.9,69.873Zm0-5.8a2.466,2.466,0,1,0,2.467,2.466A2.468,2.468,0,0,0,171.9,64.07Z"/>
        <path id="Path_130" data-name="Path 130" d="M171.9,69.7a3.162,3.162,0,1,1,3.163-3.163A3.167,3.167,0,0,1,171.9,69.7Zm0-5.8a2.641,2.641,0,1,0,2.641,2.64A2.643,2.643,0,0,0,171.9,63.9Z"/>
        <path id="Path_131" data-name="Path 131" d="M171.9,69.873a3.337,3.337,0,1,1,3.337-3.337A3.34,3.34,0,0,1,171.9,69.873Zm0-5.8a2.466,2.466,0,1,0,2.467,2.466A2.468,2.468,0,0,0,171.9,64.07Z"/>
        <path id="Path_132" data-name="Path 132" d="M171.9,69.7a3.162,3.162,0,1,1,3.163-3.163A3.167,3.167,0,0,1,171.9,69.7Zm0-5.8a2.641,2.641,0,1,0,2.641,2.64A2.643,2.643,0,0,0,171.9,63.9Z" fill="#fff"/>
        <path id="Path_133" data-name="Path 133" d="M172.07,68.252a1.733,1.733,0,0,1-.684-.136,1.67,1.67,0,0,1-.545-.366,1.705,1.705,0,0,1-.357-.541,1.781,1.781,0,0,1,0-1.336,1.688,1.688,0,0,1,.357-.547,1.652,1.652,0,0,1,.545-.369,1.744,1.744,0,0,1,.695-.136,1.792,1.792,0,0,1,.772.149,1.749,1.749,0,0,1,.539.406l.107.118-.747.8-.128-.133a1.238,1.238,0,0,0-.259-.208.582.582,0,0,0-.29-.064.473.473,0,0,0-.213.046.521.521,0,0,0-.171.131.605.605,0,0,0-.117.2.731.731,0,0,0-.043.253.8.8,0,0,0,.043.274.591.591,0,0,0,.117.2.566.566,0,0,0,.181.133.586.586,0,0,0,.237.047.577.577,0,0,0,.283-.064,1.382,1.382,0,0,0,.278-.2l.125-.113.725.734-.111.122a2.081,2.081,0,0,1-.536.424A1.66,1.66,0,0,1,172.07,68.252Z"/>
        <path id="Path_134" data-name="Path 134" d="M172.788,67.926a1.488,1.488,0,0,1-.718.152,1.553,1.553,0,0,1-.616-.122,1.488,1.488,0,0,1-.809-.815,1.519,1.519,0,0,1-.117-.593v-.012a1.537,1.537,0,0,1,.117-.6,1.516,1.516,0,0,1,.32-.492,1.469,1.469,0,0,1,.489-.331,1.566,1.566,0,0,1,.627-.122,1.612,1.612,0,0,1,.7.132,1.585,1.585,0,0,1,.486.365l-.513.553a1.375,1.375,0,0,0-.3-.238.742.742,0,0,0-.378-.088.661.661,0,0,0-.291.063.721.721,0,0,0-.226.174.792.792,0,0,0-.149.257.921.921,0,0,0-.053.312v.011a.961.961,0,0,0,.053.321.745.745,0,0,0,.152.259.724.724,0,0,0,.237.175.737.737,0,0,0,.31.063.746.746,0,0,0,.367-.086,1.534,1.534,0,0,0,.312-.229l.492.5A1.9,1.9,0,0,1,172.788,67.926Z" fill="#fff"/>
      </g>
    </g>
  </g>
</svg>
