<svg id="Layer_1" data-name="Layer 1" xmlns="http://www.w3.org/2000/svg" viewBox="0 0 595.44 841.68"><title>Artboard 1</title><g style="opacity:0.12"><path d="M215.73,370.12c8.91,1.93,20,3.82,33.3,6.69,21.6,4.65,18.57,14.93,4.46,31.16-11.7,13.44-33.49,35.46-39.35,40.84-9.61,8.84-7.6,16.27.47,16.27l21.88.16c6.81,0,10.63-2.27,12.84-6.8s8.53-17.07,8.53-17.07l22.28,16.56L323,458v-1.55S293.26,443,279.46,432.63c-11.09-8.31-6.87-16.69-2.81-24.88,4.59-9.26,8.85-21.68-6.93-33.18-10.92-7.95-22-8.55-42.21-11.66L218,361.39c-2.27-.38-5.42,1.26-6.08,3.23-.57,1.73.87,4.82,3.13,5.3Z" style="fill:#1f6870"/><path d="M236.56,465.57H215.71c-4.15,0-7-1.48-7.91-4.17-1.25-3.5,1.06-8.19,6.5-13.18s27.34-27.12,39.21-40.77c8.45-9.71,11.84-16.76,10.38-21.53-1.22-4-6.06-6.89-14.39-8.68-7.33-1.58-14.39-2.95-20.07-4.05-4.76-.92-9.68-1.87-13.88-2.78a5.27,5.27,0,0,1-3.55-2.62,4.41,4.41,0,0,1-.35-3.47c.67-2,2.88-3.34,5.63-3.34a8.07,8.07,0,0,1,1.39.12l8,1.36c3,.45,5.73.85,8.35,1.23,15.24,2.2,25.32,3.65,34.89,10.62,15.85,11.55,12,24.1,6.94,33.75-4.21,8-7.72,17.13,3.93,25.12,13.65,9.36,40.77,22.24,41.65,22.56a1.47,1.47,0,0,1,1,.7,1.43,1.43,0,0,1,.1,1,.81.81,0,0,1-.21.46,1.86,1.86,0,0,1-1.39.42h-41.4a1.24,1.24,0,0,1-.76-.25L258,441.86c-1.92,3.8-6.68,13.28-8.42,16.85C247.06,463.84,243.78,465.57,236.56,465.57ZM217.28,361.63c-2.47,0-4.43,1.14-5,2.89a3.75,3.75,0,0,0,.3,3,4.67,4.67,0,0,0,3.12,2.29c4.19.91,9.11,1.86,13.87,2.78,5.67,1.1,12.74,2.47,20.08,4.05,8.57,1.84,13.57,4.91,14.87,9.12,1.54,5-1.9,12.25-10.51,22.15-11.89,13.66-33.68,35.7-39.26,40.82-5.23,4.81-7.48,9.24-6.33,12.48.85,2.41,3.45,3.74,7.3,3.74h20.85c6.92,0,10.05-1.64,12.42-6.5,1.79-3.68,6.81-13.66,8.59-17.2l.17-.34,22.43,16.69a.63.63,0,0,0,.37.12h41.4c.75,0,.94-.21.95-.28v-.07l0,0a.76.76,0,0,0,0-.55.89.89,0,0,0-.61-.38c-.14,0-27.65-12.91-41.85-22.65-12.09-8.29-8.47-17.75-4.13-26,5-9.42,8.69-21.67-6.75-32.92-9.45-6.88-19.45-8.32-34.6-10.51-2.62-.38-5.4-.78-8.36-1.23l-8-1.36A7.81,7.81,0,0,0,217.28,361.63Zm-1.41,102.68c-3.48,0-5.84-1.13-6.66-3.17-1.17-2.92,1-7.29,5.95-12,6.11-5.82,27.86-27.86,39.32-40.86,9.09-10.31,12.51-17.58,10.76-22.88C263.8,381,258.76,378,249.82,376c-7.17-1.54-13.88-2.91-19.8-4.12-5.05-1-9.82-2-13.94-2.89a4.18,4.18,0,0,1-2.84-1.82,2.82,2.82,0,0,1-.2-2.33c.56-1.68,1.92-2.49,4.16-2.49h.17c.41,0,7.69,1.18,9.15,1.41l5,.76c17.58,2.66,28.19,4.26,37.59,10.9,11.54,8.15,13.64,18.57,6.41,31.86-4.45,8.19-8,18.69,4.52,27.25,14,9.62,40.94,22,41.21,22.15l1.35.62H280.43l-.09-.07-22.95-17.42c-1.11,2.19-7.17,14.08-9.15,18.16-2.34,4.81-5,6.2-11.66,6.2ZM217.2,363c-2,0-3.08.65-3.54,2a2.22,2.22,0,0,0,.14,1.81,3.55,3.55,0,0,0,2.42,1.5c4.11.9,8.88,1.87,13.93,2.9,5.92,1.2,12.64,2.57,19.81,4.12,9.18,2,14.38,5.18,15.9,9.8,1.83,5.54-1.64,13-10.89,23.51-11.48,13-33.25,35.07-39.36,40.9-4.75,4.52-6.86,8.64-5.8,11.3.71,1.78,2.86,2.76,6.06,2.76l20.7-.12c6.47,0,8.85-1.26,11.08-5.83s9.27-18.38,9.34-18.52l.18-.35,23.48,17.83h39c-5.63-2.64-27.7-13.16-40-21.59-13.06-8.95-9-20.32-4.72-28.09,7-12.95,5-23.09-6.22-31-9.27-6.55-19.82-8.14-37.31-10.79l-5-.75c-3.45-.56-8.7-1.4-9-1.41Z" style="fill:#f8b271"/><path d="M286.48,419.16c-.75,5.87-3.08,5.78-6.74,1.78-3.41-3.73-4-13.53,12-22.77,25-14.45,70.42-12.29,78.43-21.44a27.66,27.66,0,0,0,4.69.48c1.26,0,3.49-.28,3.49-.28s-3.11,7.86-20,11.41c-16.48,3.47-35.34,5.11-48.31,10.81s-22.11,8.9-23.53,20" style="fill:#1f6870"/><path d="M283.89,424.1c-1.15,0-2.56-1-4.39-2.94a8.86,8.86,0,0,1-1.92-7.42c.6-3.9,3.51-9.81,14-15.85,13.45-7.78,33.18-10.82,49-13.26,13.78-2.13,25.67-4,29.31-8.11l.12-.14.19,0a26.43,26.43,0,0,0,4.62.48c1.22,0,3.43-.28,3.45-.28l.55-.07-.2.51c-.13.33-3.38,8.06-20.23,11.61-5.05,1.06-10.39,2-15.56,2.84-11.66,2-23.72,4-32.69,7.94l-2.57,1.13c-11.72,5.09-19.47,8.46-20.77,18.63-.37,2.86-1.13,4.43-2.32,4.81A1.92,1.92,0,0,1,283.89,424.1Zm86.36-47c-3.92,4.23-15.82,6.06-29.57,8.18-15.8,2.43-35.47,5.46-48.82,13.18-10.23,5.91-13.06,11.63-13.64,15.39a8.35,8.35,0,0,0,1.76,6.88c1.9,2.08,3.36,3,4.3,2.67s1.55-1.72,1.87-4.27c1.35-10.54,9.66-14.15,21.16-19.15l2.57-1.12c9-4,21.14-6,32.84-8,5.16-.88,10.5-1.78,15.54-2.84,14-2.94,18.43-8.91,19.48-10.7a29.16,29.16,0,0,1-2.92.22A27.75,27.75,0,0,1,370.25,377.09Z" style="fill:#f8b271"/><path d="M370.13,376.73a27.66,27.66,0,0,0,4.69.48c1.26,0,3.5-.28,3.5-.28s-3.12,7.86-20,11.41c-16.48,3.47-35.74,4.67-48.71,10.36s-21.72,9.35-23.14,20.46c-.41,3.19-1.28,4.62-2.58,4.62-1.09,0-2.48-1-4.15-2.84-3.42-3.73-4-13.53,11.95-22.77,25-14.45,70.42-12.29,78.43-21.44m0-1a.94.94,0,0,0-.71.33c-3.48,4-15.28,5.79-28.94,7.9-15.9,2.45-35.69,5.5-49.25,13.34-10.76,6.22-13.72,12.39-14.31,16.47a9.59,9.59,0,0,0,2.12,7.91c2,2.15,3.51,3.15,4.86,3.15,2.84,0,3.37-4.14,3.54-5.5,1.25-9.77,8.71-13.41,20.23-18.41.84-.37,1.6-.72,2.48-1.1,8.9-3.91,21.15-5.63,32.77-7.59,5.18-.88,10.53-1.79,15.6-2.85,17.18-3.62,20.56-11.69,20.69-12a1,1,0,0,0-.12-1,.94.94,0,0,0-.77-.41h-.12s-2.19.27-3.38.27a26.64,26.64,0,0,1-4.51-.46l-.18,0" style="fill:#1f6870"/><path d="M283.9,425.13c-1.44,0-3.06-1-5.1-3.26a9.91,9.91,0,0,1-2.2-8.17c.6-4.16,3.59-10.43,14.47-16.72,13.62-7.87,33.44-10.92,49.36-13.37,13.62-2.1,25.34-3.91,28.74-7.79a1.33,1.33,0,0,1,1.21-.42,25.79,25.79,0,0,0,4.44.46c1.12,0,3.2-.26,3.32-.27h.18a1.3,1.3,0,0,1,1,.54,1.43,1.43,0,0,1,.16,1.33c-.14.34-3.58,8.56-20.94,12.22-5,1.05-10.28,1.94-15.39,2.81l-.22,0c-18.32,3.1-29.82,5.94-35.15,8.67l-3.19,1.61c-9.49,4.76-15.76,7.91-16.87,16.55C287.58,420.77,287,425.13,283.9,425.13ZM370.13,376a.62.62,0,0,0-.47.22c-3.55,4.06-15.39,5.88-29.09,8-15.91,2.45-35.66,5.49-49.18,13.3-10.65,6.15-13.57,12.23-14.15,16.24a9.29,9.29,0,0,0,2,7.65c1.9,2.07,3.37,3,4.62,3,2.55,0,3.05-3.93,3.22-5.22,1.15-9,7.89-12.37,17.22-17.05l3.18-1.61c5.4-2.76,17-5.62,35.34-8.72l.22,0c5.11-.87,10.38-1.76,15.37-2.81,17-3.58,20.33-11.49,20.46-11.82a.75.75,0,0,0-.08-.71.62.62,0,0,0-.51-.28h-.1a33.47,33.47,0,0,1-3.4.28,27.68,27.68,0,0,1-4.58-.47ZM283.9,424.1c-1.16,0-2.56-.93-4.39-2.94a8.87,8.87,0,0,1-1.93-7.42c.6-3.9,3.51-9.82,14-15.85,13.43-7.77,32.4-10.78,49.14-13.43,13.77-2.19,25.67-4.08,29.42-8.17v0h0l.06-.07.13.11a21.75,21.75,0,0,0,4.5.59,34.06,34.06,0,0,0,3.46-.29l.54-.07-.2.52c-.13.32-3.38,8.06-20.23,11.61-2.64.55-5.55,1.09-9.16,1.69-2.52.41-5.05.8-7.58,1.19l-2.61.4c-3.38.52-6.87,1.05-10.29,1.67l-3.22.6A103,103,0,0,0,315.18,397a78.51,78.51,0,0,0-10.24,3.75c-.93.43-1.87.9-2.79,1.37s-1.82,1-2.71,1.46-1.7,1-2.51,1.51c-2.79,1.75-6.22,4.24-8.12,8a21.11,21.11,0,0,0-2,6.14C286.3,422.59,285.4,424.1,283.9,424.1ZM370.34,377c-4.13,4.09-15.94,6-29.56,8.12-16.68,2.64-35.59,5.64-48.92,13.35-10.22,5.91-13.06,11.63-13.64,15.39a8.32,8.32,0,0,0,1.77,6.88c1.65,1.81,3,2.73,3.91,2.73.69,0,1.68-.45,2.26-4.33a21.92,21.92,0,0,1,2.07-6.35c2-3.9,5.5-6.46,8.35-8.26.82-.52,1.68-1,2.54-1.52s1.81-1,2.73-1.48,1.88-.94,2.82-1.38A78.36,78.36,0,0,1,315,396.34a105.63,105.63,0,0,1,10.42-2.77c1.07-.21,2.15-.41,3.23-.6,3.43-.62,6.92-1.15,10.3-1.67l2.62-.41c2.52-.38,5-.77,7.56-1.19,3.6-.59,6.51-1.12,9.14-1.68,14-2.94,18.44-8.91,19.49-10.7a29.37,29.37,0,0,1-2.93.22A22.13,22.13,0,0,1,370.34,377Z" style="fill:#f8b271"/><path d="M304.13,439.05c-3.66-.11-8.06-2.07-7.69-6.44s-.27-6.8-.66-10.35-.62-6.46,2.09-8.66c4.13-3.35,10.27-4.85,16.36-4.43s9.29,5.54,7.24,7.64-10.37.49-13.08,2.53c-3.69,2.79-2.22,7.29,1.29,6.48s7.32-2.81,8-1.75c1.82,3.07-1.47,4.49-4.38,4.88s-5.11,1-4.73,3.89,1.17,6.38-4.4,6.21" style="fill:#1f6870"/><path d="M304.5,439.38h-.38c-2.13-.07-5-.81-6.68-2.69a5.27,5.27,0,0,1-1.33-4.1,32.2,32.2,0,0,0-.35-7.87c-.1-.77-.21-1.57-.3-2.43-.37-3.38-.71-6.57,2.21-8.94,4.07-3.31,10.11-5,16.59-4.51,4.22.29,7,2.78,7.88,5a3,3,0,0,1-.43,3.23c-1.13,1.16-3.79,1.27-6.6,1.39-2.59.11-5.26.22-6.52,1.17-2,1.52-2.34,3.51-1.78,4.71a2.3,2.3,0,0,0,2.8,1.19,37.33,37.33,0,0,0,3.67-1.11c2.38-.81,4.1-1.39,4.64-.48a2.92,2.92,0,0,1,.33,2.85c-.86,1.78-3.74,2.35-4.95,2.51-3.2.44-4.77,1.1-4.45,3.52l.06.45c.24,1.71.51,3.66-.61,4.91C307.56,439,306.31,439.38,304.5,439.38Zm-.36-.65c1.81,0,3-.28,3.68-1,.92-1,.68-2.73.45-4.38l-.06-.45c-.43-3.24,2.24-3.88,5-4.25,2.28-.31,3.94-1.11,4.45-2.15a2.33,2.33,0,0,0-.31-2.24c-.28-.47-2.27.22-3.87.76a37.13,37.13,0,0,1-3.74,1.13,2.94,2.94,0,0,1-3.53-1.55c-.66-1.43-.33-3.76,2-5.5,1.42-1.07,4.19-1.19,6.88-1.3s5.22-.22,6.16-1.19a2.34,2.34,0,0,0,.29-2.55c-.76-2-3.38-4.28-7.32-4.55-6.22-.41-12.25,1.2-16.14,4.37-2.64,2.14-2.33,5-2,8.36.1.86.2,1.65.31,2.42a33.22,33.22,0,0,1,.35,8,4.62,4.62,0,0,0,1.16,3.61c1.55,1.74,4.23,2.42,6.22,2.48Z" style="fill:#f8b271"/><path d="M312.23,408.49c-5.93,0-11.47,1.73-15.18,4.75-3,2.44-2.66,5.65-2.29,9.06.09.86.2,1.66.31,2.43a31.9,31.9,0,0,1,.34,7.85,5.66,5.66,0,0,0,2.74,5.35,11.58,11.58,0,0,0,5.93,1.73h.42a6.84,6.84,0,0,0,3.78-.88c1.93-1.25,1.61-3.54,1.33-5.56l-.06-.44c-.33-2.48,1.35-2.89,3.94-3.24a8.45,8.45,0,0,0,5-2.05,2.8,2.8,0,0,0,.15-3.63,1.91,1.91,0,0,0-1.71-.71,13.87,13.87,0,0,0-4,1c-1.12.38-2.39.81-3.56,1.08a2.48,2.48,0,0,1-.45.05,1.41,1.41,0,0,1-1.09-.57c-.95-1.18-.68-3.42,1.42-5,1.05-.8,3.55-.91,6-1,2.9-.12,5.89-.24,7.2-1.59s.94-3.27-.6-5.1a10.56,10.56,0,0,0-7.41-3.46c-.71-.05-1.42-.07-2.12-.07" style="fill:#1f6870"/><path d="M304.5,440h-.41A12,12,0,0,1,298,438.2a5.94,5.94,0,0,1-2.89-5.65,31.75,31.75,0,0,0-.34-7.77c-.11-.78-.22-1.58-.31-2.45-.38-3.49-.74-6.79,2.4-9.34,3.78-3.07,9.39-4.83,15.39-4.83.73,0,1.45,0,2.14.08a10.84,10.84,0,0,1,7.64,3.57c1.65,2,1.89,4.19.58,5.54s-4.44,1.56-7.39,1.69c-2.28.09-4.83.2-5.81.94a4.27,4.27,0,0,0-1.79,2.81,2.28,2.28,0,0,0,.43,1.73,1.09,1.09,0,0,0,1.21.41c1.2-.27,2.55-.74,3.53-1.07a14.34,14.34,0,0,1,4.13-1,2.21,2.21,0,0,1,2,.87,3.13,3.13,0,0,1-.2,4,8.66,8.66,0,0,1-5.15,2.15c-2.7.37-3.94.77-3.66,2.88l.07.44c.28,2,.62,4.51-1.48,5.88A7.32,7.32,0,0,1,304.5,440Zm7.73-31.18c-5.86,0-11.32,1.71-15,4.68-2.86,2.33-2.53,5.46-2.17,8.77.09.86.2,1.66.31,2.43a31.9,31.9,0,0,1,.35,7.92,5.34,5.34,0,0,0,2.59,5.05,11.43,11.43,0,0,0,5.76,1.68h.41a6.61,6.61,0,0,0,3.61-.82c1.75-1.14,1.46-3.22,1.18-5.24l-.06-.45c-.4-3,2-3.31,4.21-3.6a8.18,8.18,0,0,0,4.77-2,2.49,2.49,0,0,0,.12-3.24,1.64,1.64,0,0,0-1.43-.56,14.09,14.09,0,0,0-3.92,1c-1,.34-2.36.81-3.59,1.09a1.74,1.74,0,0,1-1.87-.63,2.94,2.94,0,0,1-.57-2.22,4.92,4.92,0,0,1,2.05-3.25c1.14-.86,3.69-1,6.15-1.07,2.84-.12,5.76-.25,7-1.49s.82-3-.61-4.67a10.27,10.27,0,0,0-7.18-3.35C313.65,408.84,312.94,408.81,312.23,408.81Zm-8,30.09h-.42c-1.36-.06-4.75-.85-6.54-2.89a4.43,4.43,0,0,1-1.15-3.41,31.51,31.51,0,0,0-.35-7.87c-.1-.77-.21-1.57-.3-2.43-.37-3.41-.42-6.21,2.5-8.58,3.63-2.95,8.6-4.48,14.42-4.46,4.83,0,8.5,2.49,9.52,4.85a2.34,2.34,0,0,1-.32,2.69c-1.13,1.16-3.67,1.15-6.37,1.13-2.47,0-5.06,0-6.31.93a5.83,5.83,0,0,0-2.29,6,1.66,1.66,0,0,0,1.62,1.21,26.53,26.53,0,0,0,4.25-1.07,22.62,22.62,0,0,1,4.32-1.08,1.23,1.23,0,0,1,1.15.54,2.51,2.51,0,0,1,0,2.34c-.61,1.08-2.17,1.79-4.65,2.13-3.42.47-4.76,1.63-4.45,3.89s-.05,3.78-1,4.8A4.75,4.75,0,0,1,304.22,438.9Zm8-29c-5.58,0-10.36,1.49-13.84,4.31-2.67,2.18-2.63,4.69-2.27,8,.1.86.2,1.65.31,2.42a33.22,33.22,0,0,1,.35,8,3.8,3.8,0,0,0,1,2.93c1.64,1.87,4.86,2.62,6.07,2.67a4.4,4.4,0,0,0,3.58-1.09c.8-.87,1.07-2.31.81-4.27-.46-3.47,2.64-4.3,5-4.62,2.23-.31,3.67-.93,4.16-1.81a1.89,1.89,0,0,0,0-1.76.87.87,0,0,0-.56-.15,23.78,23.78,0,0,0-4.14,1,25.14,25.14,0,0,1-4.41,1.1A2.26,2.26,0,0,1,306,425c-.64-1.83.13-4.92,2.51-6.71,1.43-1.08,4.1-1.07,6.71-1.06,2.43,0,5,0,5.89-.94a1.72,1.72,0,0,0,.19-2c-.95-2.21-4.53-4.46-8.93-4.46h-.16Z" style="fill:#f8b271"/><path d="M364.26,439.09c-6.09,0-13.16-1.21-13.19-7.64s-1.65-15.23-1-18.24,4.2-4.21,6.77-4.14,9.72,1.62,6.77,11.33c-1.28,4.25-4.17,9.4-2.78,10.72,2,1.84,7.91,1.14,10.15.31s4.94-.42,5.64,1.46.05,6.2-12.39,6.2" style="fill:#1f6870"/><path d="M364.26,439.41c-8.94,0-13.49-2.67-13.52-8,0-2.79-.32-6-.62-9.06-.39-4-.73-7.51-.34-9.26.76-3.35,4.69-4.49,7.1-4.39.73,0,4.49.27,6.51,3.09,1.49,2.07,1.68,5,.57,8.65-.41,1.33-1,2.74-1.5,4.1-1.07,2.72-2.18,5.54-1.37,6.29,1.84,1.73,7.72,1,9.81.25,2.3-.86,5.27-.47,6.05,1.64a3.41,3.41,0,0,1-.44,3.19C375.42,437.54,372.41,439.41,364.26,439.41Zm-7.6-30c-2.23,0-5.59,1-6.24,3.88-.38,1.65,0,5.24.34,9.05.3,3.1.61,6.31.63,9.12,0,4.85,4.36,7.31,12.87,7.31,7.87,0,10.72-1.72,11.72-3.17a2.79,2.79,0,0,0,.37-2.59c-.65-1.73-3.21-2-5.22-1.26-2.17.8-8.34,1.63-10.49-.38-1.12-1.06,0-3.82,1.22-7,.53-1.35,1.08-2.75,1.47-4.06,1.06-3.47.9-6.19-.47-8.08-1.84-2.57-5.32-2.8-6-2.82Z" style="fill:#f8b271"/><path d="M357.69,414c.08,0-.81-1.18-.73-1.18,2.57.07,6.88-2.56,3.94,7.15-1.29,4.25-3.15,10.42-1.75,11.73.91.86,2.64,3.09,4.51,3.09a32.53,32.53,0,0,0,7.31-.93,6.66,6.66,0,0,1,2.11-.74c1.53,0,1.07-.57,1.54.7.7,1.88,2.29,4.54-10.15,4.54-6.09,0-10.56-.88-10.6-7.31-.05-8.53,0-11.08,1.22-16.32.66-2.92-.68-1.91,1.87-1.91m-.32-4.29c-3,0-6.65,1.45-7.37,4.63-.4,1.76-.06,5.25.33,9.29.3,3.08.61,6.27.63,9,0,3.74,2.47,8.21,14,8.21,5.89,0,9.92-.94,12-2.79a3.71,3.71,0,0,0,1.21-4.14c-.52-1.42-2.14-2.3-4.2-2.3a7.75,7.75,0,0,0-2.64.48,17.56,17.56,0,0,1-5.21.78c-1.86,0-3.24-.33-3.87-.93s.47-3.71,1.43-6.14c.54-1.37,1.09-2.78,1.5-4.11,1.33-4.41.81-7.71-1.56-9.83a10,10,0,0,0-6-2.2h-.27" style="fill:#1f6870"/><path d="M364.26,440c-11.82,0-14.33-4.64-14.36-8.53,0-2.78-.33-5.95-.62-9-.4-4.11-.74-7.59-.33-9.39.77-3.36,4.52-4.89,7.69-4.89h.28a10.13,10.13,0,0,1,6.2,2.28c2.48,2.21,3,5.62,1.66,10.16-.4,1.32-.94,2.7-1.47,4l0,.1c-.72,1.83-2.07,5.25-1.51,5.78s1.71.76,3.66.84a14.25,14.25,0,0,0,4.09-.68c3.09-.8,6.58-1.7,8.45,1.75a4.31,4.31,0,0,1-1.49,4.68C374.33,439,370.22,440,364.26,440Zm-7.62-31.18c-2.92,0-6.37,1.37-7.05,4.38-.39,1.7-.06,5.13.33,9.11.3,3.16.61,6.34.63,9.15,0,5.17,4.77,7.89,13.71,7.89,5.8,0,9.76-.91,11.77-2.71a3.75,3.75,0,0,0,1.36-3.88c-1.63-3-4.59-2.24-7.72-1.43a15.17,15.17,0,0,1-4.28.7c-2.17-.09-3.43-.41-4.07-1-.83-.77,0-3.18,1.35-6.5l0-.1c.52-1.32,1.05-2.69,1.45-4,1.29-4.27.8-7.46-1.47-9.48a9.54,9.54,0,0,0-5.79-2.13Zm6.58,29.86c-5,0-8.2-.88-10.11-2.73a6.42,6.42,0,0,1-1.88-4.76c0-2.8-.33-6-.62-8.81-.37-3.77-.7-7-.3-8.76s3.16-3.89,6.11-3.95h0c3.2.09,5.37,1,6.61,2.7s1.46,4.58.39,8.11c-.38,1.25-.86,2.56-1.32,3.83-1.05,2.84-2.12,5.77-1.48,6.78s3,1.48,4.84,1.48a14.94,14.94,0,0,0,5.09-.88,5.36,5.36,0,0,1,2.06-.38c1.19,0,3.41,0,4,1.59a2.63,2.63,0,0,1-.3,2.47c-1.35,2-5.34,3.11-11.85,3.29Zm-6.79-28.36c-2.62.06-5.15,1.93-5.49,3.44s0,5,.32,8.55c.28,2.83.6,6,.62,8.87a5.79,5.79,0,0,0,1.68,4.3c1.91,1.85,5.48,2.68,10.9,2.53,7.84-.22,10.49-1.75,11.34-3a2,2,0,0,0,.22-1.88c-.4-1.08-2-1.17-3.39-1.17a4.64,4.64,0,0,0-1.84.34,15.64,15.64,0,0,1-5.31.92c-1.71,0-4.61-.57-5.39-1.78s.22-4.09,1.42-7.35c.46-1.26.94-2.57,1.31-3.8,1-3.33.91-5.86-.3-7.54S359.41,410.39,356.43,410.31Z" style="fill:#f8b271"/><path d="M348.05,427.43c-.55-5.08-3.4-9.54-6.22-15s-9.59-3.82-12.37-1c-7.12,7.34-7.33,17.65-7.75,23.56s2.09,6.56,5.07,6.5c6.61-.12,4.31-3.45,4.41-5.94.07-1.7.73-1.87,1.81-1.92a44.69,44.69,0,0,0,5.15-.75c1.67-.35,1.5,1.95,1.47,3.85s.2,4,5,3.54,4.25-5.42,3.45-12.84m-10.63,2c-2.54.62-5.75,1.27-6.31.2s1.16-2.47.61-5.82c-.28-1.66-.55-3.1,1.17-3.52s3.27-1.12,4.13.79c1.24,2.73,2.94,7.72.4,8.35" style="fill:#1f6870"/><path d="M326.46,441.42a5.11,5.11,0,0,1-3.85-1.24c-1-1.07-1.42-2.91-1.22-5.61,0-.56.07-1.16.11-1.78.34-6,.86-14.94,7.4-21.67a10.39,10.39,0,0,1,8.33-2.85,6.4,6.4,0,0,1,4.89,3.57c.5,1,1,1.94,1.51,2.87,2.3,4.32,4.28,8.06,4.74,12.29h0c.58,5.36,1,9.6-.69,11.72a4.19,4.19,0,0,1-3.05,1.47c-2.13.21-3.58-.06-4.42-.84a3.78,3.78,0,0,1-.92-3v-.4c0-1.16.06-2.61-.44-3a.7.7,0,0,0-.64-.1,44,44,0,0,1-5.21.75c-1,.05-1.43.14-1.49,1.62a8.15,8.15,0,0,0,.15,1.6c.17,1.18.36,2.4-.42,3.32s-2.15,1.29-4.47,1.33Zm9.59-32.58a10,10,0,0,0-6.69,2.74c-6.36,6.55-6.88,15.39-7.21,21.24q-.06.94-.12,1.8c-.17,2.51.17,4.18,1.05,5.11a4.75,4.75,0,0,0,3.69,1c2.09,0,3.39-.4,4-1.1s.44-1.72.27-2.8a10.28,10.28,0,0,1-.15-1.73c.08-2,1-2.18,2.11-2.24a41.69,41.69,0,0,0,5.11-.74,1.34,1.34,0,0,1,1.18.24c.74.61.71,2.1.68,3.54v.39a3.28,3.28,0,0,0,.71,2.54c.69.64,2,.86,3.92.68a3.63,3.63,0,0,0,2.61-1.24c1.55-1.91,1.11-6,.54-11.24h0c-.44-4.1-2.4-7.78-4.67-12-.49-.94-1-1.9-1.51-2.89a5.75,5.75,0,0,0-4.41-3.21A6.39,6.39,0,0,0,336.05,408.84Zm-3.26,21.27c-1,0-1.68-.2-2-.74a2.42,2.42,0,0,1,.15-1.93,7.65,7.65,0,0,0,.42-4l0-.09c-.27-1.63-.55-3.32,1.43-3.79l.64-.16c1.48-.39,3-.8,3.87,1.13.76,1.67,2.42,5.78,1.45,7.77a1.85,1.85,0,0,1-1.27,1h0A22,22,0,0,1,332.79,430.11Zm2.47-10.38a7.36,7.36,0,0,0-1.65.3l-.64.17c-1.34.32-1.24,1.26-1,3.05l0,.1a8.09,8.09,0,0,1-.45,4.3c-.24.71-.35,1.1-.19,1.42.34.64,2.33.51,5.94-.37h0a1.2,1.2,0,0,0,.85-.68c.69-1.42-.31-4.66-1.46-7.22A1.5,1.5,0,0,0,335.26,419.73Z" style="fill:#f8b271"/><path d="M336.09,409.21c2.27,0,4.44.24,5.74,2.78,2.82,5.5,5.67,10,6.22,15,.8,7.42,1.32,12.37-3.45,12.84-.46,0-.88.07-1.26.07-3.56,0-3.75-1.9-3.72-3.61s.18-3.88-1.15-3.88l-.32,0a44.69,44.69,0,0,1-5.15.75c-1.08,0-1.74.22-1.81,1.92-.1,2.49,2.2,5.82-4.41,5.94h-.31c-2.84,0-5.16-.8-4.76-6.51a34.48,34.48,0,0,1,9.51-21.86c1.5-1.54,2.2-3.52,4.87-3.52m-2.39,21.55c1.3,0,2.94-1.12,4.5-1.5,2.54-.63.94-7.43-.72-9.73a4.67,4.67,0,0,0-2.73-1.76,17.64,17.64,0,0,0-2.88.73c-1.73.41-3.51,3.46-1.55,4.91,2.81,2.08-1.49,6.71-.93,7.79.22.42,2.56-.68,3.38-.68m3.28-22.61a11.23,11.23,0,0,0-7.61,3.1c-6.58,6.78-7.11,15.8-7.45,21.77,0,.62-.08,1.22-.12,1.78-.22,3.13.34,5.08,1.75,6.15a6.35,6.35,0,0,0,3.85,1h.33c2.17,0,3.66-.41,4.55-1.14,1.25-1,1-2.43.82-3.8a9,9,0,0,1-.14-1.58c.05-1.29.32-1.31,1-1.35a45.64,45.64,0,0,0,5.33-.76h.06c.4.31.36,2,.34,2.88v.39A3.7,3.7,0,0,0,340,439.7a5.6,5.6,0,0,0,3.3.83,13.38,13.38,0,0,0,1.37-.07c5.57-.55,5-5.69,4.17-13.47-.46-4.25-2.45-8-4.75-12.33-.5-.93-1-1.89-1.52-2.88a7.07,7.07,0,0,0-6.56-3.87m-3.28,21.28c-.23,0-.79,0-.87-.18s0-.72.2-1.33a8.26,8.26,0,0,0,.45-4.35l0-.1c-.29-1.76-.32-2.55.63-2.78l.66-.17a6.6,6.6,0,0,1,1.43-.28c.19,0,.59,0,1,.85,1.81,4,2.21,7.28.92,7.6a21.81,21.81,0,0,1-4.38.74" style="fill:#1f6870"/><path d="M326.47,442a6.66,6.66,0,0,1-4.05-1c-1.5-1.14-2.1-3.18-1.87-6.43,0-.56.07-1.16.11-1.78.35-6,.88-15.12,7.55-22a11.55,11.55,0,0,1,7.84-3.19,7.36,7.36,0,0,1,6.85,4c.47.91.94,1.79,1.39,2.65l.12.23c2.32,4.36,4.33,8.13,4.79,12.44.62,5.72,1.06,9.84-.78,12.11a5.12,5.12,0,0,1-3.68,1.73c-.48,0-.95.07-1.4.07a5.85,5.85,0,0,1-3.49-.9,4.09,4.09,0,0,1-1.4-3.65v-.39a7.75,7.75,0,0,0-.15-2.51,45.87,45.87,0,0,1-5.23.74c-.63,0-.68,0-.73,1a9.35,9.35,0,0,0,.13,1.41l0,.11c.21,1.38.45,3-.94,4.09-.95.78-2.51,1.18-4.76,1.22Zm9.58-33.78a10.87,10.87,0,0,0-7.37,3c-6.5,6.69-7,15.63-7.37,21.55,0,.65-.07,1.24-.11,1.8-.22,3,.3,4.88,1.62,5.87a6,6,0,0,0,3.65.92h.32c2.1,0,3.53-.39,4.36-1.07,1.1-.91.91-2.16.7-3.5v-.1a8.4,8.4,0,0,1-.14-1.54c.07-1.45.44-1.62,1.34-1.66a44.36,44.36,0,0,0,5.28-.76l.15,0,.18.08c.44.35.51,1.46.46,3.14v.39a3.41,3.41,0,0,0,1.13,3.12,5.3,5.3,0,0,0,3.11.77,12.41,12.41,0,0,0,1.34-.07,4.51,4.51,0,0,0,3.23-1.49c1.68-2.06,1.22-6.28.65-11.62-.45-4.2-2.43-7.91-4.72-12.22l-.12-.23c-.46-.86-.93-1.74-1.4-2.65A6.74,6.74,0,0,0,336.05,408.24Zm-9.51,32.48c-1.47,0-3,0-3.92-1s-1.17-2.55-1-5.14l.06-.9c.4-6,1-15,7.86-22.08a8.88,8.88,0,0,1,6.53-2.68c2.17,0,4.41.23,5.84,3,.53,1,1.06,2,1.58,3,2.27,4.24,4.23,7.91,4.68,12.09.78,7.24,1,12-3.52,12.74a3.4,3.4,0,0,0-.46.09,3.84,3.84,0,0,1-.81.11,4.31,4.31,0,0,1-3.17-.95,3.8,3.8,0,0,1-.77-2.91c0-1.78-.18-2.92-.63-3.38a.67.67,0,0,0-.49-.21l-.07,0a45.24,45.24,0,0,1-5.29.77c-.79.05-1.62.31-1.68,1.93a8.09,8.09,0,0,0,.14,1.54,3.25,3.25,0,0,1-.32,2.74c-.67.8-2.13,1.19-4.58,1.24Zm9.55-31.18A8.23,8.23,0,0,0,330,412c-6.69,6.89-7.29,15.79-7.68,21.68l-.07.9c-.16,2.36.1,3.88.82,4.65s1.8.82,3.38.82c2.26,0,3.61-.37,4.14-1s.33-1.32.18-2.22a8.37,8.37,0,0,1-.15-1.67c.07-1.63.82-2.47,2.3-2.55a43.4,43.4,0,0,0,5.17-.76.54.54,0,0,1,.2,0,1.31,1.31,0,0,1,1,.41c.59.6.85,1.82.82,3.84a3.24,3.24,0,0,0,.58,2.44,3.75,3.75,0,0,0,2.71.76,2.94,2.94,0,0,0,.67-.1l.5-.1c3.62-.56,3.84-4,3-12-.44-4.06-2.37-7.67-4.6-11.85-.52-1-1.06-2-1.59-3C340.09,409.74,338.14,409.54,336.09,409.54Zm-3.32,20.16c-.57,0-.89,0-1.16-.54a2.45,2.45,0,0,1,0-1.86,8.4,8.4,0,0,0,.22-3.84c-.05-.31-.12-.61-.18-.89-.27-1.22-.58-2.59,1.12-3l.63-.16a7.23,7.23,0,0,1,1.81-.33c.95,0,1.35.73,1.78,1.68,1.61,3.54,2.09,5.89,1.46,7.17a1.87,1.87,0,0,1-1.31,1l-.72.18a12.82,12.82,0,0,1-3.33.56h-.36Zm2.48-10a6.86,6.86,0,0,0-1.65.31l-.63.16c-1,.24-1,.77-.65,2.22.07.3.14.62.19.94a8.86,8.86,0,0,1-.24,4.1c-.17.68-.26,1.06-.08,1.4s.1.19.72.19h.22a12.76,12.76,0,0,0,3.17-.54l.73-.18a1.24,1.24,0,0,0,.88-.68c.52-1.09,0-3.32-1.47-6.62C336,420,335.73,419.73,335.25,419.73Zm-2,8.88a.75.75,0,0,1-.57-.33,1.21,1.21,0,0,1-.11-1.08,17.56,17.56,0,0,0,.15-4.06,7.51,7.51,0,0,0-.34-1.28c-.13-.39-.22-.67-.08-.93a1,1,0,0,1,.67-.4l.61-.16.27-.08a4.33,4.33,0,0,1,1.23-.17c.46-.07.71.14,1,.84,1,2.15,2,5,1.31,6.42a1.33,1.33,0,0,1-.89.73A12,12,0,0,1,333.29,428.61Zm2-7.87a.35.35,0,0,1-.14,0,3.36,3.36,0,0,0-1.06.15l-.26.07-.64.18a.78.78,0,0,0-.26.09s.08.21.14.39a9,9,0,0,1,.37,1.42,19,19,0,0,1-.18,4.34c-.11.34,0,.52.07.55a11.39,11.39,0,0,0,3.06-.47.7.7,0,0,0,.51-.4c.2-.43.49-1.85-1.32-5.86C335.36,420.81,335.27,420.75,335.26,420.74Z" style="fill:#f8b271"/><path d="M371.59,413a3.91,3.91,0,1,1,3.92-3.91A3.91,3.91,0,0,1,371.59,413Zm0-6.8a2.89,2.89,0,1,0,2.9,2.89A2.89,2.89,0,0,0,371.59,406.18Z" style="fill:#f8b271"/><path d="M371.59,412.78a3.71,3.71,0,1,1,3.71-3.71A3.72,3.72,0,0,1,371.59,412.78Zm0-6.81a3.1,3.1,0,1,0,3.1,3.1A3.1,3.1,0,0,0,371.59,406Z" style="fill:#f8b271"/><path d="M371.59,413a3.91,3.91,0,1,1,3.92-3.91A3.91,3.91,0,0,1,371.59,413Zm0-6.8a2.89,2.89,0,1,0,2.9,2.89A2.89,2.89,0,0,0,371.59,406.18Z" style="fill:#f8b271"/><path d="M371.59,412.78a3.71,3.71,0,1,1,3.71-3.71A3.72,3.72,0,0,1,371.59,412.78Zm0-6.81a3.1,3.1,0,1,0,3.1,3.1A3.1,3.1,0,0,0,371.59,406Z" style="fill:#1f6870"/><path d="M371.79,411.08a2,2,0,0,1-.81-.16,1.81,1.81,0,0,1-.63-.43,1.93,1.93,0,0,1-.42-.63,2.05,2.05,0,0,1-.16-.78,2.1,2.1,0,0,1,.16-.79,2,2,0,0,1,.42-.64,1.86,1.86,0,0,1,.63-.43,2,2,0,0,1,.82-.16,2.24,2.24,0,0,1,.91.17,2.11,2.11,0,0,1,.63.48l.12.14-.87.94-.15-.15a1.18,1.18,0,0,0-.31-.25.66.66,0,0,0-.34-.07.53.53,0,0,0-.25.05.75.75,0,0,0-.2.15.7.7,0,0,0-.13.24.73.73,0,0,0,0,.3.83.83,0,0,0,0,.32.58.58,0,0,0,.13.23.62.62,0,0,0,.49.21.67.67,0,0,0,.33-.07,1.72,1.72,0,0,0,.33-.24l.15-.13.85.86-.13.14a2.72,2.72,0,0,1-.63.5A2,2,0,0,1,371.79,411.08Z" style="fill:#f8b271"/><path d="M372.63,410.7a1.74,1.74,0,0,1-.84.18,2,2,0,0,1-.73-.14,1.92,1.92,0,0,1-.57-.39,1.7,1.7,0,0,1-.37-.57,1.65,1.65,0,0,1-.14-.7h0a1.65,1.65,0,0,1,.14-.7,1.85,1.85,0,0,1,.37-.58,1.73,1.73,0,0,1,.57-.38,2,2,0,0,1,1.56,0,1.79,1.79,0,0,1,.57.43l-.61.64a1.74,1.74,0,0,0-.34-.28,1,1,0,0,0-.45-.1.77.77,0,0,0-.34.08.73.73,0,0,0-.26.2.92.92,0,0,0-.18.3,1.15,1.15,0,0,0-.06.37h0a1.21,1.21,0,0,0,.06.38.92.92,0,0,0,.18.3.83.83,0,0,0,.28.21,1,1,0,0,0,.36.07.83.83,0,0,0,.43-.1,1.84,1.84,0,0,0,.37-.27l.58.58A2.14,2.14,0,0,1,372.63,410.7Z" style="fill:#1f6870"/></g><path d="M565.82,47.45a5.91,5.91,0,1,1,5.9-5.9A5.91,5.91,0,0,1,565.82,47.45Zm0-11.15a5.25,5.25,0,1,0,5.25,5.25A5.26,5.26,0,0,0,565.82,36.3Z" style="fill:#fff"/><path d="M563.15,40.47v-.19a.07.07,0,0,1,0-.05,2.56,2.56,0,0,1,.34-1.18,2.64,2.64,0,0,1,2-1.32l.24,0H566a2.18,2.18,0,0,1,.62.11,2.62,2.62,0,0,1,1.85,2c0,.1,0,.2,0,.3v.43s0,.08,0,.13a2.64,2.64,0,0,1-.29.9l-.35.58c-.65,1-1.31,2.09-2,3.14l0,0h0l0,0c-.21-.34-.43-.67-.65-1l-1.58-2.56a2.6,2.6,0,0,1-.39-1.08A1.79,1.79,0,0,1,563.15,40.47Zm4.08-.09a1.41,1.41,0,1,0-1.41,1.41A1.42,1.42,0,0,0,567.23,40.38Z" style="fill:#fff"/><path d="M565.82,41.31a.94.94,0,1,1,.94-.94A1,1,0,0,1,565.82,41.31Z" style="fill:#fff"/><path d="M569.22,26.57c-.39-.31-.79-.61-1.19-.91a.69.69,0,0,0-.56-.09.74.74,0,0,0-.35.26.91.91,0,0,1-.78.38,1.25,1.25,0,0,1-.7-.38l-.67-.68a1.14,1.14,0,0,1-.38-.7.87.87,0,0,1,.37-.78.85.85,0,0,0,.27-.34.72.72,0,0,0-.1-.57c-.3-.39-.6-.8-.91-1.19a.62.62,0,0,0-.62-.17,1.36,1.36,0,0,0-.46.3,2.53,2.53,0,0,0-.9,2.21,4.54,4.54,0,0,0,1.44,2.25l1,.95a4.54,4.54,0,0,0,2.25,1.44,2.58,2.58,0,0,0,2.21-.91,1.23,1.23,0,0,0,.3-.45A.63.63,0,0,0,569.22,26.57Z" style="fill:#fff"/><path d="M565.82,30.88a5.91,5.91,0,1,1,5.9-5.91A5.92,5.92,0,0,1,565.82,30.88Zm0-11.16A5.26,5.26,0,1,0,571.07,25,5.26,5.26,0,0,0,565.82,19.72Z" style="fill:#fff"/><path d="M563.83,58.05a5.38,5.38,0,0,0,.36,1.93,5.5,5.5,0,0,1,1.46-.23V57.93h-1.82Z" style="fill:#fff"/><path d="M563.85,57.6h1.8V56.35a5.94,5.94,0,0,1-1.46-.24A5.3,5.3,0,0,0,563.85,57.6Z" style="fill:#fff"/><path d="M565.65,62V60.08a5.77,5.77,0,0,0-1.32.21A4.48,4.48,0,0,0,565.65,62Z" style="fill:#fff"/><path d="M564.33,55.81a5.77,5.77,0,0,0,1.32.21V54.13A4.48,4.48,0,0,0,564.33,55.81Z" style="fill:#fff"/><path d="M568.11,57.6h1.83a4,4,0,0,0-1-2.23,5.22,5.22,0,0,1-1.22.63A5.81,5.81,0,0,1,568.11,57.6Z" style="fill:#fff"/><path d="M565.38,53.92a4.24,4.24,0,0,0-2.5,1.2,4.83,4.83,0,0,0,1.13.58A5.12,5.12,0,0,1,565.38,53.92Z" style="fill:#fff"/><path d="M563.88,56a5.25,5.25,0,0,1-1.22-.64,4.15,4.15,0,0,0-1,2.23h1.83A5.66,5.66,0,0,1,563.88,56Z" style="fill:#fff"/><path d="M564,60.4a4.83,4.83,0,0,0-1.13.58,4.17,4.17,0,0,0,2.5,1.19A5,5,0,0,1,564,60.4Z" style="fill:#fff"/><path d="M563.5,58.05v-.12h-1.83v.12a4.14,4.14,0,0,0,1,2.68,5.53,5.53,0,0,1,1.23-.64A5.56,5.56,0,0,1,563.5,58.05Z" style="fill:#fff"/><path d="M567.31,60.29a5.86,5.86,0,0,0-1.33-.21V62A4.6,4.6,0,0,0,567.31,60.29Z" style="fill:#fff"/><path d="M566.25,62.17a4.15,4.15,0,0,0,2.5-1.19,4.47,4.47,0,0,0-1.13-.58A4.89,4.89,0,0,1,566.25,62.17Z" style="fill:#fff"/><path d="M570,57.93h-1.83v.12a5.56,5.56,0,0,1-.38,2,5.25,5.25,0,0,1,1.22.64,4.1,4.1,0,0,0,1-2.68Z" style="fill:#fff"/><path d="M567.44,56.11a5.94,5.94,0,0,1-1.46.24V57.6h1.8A5.3,5.3,0,0,0,567.44,56.11Z" style="fill:#fff"/><path d="M566,54.13V56a5.86,5.86,0,0,0,1.33-.21A4.6,4.6,0,0,0,566,54.13Z" style="fill:#fff"/><path d="M567.81,58.05s0-.08,0-.12H566v1.82a5.94,5.94,0,0,1,1.46.24A5.23,5.23,0,0,0,567.81,58.05Z" style="fill:#fff"/><path d="M567.62,55.7a4.47,4.47,0,0,0,1.13-.58,4.15,4.15,0,0,0-2.5-1.19A4.89,4.89,0,0,1,567.62,55.7Z" style="fill:#fff"/><path d="M565.82,64a5.91,5.91,0,1,1,5.9-5.91A5.92,5.92,0,0,1,565.82,64Zm0-11.16a5.25,5.25,0,1,0,5.25,5.25A5.26,5.26,0,0,0,565.82,52.8Z" style="fill:#fff"/><path d="M565.81,78h-2.19a1,1,0,0,1-1-.73,1.17,1.17,0,0,1,0-.26V75c0-.18.11-.25.28-.16l2.73,1.42a.38.38,0,0,0,.41,0l2.72-1.42.09,0a.16.16,0,0,1,.2.17v1.82a3.77,3.77,0,0,1,0,.47,1,1,0,0,1-1,.82h-2.22Z" style="fill:#fff"/><path d="M565.8,73.22H568a1,1,0,0,1,.94.58c.07.12,0,.2-.09.27l-2.91,1.51a.25.25,0,0,1-.24,0l-2.92-1.53c-.11,0-.13-.12-.08-.23a1,1,0,0,1,.93-.6c.73,0,1.46,0,2.19,0h0Z" style="fill:#fff"/><path d="M565.82,81.54a5.91,5.91,0,1,1,5.9-5.91A5.92,5.92,0,0,1,565.82,81.54Zm0-11.16a5.25,5.25,0,1,0,5.25,5.25A5.26,5.26,0,0,0,565.82,70.38Z" style="fill:#fff"/></svg>